<?xml version="1.0" encoding="utf-8"?>
<!-- Generator: Adobe Illustrator 25.0.1, SVG Export Plug-In . SVG Version: 6.00 Build 0)  -->
<svg version="1.1" id="Capa_1" xmlns="http://www.w3.org/2000/svg" xmlns:xlink="http://www.w3.org/1999/xlink" x="0px" y="0px"
	 viewBox="0 0 512 512" style="enable-background:new 0 0 512 512;" xml:space="preserve">
<style type="text/css">
	.st0{fill:#EF0000;}
	.st1{fill:#FF9000;}
	.st2{fill:#FFDF00;}
	.st3{fill:#282C34;}
</style>
<g>
	<g>
		<g>
			<polygon class="st0" points="155.3,300.1 283.1,0 208,0 110.8,0 35.8,0 1.2,450.2 76.3,450.2 			"/>
		</g>
	</g>
	<g>
		<g>
			<polygon class="st1" points="230.4,300.1 358.1,0 283.1,0 185.8,0 110.8,0 76.3,450.2 151.3,450.2 			"/>
		</g>
	</g>
	<g>
		<g>
			<polygon class="st2" points="305.4,300.1 433.1,0 358.1,0 331.6,62.3 260.8,0 185.8,0 151.3,450.2 226.4,450.2 			"/>
		</g>
	</g>
	<g>
		<g>
			<polygon class="st3" points="510.8,0 433.1,0 305.4,300.1 338.4,0 260.8,0 226.4,450.2 304,450.2 			"/>
		</g>
	</g>
</g>
</svg>
