<svg class="main-svg" xmlns="http://www.w3.org/2000/svg" xmlns:xlink="http://www.w3.org/1999/xlink" width="750" height="900" style="" viewBox="0 0 750 900"><rect x="0" y="0" width="750" height="900" style="fill: rgb(255, 255, 255); fill-opacity: 1;"/><defs id="defs-efa706"><g class="clips"><clipPath id="clipefa706xyplot" class="plotclip"><rect width="619" height="225.95555555555555"/></clipPath><clipPath id="clipefa706x2y2plot" class="plotclip"><rect width="619" height="225.9555555555556"/></clipPath><clipPath id="clipefa706x3y3plot" class="plotclip"><rect width="619" height="225.95555555555555"/></clipPath><clipPath class="axesclip" id="clipefa706x"><rect x="101" y="0" width="619" height="900"/></clipPath><clipPath class="axesclip" id="clipefa706y"><rect x="0" y="104" width="750" height="225.95555555555555"/></clipPath><clipPath class="axesclip" id="clipefa706xy"><rect x="101" y="104" width="619" height="225.95555555555555"/></clipPath><clipPath class="axesclip" id="clipefa706y2"><rect x="0" y="363.0222222222222" width="750" height="225.9555555555556"/></clipPath><clipPath class="axesclip" id="clipefa706xy2"><rect x="101" y="363.0222222222222" width="619" height="225.9555555555556"/></clipPath><clipPath class="axesclip" id="clipefa706y3"><rect x="0" y="622.0444444444445" width="750" height="225.95555555555555"/></clipPath><clipPath class="axesclip" id="clipefa706xy3"><rect x="101" y="622.0444444444445" width="619" height="225.95555555555555"/></clipPath><clipPath class="axesclip" id="clipefa706x2"><rect x="101" y="0" width="619" height="900"/></clipPath><clipPath class="axesclip" id="clipefa706x2y"><rect x="101" y="104" width="619" height="225.95555555555555"/></clipPath><clipPath class="axesclip" id="clipefa706x2y2"><rect x="101" y="363.0222222222222" width="619" height="225.9555555555556"/></clipPath><clipPath class="axesclip" id="clipefa706x2y3"><rect x="101" y="622.0444444444445" width="619" height="225.95555555555555"/></clipPath><clipPath class="axesclip" id="clipefa706x3"><rect x="101" y="0" width="619" height="900"/></clipPath><clipPath class="axesclip" id="clipefa706x3y"><rect x="101" y="104" width="619" height="225.95555555555555"/></clipPath><clipPath class="axesclip" id="clipefa706x3y2"><rect x="101" y="363.0222222222222" width="619" height="225.9555555555556"/></clipPath><clipPath class="axesclip" id="clipefa706x3y3"><rect x="101" y="622.0444444444445" width="619" height="225.95555555555555"/></clipPath></g><g class="gradients"/></defs><g class="bglayer"><rect class="bg" x="101" y="104" width="619" height="225.95555555555555" style="fill: rgb(229, 236, 246); fill-opacity: 1; stroke-width: 0;"/><rect class="bg" x="101" y="363.0222222222222" width="619" height="225.9555555555556" style="fill: rgb(229, 236, 246); fill-opacity: 1; stroke-width: 0;"/><rect class="bg" x="101" y="622.0444444444445" width="619" height="225.95555555555555" style="fill: rgb(229, 236, 246); fill-opacity: 1; stroke-width: 0;"/></g><g class="layer-below"><g class="imagelayer"/><g class="shapelayer"/></g><g class="cartesianlayer"><g class="subplot xy"><g class="layer-subplot"><g class="shapelayer"/><g class="imagelayer"/></g><g class="gridlayer"><g class="x"><path class="xgrid crisp" transform="translate(170.04000000000002,0)" d="M0,104v225.95555555555555" style="stroke: rgb(255, 255, 255); stroke-opacity: 1; stroke-width: 1px;"/><path class="xgrid crisp" transform="translate(266.7,0)" d="M0,104v225.95555555555555" style="stroke: rgb(255, 255, 255); stroke-opacity: 1; stroke-width: 1px;"/><path class="xgrid crisp" transform="translate(363.11,0)" d="M0,104v225.95555555555555" style="stroke: rgb(255, 255, 255); stroke-opacity: 1; stroke-width: 1px;"/><path class="xgrid crisp" transform="translate(459.51,0)" d="M0,104v225.95555555555555" style="stroke: rgb(255, 255, 255); stroke-opacity: 1; stroke-width: 1px;"/><path class="xgrid crisp" transform="translate(555.9200000000001,0)" d="M0,104v225.95555555555555" style="stroke: rgb(255, 255, 255); stroke-opacity: 1; stroke-width: 1px;"/><path class="xgrid crisp" transform="translate(652.59,0)" d="M0,104v225.95555555555555" style="stroke: rgb(255, 255, 255); stroke-opacity: 1; stroke-width: 1px;"/></g><g class="y"><path class="ygrid crisp" transform="translate(0,246.8)" d="M101,0h619" style="stroke: rgb(255, 255, 255); stroke-opacity: 1; stroke-width: 1px;"/><path class="ygrid crisp" transform="translate(0,179.88)" d="M101,0h619" style="stroke: rgb(255, 255, 255); stroke-opacity: 1; stroke-width: 1px;"/><path class="ygrid crisp" transform="translate(0,112.96000000000001)" d="M101,0h619" style="stroke: rgb(255, 255, 255); stroke-opacity: 1; stroke-width: 1px;"/></g></g><g class="zerolinelayer"><path class="yzl zl crisp" transform="translate(0,313.71000000000004)" d="M101,0h619" style="stroke: rgb(255, 255, 255); stroke-opacity: 1; stroke-width: 2px;"/></g><path class="xlines-below"/><path class="ylines-below"/><g class="overlines-below"/><g class="xaxislayer-below"/><g class="yaxislayer-below"/><g class="overaxes-below"/><g class="plot" transform="translate(101, 104)" clip-path="url('#clipefa706xyplot')"><g class="scatterlayer mlayer"><g class="trace scatter trace66d9d8ed-76a7-46ef-a2f0-c3f94b69d1ef" style="stroke-miterlimit: 2; opacity: 1;"><g class="fills"/><g class="errorbars"/><g class="lines"><path class="js-line" d="M30.21,209.53L31.79,209.59L32.06,209.59L52.66,209.65L52.92,209.64L72.73,209.63L73,209.63L87.52,208.97L87.79,208.81L90.69,208.88L90.96,208.96L97.03,209.14L97.3,209.09L104.96,208.97L105.22,208.9L107.33,208.88L107.6,208.88L109.71,208.79L109.97,208.8L116.05,208.79L116.31,208.9L123.44,208.79L123.71,208.91L126.61,208.99L126.88,208.98L136.92,208.92L137.18,208.92L141.41,208.83L141.67,208.83L149.33,208.98L149.59,208.99L170.46,209.02L170.72,209.01L178.65,208.86L178.91,208.88L184.19,208.15L184.46,207.8L184.99,207.37L185.25,206.61L185.51,206.58L185.78,207.43L186.57,206.83L186.83,206.88L188.95,206.22L189.21,206.37L190.8,206.82L191.06,206.89L193.44,206.45L193.7,206.48L195.02,206.47L195.29,206.47L196.34,205.55L196.61,205.02L196.87,205.14L197.13,204.43L197.93,204.38L198.19,203.23L200.3,203.78L200.57,203.64L201.89,203.23L202.15,201.05L202.42,201.25L202.68,199.15L203.47,197L203.74,198.04L204.27,199.16L204.53,198.3L204.79,196.67L205.06,194.2L205.59,194.84L205.85,194.74L206.12,194.7L206.38,193.3L207.44,192.2L207.7,190.86L208.49,182.85L208.76,183.11L209.02,185.69L209.81,184.32L210.08,184.86L210.34,184.95L211.93,189.42L212.19,191.47L212.72,187.77L212.98,189.45L213.25,189.98L213.51,191.34L214.04,190.78L214.3,191.43L214.83,191.61L215.1,193.25L215.36,192.87L215.62,193.51L215.89,195.3L216.15,196.5L216.42,194.27L216.68,195.68L216.94,196.35L217.47,199.18L217.74,196.77L218,194.03L218.26,196.35L218.79,195.11L219.06,194.36L220.38,196.04L220.64,196.79L221.7,194.54L221.96,195L222.23,194.64L222.49,194.79L222.75,192.55L223.28,191.7L223.55,189.86L224.08,189.91L224.34,189.05L224.6,188.93L224.87,189.77L225.92,189.54L226.19,189.93L226.72,189.54L226.98,188.19L227.24,188.65L227.51,188.47L227.77,187.93L229.89,183.77L230.15,186.36L230.41,186.46L230.68,189.96L231.21,187.34L231.47,187.67L231.73,189.87L232.79,190.21L233.06,191.17L233.32,195.4L233.85,193.22L234.11,192.87L234.38,190.07L234.9,190.73L235.17,192.41L236.75,189.21L237.02,189.7L237.28,190.21L237.81,189.48L238.07,189.81L238.34,190.14L238.87,189.92L239.13,189.06L239.66,189.06L239.92,189.81L240.72,189.36L240.98,187.05L241.77,187.41L242.04,188.5L243.36,189.94L243.62,190.51L244.15,189.78L244.41,189.87L244.68,189.81L245.21,189.3L245.47,189.12L246,190.2L246.26,190.48L246.53,189.26L247.05,189.89L247.32,189.71L247.58,190L247.85,189.03L248.11,188.24L248.37,189.69L248.64,188.66L248.9,189.11L249.43,187.12L249.96,187.57L250.22,187.47L251.81,182.27L252.07,177.93L252.34,178.51L252.6,178.17L252.86,177.57L253.13,178.07L253.39,181.11L254.71,178.25L254.98,178.71L255.24,181.03L255.77,179.2L256.03,178.03L256.3,180.16L256.56,175.24L257.09,162.69L257.62,163.91L257.88,163.13L258.68,154.38L259.2,154.77L259.47,164.55L260.52,157.93L260.79,158.67L261.58,161.72L261.84,159.08L262.11,158.01L262.37,150.53L264.22,122.74L264.49,125.68L264.75,132.43L265.01,124.51L265.28,116.27L265.81,123.26L266.07,139.2L266.33,141.84L266.86,140.18L267.13,132.41L267.92,143.72L268.18,138.86L268.71,139.1L268.98,135.63L269.24,126.33L269.5,130.59L269.77,138.04L270.03,134.88L270.3,140.33L270.56,148.43L270.83,145.2L271.09,153.86L271.35,163.01L271.88,159.05L272.15,154.99L272.41,150.57L272.67,152.14L272.94,155.2L274.26,146.53L274.52,144.53L275.84,155.32L276.11,151.88L276.37,153.47L276.64,153.18L276.9,151.54L277.16,150.94L277.43,152.49L277.69,151.35L278.22,152.35L278.48,151.72L279.01,155.05L279.28,159.34L280.07,163.75L280.33,161.31L282.18,173.67L282.45,172.46L282.71,172.43L282.97,172.12L283.24,173.6L283.5,173.6L283.77,174.49L284.03,174.63L284.3,176.93L285.09,183.89L285.62,183.18L285.88,184.31L286.14,183.86L286.41,181.82L287.2,184.94L287.46,183.93L288.52,180.9L288.79,176.73L289.31,176.16L289.58,174.13L290.11,176.06L290.37,174.6L290.63,171.71L291.95,162.33L292.22,168.53L293.28,163.62L293.54,164.88L294.07,163.73L294.33,157.55L294.6,157.14L294.86,155.1L296.44,164.24L296.71,163.81L296.97,160.63L297.24,160.83L297.5,162.28L297.77,162.4L298.03,164.7L298.82,161.84L299.09,162.92L299.35,166.37L299.61,170.66L300.14,170.45L300.41,170.41L300.94,175.18L301.2,171.88L301.46,172.27L301.73,171.06L302.26,170.11L302.52,168.34L302.78,170.03L303.31,169.09L303.58,169.22L304.1,169.73L304.37,174.48L304.63,174.03L304.9,176.47L305.16,177.76L305.43,174.93L305.69,176.86L306.22,176.23L306.48,174.99L306.75,173.72L307.27,174.42L307.54,178.54L307.8,177.96L308.07,179.09L308.33,178.91L309.12,181.45L309.39,180.54L310.18,177.91L310.44,178.65L310.71,178.44L311.5,176.81L311.76,176.98L312.03,177.82L312.82,180.93L313.08,180.67L313.61,179.61L313.88,177.55L314.14,176.19L314.41,177.56L314.67,178.29L314.93,179.55L315.46,178.96L315.73,179.54L315.99,177.64L316.52,178.66L316.78,178.29L317.57,179.13L317.84,180.68L318.9,182.46L319.16,182.24L319.42,182.5L319.69,184.27L321.54,191.05L321.8,190.82L322.06,190.44L322.33,188.59L323.65,191.56L323.91,191.17L325.23,189.87L325.5,190.35L326.03,190.78L326.29,189.95L327.08,190.59L327.35,194.17L327.88,195.18L328.14,196.47L328.93,197.33L329.2,197.45L329.99,194.79L330.25,194.95L330.52,196.47L332.1,193.36L332.37,194.41L332.89,195.27L333.16,194.42L333.42,194.83L333.95,194.13L334.21,194.27L334.48,194.51L335.01,194.84L335.27,194.48L335.54,194.65L336.59,194.61L336.86,197.03L338.18,195.65L338.44,195.86L339.5,195.99L339.76,196.06L343.46,195.72L343.72,195.1L345.57,195.87L345.84,197.58L346.89,197.87L347.16,199.73L348.21,201.46L348.48,202.12L349.8,201.85L350.06,202.14L350.59,201.93L350.85,202.43L351.38,202.86L351.65,203.57L353.23,203.65L353.5,203.92L354.29,204.01L354.55,203.35L356.4,200.33L356.66,201.03L356.93,200.89L357.19,201.91L357.46,200.5L357.72,200.48L358.51,200.29L358.78,199.34L359.04,199.74L359.57,199.3L359.83,199.16L361.68,201.89L361.95,201.08L363,201.62L363.27,201.38L364.32,201.86L364.59,201.86L368.29,202.72L368.55,201.73L370.66,201.47L370.93,200.77L371.72,199.71L371.98,199.94L372.51,199.09L372.78,200.62L373.83,200.56L374.1,200.58L374.89,201.16L375.15,200.49L375.42,200.43L377.79,200.5L378.06,200.19L379.91,200.46L380.17,200.55L381.23,200.39L381.49,200.18L382.28,200.22L382.55,198.74L383.61,198.61L383.87,198.04L384.66,197.85L384.93,198.64L386.51,198.54L386.77,198.08L388.36,198.62L388.62,199.38L392.59,198.13L392.85,196.71L393.11,197.18L393.38,196.54L393.64,195.18L394.17,192.05L394.43,193.4L394.7,194.02L394.96,192.23L395.49,192.64L395.75,193.34L396.55,192.87L396.81,191.84L397.6,191.68L397.87,192.59L398.66,191.63L398.92,192.81L399.19,193.56L399.72,193.02L399.98,192.92L400.51,194.12L400.77,193.15L401.04,193.27L401.3,192.26L401.57,192.57L401.83,192.04L402.09,191.71L403.41,191.53L403.68,189.98L405,187.18L405.26,190.02L405.79,188.3L406.06,190.26L406.85,189.43L407.11,190.67L407.64,190.47L407.9,189.26L408.17,188.75L408.43,189.04L408.7,190.31L410.28,196.39L410.55,195.56L411.34,194.38L411.6,194.62L412.13,195.48L412.39,195.19L412.66,195.02L412.92,195.02L413.19,195.84L415.04,194.83L415.3,194.81L415.56,194.04L416.09,194.57L416.36,194.93L416.88,195.88L417.15,195.25L417.41,195.58L417.68,195.75L417.94,197.23L419,196.7L419.26,196.12L419.79,197.21L420.32,196.69L420.58,196.91L422.7,198.23L422.96,197.78L423.75,198.06L424.02,198.34L425.07,197.68L425.34,197.75L426.66,196.52L426.92,195.76L427.98,195.29L428.24,195.56L429.3,198.56L429.56,198.02L431.94,198.13L432.2,197.59L433,196.89L433.26,197.5L436.69,198.86L436.96,197.57L437.75,197.49L438.01,196.98L439.07,197.41L439.34,197.51L440.39,197.14L440.66,197.39L442.24,197.27L442.5,197.63L443.3,197.63L443.56,197.84L443.83,197.96L444.09,198.91L444.88,200.16L445.15,199.91L445.41,199.75L446.47,199.51L446.73,199.6L448.32,199.76L448.58,199.59L451.48,201.06L451.75,201.08L453.86,201.13L454.13,200.7L455.45,200.74L455.71,200.68L458.09,200.06L458.35,198.61L460.46,198.45L460.73,198.81L461.79,198.28L462.05,197.91L462.84,197.66L463.11,197.42L464.43,195.51L464.69,194.81L465.48,194.76L465.75,193.93L466.54,190.7L466.8,192L467.07,192.32L467.33,191.89L467.6,190.85L468.12,192.45L468.39,191.94L468.65,192.16L468.92,191.4L469.18,191.97L469.45,193.13L470.5,195L470.77,195.06L471.03,194.29L471.56,194.69L471.82,194.37L472.09,193.42L472.35,193.8L472.61,196.29L473.41,196.67L473.67,202.2L473.94,200.8L474.46,201.34L474.73,202.31L475.26,202.03L475.52,200.57L476.31,201.46L476.58,200.69L476.84,200.43L478.69,200.78L478.95,200.64L481.07,198.28L481.33,199.11L482.65,199.46L482.92,198.19L483.44,197.21L483.71,197.56L483.97,198.19L484.5,197.5L484.76,197.33L487.14,195.31L487.41,195.6L488.2,196.06L488.46,195.51L488.73,195.46L488.99,195.55L489.25,197.09L489.78,197.05L490.05,196.39L491.63,195.43L491.9,195.66L492.16,196.34L492.69,195.75L492.95,196.17L494.27,194.95L494.54,193.5L494.8,194.26L495.06,193.19L495.33,193.84L495.59,193.37L497.44,193.16L497.71,194.21L498.23,193.73L498.5,194.05L498.76,194.33L499.56,194.18L499.82,194.52L500.88,193.38L501.14,193.94L501.4,194.13L502.72,194.57L502.99,194.25L504.05,194.48L504.31,193.55L505.63,193.69L505.89,193.51L507.48,193.96L507.74,193.76L508.01,193.91L508.27,193.32L508.54,192.17L511.7,183.86L511.97,183.62L512.23,182.84L512.5,183.28L512.76,184.32L513.55,183.22L513.82,184.26L514.61,180.44L515.14,180.69L515.4,180.97L515.93,182.51L516.19,181.85L516.46,183.68L517.25,182.4L517.52,184.02L518.57,182.95L518.84,181.05L519.1,180.6L519.36,177.79L520.42,187.28L520.68,186.07L520.95,186.11L521.21,187.12L521.48,186.22L521.74,185.08L522.27,183.81L522.53,185.25L522.8,184.47L523.06,185.3L523.33,185.24L523.59,183.68L524.12,183.91L524.38,184.88L525.17,188.26L525.44,186.34L527.02,185.62L527.29,186.08L527.82,186.47L528.08,186.08L528.34,186.01L528.87,186.82L529.14,186.2L529.67,184.89L530.99,184.46L531.25,185.21L532.04,184.29L532.31,185.01L533.36,182.11L533.63,182.53L534.68,183.84L534.95,184.1L535.48,183.19L535.74,184.07L536.27,182.8L536.53,182.01L536.8,179.29L537.32,179.36L537.59,179.99L538.65,177.95L538.91,178.92L539.17,179.76L539.44,178.94L539.7,177.57L540.23,178.15L540.49,175.6L541.29,169L541.55,169.3L541.81,171.53L542.34,175.08L542.61,173.7L542.87,171.19L543.14,168.57L543.66,169.67L543.93,168.45L544.19,171.61L544.72,169.44L544.98,170.11L546.04,173.19L546.3,171.67L548.15,165.6L548.42,167L549.21,170.65L549.47,168.79L550.27,164.03L550.53,160.84L550.79,160.76L551.06,159.42L551.59,160.84L551.85,157.88L553.17,127.69L553.44,127.79L553.7,123.99L553.96,125.25L554.23,136.76L554.49,139.89L554.76,134.05L555.55,127.17L555.81,127.39L556.08,125.58L556.34,117.55L556.61,117.21L556.87,134.66L557.66,116.59L557.93,121.09L558.19,118.9L558.45,125.85L558.72,122.85L558.98,117.2L559.25,117.63L559.51,121.72L560.04,108.32L560.3,98.57L560.57,103L560.83,94.7L561.36,101.69L561.62,92.83L562.15,92.99L562.68,86.35L562.94,88.32L563.21,88.92L563.47,90.61L563.74,90.53L564,86.02L564.53,78.54L564.79,81.26L565.06,80.19L566.38,112.95L566.64,112.02L566.91,114.95L567.17,105.01L567.43,109.83L567.7,104.26L567.96,106.53L568.23,107.11L569.28,84.71L569.55,89.32L569.81,87.51L570.08,91.13L570.34,80.92L570.6,85.61L570.87,89.82L571.4,87.69L571.66,90.41L571.92,88.08L572.45,90.05L572.72,96.53L572.98,97.38L573.25,103.09L573.51,102.96L573.77,95.76L574.04,94.85L574.3,96.53L574.57,87.94L575.09,81.34L575.36,77.4L575.62,66.29L576.15,69.65L576.41,68.66L576.68,67.96L576.94,77.81L578,65.33L578.26,66.55L579.06,41.14L579.32,46.97L579.58,52.8L580.11,64.76L580.38,53.78L580.9,48.87L581.17,51.55L581.43,61.72L583.55,11.3" style="vector-effect: non-scaling-stroke; fill: none; stroke: rgb(31, 119, 180); stroke-opacity: 1; stroke-width: 2px; opacity: 1;"/></g><g class="points"/><g class="text"/></g><g class="trace scatter trace38345f2d-11a4-40c4-b6ca-16e249524fde" style="stroke-miterlimit: 2; opacity: 1;"><g class="fills"/><g class="errorbars"/><g class="lines"/><g class="points"><path class="point plotly-customdata" transform="translate(35.49,209.64)" d="M-4.62,2H4.62L0,-4Z" style="opacity: 1; stroke-width: 1px; fill: rgb(55, 177, 63); fill-opacity: 1; stroke: rgb(38, 123, 44); stroke-opacity: 1;"/><path class="point plotly-customdata" transform="translate(37.87,209.63)" d="M-4.62,2H4.62L0,-4Z" style="opacity: 1; stroke-width: 1px; fill: rgb(55, 177, 63); fill-opacity: 1; stroke: rgb(38, 123, 44); stroke-opacity: 1;"/><path class="point plotly-customdata" transform="translate(51.87,209.65)" d="M-4.62,2H4.62L0,-4Z" style="opacity: 1; stroke-width: 1px; fill: rgb(55, 177, 63); fill-opacity: 1; stroke: rgb(38, 123, 44); stroke-opacity: 1;"/><path class="point plotly-customdata" transform="translate(58.47,209.65)" d="M-4.62,2H4.62L0,-4Z" style="opacity: 1; stroke-width: 1px; fill: rgb(55, 177, 63); fill-opacity: 1; stroke: rgb(38, 123, 44); stroke-opacity: 1;"/><path class="point plotly-customdata" transform="translate(64.28,209.65)" d="M-4.62,2H4.62L0,-4Z" style="opacity: 1; stroke-width: 1px; fill: rgb(55, 177, 63); fill-opacity: 1; stroke: rgb(38, 123, 44); stroke-opacity: 1;"/><path class="point plotly-customdata" transform="translate(69.83,209.65)" d="M-4.62,2H4.62L0,-4Z" style="opacity: 1; stroke-width: 1px; fill: rgb(55, 177, 63); fill-opacity: 1; stroke: rgb(38, 123, 44); stroke-opacity: 1;"/><path class="point plotly-customdata" transform="translate(93.86,208.97)" d="M-4.62,2H4.62L0,-4Z" style="opacity: 1; stroke-width: 1px; fill: rgb(55, 177, 63); fill-opacity: 1; stroke: rgb(38, 123, 44); stroke-opacity: 1;"/><path class="point plotly-customdata" transform="translate(102.05,209.06)" d="M-4.62,2H4.62L0,-4Z" style="opacity: 1; stroke-width: 1px; fill: rgb(55, 177, 63); fill-opacity: 1; stroke: rgb(38, 123, 44); stroke-opacity: 1;"/><path class="point plotly-customdata" transform="translate(110.5,208.78)" d="M-4.62,2H4.62L0,-4Z" style="opacity: 1; stroke-width: 1px; fill: rgb(55, 177, 63); fill-opacity: 1; stroke: rgb(38, 123, 44); stroke-opacity: 1;"/><path class="point plotly-customdata" transform="translate(122.12,208.88)" d="M-4.62,2H4.62L0,-4Z" style="opacity: 1; stroke-width: 1px; fill: rgb(55, 177, 63); fill-opacity: 1; stroke: rgb(38, 123, 44); stroke-opacity: 1;"/><path class="point plotly-customdata" transform="translate(129.26,208.97)" d="M-4.62,2H4.62L0,-4Z" style="opacity: 1; stroke-width: 1px; fill: rgb(55, 177, 63); fill-opacity: 1; stroke: rgb(38, 123, 44); stroke-opacity: 1;"/><path class="point plotly-customdata" transform="translate(133.22,208.93)" d="M-4.62,2H4.62L0,-4Z" style="opacity: 1; stroke-width: 1px; fill: rgb(55, 177, 63); fill-opacity: 1; stroke: rgb(38, 123, 44); stroke-opacity: 1;"/><path class="point plotly-customdata" transform="translate(161.21,209.19)" d="M-4.62,2H4.62L0,-4Z" style="opacity: 1; stroke-width: 1px; fill: rgb(55, 177, 63); fill-opacity: 1; stroke: rgb(38, 123, 44); stroke-opacity: 1;"/><path class="point plotly-customdata" transform="translate(166.23,209.06)" d="M-4.62,2H4.62L0,-4Z" style="opacity: 1; stroke-width: 1px; fill: rgb(55, 177, 63); fill-opacity: 1; stroke: rgb(38, 123, 44); stroke-opacity: 1;"/><path class="point plotly-customdata" transform="translate(171.52,208.99)" d="M-4.62,2H4.62L0,-4Z" style="opacity: 1; stroke-width: 1px; fill: rgb(55, 177, 63); fill-opacity: 1; stroke: rgb(38, 123, 44); stroke-opacity: 1;"/><path class="point plotly-customdata" transform="translate(193.97,206.32)" d="M-4.62,2H4.62L0,-4Z" style="opacity: 1; stroke-width: 1px; fill: rgb(55, 177, 63); fill-opacity: 1; stroke: rgb(38, 123, 44); stroke-opacity: 1;"/><path class="point plotly-customdata" transform="translate(220.11,196.07)" d="M-4.62,2H4.62L0,-4Z" style="opacity: 1; stroke-width: 1px; fill: rgb(55, 177, 63); fill-opacity: 1; stroke: rgb(38, 123, 44); stroke-opacity: 1;"/><path class="point plotly-customdata" transform="translate(223.02,192.21)" d="M-4.62,2H4.62L0,-4Z" style="opacity: 1; stroke-width: 1px; fill: rgb(55, 177, 63); fill-opacity: 1; stroke: rgb(38, 123, 44); stroke-opacity: 1;"/><path class="point plotly-customdata" transform="translate(236.49,190.48)" d="M-4.62,2H4.62L0,-4Z" style="opacity: 1; stroke-width: 1px; fill: rgb(55, 177, 63); fill-opacity: 1; stroke: rgb(38, 123, 44); stroke-opacity: 1;"/><path class="point plotly-customdata" transform="translate(247.58,190)" d="M-4.62,2H4.62L0,-4Z" style="opacity: 1; stroke-width: 1px; fill: rgb(55, 177, 63); fill-opacity: 1; stroke: rgb(38, 123, 44); stroke-opacity: 1;"/><path class="point plotly-customdata" transform="translate(262.11,158.01)" d="M-4.62,2H4.62L0,-4Z" style="opacity: 1; stroke-width: 1px; fill: rgb(55, 177, 63); fill-opacity: 1; stroke: rgb(38, 123, 44); stroke-opacity: 1;"/><path class="point plotly-customdata" transform="translate(270.83,145.2)" d="M-4.62,2H4.62L0,-4Z" style="opacity: 1; stroke-width: 1px; fill: rgb(55, 177, 63); fill-opacity: 1; stroke: rgb(38, 123, 44); stroke-opacity: 1;"/><path class="point plotly-customdata" transform="translate(275.05,146.55)" d="M-4.62,2H4.62L0,-4Z" style="opacity: 1; stroke-width: 1px; fill: rgb(55, 177, 63); fill-opacity: 1; stroke: rgb(38, 123, 44); stroke-opacity: 1;"/><path class="point plotly-customdata" transform="translate(289.31,176.16)" d="M-4.62,2H4.62L0,-4Z" style="opacity: 1; stroke-width: 1px; fill: rgb(55, 177, 63); fill-opacity: 1; stroke: rgb(38, 123, 44); stroke-opacity: 1;"/><path class="point plotly-customdata" transform="translate(304.1,169.73)" d="M-4.62,2H4.62L0,-4Z" style="opacity: 1; stroke-width: 1px; fill: rgb(55, 177, 63); fill-opacity: 1; stroke: rgb(38, 123, 44); stroke-opacity: 1;"/><path class="point plotly-customdata" transform="translate(312.03,177.82)" d="M-4.62,2H4.62L0,-4Z" style="opacity: 1; stroke-width: 1px; fill: rgb(55, 177, 63); fill-opacity: 1; stroke: rgb(38, 123, 44); stroke-opacity: 1;"/><path class="point plotly-customdata" transform="translate(315.73,179.54)" d="M-4.62,2H4.62L0,-4Z" style="opacity: 1; stroke-width: 1px; fill: rgb(55, 177, 63); fill-opacity: 1; stroke: rgb(38, 123, 44); stroke-opacity: 1;"/><path class="point plotly-customdata" transform="translate(326.82,190.36)" d="M-4.62,2H4.62L0,-4Z" style="opacity: 1; stroke-width: 1px; fill: rgb(55, 177, 63); fill-opacity: 1; stroke: rgb(38, 123, 44); stroke-opacity: 1;"/><path class="point plotly-customdata" transform="translate(332.1,193.36)" d="M-4.62,2H4.62L0,-4Z" style="opacity: 1; stroke-width: 1px; fill: rgb(55, 177, 63); fill-opacity: 1; stroke: rgb(38, 123, 44); stroke-opacity: 1;"/><path class="point plotly-customdata" transform="translate(341.87,196.49)" d="M-4.62,2H4.62L0,-4Z" style="opacity: 1; stroke-width: 1px; fill: rgb(55, 177, 63); fill-opacity: 1; stroke: rgb(38, 123, 44); stroke-opacity: 1;"/><path class="point plotly-customdata" transform="translate(343.99,195.18)" d="M-4.62,2H4.62L0,-4Z" style="opacity: 1; stroke-width: 1px; fill: rgb(55, 177, 63); fill-opacity: 1; stroke: rgb(38, 123, 44); stroke-opacity: 1;"/><path class="point plotly-customdata" transform="translate(355.87,201.9)" d="M-4.62,2H4.62L0,-4Z" style="opacity: 1; stroke-width: 1px; fill: rgb(55, 177, 63); fill-opacity: 1; stroke: rgb(38, 123, 44); stroke-opacity: 1;"/><path class="point plotly-customdata" transform="translate(369.34,201.6)" d="M-4.62,2H4.62L0,-4Z" style="opacity: 1; stroke-width: 1px; fill: rgb(55, 177, 63); fill-opacity: 1; stroke: rgb(38, 123, 44); stroke-opacity: 1;"/><path class="point plotly-customdata" transform="translate(377.79,200.5)" d="M-4.62,2H4.62L0,-4Z" style="opacity: 1; stroke-width: 1px; fill: rgb(55, 177, 63); fill-opacity: 1; stroke: rgb(38, 123, 44); stroke-opacity: 1;"/><path class="point plotly-customdata" transform="translate(387.83,198.21)" d="M-4.62,2H4.62L0,-4Z" style="opacity: 1; stroke-width: 1px; fill: rgb(55, 177, 63); fill-opacity: 1; stroke: rgb(38, 123, 44); stroke-opacity: 1;"/><path class="point plotly-customdata" transform="translate(392.32,198.32)" d="M-4.62,2H4.62L0,-4Z" style="opacity: 1; stroke-width: 1px; fill: rgb(55, 177, 63); fill-opacity: 1; stroke: rgb(38, 123, 44); stroke-opacity: 1;"/><path class="point plotly-customdata" transform="translate(402.89,191.98)" d="M-4.62,2H4.62L0,-4Z" style="opacity: 1; stroke-width: 1px; fill: rgb(55, 177, 63); fill-opacity: 1; stroke: rgb(38, 123, 44); stroke-opacity: 1;"/><path class="point plotly-customdata" transform="translate(416.09,194.57)" d="M-4.62,2H4.62L0,-4Z" style="opacity: 1; stroke-width: 1px; fill: rgb(55, 177, 63); fill-opacity: 1; stroke: rgb(38, 123, 44); stroke-opacity: 1;"/><path class="point plotly-customdata" transform="translate(425.86,197.6)" d="M-4.62,2H4.62L0,-4Z" style="opacity: 1; stroke-width: 1px; fill: rgb(55, 177, 63); fill-opacity: 1; stroke: rgb(38, 123, 44); stroke-opacity: 1;"/><path class="point plotly-customdata" transform="translate(433.26,197.5)" d="M-4.62,2H4.62L0,-4Z" style="opacity: 1; stroke-width: 1px; fill: rgb(55, 177, 63); fill-opacity: 1; stroke: rgb(38, 123, 44); stroke-opacity: 1;"/><path class="point plotly-customdata" transform="translate(438.54,197.4)" d="M-4.62,2H4.62L0,-4Z" style="opacity: 1; stroke-width: 1px; fill: rgb(55, 177, 63); fill-opacity: 1; stroke: rgb(38, 123, 44); stroke-opacity: 1;"/><path class="point plotly-customdata" transform="translate(455.71,200.68)" d="M-4.62,2H4.62L0,-4Z" style="opacity: 1; stroke-width: 1px; fill: rgb(55, 177, 63); fill-opacity: 1; stroke: rgb(38, 123, 44); stroke-opacity: 1;"/><path class="point plotly-customdata" transform="translate(478.43,200.82)" d="M-4.62,2H4.62L0,-4Z" style="opacity: 1; stroke-width: 1px; fill: rgb(55, 177, 63); fill-opacity: 1; stroke: rgb(38, 123, 44); stroke-opacity: 1;"/><path class="point plotly-customdata" transform="translate(492.42,195.85)" d="M-4.62,2H4.62L0,-4Z" style="opacity: 1; stroke-width: 1px; fill: rgb(55, 177, 63); fill-opacity: 1; stroke: rgb(38, 123, 44); stroke-opacity: 1;"/><path class="point plotly-customdata" transform="translate(504.84,193.21)" d="M-4.62,2H4.62L0,-4Z" style="opacity: 1; stroke-width: 1px; fill: rgb(55, 177, 63); fill-opacity: 1; stroke: rgb(38, 123, 44); stroke-opacity: 1;"/><path class="point plotly-customdata" transform="translate(520.16,183.73)" d="M-4.62,2H4.62L0,-4Z" style="opacity: 1; stroke-width: 1px; fill: rgb(55, 177, 63); fill-opacity: 1; stroke: rgb(38, 123, 44); stroke-opacity: 1;"/><path class="point plotly-customdata" transform="translate(524.65,186.84)" d="M-4.62,2H4.62L0,-4Z" style="opacity: 1; stroke-width: 1px; fill: rgb(55, 177, 63); fill-opacity: 1; stroke: rgb(38, 123, 44); stroke-opacity: 1;"/><path class="point plotly-customdata" transform="translate(529.67,184.89)" d="M-4.62,2H4.62L0,-4Z" style="opacity: 1; stroke-width: 1px; fill: rgb(55, 177, 63); fill-opacity: 1; stroke: rgb(38, 123, 44); stroke-opacity: 1;"/><path class="point plotly-customdata" transform="translate(547.89,165.9)" d="M-4.62,2H4.62L0,-4Z" style="opacity: 1; stroke-width: 1px; fill: rgb(55, 177, 63); fill-opacity: 1; stroke: rgb(38, 123, 44); stroke-opacity: 1;"/><path class="point plotly-customdata" transform="translate(569.81,87.51)" d="M-4.62,2H4.62L0,-4Z" style="opacity: 1; stroke-width: 1px; fill: rgb(55, 177, 63); fill-opacity: 1; stroke: rgb(38, 123, 44); stroke-opacity: 1;"/><path class="point plotly-customdata" transform="translate(575.62,66.29)" d="M-4.62,2H4.62L0,-4Z" style="opacity: 1; stroke-width: 1px; fill: rgb(55, 177, 63); fill-opacity: 1; stroke: rgb(38, 123, 44); stroke-opacity: 1;"/></g><g class="text"/></g><g class="trace scatter trace14390620-4f41-42b5-aded-e6e6bd84cbf1" style="stroke-miterlimit: 2; opacity: 1;"><g class="fills"/><g class="errorbars"/><g class="lines"/><g class="points"><path class="point plotly-customdata" transform="translate(35.76,209.64)" d="M-4.62,-2H4.62L0,4Z" style="opacity: 1; stroke-width: 1px; fill: rgb(234, 67, 53); fill-opacity: 1; stroke: rgb(181, 31, 18); stroke-opacity: 1;"/><path class="point plotly-customdata" transform="translate(39.45,209.65)" d="M-4.62,-2H4.62L0,4Z" style="opacity: 1; stroke-width: 1px; fill: rgb(234, 67, 53); fill-opacity: 1; stroke: rgb(181, 31, 18); stroke-opacity: 1;"/><path class="point plotly-customdata" transform="translate(56.09,209.65)" d="M-4.62,-2H4.62L0,4Z" style="opacity: 1; stroke-width: 1px; fill: rgb(234, 67, 53); fill-opacity: 1; stroke: rgb(181, 31, 18); stroke-opacity: 1;"/><path class="point plotly-customdata" transform="translate(59.79,209.66)" d="M-4.62,-2H4.62L0,4Z" style="opacity: 1; stroke-width: 1px; fill: rgb(234, 67, 53); fill-opacity: 1; stroke: rgb(181, 31, 18); stroke-opacity: 1;"/><path class="point plotly-customdata" transform="translate(67.45,209.66)" d="M-4.62,-2H4.62L0,4Z" style="opacity: 1; stroke-width: 1px; fill: rgb(234, 67, 53); fill-opacity: 1; stroke: rgb(181, 31, 18); stroke-opacity: 1;"/><path class="point plotly-customdata" transform="translate(90.96,208.96)" d="M-4.62,-2H4.62L0,4Z" style="opacity: 1; stroke-width: 1px; fill: rgb(234, 67, 53); fill-opacity: 1; stroke: rgb(181, 31, 18); stroke-opacity: 1;"/><path class="point plotly-customdata" transform="translate(94.92,209.06)" d="M-4.62,-2H4.62L0,4Z" style="opacity: 1; stroke-width: 1px; fill: rgb(234, 67, 53); fill-opacity: 1; stroke: rgb(181, 31, 18); stroke-opacity: 1;"/><path class="point plotly-customdata" transform="translate(109.71,208.79)" d="M-4.62,-2H4.62L0,4Z" style="opacity: 1; stroke-width: 1px; fill: rgb(234, 67, 53); fill-opacity: 1; stroke: rgb(181, 31, 18); stroke-opacity: 1;"/><path class="point plotly-customdata" transform="translate(115.26,208.76)" d="M-4.62,-2H4.62L0,4Z" style="opacity: 1; stroke-width: 1px; fill: rgb(234, 67, 53); fill-opacity: 1; stroke: rgb(181, 31, 18); stroke-opacity: 1;"/><path class="point plotly-customdata" transform="translate(125.56,209.13)" d="M-4.62,-2H4.62L0,4Z" style="opacity: 1; stroke-width: 1px; fill: rgb(234, 67, 53); fill-opacity: 1; stroke: rgb(181, 31, 18); stroke-opacity: 1;"/><path class="point plotly-customdata" transform="translate(130.84,208.97)" d="M-4.62,-2H4.62L0,4Z" style="opacity: 1; stroke-width: 1px; fill: rgb(234, 67, 53); fill-opacity: 1; stroke: rgb(181, 31, 18); stroke-opacity: 1;"/><path class="point plotly-customdata" transform="translate(142.73,208.85)" d="M-4.62,-2H4.62L0,4Z" style="opacity: 1; stroke-width: 1px; fill: rgb(234, 67, 53); fill-opacity: 1; stroke: rgb(181, 31, 18); stroke-opacity: 1;"/><path class="point plotly-customdata" transform="translate(163.06,209.21)" d="M-4.62,-2H4.62L0,4Z" style="opacity: 1; stroke-width: 1px; fill: rgb(234, 67, 53); fill-opacity: 1; stroke: rgb(181, 31, 18); stroke-opacity: 1;"/><path class="point plotly-customdata" transform="translate(171.25,209)" d="M-4.62,-2H4.62L0,4Z" style="opacity: 1; stroke-width: 1px; fill: rgb(234, 67, 53); fill-opacity: 1; stroke: rgb(181, 31, 18); stroke-opacity: 1;"/><path class="point plotly-customdata" transform="translate(191.32,206.75)" d="M-4.62,-2H4.62L0,4Z" style="opacity: 1; stroke-width: 1px; fill: rgb(234, 67, 53); fill-opacity: 1; stroke: rgb(181, 31, 18); stroke-opacity: 1;"/><path class="point plotly-customdata" transform="translate(212.45,190.1)" d="M-4.62,-2H4.62L0,4Z" style="opacity: 1; stroke-width: 1px; fill: rgb(234, 67, 53); fill-opacity: 1; stroke: rgb(181, 31, 18); stroke-opacity: 1;"/><path class="point plotly-customdata" transform="translate(222.49,194.79)" d="M-4.62,-2H4.62L0,4Z" style="opacity: 1; stroke-width: 1px; fill: rgb(234, 67, 53); fill-opacity: 1; stroke: rgb(181, 31, 18); stroke-opacity: 1;"/><path class="point plotly-customdata" transform="translate(232,190.01)" d="M-4.62,-2H4.62L0,4Z" style="opacity: 1; stroke-width: 1px; fill: rgb(234, 67, 53); fill-opacity: 1; stroke: rgb(181, 31, 18); stroke-opacity: 1;"/><path class="point plotly-customdata" transform="translate(243.88,189.75)" d="M-4.62,-2H4.62L0,4Z" style="opacity: 1; stroke-width: 1px; fill: rgb(234, 67, 53); fill-opacity: 1; stroke: rgb(181, 31, 18); stroke-opacity: 1;"/><path class="point plotly-customdata" transform="translate(261.84,159.08)" d="M-4.62,-2H4.62L0,4Z" style="opacity: 1; stroke-width: 1px; fill: rgb(234, 67, 53); fill-opacity: 1; stroke: rgb(181, 31, 18); stroke-opacity: 1;"/><path class="point plotly-customdata" transform="translate(267.92,143.72)" d="M-4.62,-2H4.62L0,4Z" style="opacity: 1; stroke-width: 1px; fill: rgb(234, 67, 53); fill-opacity: 1; stroke: rgb(181, 31, 18); stroke-opacity: 1;"/><path class="point plotly-customdata" transform="translate(271.35,163.01)" d="M-4.62,-2H4.62L0,4Z" style="opacity: 1; stroke-width: 1px; fill: rgb(234, 67, 53); fill-opacity: 1; stroke: rgb(181, 31, 18); stroke-opacity: 1;"/><path class="point plotly-customdata" transform="translate(277.16,150.94)" d="M-4.62,-2H4.62L0,4Z" style="opacity: 1; stroke-width: 1px; fill: rgb(234, 67, 53); fill-opacity: 1; stroke: rgb(181, 31, 18); stroke-opacity: 1;"/><path class="point plotly-customdata" transform="translate(298.03,164.7)" d="M-4.62,-2H4.62L0,4Z" style="opacity: 1; stroke-width: 1px; fill: rgb(234, 67, 53); fill-opacity: 1; stroke: rgb(181, 31, 18); stroke-opacity: 1;"/><path class="point plotly-customdata" transform="translate(305.16,177.76)" d="M-4.62,-2H4.62L0,4Z" style="opacity: 1; stroke-width: 1px; fill: rgb(234, 67, 53); fill-opacity: 1; stroke: rgb(181, 31, 18); stroke-opacity: 1;"/><path class="point plotly-customdata" transform="translate(314.14,176.19)" d="M-4.62,-2H4.62L0,4Z" style="opacity: 1; stroke-width: 1px; fill: rgb(234, 67, 53); fill-opacity: 1; stroke: rgb(181, 31, 18); stroke-opacity: 1;"/><path class="point plotly-customdata" transform="translate(318.1,181.56)" d="M-4.62,-2H4.62L0,4Z" style="opacity: 1; stroke-width: 1px; fill: rgb(234, 67, 53); fill-opacity: 1; stroke: rgb(181, 31, 18); stroke-opacity: 1;"/><path class="point plotly-customdata" transform="translate(327.35,194.17)" d="M-4.62,-2H4.62L0,4Z" style="opacity: 1; stroke-width: 1px; fill: rgb(234, 67, 53); fill-opacity: 1; stroke: rgb(181, 31, 18); stroke-opacity: 1;"/><path class="point plotly-customdata" transform="translate(335.8,194.58)" d="M-4.62,-2H4.62L0,4Z" style="opacity: 1; stroke-width: 1px; fill: rgb(234, 67, 53); fill-opacity: 1; stroke: rgb(181, 31, 18); stroke-opacity: 1;"/><path class="point plotly-customdata" transform="translate(342.14,196.51)" d="M-4.62,-2H4.62L0,4Z" style="opacity: 1; stroke-width: 1px; fill: rgb(234, 67, 53); fill-opacity: 1; stroke: rgb(181, 31, 18); stroke-opacity: 1;"/><path class="point plotly-customdata" transform="translate(346.36,197.99)" d="M-4.62,-2H4.62L0,4Z" style="opacity: 1; stroke-width: 1px; fill: rgb(234, 67, 53); fill-opacity: 1; stroke: rgb(181, 31, 18); stroke-opacity: 1;"/><path class="point plotly-customdata" transform="translate(361.95,201.08)" d="M-4.62,-2H4.62L0,4Z" style="opacity: 1; stroke-width: 1px; fill: rgb(234, 67, 53); fill-opacity: 1; stroke: rgb(181, 31, 18); stroke-opacity: 1;"/><path class="point plotly-customdata" transform="translate(375.15,200.49)" d="M-4.62,-2H4.62L0,4Z" style="opacity: 1; stroke-width: 1px; fill: rgb(234, 67, 53); fill-opacity: 1; stroke: rgb(181, 31, 18); stroke-opacity: 1;"/><path class="point plotly-customdata" transform="translate(387.57,198.34)" d="M-4.62,-2H4.62L0,4Z" style="opacity: 1; stroke-width: 1px; fill: rgb(234, 67, 53); fill-opacity: 1; stroke: rgb(181, 31, 18); stroke-opacity: 1;"/><path class="point plotly-customdata" transform="translate(388.36,198.62)" d="M-4.62,-2H4.62L0,4Z" style="opacity: 1; stroke-width: 1px; fill: rgb(234, 67, 53); fill-opacity: 1; stroke: rgb(181, 31, 18); stroke-opacity: 1;"/><path class="point plotly-customdata" transform="translate(399.98,192.92)" d="M-4.62,-2H4.62L0,4Z" style="opacity: 1; stroke-width: 1px; fill: rgb(234, 67, 53); fill-opacity: 1; stroke: rgb(181, 31, 18); stroke-opacity: 1;"/><path class="point plotly-customdata" transform="translate(407.9,189.26)" d="M-4.62,-2H4.62L0,4Z" style="opacity: 1; stroke-width: 1px; fill: rgb(234, 67, 53); fill-opacity: 1; stroke: rgb(181, 31, 18); stroke-opacity: 1;"/><path class="point plotly-customdata" transform="translate(417.94,197.23)" d="M-4.62,-2H4.62L0,4Z" style="opacity: 1; stroke-width: 1px; fill: rgb(234, 67, 53); fill-opacity: 1; stroke: rgb(181, 31, 18); stroke-opacity: 1;"/><path class="point plotly-customdata" transform="translate(430.09,198.31)" d="M-4.62,-2H4.62L0,4Z" style="opacity: 1; stroke-width: 1px; fill: rgb(234, 67, 53); fill-opacity: 1; stroke: rgb(181, 31, 18); stroke-opacity: 1;"/><path class="point plotly-customdata" transform="translate(435.64,197.97)" d="M-4.62,-2H4.62L0,4Z" style="opacity: 1; stroke-width: 1px; fill: rgb(234, 67, 53); fill-opacity: 1; stroke: rgb(181, 31, 18); stroke-opacity: 1;"/><path class="point plotly-customdata" transform="translate(442.77,197.45)" d="M-4.62,-2H4.62L0,4Z" style="opacity: 1; stroke-width: 1px; fill: rgb(234, 67, 53); fill-opacity: 1; stroke: rgb(181, 31, 18); stroke-opacity: 1;"/><path class="point plotly-customdata" transform="translate(470.24,194.54)" d="M-4.62,-2H4.62L0,4Z" style="opacity: 1; stroke-width: 1px; fill: rgb(234, 67, 53); fill-opacity: 1; stroke: rgb(181, 31, 18); stroke-opacity: 1;"/><path class="point plotly-customdata" transform="translate(490.05,196.39)" d="M-4.62,-2H4.62L0,4Z" style="opacity: 1; stroke-width: 1px; fill: rgb(234, 67, 53); fill-opacity: 1; stroke: rgb(181, 31, 18); stroke-opacity: 1;"/><path class="point plotly-customdata" transform="translate(499.29,194.12)" d="M-4.62,-2H4.62L0,4Z" style="opacity: 1; stroke-width: 1px; fill: rgb(234, 67, 53); fill-opacity: 1; stroke: rgb(181, 31, 18); stroke-opacity: 1;"/><path class="point plotly-customdata" transform="translate(517.78,183.85)" d="M-4.62,-2H4.62L0,4Z" style="opacity: 1; stroke-width: 1px; fill: rgb(234, 67, 53); fill-opacity: 1; stroke: rgb(181, 31, 18); stroke-opacity: 1;"/><path class="point plotly-customdata" transform="translate(521.21,187.12)" d="M-4.62,-2H4.62L0,4Z" style="opacity: 1; stroke-width: 1px; fill: rgb(234, 67, 53); fill-opacity: 1; stroke: rgb(181, 31, 18); stroke-opacity: 1;"/><path class="point plotly-customdata" transform="translate(525.7,186.15)" d="M-4.62,-2H4.62L0,4Z" style="opacity: 1; stroke-width: 1px; fill: rgb(234, 67, 53); fill-opacity: 1; stroke: rgb(181, 31, 18); stroke-opacity: 1;"/><path class="point plotly-customdata" transform="translate(547.36,167.14)" d="M-4.62,-2H4.62L0,4Z" style="opacity: 1; stroke-width: 1px; fill: rgb(234, 67, 53); fill-opacity: 1; stroke: rgb(181, 31, 18); stroke-opacity: 1;"/><path class="point plotly-customdata" transform="translate(566.38,112.95)" d="M-4.62,-2H4.62L0,4Z" style="opacity: 1; stroke-width: 1px; fill: rgb(234, 67, 53); fill-opacity: 1; stroke: rgb(181, 31, 18); stroke-opacity: 1;"/><path class="point plotly-customdata" transform="translate(573.25,103.09)" d="M-4.62,-2H4.62L0,4Z" style="opacity: 1; stroke-width: 1px; fill: rgb(234, 67, 53); fill-opacity: 1; stroke: rgb(181, 31, 18); stroke-opacity: 1;"/></g><g class="text"/></g></g></g><g class="overplot"/><path class="xlines-above crisp" d="M0,0" style="fill: none;"/><path class="ylines-above crisp" d="M0,0" style="fill: none;"/><g class="overlines-above"/><g class="xaxislayer-above"/><g class="yaxislayer-above"><g class="ytick"><text text-anchor="end" x="100" y="4.199999999999999" transform="translate(0,313.71000000000004)" style="font-family: 'Open Sans', verdana, arial, sans-serif; font-size: 12px; fill: rgb(42, 63, 95); fill-opacity: 1; white-space: pre;">0</text></g><g class="ytick"><text text-anchor="end" x="100" y="4.199999999999999" transform="translate(0,246.8)" style="font-family: 'Open Sans', verdana, arial, sans-serif; font-size: 12px; fill: rgb(42, 63, 95); fill-opacity: 1; white-space: pre;">1000</text></g><g class="ytick"><text text-anchor="end" x="100" y="4.199999999999999" transform="translate(0,179.88)" style="font-family: 'Open Sans', verdana, arial, sans-serif; font-size: 12px; fill: rgb(42, 63, 95); fill-opacity: 1; white-space: pre;">2000</text></g><g class="ytick"><text text-anchor="end" x="100" y="4.199999999999999" transform="translate(0,112.96000000000001)" style="font-family: 'Open Sans', verdana, arial, sans-serif; font-size: 12px; fill: rgb(42, 63, 95); fill-opacity: 1; white-space: pre;">3000</text></g></g><g class="overaxes-above"/></g><g class="subplot x2y2"><g class="layer-subplot"><g class="shapelayer"/><g class="imagelayer"/></g><g class="gridlayer"><g class="x2"><path class="x2grid crisp" transform="translate(170.04000000000002,0)" d="M0,363.0222222222222v225.9555555555556" style="stroke: rgb(255, 255, 255); stroke-opacity: 1; stroke-width: 1px;"/><path class="x2grid crisp" transform="translate(266.7,0)" d="M0,363.0222222222222v225.9555555555556" style="stroke: rgb(255, 255, 255); stroke-opacity: 1; stroke-width: 1px;"/><path class="x2grid crisp" transform="translate(363.11,0)" d="M0,363.0222222222222v225.9555555555556" style="stroke: rgb(255, 255, 255); stroke-opacity: 1; stroke-width: 1px;"/><path class="x2grid crisp" transform="translate(459.51,0)" d="M0,363.0222222222222v225.9555555555556" style="stroke: rgb(255, 255, 255); stroke-opacity: 1; stroke-width: 1px;"/><path class="x2grid crisp" transform="translate(555.9200000000001,0)" d="M0,363.0222222222222v225.9555555555556" style="stroke: rgb(255, 255, 255); stroke-opacity: 1; stroke-width: 1px;"/><path class="x2grid crisp" transform="translate(652.59,0)" d="M0,363.0222222222222v225.9555555555556" style="stroke: rgb(255, 255, 255); stroke-opacity: 1; stroke-width: 1px;"/></g><g class="y2"><path class="y2grid crisp" transform="translate(0,533.7022222222222)" d="M101,0h619" style="stroke: rgb(255, 255, 255); stroke-opacity: 1; stroke-width: 1px;"/><path class="y2grid crisp" transform="translate(0,499.3022222222222)" d="M101,0h619" style="stroke: rgb(255, 255, 255); stroke-opacity: 1; stroke-width: 1px;"/><path class="y2grid crisp" transform="translate(0,464.9022222222222)" d="M101,0h619" style="stroke: rgb(255, 255, 255); stroke-opacity: 1; stroke-width: 1px;"/><path class="y2grid crisp" transform="translate(0,430.5022222222222)" d="M101,0h619" style="stroke: rgb(255, 255, 255); stroke-opacity: 1; stroke-width: 1px;"/><path class="y2grid crisp" transform="translate(0,396.11222222222216)" d="M101,0h619" style="stroke: rgb(255, 255, 255); stroke-opacity: 1; stroke-width: 1px;"/></g></g><g class="zerolinelayer"><path class="y2zl zl crisp" transform="translate(0,568.0922222222222)" d="M101,0h619" style="stroke: rgb(255, 255, 255); stroke-opacity: 1; stroke-width: 2px;"/></g><path class="xlines-below"/><path class="ylines-below"/><g class="overlines-below"/><g class="xaxislayer-below"/><g class="yaxislayer-below"/><g class="overaxes-below"/><g class="plot" transform="translate(101, 363.0222222222222)" clip-path="url('#clipefa706x2y2plot')"><g class="scatterlayer mlayer"><g class="trace scatter tracedfd3059a-085a-498f-a86e-b323b46ddf08" style="stroke-miterlimit: 2; opacity: 1;"><g class="fills"/><g class="errorbars"/><g class="lines"/><g class="points"><path class="point plotly-customdata" transform="translate(35.76,204.45)" d="M3.51,0A3.51,3.51 0 1,1 0,-3.51A3.51,3.51 0 0,1 3.51,0Z" style="opacity: 0.750462; stroke-width: 1px; fill: rgb(55, 177, 63); fill-opacity: 1; stroke: rgb(38, 123, 44); stroke-opacity: 1;"/><path class="point plotly-customdata" transform="translate(90.96,20.05)" d="M7,0A7,7 0 1,1 0,-7A7,7 0 0,1 7,0Z" style="opacity: 0.9; stroke-width: 1px; fill: rgb(55, 177, 63); fill-opacity: 1; stroke: rgb(38, 123, 44); stroke-opacity: 1;"/><path class="point plotly-customdata" transform="translate(109.71,198.08)" d="M3.63,0A3.63,3.63 0 1,1 0,-3.63A3.63,3.63 0 0,1 3.63,0Z" style="opacity: 0.755633; stroke-width: 1px; fill: rgb(55, 177, 63); fill-opacity: 1; stroke: rgb(38, 123, 44); stroke-opacity: 1;"/><path class="point plotly-customdata" transform="translate(115.26,204.62)" d="M3.51,0A3.51,3.51 0 1,1 0,-3.51A3.51,3.51 0 0,1 3.51,0Z" style="opacity: 0.75033; stroke-width: 1px; fill: rgb(55, 177, 63); fill-opacity: 1; stroke: rgb(38, 123, 44); stroke-opacity: 1;"/><path class="point plotly-customdata" transform="translate(142.73,203.37)" d="M3.53,0A3.53,3.53 0 1,1 0,-3.53A3.53,3.53 0 0,1 3.53,0Z" style="opacity: 0.751343; stroke-width: 1px; fill: rgb(55, 177, 63); fill-opacity: 1; stroke: rgb(38, 123, 44); stroke-opacity: 1;"/><path class="point plotly-customdata" transform="translate(171.25,203.38)" d="M3.53,0A3.53,3.53 0 1,1 0,-3.53A3.53,3.53 0 0,1 3.53,0Z" style="opacity: 0.751333; stroke-width: 1px; fill: rgb(55, 177, 63); fill-opacity: 1; stroke: rgb(38, 123, 44); stroke-opacity: 1;"/><path class="point plotly-customdata" transform="translate(191.32,151.94)" d="M4.5,0A4.5,4.5 0 1,1 0,-4.5A4.5,4.5 0 0,1 4.5,0Z" style="opacity: 0.793049; stroke-width: 1px; fill: rgb(55, 177, 63); fill-opacity: 1; stroke: rgb(38, 123, 44); stroke-opacity: 1;"/><path class="point plotly-customdata" transform="translate(212.45,122.98)" d="M5.05,0A5.05,5.05 0 1,1 0,-5.05A5.05,5.05 0 0,1 5.05,0Z" style="opacity: 0.816531; stroke-width: 1px; fill: rgb(55, 177, 63); fill-opacity: 1; stroke: rgb(38, 123, 44); stroke-opacity: 1;"/><path class="point plotly-customdata" transform="translate(222.49,203.5)" d="M3.53,0A3.53,3.53 0 1,1 0,-3.53A3.53,3.53 0 0,1 3.53,0Z" style="opacity: 0.751238; stroke-width: 1px; fill: rgb(55, 177, 63); fill-opacity: 1; stroke: rgb(38, 123, 44); stroke-opacity: 1;"/><path class="point plotly-customdata" transform="translate(232,202.95)" d="M3.54,0A3.54,3.54 0 1,1 0,-3.54A3.54,3.54 0 0,1 3.54,0Z" style="opacity: 0.751681; stroke-width: 1px; fill: rgb(55, 177, 63); fill-opacity: 1; stroke: rgb(38, 123, 44); stroke-opacity: 1;"/><path class="point plotly-customdata" transform="translate(243.88,204.46)" d="M3.51,0A3.51,3.51 0 1,1 0,-3.51A3.51,3.51 0 0,1 3.51,0Z" style="opacity: 0.75046; stroke-width: 1px; fill: rgb(55, 177, 63); fill-opacity: 1; stroke: rgb(38, 123, 44); stroke-opacity: 1;"/><path class="point plotly-customdata" transform="translate(261.84,178.16)" d="M4.01,0A4.01,4.01 0 1,1 0,-4.01A4.01,4.01 0 0,1 4.01,0Z" style="opacity: 0.771781; stroke-width: 1px; fill: rgb(55, 177, 63); fill-opacity: 1; stroke: rgb(38, 123, 44); stroke-opacity: 1;"/><path class="point plotly-customdata" transform="translate(267.92,200.36)" d="M3.59,0A3.59,3.59 0 1,1 0,-3.59A3.59,3.59 0 0,1 3.59,0Z" style="opacity: 0.753783; stroke-width: 1px; fill: rgb(55, 177, 63); fill-opacity: 1; stroke: rgb(38, 123, 44); stroke-opacity: 1;"/><path class="point plotly-customdata" transform="translate(298.03,199.24)" d="M3.61,0A3.61,3.61 0 1,1 0,-3.61A3.61,3.61 0 0,1 3.61,0Z" style="opacity: 0.754688; stroke-width: 1px; fill: rgb(55, 177, 63); fill-opacity: 1; stroke: rgb(38, 123, 44); stroke-opacity: 1;"/><path class="point plotly-customdata" transform="translate(314.14,204.23)" d="M3.51,0A3.51,3.51 0 1,1 0,-3.51A3.51,3.51 0 0,1 3.51,0Z" style="opacity: 0.750643; stroke-width: 1px; fill: rgb(55, 177, 63); fill-opacity: 1; stroke: rgb(38, 123, 44); stroke-opacity: 1;"/><path class="point plotly-customdata" transform="translate(361.95,203.3)" d="M3.53,0A3.53,3.53 0 1,1 0,-3.53A3.53,3.53 0 0,1 3.53,0Z" style="opacity: 0.751401; stroke-width: 1px; fill: rgb(55, 177, 63); fill-opacity: 1; stroke: rgb(38, 123, 44); stroke-opacity: 1;"/><path class="point plotly-customdata" transform="translate(375.15,202.77)" d="M3.54,0A3.54,3.54 0 1,1 0,-3.54A3.54,3.54 0 0,1 3.54,0Z" style="opacity: 0.75183; stroke-width: 1px; fill: rgb(55, 177, 63); fill-opacity: 1; stroke: rgb(38, 123, 44); stroke-opacity: 1;"/><path class="point plotly-customdata" transform="translate(387.57,201.07)" d="M3.57,0A3.57,3.57 0 1,1 0,-3.57A3.57,3.57 0 0,1 3.57,0Z" style="opacity: 0.753206; stroke-width: 1px; fill: rgb(55, 177, 63); fill-opacity: 1; stroke: rgb(38, 123, 44); stroke-opacity: 1;"/><path class="point plotly-customdata" transform="translate(399.98,196.97)" d="M3.65,0A3.65,3.65 0 1,1 0,-3.65A3.65,3.65 0 0,1 3.65,0Z" style="opacity: 0.75653; stroke-width: 1px; fill: rgb(55, 177, 63); fill-opacity: 1; stroke: rgb(38, 123, 44); stroke-opacity: 1;"/><path class="point plotly-customdata" transform="translate(407.9,202.47)" d="M3.55,0A3.55,3.55 0 1,1 0,-3.55A3.55,3.55 0 0,1 3.55,0Z" style="opacity: 0.752069; stroke-width: 1px; fill: rgb(55, 177, 63); fill-opacity: 1; stroke: rgb(38, 123, 44); stroke-opacity: 1;"/><path class="point plotly-customdata" transform="translate(470.24,193.44)" d="M3.72,0A3.72,3.72 0 1,1 0,-3.72A3.72,3.72 0 0,1 3.72,0Z" style="opacity: 0.75939; stroke-width: 1px; fill: rgb(55, 177, 63); fill-opacity: 1; stroke: rgb(38, 123, 44); stroke-opacity: 1;"/><path class="point plotly-customdata" transform="translate(490.05,196.54)" d="M3.66,0A3.66,3.66 0 1,1 0,-3.66A3.66,3.66 0 0,1 3.66,0Z" style="opacity: 0.756881; stroke-width: 1px; fill: rgb(55, 177, 63); fill-opacity: 1; stroke: rgb(38, 123, 44); stroke-opacity: 1;"/><path class="point plotly-customdata" transform="translate(499.29,202.96)" d="M3.54,0A3.54,3.54 0 1,1 0,-3.54A3.54,3.54 0 0,1 3.54,0Z" style="opacity: 0.751671; stroke-width: 1px; fill: rgb(55, 177, 63); fill-opacity: 1; stroke: rgb(38, 123, 44); stroke-opacity: 1;"/><path class="point plotly-customdata" transform="translate(517.78,195.37)" d="M3.68,0A3.68,3.68 0 1,1 0,-3.68A3.68,3.68 0 0,1 3.68,0Z" style="opacity: 0.757828; stroke-width: 1px; fill: rgb(55, 177, 63); fill-opacity: 1; stroke: rgb(38, 123, 44); stroke-opacity: 1;"/><path class="point plotly-customdata" transform="translate(525.7,204.59)" d="M3.51,0A3.51,3.51 0 1,1 0,-3.51A3.51,3.51 0 0,1 3.51,0Z" style="opacity: 0.750355; stroke-width: 1px; fill: rgb(55, 177, 63); fill-opacity: 1; stroke: rgb(38, 123, 44); stroke-opacity: 1;"/><path class="point plotly-customdata" transform="translate(547.36,192.82)" d="M3.73,0A3.73,3.73 0 1,1 0,-3.73A3.73,3.73 0 0,1 3.73,0Z" style="opacity: 0.759893; stroke-width: 1px; fill: rgb(55, 177, 63); fill-opacity: 1; stroke: rgb(38, 123, 44); stroke-opacity: 1;"/><path class="point plotly-customdata" transform="translate(566.38,184.35)" d="M3.89,0A3.89,3.89 0 1,1 0,-3.89A3.89,3.89 0 0,1 3.89,0Z" style="opacity: 0.766767; stroke-width: 1px; fill: rgb(55, 177, 63); fill-opacity: 1; stroke: rgb(38, 123, 44); stroke-opacity: 1;"/></g><g class="text"/></g><g class="trace scatter trace4eac534b-616d-4bc6-ad20-c4d5875bae14" style="stroke-miterlimit: 2; opacity: 1;"><g class="fills"/><g class="errorbars"/><g class="lines"/><g class="points"><path class="point plotly-customdata" transform="translate(39.45,209.67)" d="M3.59,0A3.59,3.59 0 1,1 0,-3.59A3.59,3.59 0 0,1 3.59,0Z" style="opacity: 0.753691; stroke-width: 1px; fill: rgb(234, 67, 53); fill-opacity: 1; stroke: rgb(181, 31, 18); stroke-opacity: 1;"/><path class="point plotly-customdata" transform="translate(56.09,206.79)" d="M3.53,0A3.53,3.53 0 1,1 0,-3.53A3.53,3.53 0 0,1 3.53,0Z" style="opacity: 0.751355; stroke-width: 1px; fill: rgb(234, 67, 53); fill-opacity: 1; stroke: rgb(181, 31, 18); stroke-opacity: 1;"/><path class="point plotly-customdata" transform="translate(59.79,206.88)" d="M3.53,0A3.53,3.53 0 1,1 0,-3.53A3.53,3.53 0 0,1 3.53,0Z" style="opacity: 0.751428; stroke-width: 1px; fill: rgb(234, 67, 53); fill-opacity: 1; stroke: rgb(181, 31, 18); stroke-opacity: 1;"/><path class="point plotly-customdata" transform="translate(67.45,207.5)" d="M3.55,0A3.55,3.55 0 1,1 0,-3.55A3.55,3.55 0 0,1 3.55,0Z" style="opacity: 0.75193; stroke-width: 1px; fill: rgb(234, 67, 53); fill-opacity: 1; stroke: rgb(181, 31, 18); stroke-opacity: 1;"/><path class="point plotly-customdata" transform="translate(94.92,207.32)" d="M3.54,0A3.54,3.54 0 1,1 0,-3.54A3.54,3.54 0 0,1 3.54,0Z" style="opacity: 0.751783; stroke-width: 1px; fill: rgb(234, 67, 53); fill-opacity: 1; stroke: rgb(181, 31, 18); stroke-opacity: 1;"/><path class="point plotly-customdata" transform="translate(125.56,210.16)" d="M3.6,0A3.6,3.6 0 1,1 0,-3.6A3.6,3.6 0 0,1 3.6,0Z" style="opacity: 0.754087; stroke-width: 1px; fill: rgb(234, 67, 53); fill-opacity: 1; stroke: rgb(181, 31, 18); stroke-opacity: 1;"/><path class="point plotly-customdata" transform="translate(130.84,205.14)" d="M3.5,0A3.5,3.5 0 1,1 0,-3.5A3.5,3.5 0 0,1 3.5,0Z" style="opacity: 0.750011; stroke-width: 1px; fill: rgb(234, 67, 53); fill-opacity: 1; stroke: rgb(181, 31, 18); stroke-opacity: 1;"/><path class="point plotly-customdata" transform="translate(163.06,205.64)" d="M3.51,0A3.51,3.51 0 1,1 0,-3.51A3.51,3.51 0 0,1 3.51,0Z" style="opacity: 0.750421; stroke-width: 1px; fill: rgb(234, 67, 53); fill-opacity: 1; stroke: rgb(181, 31, 18); stroke-opacity: 1;"/><path class="point plotly-customdata" transform="translate(271.35,209.85)" d="M3.59,0A3.59,3.59 0 1,1 0,-3.59A3.59,3.59 0 0,1 3.59,0Z" style="opacity: 0.753833; stroke-width: 1px; fill: rgb(234, 67, 53); fill-opacity: 1; stroke: rgb(181, 31, 18); stroke-opacity: 1;"/><path class="point plotly-customdata" transform="translate(277.16,206.3)" d="M3.52,0A3.52,3.52 0 1,1 0,-3.52A3.52,3.52 0 0,1 3.52,0Z" style="opacity: 0.750956; stroke-width: 1px; fill: rgb(234, 67, 53); fill-opacity: 1; stroke: rgb(181, 31, 18); stroke-opacity: 1;"/><path class="point plotly-customdata" transform="translate(305.16,208.56)" d="M3.57,0A3.57,3.57 0 1,1 0,-3.57A3.57,3.57 0 0,1 3.57,0Z" style="opacity: 0.752787; stroke-width: 1px; fill: rgb(234, 67, 53); fill-opacity: 1; stroke: rgb(181, 31, 18); stroke-opacity: 1;"/><path class="point plotly-customdata" transform="translate(318.1,206.26)" d="M3.52,0A3.52,3.52 0 1,1 0,-3.52A3.52,3.52 0 0,1 3.52,0Z" style="opacity: 0.750918; stroke-width: 1px; fill: rgb(234, 67, 53); fill-opacity: 1; stroke: rgb(181, 31, 18); stroke-opacity: 1;"/><path class="point plotly-customdata" transform="translate(327.35,208.49)" d="M3.56,0A3.56,3.56 0 1,1 0,-3.56A3.56,3.56 0 0,1 3.56,0Z" style="opacity: 0.75273; stroke-width: 1px; fill: rgb(234, 67, 53); fill-opacity: 1; stroke: rgb(181, 31, 18); stroke-opacity: 1;"/><path class="point plotly-customdata" transform="translate(335.8,206.39)" d="M3.52,0A3.52,3.52 0 1,1 0,-3.52A3.52,3.52 0 0,1 3.52,0Z" style="opacity: 0.751026; stroke-width: 1px; fill: rgb(234, 67, 53); fill-opacity: 1; stroke: rgb(181, 31, 18); stroke-opacity: 1;"/><path class="point plotly-customdata" transform="translate(342.14,205.12)" d="M3.5,0A3.5,3.5 0 1,1 0,-3.5A3.5,3.5 0 0,1 3.5,0Z" style="opacity: 0.75; stroke-width: 1px; fill: rgb(234, 67, 53); fill-opacity: 1; stroke: rgb(181, 31, 18); stroke-opacity: 1;"/><path class="point plotly-customdata" transform="translate(346.36,208.43)" d="M3.56,0A3.56,3.56 0 1,1 0,-3.56A3.56,3.56 0 0,1 3.56,0Z" style="opacity: 0.752682; stroke-width: 1px; fill: rgb(234, 67, 53); fill-opacity: 1; stroke: rgb(181, 31, 18); stroke-opacity: 1;"/><path class="point plotly-customdata" transform="translate(388.36,205.71)" d="M3.51,0A3.51,3.51 0 1,1 0,-3.51A3.51,3.51 0 0,1 3.51,0Z" style="opacity: 0.750478; stroke-width: 1px; fill: rgb(234, 67, 53); fill-opacity: 1; stroke: rgb(181, 31, 18); stroke-opacity: 1;"/><path class="point plotly-customdata" transform="translate(417.94,208.13)" d="M3.56,0A3.56,3.56 0 1,1 0,-3.56A3.56,3.56 0 0,1 3.56,0Z" style="opacity: 0.752436; stroke-width: 1px; fill: rgb(234, 67, 53); fill-opacity: 1; stroke: rgb(181, 31, 18); stroke-opacity: 1;"/><path class="point plotly-customdata" transform="translate(430.09,206.11)" d="M3.52,0A3.52,3.52 0 1,1 0,-3.52A3.52,3.52 0 0,1 3.52,0Z" style="opacity: 0.750804; stroke-width: 1px; fill: rgb(234, 67, 53); fill-opacity: 1; stroke: rgb(181, 31, 18); stroke-opacity: 1;"/><path class="point plotly-customdata" transform="translate(435.64,205.77)" d="M3.51,0A3.51,3.51 0 1,1 0,-3.51A3.51,3.51 0 0,1 3.51,0Z" style="opacity: 0.750525; stroke-width: 1px; fill: rgb(234, 67, 53); fill-opacity: 1; stroke: rgb(181, 31, 18); stroke-opacity: 1;"/><path class="point plotly-customdata" transform="translate(442.77,205.17)" d="M3.5,0A3.5,3.5 0 1,1 0,-3.5A3.5,3.5 0 0,1 3.5,0Z" style="opacity: 0.750035; stroke-width: 1px; fill: rgb(234, 67, 53); fill-opacity: 1; stroke: rgb(181, 31, 18); stroke-opacity: 1;"/><path class="point plotly-customdata" transform="translate(521.21,207.35)" d="M3.54,0A3.54,3.54 0 1,1 0,-3.54A3.54,3.54 0 0,1 3.54,0Z" style="opacity: 0.751805; stroke-width: 1px; fill: rgb(234, 67, 53); fill-opacity: 1; stroke: rgb(181, 31, 18); stroke-opacity: 1;"/><path class="point plotly-customdata" transform="translate(573.25,207.3)" d="M3.54,0A3.54,3.54 0 1,1 0,-3.54A3.54,3.54 0 0,1 3.54,0Z" style="opacity: 0.751764; stroke-width: 1px; fill: rgb(234, 67, 53); fill-opacity: 1; stroke: rgb(181, 31, 18); stroke-opacity: 1;"/></g><g class="text"/></g><g class="trace scatter trace7db13ecb-21bf-4270-9838-ea6e517d459e" style="stroke-miterlimit: 2; opacity: 1;"><g class="fills"/><g class="errorbars"/><g class="lines"/><g class="points"><path class="point plotly-customdata" transform="translate(583.55,198.5)" d="M3.62,0A3.62,3.62 0 1,1 0,-3.62A3.62,3.62 0 0,1 3.62,0Z" style="opacity: 0.755294; stroke-width: 1px; fill: rgb(255, 170, 0); fill-opacity: 1; stroke: rgb(178, 118, 0); stroke-opacity: 1;"/></g><g class="text"/></g></g></g><g class="overplot"/><path class="xlines-above crisp" d="M0,0" style="fill: none;"/><path class="ylines-above crisp" d="M0,0" style="fill: none;"/><g class="overlines-above"/><g class="xaxislayer-above"/><g class="yaxislayer-above"><g class="y2tick"><text text-anchor="end" x="100" y="4.199999999999999" transform="translate(0,568.0922222222222)" style="font-family: 'Open Sans', verdana, arial, sans-serif; font-size: 12px; fill: rgb(42, 63, 95); fill-opacity: 1; white-space: pre;">0.00%</text></g><g class="y2tick"><text text-anchor="end" x="100" y="4.199999999999999" transform="translate(0,533.7022222222222)" style="font-family: 'Open Sans', verdana, arial, sans-serif; font-size: 12px; fill: rgb(42, 63, 95); fill-opacity: 1; white-space: pre;">200.00%</text></g><g class="y2tick"><text text-anchor="end" x="100" y="4.199999999999999" transform="translate(0,499.3022222222222)" style="font-family: 'Open Sans', verdana, arial, sans-serif; font-size: 12px; fill: rgb(42, 63, 95); fill-opacity: 1; white-space: pre;">400.00%</text></g><g class="y2tick"><text text-anchor="end" x="100" y="4.199999999999999" transform="translate(0,464.9022222222222)" style="font-family: 'Open Sans', verdana, arial, sans-serif; font-size: 12px; fill: rgb(42, 63, 95); fill-opacity: 1; white-space: pre;">600.00%</text></g><g class="y2tick"><text text-anchor="end" x="100" y="4.199999999999999" transform="translate(0,430.5022222222222)" style="font-family: 'Open Sans', verdana, arial, sans-serif; font-size: 12px; fill: rgb(42, 63, 95); fill-opacity: 1; white-space: pre;">800.00%</text></g><g class="y2tick"><text text-anchor="end" x="100" y="4.199999999999999" transform="translate(0,396.11222222222216)" style="font-family: 'Open Sans', verdana, arial, sans-serif; font-size: 12px; fill: rgb(42, 63, 95); fill-opacity: 1; white-space: pre;">1000.00%</text></g></g><g class="overaxes-above"/></g><g class="subplot x3y3"><g class="layer-subplot"><g class="shapelayer"/><g class="imagelayer"/></g><g class="gridlayer"><g class="x3"><path class="x3grid crisp" transform="translate(170.04000000000002,0)" d="M0,622.0444444444445v225.95555555555555" style="stroke: rgb(255, 255, 255); stroke-opacity: 1; stroke-width: 1px;"/><path class="x3grid crisp" transform="translate(266.7,0)" d="M0,622.0444444444445v225.95555555555555" style="stroke: rgb(255, 255, 255); stroke-opacity: 1; stroke-width: 1px;"/><path class="x3grid crisp" transform="translate(363.11,0)" d="M0,622.0444444444445v225.95555555555555" style="stroke: rgb(255, 255, 255); stroke-opacity: 1; stroke-width: 1px;"/><path class="x3grid crisp" transform="translate(459.51,0)" d="M0,622.0444444444445v225.95555555555555" style="stroke: rgb(255, 255, 255); stroke-opacity: 1; stroke-width: 1px;"/><path class="x3grid crisp" transform="translate(555.9200000000001,0)" d="M0,622.0444444444445v225.95555555555555" style="stroke: rgb(255, 255, 255); stroke-opacity: 1; stroke-width: 1px;"/><path class="x3grid crisp" transform="translate(652.59,0)" d="M0,622.0444444444445v225.95555555555555" style="stroke: rgb(255, 255, 255); stroke-opacity: 1; stroke-width: 1px;"/></g><g class="y3"><path class="y3grid crisp" transform="translate(0,794.3544444444444)" d="M101,0h619" style="stroke: rgb(255, 255, 255); stroke-opacity: 1; stroke-width: 1px;"/><path class="y3grid crisp" transform="translate(0,751.9944444444445)" d="M101,0h619" style="stroke: rgb(255, 255, 255); stroke-opacity: 1; stroke-width: 1px;"/><path class="y3grid crisp" transform="translate(0,709.6344444444445)" d="M101,0h619" style="stroke: rgb(255, 255, 255); stroke-opacity: 1; stroke-width: 1px;"/><path class="y3grid crisp" transform="translate(0,667.2844444444445)" d="M101,0h619" style="stroke: rgb(255, 255, 255); stroke-opacity: 1; stroke-width: 1px;"/><path class="y3grid crisp" transform="translate(0,624.9244444444445)" d="M101,0h619" style="stroke: rgb(255, 255, 255); stroke-opacity: 1; stroke-width: 1px;"/></g></g><g class="zerolinelayer"><path class="y3zl zl crisp" transform="translate(0,836.7044444444444)" d="M101,0h619" style="stroke: rgb(255, 255, 255); stroke-opacity: 1; stroke-width: 2px;"/></g><path class="xlines-below"/><path class="ylines-below"/><g class="overlines-below"/><g class="xaxislayer-below"/><g class="yaxislayer-below"/><g class="overaxes-below"/><g class="plot" transform="translate(101, 622.0444444444445)" clip-path="url('#clipefa706x3y3plot')"><g class="scatterlayer mlayer"><g class="trace scatter trace101899bd-dedc-4a23-86ef-5bebea7e07bf" style="stroke-miterlimit: 2; opacity: 1;"><g class="fills"/><g class="errorbars"/><g class="lines"><path class="js-line" d="M30.21,214.64L39.98,214.65L40.25,214.65L201.89,213.92L202.15,213.67L204.79,213.17L205.06,212.89L207.7,212.51L207.96,212.08L211.4,212.05L211.66,212.19L213.51,212.56L213.77,212.46L218.79,212.99L219.06,212.91L223.02,212.66L223.28,212.6L224.6,212.29L224.87,212.38L231.47,212.14L231.73,212.4L236.49,212.47L236.75,212.32L240.19,212.37L240.45,212.34L251.54,211.75L251.81,211.53L252.86,210.99L253.13,211.05L253.92,211.1L254.19,211.12L256.56,210.73L256.83,209.68L257.88,209.34L258.15,209.16L259.2,208.39L259.47,209.51L260.79,208.83L261.05,209.03L262.11,208.76L262.37,207.9L264.22,204.73L264.49,205.07L264.75,205.84L265.01,204.93L265.28,203.99L265.81,204.79L266.07,206.61L266.86,206.72L267.13,205.84L267.92,207.13L268.18,206.57L268.98,206.2L269.24,205.14L271.35,209.33L271.88,208.88L272.15,208.41L272.41,207.91L272.94,208.44L273.2,208.02L273.47,208.2L273.73,207.61L273.99,207.5L275.32,207.82L275.58,208.17L276.64,208.21L276.9,208.02L278.75,208.14L279.01,208.42L280.07,209.41L280.33,209.14L283.24,210.54L283.5,210.54L287.2,211.83L287.46,211.72L291.95,209.25L292.22,209.96L293.28,209.4L293.54,209.54L294.33,208.71L294.6,208.66L295.39,208.9L295.65,208.91L299.09,209.32L299.35,209.71L300.41,210.17L300.67,210.29L300.94,210.72L301.46,210.39L301.73,210.25L304.1,210.1L304.37,210.64L307.27,210.63L307.54,211.1L310.97,211.04L311.24,211.04L312.29,211.34L312.56,211.25L313.61,211.22L313.88,210.99L314.93,211.22L315.2,211.13L320.22,211.87L320.48,212.11L323.65,212.59L323.91,212.54L327.08,212.48L327.35,212.89L343.46,213.06L343.72,212.99L359.04,213.52L359.31,213.48L374.36,213.64L374.63,213.65L380.7,213.63L380.96,213.58L387.83,213.35L388.1,213.35L392.59,213.34L392.85,213.18L393.91,212.77L394.17,212.64L395.75,212.79L396.02,212.78L408.43,212.3L408.7,212.45L410.81,212.93L411.07,212.97L414.24,212.99L414.51,213L450.43,213.57L450.69,213.64L453.33,213.7L453.6,213.69L466.28,212.61L466.54,212.49L468.12,212.69L468.39,212.63L473.41,213.17L473.67,213.8L474.99,213.79L475.26,213.78L476.84,213.6L477.1,213.62L497.44,212.77L497.71,212.89L502.2,212.94L502.46,212.92L509.06,212.53L509.33,212.34L516.19,211.48L516.46,211.69L519.63,211.3L519.89,211.71L540.23,211.06L540.49,210.77L541.55,210.05L541.81,210.3L542.08,210.7L542.87,210.26L543.14,209.96L544.46,210.1L544.72,210.06L546.83,210.18L547.1,210.16L548.15,209.62L548.42,209.78L549.47,209.99L549.74,209.88L551.85,208.74L552.12,207.21L553.7,204.87L553.96,205.02L554.23,206.33L554.49,206.69L554.76,206.02L555.02,205.35L555.28,205.71L555.81,205.26L556.08,205.06L556.61,204.1L556.87,206.09L557.66,204.03L557.93,204.54L558.19,204.29L558.45,205.09L558.72,204.74L558.98,204.1L559.77,204.2L560.04,203.09L560.83,201.53L561.1,201.84L561.36,202.33L562.42,201.03L562.68,200.58L563.74,201.05L564,200.54L565.06,199.87L565.32,201.05L566.38,203.61L566.64,203.51L566.91,203.84L567.17,202.71L567.43,203.26L567.96,202.88L568.23,202.95L569.28,200.39L569.55,200.92L569.81,200.71L570.08,201.12L570.34,199.96L571.66,201.04L571.92,200.78L572.45,201L572.72,201.74L573.51,202.47L573.77,201.65L574.3,201.74L574.57,200.76L575.36,199.56L575.62,198.29L575.89,199.16L576.41,198.56L576.68,198.48L576.94,199.6L577.47,198.83L577.74,198.34L578.26,198.32L578.53,197.1L579.06,195.42L579.32,196.08L579.58,196.75L580.11,198.11L580.38,196.86L580.64,196.6L580.9,196.3L581.17,196.6L581.43,197.77L583.55,192.01" style="vector-effect: non-scaling-stroke; fill: none; stroke: rgb(127, 127, 127); stroke-opacity: 1; stroke-width: 2px; opacity: 1;"/></g><g class="points"/><g class="text"/></g><g class="trace scatter tracebc2a2175-9a47-4fa2-bf65-231a7c4cf49a" style="stroke-miterlimit: 2;"><g class="fills"><g><path class="js-fill" d="M30.21,214.64L196.87,213.92L197.13,213.81L201.89,213.61L202.15,213.26L203.21,212.69L203.47,212.61L204.79,212.55L205.06,212.15L207.44,211.83L207.7,211.61L208.76,210.36L209.02,210.78L211.4,210.97L211.66,211.16L212.98,211.49L213.25,211.49L223.28,211.11L223.55,210.74L228.3,210.25L228.57,210.07L230.41,210.07L230.68,210.76L231.47,210.31L231.73,210.75L232,210.78L250.22,210.13L250.49,209.92L251.81,209.07L252.07,208.19L253.92,208.3L254.19,208.34L256.3,208.64L256.56,207.64L257.09,205.08L257.62,205.33L257.88,205.17L259.2,203.47L259.47,205.46L260.52,204.11L260.79,204.26L261.05,204.61L262.11,204.37L262.37,202.88L264.22,197.34L264.49,197.93L264.75,199.27L265.01,197.69L265.28,196.05L265.81,197.45L266.07,200.62L266.33,201.15L266.86,200.81L267.13,199.27L268.18,201.53L268.45,201.53L270.83,201.55L271.09,203.3L271.88,205.17L272.15,205.17L275.32,205.67L275.58,206.13L276.37,206.22L276.64,206.18L277.96,205.85L278.22,205.85L290.37,205.45L290.63,204.69L291.95,202.23L292.22,203.86L293.28,202.57L293.54,202.9L294.07,202.6L294.33,200.98L295.12,200.76L295.39,201.43L296.18,201.9L296.44,202.73L297.77,202.25L298.03,202.87L304.1,202.88L304.37,204.28L304.63,204.15L304.9,204.87L305.95,205.26L306.22,205.26L312.03,205.27L312.29,206.1L314.67,204.8L314.93,204.8L317.57,204.67L317.84,205.18L318.9,205.47L319.16,205.47L327.08,205.59L327.35,207.3L332.37,207.77L332.63,208.08L333.69,207.69L333.95,207.65L337.38,207.86L337.65,207.86L345.57,208.21L345.84,209L355.87,209.21L356.14,208.55L356.4,208.11L356.93,208.5L357.19,209.22L357.99,208.13L358.25,208.43L359.57,207.39L359.83,207.29L361.68,209.2L361.95,208.64L370.93,208.03L371.19,207.41L372.25,207.26L372.51,206.78L373.3,207.81L373.57,207.91L380.17,207.87L380.44,207.97L382.28,207.63L382.55,206.54L383.61,206.44L383.87,206.01L384.66,205.87L384.93,206.46L386.77,206.05L387.04,206.05L392.59,206.43L392.85,205.42L393.11,205.75L393.38,205.3L393.64,204.34L394.17,202.11L394.43,203.07L394.7,203.51L394.96,202.24L395.49,202.52L395.75,203.02L396.55,202.69L396.81,201.96L397.6,201.85L397.87,202.49L398.66,201.81L398.92,202.65L399.19,203.18L399.72,202.8L399.98,202.74L403.41,202.45L403.68,201.41L405,199.53L405.26,201.44L405.79,200.28L406.06,201.6L406.85,201.04L407.11,201.88L409.23,200.94L409.49,200.94L416.36,201.28L416.62,201.92L417.68,202.02L417.94,203.37L426.39,202.84L426.66,202.39L427.45,200.88L427.71,201.09L427.98,201.24L428.51,202.09L428.77,204.19L430.09,204.06L430.36,204.06L434.85,204.33L435.11,204.59L439.34,204.58L439.6,204.36L440.66,204.48L440.92,204.44L441.98,204.26L442.24,204.38L443.3,204.54L443.56,204.54L457.56,203.96L457.82,203.74L458.09,203.86L458.35,202.24L459.14,201.88L459.41,201.53L459.94,202.15L460.2,201.96L460.46,202.06L461.26,202.59L461.52,202.08L464.16,199.37L464.43,198.77L466.54,193.38L466.8,194.84L467.07,195.2L467.33,194.72L467.6,193.55L468.12,195.35L468.39,194.78L468.65,195.02L468.92,194.17L469.18,194.81L469.45,196.11L470.24,197.7L470.5,197.7L478.95,197.37L479.22,196.56L480.01,196.36L480.27,193.1L480.54,193.62L480.8,192.65L481.07,192.89L482.12,194.74L482.39,194.57L482.65,195.12L482.92,192.72L483.44,190.83L483.71,191.51L483.97,192.7L484.24,192.64L484.5,191.38L486.08,189.37L486.35,187L486.61,188.2L487.14,187.21L487.41,187.77L488.2,188.65L488.46,187.6L488.99,187.69L489.25,190.62L489.52,190.96L489.78,190.53L490.05,189.29L492.69,189.13L492.95,189.91L493.74,189.11L494.01,187.77L494.27,187.67L494.54,185.02L494.8,186.41L495.06,184.45L495.33,185.64L495.59,184.79L497.44,184.39L497.71,186.32L498.23,185.44L498.5,186.02L498.76,186.54L499.56,186.19L499.82,186.19L505.37,186.87L505.63,187.05L506.42,186.96L506.69,187.16L507.21,187.82L507.48,187.5L507.74,187.16L508.01,187.43L508.27,186.4L509.86,177.58L510.12,178.14L510.38,177.97L511.97,169.7L512.23,168.35L512.76,170.89L513.03,169.22L513.29,169.56L513.55,169.01L513.82,170.79L514.61,164.22L515.14,164.63L515.4,165.13L515.93,167.79L516.19,166.64L516.46,169.79L517.25,167.59L517.52,170.38L518.84,170.14L519.1,170.14L520.16,170.18L520.42,176.25L520.68,174.18L520.95,174.26L521.21,176.02L524.91,175.75L525.17,178.45L525.97,174.93L526.23,174.93L529.93,174.52L530.72,174.06L530.99,174.27L531.25,175.47L532.04,174.01L532.31,175.16L532.83,170.39L533.36,170.53L533.63,171.2L534.68,173.28L534.95,173.7L535.48,172.25L535.74,173.66L536.27,171.63L536.53,170.36L536.8,166.01L537.32,166.13L537.59,167.14L538.65,163.88L538.91,165.43L539.17,166.77L539.44,165.45L539.7,163.26L540.23,164.2L540.49,160.12L541.29,149.56L541.55,150.04L541.81,153.6L542.34,159.29L542.61,157.07L542.87,153.05L543.14,148.87L543.66,150.64L543.93,148.67L544.19,153.74L544.72,150.26L544.98,151.33L546.04,156.26L546.3,153.82L547.63,146.66L547.89,146.73L548.15,146.26L549.21,154.1L549.47,151.21L550.27,143.84L550.53,138.88L550.79,138.77L551.06,136.68L551.59,138.89L551.85,134.3L553.17,87.5L553.44,87.65L553.7,81.75L553.96,83.71L554.23,101.56L554.49,106.41L554.76,97.35L555.55,86.68L555.81,87.03L556.08,84.22L556.34,71.77L556.61,71.25L556.87,98.3L557.66,70.28L557.93,77.26L558.19,73.87L558.45,84.65L558.72,79.99L558.98,71.23L559.25,71.89L559.51,78.23L560.04,57.46L560.3,42.34L560.57,49.21L560.83,36.35L561.36,47.19L561.62,33.45L562.15,33.7L562.68,23.4L562.94,26.45L563.21,27.39L563.47,30.01L563.74,29.88L564,22.89L564.53,11.3L564.79,15.51L565.06,13.85L566.38,64.79L566.64,64.79L569.81,64.94L570.08,69.37L570.34,56.86L570.6,62.61L570.87,67.77L571.4,65.16L571.66,68.49L571.92,65.64L572.45,68.05L572.72,75.99L572.98,77.03L573.25,84.15L575.62,84.28L575.89,91.27L576.68,85.8L576.94,94.76L578,83.41L578.26,84.52L579.06,61.42L579.32,66.72L579.58,72.02L580.11,82.89L580.38,72.91L580.9,68.45L581.17,70.88L581.43,80.12L583.55,34.29L583.55,214.64L30.21,214.64Z" style="fill: rgb(0, 128, 0); fill-opacity: 0.3; stroke-width: 0;"/></g></g><g class="errorbars"/><g class="lines"><path class="js-line" d="M30.21,214.64L583.55,214.64" style="vector-effect: non-scaling-stroke; fill: none; stroke: rgb(0, 0, 0); stroke-opacity: 0; stroke-width: 0px; opacity: 1;"/></g><g class="points"/><g class="text"/></g><g class="trace scatter trace1f6ec8c9-293d-4757-8ec4-5b467072deaa" style="stroke-miterlimit: 2;"><g class="fills"/><g class="errorbars"/><g class="lines"><path class="js-line" d="M30.21,214.64L196.87,213.92L197.13,213.81L201.89,213.61L202.15,213.26L203.21,212.69L203.47,212.61L204.79,212.55L205.06,212.15L207.44,211.83L207.7,211.61L208.76,210.36L209.02,210.78L211.4,210.97L211.66,211.16L212.98,211.49L213.25,211.49L223.28,211.11L223.55,210.74L228.3,210.25L228.57,210.07L230.41,210.07L230.68,210.76L231.47,210.31L231.73,210.75L232,210.78L250.22,210.13L250.49,209.92L251.81,209.07L252.07,208.19L253.92,208.3L254.19,208.34L256.3,208.64L256.56,207.64L257.09,205.08L257.62,205.33L257.88,205.17L259.2,203.47L259.47,205.46L260.52,204.11L260.79,204.26L261.05,204.61L262.11,204.37L262.37,202.88L264.22,197.34L264.49,197.93L264.75,199.27L265.01,197.69L265.28,196.05L265.81,197.45L266.07,200.62L266.33,201.15L266.86,200.81L267.13,199.27L268.18,201.53L268.45,201.53L270.83,201.55L271.09,203.3L271.88,205.17L272.15,205.17L275.32,205.67L275.58,206.13L276.37,206.22L276.64,206.18L277.96,205.85L278.22,205.85L290.37,205.45L290.63,204.69L291.95,202.23L292.22,203.86L293.28,202.57L293.54,202.9L294.07,202.6L294.33,200.98L295.12,200.76L295.39,201.43L296.18,201.9L296.44,202.73L297.77,202.25L298.03,202.87L304.1,202.88L304.37,204.28L304.63,204.15L304.9,204.87L305.95,205.26L306.22,205.26L312.03,205.27L312.29,206.1L314.67,204.8L314.93,204.8L317.57,204.67L317.84,205.18L318.9,205.47L319.16,205.47L327.08,205.59L327.35,207.3L332.37,207.77L332.63,208.08L333.69,207.69L333.95,207.65L337.38,207.86L337.65,207.86L345.57,208.21L345.84,209L355.87,209.21L356.14,208.55L356.4,208.11L356.93,208.5L357.19,209.22L357.99,208.13L358.25,208.43L359.57,207.39L359.83,207.29L361.68,209.2L361.95,208.64L370.93,208.03L371.19,207.41L372.25,207.26L372.51,206.78L373.3,207.81L373.57,207.91L380.17,207.87L380.44,207.97L382.28,207.63L382.55,206.54L383.61,206.44L383.87,206.01L384.66,205.87L384.93,206.46L386.77,206.05L387.04,206.05L392.59,206.43L392.85,205.42L393.11,205.75L393.38,205.3L393.64,204.34L394.17,202.11L394.43,203.07L394.7,203.51L394.96,202.24L395.49,202.52L395.75,203.02L396.55,202.69L396.81,201.96L397.6,201.85L397.87,202.49L398.66,201.81L398.92,202.65L399.19,203.18L399.72,202.8L399.98,202.74L403.41,202.45L403.68,201.41L405,199.53L405.26,201.44L405.79,200.28L406.06,201.6L406.85,201.04L407.11,201.88L409.23,200.94L409.49,200.94L416.36,201.28L416.62,201.92L417.68,202.02L417.94,203.37L426.39,202.84L426.66,202.39L427.45,200.88L427.71,201.09L427.98,201.24L428.51,202.09L428.77,204.19L430.09,204.06L430.36,204.06L434.85,204.33L435.11,204.59L439.34,204.58L439.6,204.36L440.66,204.48L440.92,204.44L441.98,204.26L442.24,204.38L443.3,204.54L443.56,204.54L457.56,203.96L457.82,203.74L458.09,203.86L458.35,202.24L459.14,201.88L459.41,201.53L459.94,202.15L460.2,201.96L460.46,202.06L461.26,202.59L461.52,202.08L464.16,199.37L464.43,198.77L466.54,193.38L466.8,194.84L467.07,195.2L467.33,194.72L467.6,193.55L468.12,195.35L468.39,194.78L468.65,195.02L468.92,194.17L469.18,194.81L469.45,196.11L470.24,197.7L470.5,197.7L478.95,197.37L479.22,196.56L480.01,196.36L480.27,193.1L480.54,193.62L480.8,192.65L481.07,192.89L482.12,194.74L482.39,194.57L482.65,195.12L482.92,192.72L483.44,190.83L483.71,191.51L483.97,192.7L484.24,192.64L484.5,191.38L486.08,189.37L486.35,187L486.61,188.2L487.14,187.21L487.41,187.77L488.2,188.65L488.46,187.6L488.99,187.69L489.25,190.62L489.52,190.96L489.78,190.53L490.05,189.29L492.69,189.13L492.95,189.91L493.74,189.11L494.01,187.77L494.27,187.67L494.54,185.02L494.8,186.41L495.06,184.45L495.33,185.64L495.59,184.79L497.44,184.39L497.71,186.32L498.23,185.44L498.5,186.02L498.76,186.54L499.56,186.19L499.82,186.19L505.37,186.87L505.63,187.05L506.42,186.96L506.69,187.16L507.21,187.82L507.48,187.5L507.74,187.16L508.01,187.43L508.27,186.4L509.86,177.58L510.12,178.14L510.38,177.97L511.97,169.7L512.23,168.35L512.76,170.89L513.03,169.22L513.29,169.56L513.55,169.01L513.82,170.79L514.61,164.22L515.14,164.63L515.4,165.13L515.93,167.79L516.19,166.64L516.46,169.79L517.25,167.59L517.52,170.38L518.84,170.14L519.1,170.14L520.16,170.18L520.42,176.25L520.68,174.18L520.95,174.26L521.21,176.02L524.91,175.75L525.17,178.45L525.97,174.93L526.23,174.93L529.93,174.52L530.72,174.06L530.99,174.27L531.25,175.47L532.04,174.01L532.31,175.16L532.83,170.39L533.36,170.53L533.63,171.2L534.68,173.28L534.95,173.7L535.48,172.25L535.74,173.66L536.27,171.63L536.53,170.36L536.8,166.01L537.32,166.13L537.59,167.14L538.65,163.88L538.91,165.43L539.17,166.77L539.44,165.45L539.7,163.26L540.23,164.2L540.49,160.12L541.29,149.56L541.55,150.04L541.81,153.6L542.34,159.29L542.61,157.07L542.87,153.05L543.14,148.87L543.66,150.64L543.93,148.67L544.19,153.74L544.72,150.26L544.98,151.33L546.04,156.26L546.3,153.82L547.63,146.66L547.89,146.73L548.15,146.26L549.21,154.1L549.47,151.21L550.27,143.84L550.53,138.88L550.79,138.77L551.06,136.68L551.59,138.89L551.85,134.3L553.17,87.5L553.44,87.65L553.7,81.75L553.96,83.71L554.23,101.56L554.49,106.41L554.76,97.35L555.55,86.68L555.81,87.03L556.08,84.22L556.34,71.77L556.61,71.25L556.87,98.3L557.66,70.28L557.93,77.26L558.19,73.87L558.45,84.65L558.72,79.99L558.98,71.23L559.25,71.89L559.51,78.23L560.04,57.46L560.3,42.34L560.57,49.21L560.83,36.35L561.36,47.19L561.62,33.45L562.15,33.7L562.68,23.4L562.94,26.45L563.21,27.39L563.47,30.01L563.74,29.88L564,22.89L564.53,11.3L564.79,15.51L565.06,13.85L566.38,64.79L566.64,64.79L569.81,64.94L570.08,69.37L570.34,56.86L570.6,62.61L570.87,67.77L571.4,65.16L571.66,68.49L571.92,65.64L572.45,68.05L572.72,75.99L572.98,77.03L573.25,84.15L575.62,84.28L575.89,91.27L576.68,85.8L576.94,94.76L578,83.41L578.26,84.52L579.06,61.42L579.32,66.72L579.58,72.02L580.11,82.89L580.38,72.91L580.9,68.45L581.17,70.88L581.43,80.12L583.55,34.29" style="vector-effect: non-scaling-stroke; fill: none; stroke: rgb(0, 0, 0); stroke-opacity: 0; stroke-width: 0px; opacity: 1;"/></g><g class="points"/><g class="text"/></g><g class="trace scatter trace5202803a-dbf1-4467-8b2b-8f0d04ab6c8a" style="stroke-miterlimit: 2;"><g class="fills"><g><path class="js-fill" d="M30.21,214.64L583.55,214.64L583.55,214.64L30.21,214.64Z" style="fill: rgb(255, 0, 0); fill-opacity: 0.3; stroke-width: 0;"/></g></g><g class="errorbars"/><g class="lines"><path class="js-line" d="M30.21,214.64L583.55,214.64" style="vector-effect: non-scaling-stroke; fill: none; stroke: rgb(0, 0, 0); stroke-opacity: 0; stroke-width: 0px; opacity: 1;"/></g><g class="points"/><g class="text"/></g><g class="trace scatter trace9a786c91-1a09-4bbd-9491-b080bb331ba2" style="stroke-miterlimit: 2;"><g class="fills"/><g class="errorbars"/><g class="lines"><path class="js-line" d="M30.21,214.64L583.55,214.64" style="vector-effect: non-scaling-stroke; fill: none; stroke: rgb(0, 0, 0); stroke-opacity: 0; stroke-width: 0px; opacity: 1;"/></g><g class="points"/><g class="text"/></g><g class="trace scatter traceeb12642b-b016-48c3-b4e2-6404f4ac1956" style="stroke-miterlimit: 2; opacity: 1;"><g class="fills"/><g class="errorbars"/><g class="lines"><path class="js-line" d="M30.21,214.64L196.87,213.92L197.13,213.81L201.89,213.61L202.15,213.26L203.21,212.69L203.47,212.61L204.79,212.55L205.06,212.15L207.44,211.83L207.7,211.61L208.76,210.36L209.02,210.78L211.4,210.97L211.66,211.16L212.98,211.49L213.25,211.49L223.28,211.11L223.55,210.74L228.3,210.25L228.57,210.07L230.41,210.07L230.68,210.76L231.47,210.31L231.73,210.75L232,210.78L250.22,210.13L250.49,209.92L251.81,209.07L252.07,208.19L253.92,208.3L254.19,208.34L256.3,208.64L256.56,207.64L257.09,205.08L257.62,205.33L257.88,205.17L259.2,203.47L259.47,205.46L260.52,204.11L260.79,204.26L261.05,204.61L262.11,204.37L262.37,202.88L264.22,197.34L264.49,197.93L264.75,199.27L265.01,197.69L265.28,196.05L265.81,197.45L266.07,200.62L266.33,201.15L266.86,200.81L267.13,199.27L268.18,201.53L268.45,201.53L270.83,201.55L271.09,203.3L271.88,205.17L272.15,205.17L275.32,205.67L275.58,206.13L276.37,206.22L276.64,206.18L277.96,205.85L278.22,205.85L290.37,205.45L290.63,204.69L291.95,202.23L292.22,203.86L293.28,202.57L293.54,202.9L294.07,202.6L294.33,200.98L295.12,200.76L295.39,201.43L296.18,201.9L296.44,202.73L297.77,202.25L298.03,202.87L304.1,202.88L304.37,204.28L304.63,204.15L304.9,204.87L305.95,205.26L306.22,205.26L312.03,205.27L312.29,206.1L314.67,204.8L314.93,204.8L317.57,204.67L317.84,205.18L318.9,205.47L319.16,205.47L327.08,205.59L327.35,207.3L332.37,207.77L332.63,208.08L333.69,207.69L333.95,207.65L337.38,207.86L337.65,207.86L345.57,208.21L345.84,209L355.87,209.21L356.14,208.55L356.4,208.11L356.93,208.5L357.19,209.22L357.99,208.13L358.25,208.43L359.57,207.39L359.83,207.29L361.68,209.2L361.95,208.64L370.93,208.03L371.19,207.41L372.25,207.26L372.51,206.78L373.3,207.81L373.57,207.91L380.17,207.87L380.44,207.97L382.28,207.63L382.55,206.54L383.61,206.44L383.87,206.01L384.66,205.87L384.93,206.46L386.77,206.05L387.04,206.05L392.59,206.43L392.85,205.42L393.11,205.75L393.38,205.3L393.64,204.34L394.17,202.11L394.43,203.07L394.7,203.51L394.96,202.24L395.49,202.52L395.75,203.02L396.55,202.69L396.81,201.96L397.6,201.85L397.87,202.49L398.66,201.81L398.92,202.65L399.19,203.18L399.72,202.8L399.98,202.74L403.41,202.45L403.68,201.41L405,199.53L405.26,201.44L405.79,200.28L406.06,201.6L406.85,201.04L407.11,201.88L409.23,200.94L409.49,200.94L416.36,201.28L416.62,201.92L417.68,202.02L417.94,203.37L426.39,202.84L426.66,202.39L427.45,200.88L427.71,201.09L427.98,201.24L428.51,202.09L428.77,204.19L430.09,204.06L430.36,204.06L434.85,204.33L435.11,204.59L439.34,204.58L439.6,204.36L440.66,204.48L440.92,204.44L441.98,204.26L442.24,204.38L443.3,204.54L443.56,204.54L457.56,203.96L457.82,203.74L458.09,203.86L458.35,202.24L459.14,201.88L459.41,201.53L459.94,202.15L460.2,201.96L460.46,202.06L461.26,202.59L461.52,202.08L464.16,199.37L464.43,198.77L466.54,193.38L466.8,194.84L467.07,195.2L467.33,194.72L467.6,193.55L468.12,195.35L468.39,194.78L468.65,195.02L468.92,194.17L469.18,194.81L469.45,196.11L470.24,197.7L470.5,197.7L478.95,197.37L479.22,196.56L480.01,196.36L480.27,193.1L480.54,193.62L480.8,192.65L481.07,192.89L482.12,194.74L482.39,194.57L482.65,195.12L482.92,192.72L483.44,190.83L483.71,191.51L483.97,192.7L484.24,192.64L484.5,191.38L486.08,189.37L486.35,187L486.61,188.2L487.14,187.21L487.41,187.77L488.2,188.65L488.46,187.6L488.99,187.69L489.25,190.62L489.52,190.96L489.78,190.53L490.05,189.29L492.69,189.13L492.95,189.91L493.74,189.11L494.01,187.77L494.27,187.67L494.54,185.02L494.8,186.41L495.06,184.45L495.33,185.64L495.59,184.79L497.44,184.39L497.71,186.32L498.23,185.44L498.5,186.02L498.76,186.54L499.56,186.19L499.82,186.19L505.37,186.87L505.63,187.05L506.42,186.96L506.69,187.16L507.21,187.82L507.48,187.5L507.74,187.16L508.01,187.43L508.27,186.4L509.86,177.58L510.12,178.14L510.38,177.97L511.97,169.7L512.23,168.35L512.76,170.89L513.03,169.22L513.29,169.56L513.55,169.01L513.82,170.79L514.61,164.22L515.14,164.63L515.4,165.13L515.93,167.79L516.19,166.64L516.46,169.79L517.25,167.59L517.52,170.38L518.84,170.14L519.1,170.14L520.16,170.18L520.42,176.25L520.68,174.18L520.95,174.26L521.21,176.02L524.91,175.75L525.17,178.45L525.97,174.93L526.23,174.93L529.93,174.52L530.72,174.06L530.99,174.27L531.25,175.47L532.04,174.01L532.31,175.16L532.83,170.39L533.36,170.53L533.63,171.2L534.68,173.28L534.95,173.7L535.48,172.25L535.74,173.66L536.27,171.63L536.53,170.36L536.8,166.01L537.32,166.13L537.59,167.14L538.65,163.88L538.91,165.43L539.17,166.77L539.44,165.45L539.7,163.26L540.23,164.2L540.49,160.12L541.29,149.56L541.55,150.04L541.81,153.6L542.34,159.29L542.61,157.07L542.87,153.05L543.14,148.87L543.66,150.64L543.93,148.67L544.19,153.74L544.72,150.26L544.98,151.33L546.04,156.26L546.3,153.82L547.63,146.66L547.89,146.73L548.15,146.26L549.21,154.1L549.47,151.21L550.27,143.84L550.53,138.88L550.79,138.77L551.06,136.68L551.59,138.89L551.85,134.3L553.17,87.5L553.44,87.65L553.7,81.75L553.96,83.71L554.23,101.56L554.49,106.41L554.76,97.35L555.55,86.68L555.81,87.03L556.08,84.22L556.34,71.77L556.61,71.25L556.87,98.3L557.66,70.28L557.93,77.26L558.19,73.87L558.45,84.65L558.72,79.99L558.98,71.23L559.25,71.89L559.51,78.23L560.04,57.46L560.3,42.34L560.57,49.21L560.83,36.35L561.36,47.19L561.62,33.45L562.15,33.7L562.68,23.4L562.94,26.45L563.21,27.39L563.47,30.01L563.74,29.88L564,22.89L564.53,11.3L564.79,15.51L565.06,13.85L566.38,64.79L566.64,64.79L569.81,64.94L570.08,69.37L570.34,56.86L570.6,62.61L570.87,67.77L571.4,65.16L571.66,68.49L571.92,65.64L572.45,68.05L572.72,75.99L572.98,77.03L573.25,84.15L575.62,84.28L575.89,91.27L576.68,85.8L576.94,94.76L578,83.41L578.26,84.52L579.06,61.42L579.32,66.72L579.58,72.02L580.11,82.89L580.38,72.91L580.9,68.45L581.17,70.88L581.43,80.12L583.55,34.29" style="vector-effect: non-scaling-stroke; fill: none; stroke: rgb(148, 103, 189); stroke-opacity: 1; stroke-width: 2px; opacity: 1;"/></g><g class="points"/><g class="text"/></g><g class="trace scatter traceead1142b-d0eb-4737-87e5-04d48f6999b1" style="stroke-miterlimit: 2; opacity: 0;"><g class="fills"/><g class="errorbars"/><g class="lines"><path class="js-line" d="M30.21,214.64L583.55,214.64" style="vector-effect: non-scaling-stroke; fill: none; stroke: rgb(0, 0, 0); stroke-opacity: 0; stroke-width: 0px; opacity: 1;"/></g><g class="points"/><g class="text"/></g></g></g><g class="overplot"/><path class="xlines-above crisp" d="M0,0" style="fill: none;"/><path class="ylines-above crisp" d="M0,0" style="fill: none;"/><g class="overlines-above"/><g class="xaxislayer-above"><g class="x3tick"><text text-anchor="middle" x="0" y="861" transform="translate(170.04000000000002,0)" style="font-family: 'Open Sans', verdana, arial, sans-serif; font-size: 12px; fill: rgb(42, 63, 95); fill-opacity: 1; white-space: pre;">2016</text></g><g class="x3tick"><text text-anchor="middle" x="0" y="861" transform="translate(266.7,0)" style="font-family: 'Open Sans', verdana, arial, sans-serif; font-size: 12px; fill: rgb(42, 63, 95); fill-opacity: 1; white-space: pre;">2017</text></g><g class="x3tick"><text text-anchor="middle" x="0" y="861" transform="translate(363.11,0)" style="font-family: 'Open Sans', verdana, arial, sans-serif; font-size: 12px; fill: rgb(42, 63, 95); fill-opacity: 1; white-space: pre;">2018</text></g><g class="x3tick"><text text-anchor="middle" x="0" y="861" transform="translate(459.51,0)" style="font-family: 'Open Sans', verdana, arial, sans-serif; font-size: 12px; fill: rgb(42, 63, 95); fill-opacity: 1; white-space: pre;">2019</text></g><g class="x3tick"><text text-anchor="middle" x="0" y="861" transform="translate(555.9200000000001,0)" style="font-family: 'Open Sans', verdana, arial, sans-serif; font-size: 12px; fill: rgb(42, 63, 95); fill-opacity: 1; white-space: pre;">2020</text></g><g class="x3tick"><text text-anchor="middle" x="0" y="861" transform="translate(652.59,0)" style="font-family: 'Open Sans', verdana, arial, sans-serif; font-size: 12px; fill: rgb(42, 63, 95); fill-opacity: 1; white-space: pre;">2021</text></g></g><g class="yaxislayer-above"><g class="y3tick"><text text-anchor="end" x="100" y="4.199999999999999" transform="translate(0,836.7044444444444)" style="font-family: 'Open Sans', verdana, arial, sans-serif; font-size: 12px; fill: rgb(42, 63, 95); fill-opacity: 1; white-space: pre;">0</text></g><g class="y3tick"><text text-anchor="end" x="100" y="4.199999999999999" transform="translate(0,794.3544444444444)" style="font-family: 'Open Sans', verdana, arial, sans-serif; font-size: 12px; fill: rgb(42, 63, 95); fill-opacity: 1; white-space: pre;">2k</text></g><g class="y3tick"><text text-anchor="end" x="100" y="4.199999999999999" transform="translate(0,751.9944444444445)" style="font-family: 'Open Sans', verdana, arial, sans-serif; font-size: 12px; fill: rgb(42, 63, 95); fill-opacity: 1; white-space: pre;">4k</text></g><g class="y3tick"><text text-anchor="end" x="100" y="4.199999999999999" transform="translate(0,709.6344444444445)" style="font-family: 'Open Sans', verdana, arial, sans-serif; font-size: 12px; fill: rgb(42, 63, 95); fill-opacity: 1; white-space: pre;">6k</text></g><g class="y3tick"><text text-anchor="end" x="100" y="4.199999999999999" transform="translate(0,667.2844444444445)" style="font-family: 'Open Sans', verdana, arial, sans-serif; font-size: 12px; fill: rgb(42, 63, 95); fill-opacity: 1; white-space: pre;">8k</text></g><g class="y3tick"><text text-anchor="end" x="100" y="4.199999999999999" transform="translate(0,624.9244444444445)" style="font-family: 'Open Sans', verdana, arial, sans-serif; font-size: 12px; fill: rgb(42, 63, 95); fill-opacity: 1; white-space: pre;">10k</text></g></g><g class="overaxes-above"/></g></g><g class="polarlayer"/><g class="ternarylayer"/><g class="geolayer"/><g class="funnelarealayer"/><g class="pielayer"/><g class="treemaplayer"/><g class="sunburstlayer"/><g class="glimages"/><defs id="topdefs-efa706"><g class="clips"/><clipPath id="legendefa706"><rect width="409" height="67" x="0" y="0"/></clipPath></defs><g class="layer-above"><g class="imagelayer"/><g class="shapelayer"><path data-index="0" fill-rule="evenodd" d="M101,568.0922222222222L720,568.0922222222222" clip-path="url('#clipefa706y2')" style="opacity: 1; stroke: rgb(128, 128, 128); stroke-opacity: 1; fill: rgb(0, 0, 0); fill-opacity: 0; stroke-dasharray: 9px, 9px; stroke-width: 2px;"/><path data-index="1" fill-rule="evenodd" d="M101,836.6844444444445L720,836.6844444444445" clip-path="url('#clipefa706y3')" style="opacity: 1; stroke: rgb(128, 128, 128); stroke-opacity: 1; fill: rgb(0, 0, 0); fill-opacity: 0; stroke-dasharray: 9px, 9px; stroke-width: 2px;"/></g></g><g class="infolayer"><g class="legend" pointer-events="all" transform="translate(311, 12.199999999999932)"><rect class="bg" shape-rendering="crispEdges" style="stroke: rgb(68, 68, 68); stroke-opacity: 1; fill: rgb(255, 255, 255); fill-opacity: 1; stroke-width: 0px;" width="409" height="67" x="0" y="0"/><g class="scrollbox" transform="translate(0, 0)" clip-path="url('#legendefa706')"><g class="groups"><g class="traces" transform="translate(0, 14.5)" style="opacity: 1;"><text class="legendtext" text-anchor="start" x="40" y="4.680000000000001" style="font-family: 'Open Sans', verdana, arial, sans-serif; font-size: 12px; fill: rgb(42, 63, 95); fill-opacity: 1; white-space: pre;">(10, 20, 'ETH-USD')</text><g class="layers" style="opacity: 1;"><g class="legendfill"/><g class="legendlines"><path class="js-line" d="M5,0h30" style="fill: none; stroke: rgb(31, 119, 180); stroke-opacity: 1; stroke-width: 2px;"/></g><g class="legendsymbols"><g class="legendpoints"/></g></g><rect class="legendtoggle" x="0" y="-9.5" width="163.21875" height="19" style="fill: rgb(0, 0, 0); fill-opacity: 0;"/></g><g class="traces" transform="translate(165.71875, 14.5)" style="opacity: 1;"><text class="legendtext" text-anchor="start" x="40" y="4.680000000000001" style="font-family: 'Open Sans', verdana, arial, sans-serif; font-size: 12px; fill: rgb(42, 63, 95); fill-opacity: 1; white-space: pre;">Buy</text><g class="layers" style="opacity: 1;"><g class="legendfill"/><g class="legendlines"/><g class="legendsymbols"><g class="legendpoints"><path class="scatterpts" transform="translate(20,0)" d="M-4.62,2H4.62L0,-4Z" style="opacity: 1; stroke-width: 1px; fill: rgb(55, 177, 63); fill-opacity: 1; stroke: rgb(38, 123, 44); stroke-opacity: 1;"/></g></g></g><rect class="legendtoggle" x="0" y="-9.5" width="65.421875" height="19" style="fill: rgb(0, 0, 0); fill-opacity: 0;"/></g><g class="traces" transform="translate(331.4375, 14.5)" style="opacity: 1;"><text class="legendtext" text-anchor="start" x="40" y="4.680000000000001" style="font-family: 'Open Sans', verdana, arial, sans-serif; font-size: 12px; fill: rgb(42, 63, 95); fill-opacity: 1; white-space: pre;">Sell</text><g class="layers" style="opacity: 1;"><g class="legendfill"/><g class="legendlines"/><g class="legendsymbols"><g class="legendpoints"><path class="scatterpts" transform="translate(20,0)" d="M-4.62,-2H4.62L0,4Z" style="opacity: 1; stroke-width: 1px; fill: rgb(234, 67, 53); fill-opacity: 1; stroke: rgb(181, 31, 18); stroke-opacity: 1;"/></g></g></g><rect class="legendtoggle" x="0" y="-9.5" width="64.4375" height="19" style="fill: rgb(0, 0, 0); fill-opacity: 0;"/></g><g class="traces" transform="translate(0, 33.5)" style="opacity: 1;"><text class="legendtext" text-anchor="start" x="40" y="4.680000000000001" style="font-family: 'Open Sans', verdana, arial, sans-serif; font-size: 12px; fill: rgb(42, 63, 95); fill-opacity: 1; white-space: pre;">Closed - Profit</text><g class="layers" style="opacity: 1;"><g class="legendfill"/><g class="legendlines"/><g class="legendsymbols"><g class="legendpoints"><path class="scatterpts" transform="translate(20,0)" d="M3.82,0A3.82,3.82 0 1,1 0,-3.82A3.82,3.82 0 0,1 3.82,0Z" style="opacity: 0.763732; stroke-width: 1px; fill: rgb(55, 177, 63); fill-opacity: 1; stroke: rgb(38, 123, 44); stroke-opacity: 1;"/></g></g></g><rect class="legendtoggle" x="0" y="-9.5" width="128.109375" height="19" style="fill: rgb(0, 0, 0); fill-opacity: 0;"/></g><g class="traces" transform="translate(165.71875, 33.5)" style="opacity: 1;"><text class="legendtext" text-anchor="start" x="40" y="4.680000000000001" style="font-family: 'Open Sans', verdana, arial, sans-serif; font-size: 12px; fill: rgb(42, 63, 95); fill-opacity: 1; white-space: pre;">Closed - Loss</text><g class="layers" style="opacity: 1;"><g class="legendfill"/><g class="legendlines"/><g class="legendsymbols"><g class="legendpoints"><path class="scatterpts" transform="translate(20,0)" d="M3.54,0A3.54,3.54 0 1,1 0,-3.54A3.54,3.54 0 0,1 3.54,0Z" style="opacity: 0.75163; stroke-width: 1px; fill: rgb(234, 67, 53); fill-opacity: 1; stroke: rgb(181, 31, 18); stroke-opacity: 1;"/></g></g></g><rect class="legendtoggle" x="0" y="-9.5" width="122.6875" height="19" style="fill: rgb(0, 0, 0); fill-opacity: 0;"/></g><g class="traces" transform="translate(331.4375, 33.5)" style="opacity: 1;"><text class="legendtext" text-anchor="start" x="40" y="4.680000000000001" style="font-family: 'Open Sans', verdana, arial, sans-serif; font-size: 12px; fill: rgb(42, 63, 95); fill-opacity: 1; white-space: pre;">Open</text><g class="layers" style="opacity: 1;"><g class="legendfill"/><g class="legendlines"/><g class="legendsymbols"><g class="legendpoints"><path class="scatterpts" transform="translate(20,0)" d="M3.62,0A3.62,3.62 0 1,1 0,-3.62A3.62,3.62 0 0,1 3.62,0Z" style="opacity: 0.755294; stroke-width: 1px; fill: rgb(255, 170, 0); fill-opacity: 1; stroke: rgb(178, 118, 0); stroke-opacity: 1;"/></g></g></g><rect class="legendtoggle" x="0" y="-9.5" width="74.171875" height="19" style="fill: rgb(0, 0, 0); fill-opacity: 0;"/></g><g class="traces" transform="translate(0, 52.5)" style="opacity: 1;"><text class="legendtext" text-anchor="start" x="40" y="4.680000000000001" style="font-family: 'Open Sans', verdana, arial, sans-serif; font-size: 12px; fill: rgb(42, 63, 95); fill-opacity: 1; white-space: pre;">Benchmark</text><g class="layers" style="opacity: 1;"><g class="legendfill"/><g class="legendlines"><path class="js-line" d="M5,0h30" style="fill: none; stroke: rgb(127, 127, 127); stroke-opacity: 1; stroke-width: 2px;"/></g><g class="legendsymbols"><g class="legendpoints"/></g></g><rect class="legendtoggle" x="0" y="-9.5" width="110.421875" height="19" style="fill: rgb(0, 0, 0); fill-opacity: 0;"/></g><g class="traces" transform="translate(165.71875, 52.5)" style="opacity: 1;"><text class="legendtext" text-anchor="start" x="40" y="4.680000000000001" style="font-family: 'Open Sans', verdana, arial, sans-serif; font-size: 12px; fill: rgb(42, 63, 95); fill-opacity: 1; white-space: pre;">Value</text><g class="layers" style="opacity: 1;"><g class="legendfill"/><g class="legendlines"><path class="js-line" d="M5,0h30" style="fill: none; stroke: rgb(148, 103, 189); stroke-opacity: 1; stroke-width: 2px;"/></g><g class="legendsymbols"><g class="legendpoints"/></g></g><rect class="legendtoggle" x="0" y="-9.5" width="75.953125" height="19" style="fill: rgb(0, 0, 0); fill-opacity: 0;"/></g></g></g><rect class="scrollbar" rx="20" ry="3" width="0" height="0" style="fill: rgb(128, 139, 164); fill-opacity: 1;" x="0" y="0"/></g><g class="g-gtitle"/><g class="g-xtitle"/><g class="g-x2title"/><g class="g-x3title"><text class="x3title" x="410.5" y="888.3" text-anchor="middle" style="font-family: 'Open Sans', verdana, arial, sans-serif; font-size: 14px; fill: rgb(42, 63, 95); opacity: 1; font-weight: normal; white-space: pre;">Date</text></g><g class="g-ytitle"><text class="ytitle" transform="rotate(-90,44.684375,216.97777777777776)" x="44.684375" y="216.97777777777776" text-anchor="middle" style="font-family: 'Open Sans', verdana, arial, sans-serif; font-size: 14px; fill: rgb(42, 63, 95); opacity: 1; font-weight: normal; white-space: pre;">Price</text></g><g class="g-y2title" transform="translate(1.8623046875,0)"><text class="y2title" transform="rotate(-90,12.137500000000003,476)" x="12.137500000000003" y="476" text-anchor="middle" style="font-family: 'Open Sans', verdana, arial, sans-serif; font-size: 14px; fill: rgb(42, 63, 95); opacity: 1; font-weight: normal; white-space: pre;">Return</text></g><g class="g-y3title"><text class="y3title" transform="rotate(-90,52.840625,735.0222222222222)" x="52.840625" y="735.0222222222222" text-anchor="middle" style="font-family: 'Open Sans', verdana, arial, sans-serif; font-size: 14px; fill: rgb(42, 63, 95); opacity: 1; font-weight: normal; white-space: pre;">Cumulative returns</text></g><g class="annotation" data-index="0" style="opacity: 1;"><g class="annotation-text-g" transform="rotate(0,410.5,92)"><g class="cursor-pointer" transform="translate(382, 80)"><rect class="bg" x="0.5" y="0.5" width="57" height="23" style="stroke-width: 1px; stroke: rgb(0, 0, 0); stroke-opacity: 0; fill: rgb(0, 0, 0); fill-opacity: 0;"/><text class="annotation-text" text-anchor="middle" x="29.046875" y="18" style="font-family: 'Open Sans', verdana, arial, sans-serif; font-size: 16px; fill: rgb(42, 63, 95); fill-opacity: 1; white-space: pre;">Orders</text></g></g></g><g class="annotation" data-index="1" style="opacity: 1;"><g class="annotation-text-g" transform="rotate(0,410.5,351.0222222222222)"><g class="cursor-pointer" transform="translate(352, 339)"><rect class="bg" x="0.5" y="0.5" width="117" height="23" style="stroke-width: 1px; stroke: rgb(0, 0, 0); stroke-opacity: 0; fill: rgb(0, 0, 0); fill-opacity: 0;"/><text class="annotation-text" text-anchor="middle" x="58.90625" y="18" style="font-family: 'Open Sans', verdana, arial, sans-serif; font-size: 16px; fill: rgb(42, 63, 95); fill-opacity: 1; white-space: pre;">Trade Returns</text></g></g></g><g class="annotation" data-index="2" style="opacity: 1;"><g class="annotation-text-g" transform="rotate(0,410.5,610.0444444444445)"><g class="cursor-pointer" transform="translate(329, 598)"><rect class="bg" x="0.5" y="0.5" width="162" height="23" style="stroke-width: 1px; stroke: rgb(0, 0, 0); stroke-opacity: 0; fill: rgb(0, 0, 0); fill-opacity: 0;"/><text class="annotation-text" text-anchor="middle" x="81.34375" y="18" style="font-family: 'Open Sans', verdana, arial, sans-serif; font-size: 16px; fill: rgb(42, 63, 95); fill-opacity: 1; white-space: pre;">Cumulative Returns</text></g></g></g></g></svg>