<svg class="main-svg" xmlns="http://www.w3.org/2000/svg" xmlns:xlink="http://www.w3.org/1999/xlink" width="700" height="350" style="" viewBox="0 0 700 350"><rect x="0" y="0" width="700" height="350" style="fill: rgb(255, 255, 255); fill-opacity: 1;"/><defs id="defs-9130b0"><g class="clips"><clipPath id="clip9130b0xyplot" class="plotclip"><rect width="626" height="274"/></clipPath><clipPath class="axesclip" id="clip9130b0x"><rect x="44" y="0" width="626" height="350"/></clipPath><clipPath class="axesclip" id="clip9130b0y"><rect x="0" y="46" width="700" height="274"/></clipPath><clipPath class="axesclip" id="clip9130b0xy"><rect x="44" y="46" width="626" height="274"/></clipPath></g><g class="gradients"/></defs><g class="bglayer"><rect class="bg" x="44" y="46" width="626" height="274" style="fill: rgb(229, 236, 246); fill-opacity: 1; stroke-width: 0;"/></g><g class="layer-below"><g class="imagelayer"/><g class="shapelayer"/></g><g class="cartesianlayer"><g class="subplot xy"><g class="layer-subplot"><g class="shapelayer"/><g class="imagelayer"/></g><g class="gridlayer"><g class="x"><path class="xgrid crisp" transform="translate(47.4,0)" d="M0,46v274" style="stroke: rgb(255, 255, 255); stroke-opacity: 1; stroke-width: 1px;"/><path class="xgrid crisp" transform="translate(152.87,0)" d="M0,46v274" style="stroke: rgb(255, 255, 255); stroke-opacity: 1; stroke-width: 1px;"/><path class="xgrid crisp" transform="translate(254.93,0)" d="M0,46v274" style="stroke: rgb(255, 255, 255); stroke-opacity: 1; stroke-width: 1px;"/><path class="xgrid crisp" transform="translate(360.4,0)" d="M0,46v274" style="stroke: rgb(255, 255, 255); stroke-opacity: 1; stroke-width: 1px;"/><path class="xgrid crisp" transform="translate(462.47,0)" d="M0,46v274" style="stroke: rgb(255, 255, 255); stroke-opacity: 1; stroke-width: 1px;"/><path class="xgrid crisp" transform="translate(567.93,0)" d="M0,46v274" style="stroke: rgb(255, 255, 255); stroke-opacity: 1; stroke-width: 1px;"/></g><g class="y"><path class="ygrid crisp" transform="translate(0,263.94)" d="M44,0h626" style="stroke: rgb(255, 255, 255); stroke-opacity: 1; stroke-width: 1px;"/><path class="ygrid crisp" transform="translate(0,219.91)" d="M44,0h626" style="stroke: rgb(255, 255, 255); stroke-opacity: 1; stroke-width: 1px;"/><path class="ygrid crisp" transform="translate(0,175.88)" d="M44,0h626" style="stroke: rgb(255, 255, 255); stroke-opacity: 1; stroke-width: 1px;"/><path class="ygrid crisp" transform="translate(0,131.85)" d="M44,0h626" style="stroke: rgb(255, 255, 255); stroke-opacity: 1; stroke-width: 1px;"/><path class="ygrid crisp" transform="translate(0,87.82)" d="M44,0h626" style="stroke: rgb(255, 255, 255); stroke-opacity: 1; stroke-width: 1px;"/></g></g><g class="zerolinelayer"><path class="yzl zl crisp" transform="translate(0,307.97)" d="M44,0h626" style="stroke: rgb(255, 255, 255); stroke-opacity: 1; stroke-width: 2px;"/></g><path class="xlines-below"/><path class="ylines-below"/><g class="overlines-below"/><g class="xaxislayer-below"/><g class="yaxislayer-below"/><g class="overaxes-below"/><g class="plot" transform="translate(44, 46)" clip-path="url('#clip9130b0xyplot')"><g class="scatterlayer mlayer"><g class="trace scatter trace8a74de61-9cf8-4c17-86cb-06fc11f47e95" style="stroke-miterlimit: 2; opacity: 1;"><g class="fills"/><g class="errorbars"/><g class="lines"><path class="js-line" d="M0,256.66L3.4,257.03L6.8,258.23L10.21,258.57L13.61,250.2L17.01,247.99L20.41,257.74L23.82,257.98L27.22,255.34L30.62,253.61L34.02,258.29L37.42,255.17L40.83,256.39L44.23,258.91L47.63,257.99L51.03,257.16L54.43,251.74L57.84,257.76L61.24,256.47L68.04,256.83L71.45,253.85L74.85,259.12L78.25,258.98L81.65,258.93L85.05,252.74L88.46,258.42L91.86,252.35L95.26,257.16L98.66,254.97L102.07,240.58L105.47,260.3L108.87,255.97L112.27,195.87L115.67,224.07L119.08,242.03L122.48,250.16L125.88,243.16L129.28,245.7L132.68,246.94L136.09,251.18L139.49,241.86L142.89,232.3L146.29,248.98L149.7,256.2L153.1,250.48L156.5,246.77L159.9,245.79L163.3,257.12L166.71,255.85L170.11,252.87L173.51,256.45L180.32,249.43L183.72,240.45L187.12,242.26L190.52,230.19L197.33,255.18L200.73,255.75L204.13,253.62L207.53,249.72L210.93,255.77L214.34,250.69L217.74,228.88L221.14,240.71L224.54,250.89L227.95,248.82L231.35,240.23L234.75,244.77L238.15,244.29L241.55,237.92L244.96,177.67L248.36,201.37L251.76,160.77L255.16,211.57L258.57,234.02L261.97,209.9L265.37,183.5L268.77,244.73L272.17,174.44L275.58,215.98L278.98,242.7L282.38,228.36L285.78,225.81L289.18,234.12L292.59,248.59L295.99,194.79L299.39,240.97L302.79,246.79L306.2,237.92L309.6,192.66L313,225.5L316.4,249.28L319.8,240.12L323.21,214.47L326.61,205.04L330.01,241.43L333.41,229.75L336.82,232.22L340.22,240.9L343.62,227.38L347.02,222.76L350.42,239.64L353.83,232.53L357.23,242.2L360.63,215.54L364.03,240.77L367.43,216.06L370.84,224.32L374.24,231.72L377.64,241.78L381.04,230.09L384.45,207.41L387.85,169.48L391.25,201.2L394.65,221.86L398.05,192.95L401.46,82.25L404.86,13.7L408.26,127.17L411.66,182.8L415.07,140.5L418.47,163.59L421.87,158.56L425.27,159.25L432.08,216.11L435.48,205.39L438.88,227.38L442.28,178.09L445.68,213.9L449.09,137.05L452.49,174.12L455.89,198L459.29,179.76L462.7,154.83L466.1,168.56L469.5,125.6L472.9,191.52L476.3,142.2L479.71,219.05L483.11,209.36L486.51,222.14L489.91,218.21L493.32,221.18L496.72,236.03L500.12,228.48L503.52,244.48L506.92,195.41L510.33,233.5L513.73,243.59L517.13,238.68L520.53,219.03L523.93,215.74L527.34,236.7L530.74,222.93L534.14,227.72L537.54,179.69L540.95,175.4L544.35,208.84L551.15,239.01L554.55,209.86L557.96,237.72L561.36,243.72L564.76,210.04L568.16,185.56L574.97,203.07L578.37,229.74L581.77,229.56L585.17,208.88L588.58,233.08L591.98,188.35L595.38,226.61L598.78,229.89L602.18,223.6L605.59,235.92L608.99,227.97L612.39,236.07L615.79,212.41L619.2,232.45L626,249.51" style="vector-effect: non-scaling-stroke; fill: none; stroke: rgb(31, 119, 180); stroke-opacity: 1; stroke-width: 2px; opacity: 1;"/></g><g class="points"/><g class="text"/></g><g class="trace scatter trace6b0645a9-6496-4c5b-bc9e-f5b183703b9c" style="stroke-miterlimit: 2; opacity: 1;"><g class="fills"/><g class="errorbars"/><g class="lines"><path class="js-line" d="M30.62,255.23L37.42,255.67L40.83,255.8L51.03,256.75L54.43,255.84L64.64,256.35L68.04,256.44L71.45,255.96L74.85,256.54L81.65,257.34L85.05,256.5L88.46,256.85L91.86,256.03L98.66,256L102.07,253.2L105.47,254.49L108.87,254.76L112.27,244.05L115.67,240.42L119.08,240.71L122.48,242.43L129.28,243.13L132.68,243.82L136.09,245.16L139.49,244.56L142.89,242.33L146.29,243.54L149.7,245.84L153.1,246.69L159.9,246.53L163.3,248.46L170.11,250.36L173.51,251.47L180.32,251.31L183.72,249.34L187.12,248.05L190.52,244.8L193.92,244.62L197.33,246.54L204.13,249.2L207.53,249.29L210.93,250.47L214.34,250.51L217.74,246.58L221.14,245.51L227.95,246.91L231.35,245.7L238.15,245.3L241.55,243.96L244.96,231.91L248.36,226.36L251.76,214.43L255.16,213.91L258.57,217.57L261.97,216.17L265.37,210.23L268.77,216.51L272.17,208.86L275.58,210.15L278.98,216.07L282.38,218.3L285.78,219.67L289.18,222.3L292.59,227.08L295.99,221.21L302.79,228.8L306.2,230.46L309.6,223.58L313,223.93L316.4,228.54L319.8,230.65L323.21,227.71L326.61,223.58L330.01,226.83L333.41,227.36L336.82,228.24L340.22,230.54L347.02,228.66L350.42,230.65L353.83,231L357.23,233.03L360.63,229.85L364.03,231.84L367.43,228.97L370.84,228.12L374.24,228.78L377.64,231.14L381.04,230.95L384.45,226.67L387.85,216.27L391.25,213.53L394.65,215.05L398.05,211.03L401.46,187.61L404.86,155.99L408.26,150.75L411.66,156.58L415.07,153.66L418.47,155.46L425.27,156.61L428.67,162.33L432.08,172.11L435.48,178.16L438.88,187.11L442.28,185.47L445.68,190.64L449.09,180.89L452.49,179.66L455.89,183L459.29,182.41L462.7,177.39L466.1,175.79L469.5,166.66L472.9,171.18L476.3,165.91L479.71,175.57L483.11,181.72L486.51,189.07L489.91,194.37L493.32,199.24L496.72,205.93L500.12,210.03L503.52,216.29L506.92,212.5L510.33,216.32L513.73,221.27L517.13,224.44L523.93,222.05L527.34,224.72L530.74,224.39L534.14,225L540.95,209.24L544.35,209.17L547.75,211.99L551.15,216.9L554.55,215.62L557.96,219.64L561.36,224.02L564.76,221.48L568.16,214.94L571.57,211.29L574.97,209.8L578.37,213.42L581.77,216.36L585.17,215L588.58,218.28L591.98,212.84L598.78,217.99L602.18,219.01L605.59,222.08L608.99,223.15L612.39,225.5L615.79,223.12L619.2,224.82L622.6,227.93L626,231.85" style="vector-effect: non-scaling-stroke; fill: none; stroke: rgb(255, 127, 14); stroke-opacity: 1; stroke-width: 2px; opacity: 1;"/></g><g class="points"/><g class="text"/></g></g></g><g class="overplot"/><path class="xlines-above crisp" d="M0,0" style="fill: none;"/><path class="ylines-above crisp" d="M0,0" style="fill: none;"/><g class="overlines-above"/><g class="xaxislayer-above"><g class="xtick"><text text-anchor="middle" x="0" y="333" transform="translate(47.4,0)" style="font-family: 'Open Sans', verdana, arial, sans-serif; font-size: 12px; fill: rgb(42, 63, 95); fill-opacity: 1; white-space: pre;">Mar 2019</text></g><g class="xtick"><text text-anchor="middle" x="0" y="333" transform="translate(152.87,0)" style="font-family: 'Open Sans', verdana, arial, sans-serif; font-size: 12px; fill: rgb(42, 63, 95); fill-opacity: 1; white-space: pre;">Apr 2019</text></g><g class="xtick"><text text-anchor="middle" x="0" y="333" transform="translate(254.93,0)" style="font-family: 'Open Sans', verdana, arial, sans-serif; font-size: 12px; fill: rgb(42, 63, 95); fill-opacity: 1; white-space: pre;">May 2019</text></g><g class="xtick"><text text-anchor="middle" x="0" y="333" transform="translate(360.4,0)" style="font-family: 'Open Sans', verdana, arial, sans-serif; font-size: 12px; fill: rgb(42, 63, 95); fill-opacity: 1; white-space: pre;">Jun 2019</text></g><g class="xtick"><text text-anchor="middle" x="0" y="333" transform="translate(462.47,0)" style="font-family: 'Open Sans', verdana, arial, sans-serif; font-size: 12px; fill: rgb(42, 63, 95); fill-opacity: 1; white-space: pre;">Jul 2019</text></g><g class="xtick"><text text-anchor="middle" x="0" y="333" transform="translate(567.93,0)" style="font-family: 'Open Sans', verdana, arial, sans-serif; font-size: 12px; fill: rgb(42, 63, 95); fill-opacity: 1; white-space: pre;">Aug 2019</text></g></g><g class="yaxislayer-above"><g class="ytick"><text text-anchor="end" x="43" y="4.199999999999999" transform="translate(0,307.97)" style="font-family: 'Open Sans', verdana, arial, sans-serif; font-size: 12px; fill: rgb(42, 63, 95); fill-opacity: 1; white-space: pre;">0</text></g><g class="ytick"><text text-anchor="end" x="43" y="4.199999999999999" transform="translate(0,263.94)" style="font-family: 'Open Sans', verdana, arial, sans-serif; font-size: 12px; fill: rgb(42, 63, 95); fill-opacity: 1; white-space: pre;">500</text></g><g class="ytick"><text text-anchor="end" x="43" y="4.199999999999999" transform="translate(0,219.91)" style="font-family: 'Open Sans', verdana, arial, sans-serif; font-size: 12px; fill: rgb(42, 63, 95); fill-opacity: 1; white-space: pre;">1000</text></g><g class="ytick"><text text-anchor="end" x="43" y="4.199999999999999" transform="translate(0,175.88)" style="font-family: 'Open Sans', verdana, arial, sans-serif; font-size: 12px; fill: rgb(42, 63, 95); fill-opacity: 1; white-space: pre;">1500</text></g><g class="ytick"><text text-anchor="end" x="43" y="4.199999999999999" transform="translate(0,131.85)" style="font-family: 'Open Sans', verdana, arial, sans-serif; font-size: 12px; fill: rgb(42, 63, 95); fill-opacity: 1; white-space: pre;">2000</text></g><g class="ytick"><text text-anchor="end" x="43" y="4.199999999999999" transform="translate(0,87.82)" style="font-family: 'Open Sans', verdana, arial, sans-serif; font-size: 12px; fill: rgb(42, 63, 95); fill-opacity: 1; white-space: pre;">2500</text></g></g><g class="overaxes-above"/></g></g><g class="polarlayer"/><g class="ternarylayer"/><g class="geolayer"/><g class="funnelarealayer"/><g class="pielayer"/><g class="treemaplayer"/><g class="sunburstlayer"/><g class="glimages"/><defs id="topdefs-9130b0"><g class="clips"/><clipPath id="legend9130b0"><rect width="130" height="29" x="0" y="0"/></clipPath></defs><g class="layer-above"><g class="imagelayer"/><g class="shapelayer"/></g><g class="infolayer"><g class="legend" pointer-events="all" transform="translate(540, 11.519999999999996)"><rect class="bg" shape-rendering="crispEdges" style="stroke: rgb(68, 68, 68); stroke-opacity: 1; fill: rgb(255, 255, 255); fill-opacity: 1; stroke-width: 0px;" width="130" height="29" x="0" y="0"/><g class="scrollbox" transform="translate(0, 0)" clip-path="url('#legend9130b0')"><g class="groups"><g class="traces" transform="translate(0, 14.5)" style="opacity: 1;"><text class="legendtext" text-anchor="start" x="40" y="4.680000000000001" style="font-family: 'Open Sans', verdana, arial, sans-serif; font-size: 12px; fill: rgb(42, 63, 95); fill-opacity: 1; white-space: pre;">TR</text><g class="layers" style="opacity: 1;"><g class="legendfill"/><g class="legendlines"><path class="js-line" d="M5,0h30" style="fill: none; stroke: rgb(31, 119, 180); stroke-opacity: 1; stroke-width: 2px;"/></g><g class="legendsymbols"><g class="legendpoints"/></g></g><rect class="legendtoggle" x="0" y="-9.5" width="58.296875" height="19" style="fill: rgb(0, 0, 0); fill-opacity: 0;"/></g><g class="traces" transform="translate(60.796875, 14.5)" style="opacity: 1;"><text class="legendtext" text-anchor="start" x="40" y="4.680000000000001" style="font-family: 'Open Sans', verdana, arial, sans-serif; font-size: 12px; fill: rgb(42, 63, 95); fill-opacity: 1; white-space: pre;">ATR</text><g class="layers" style="opacity: 1;"><g class="legendfill"/><g class="legendlines"><path class="js-line" d="M5,0h30" style="fill: none; stroke: rgb(255, 127, 14); stroke-opacity: 1; stroke-width: 2px;"/></g><g class="legendsymbols"><g class="legendpoints"/></g></g><rect class="legendtoggle" x="0" y="-9.5" width="66.5" height="19" style="fill: rgb(0, 0, 0); fill-opacity: 0;"/></g></g></g><rect class="scrollbar" rx="20" ry="3" width="0" height="0" style="fill: rgb(128, 139, 164); fill-opacity: 1;" x="0" y="0"/></g><g class="g-gtitle"/><g class="g-xtitle"/><g class="g-ytitle"/></g></svg>