<svg class="main-svg" xmlns="http://www.w3.org/2000/svg" xmlns:xlink="http://www.w3.org/1999/xlink" width="700" height="350" style="" viewBox="0 0 700 350"><rect x="0" y="0" width="700" height="350" style="fill: rgb(255, 255, 255); fill-opacity: 1;"/><defs id="defs-000cdb"><g class="clips"><clipPath id="clip000cdbxyplot" class="plotclip"><rect width="620" height="274"/></clipPath><clipPath class="axesclip" id="clip000cdbx"><rect x="40" y="0" width="620" height="350"/></clipPath><clipPath class="axesclip" id="clip000cdby"><rect x="0" y="46" width="700" height="274"/></clipPath><clipPath class="axesclip" id="clip000cdbxy"><rect x="40" y="46" width="620" height="274"/></clipPath></g><g class="gradients"/><g class="patterns"/></defs><g class="bglayer"><rect class="bg" x="40" y="46" width="620" height="274" style="fill: rgb(229, 236, 246); fill-opacity: 1; stroke-width: 0;"/></g><g class="layer-below"><g class="imagelayer"/><g class="shapelayer"/></g><g class="cartesianlayer"><g class="subplot xy"><g class="layer-subplot"><g class="shapelayer"/><g class="imagelayer"/></g><g class="gridlayer"><g class="x"><path class="xgrid crisp" transform="translate(167.28,0)" d="M0,46v274" style="stroke: rgb(255, 255, 255); stroke-opacity: 1; stroke-width: 1px;"/><path class="xgrid crisp" transform="translate(282.25,0)" d="M0,46v274" style="stroke: rgb(255, 255, 255); stroke-opacity: 1; stroke-width: 1px;"/><path class="xgrid crisp" transform="translate(409.54,0)" d="M0,46v274" style="stroke: rgb(255, 255, 255); stroke-opacity: 1; stroke-width: 1px;"/><path class="xgrid crisp" transform="translate(532.72,0)" d="M0,46v274" style="stroke: rgb(255, 255, 255); stroke-opacity: 1; stroke-width: 1px;"/></g><g class="y"><path class="ygrid crisp" transform="translate(0,286.03)" d="M40,0h620" style="stroke: rgb(255, 255, 255); stroke-opacity: 1; stroke-width: 1px;"/><path class="ygrid crisp" transform="translate(0,245.5)" d="M40,0h620" style="stroke: rgb(255, 255, 255); stroke-opacity: 1; stroke-width: 1px;"/><path class="ygrid crisp" transform="translate(0,204.97)" d="M40,0h620" style="stroke: rgb(255, 255, 255); stroke-opacity: 1; stroke-width: 1px;"/><path class="ygrid crisp" transform="translate(0,164.44)" d="M40,0h620" style="stroke: rgb(255, 255, 255); stroke-opacity: 1; stroke-width: 1px;"/><path class="ygrid crisp" transform="translate(0,123.91)" d="M40,0h620" style="stroke: rgb(255, 255, 255); stroke-opacity: 1; stroke-width: 1px;"/><path class="ygrid crisp" transform="translate(0,83.38)" d="M40,0h620" style="stroke: rgb(255, 255, 255); stroke-opacity: 1; stroke-width: 1px;"/></g></g><g class="zerolinelayer"/><path class="xlines-below"/><path class="ylines-below"/><g class="overlines-below"/><g class="xaxislayer-below"/><g class="yaxislayer-below"/><g class="overaxes-below"/><g class="plot" transform="translate(40,46)" clip-path="url(#clip000cdbxyplot)"><g class="scatterlayer mlayer"><g class="trace scatter trace9b0e888a-39e0-498c-a0ed-117a9cbe7ceb" style="stroke-miterlimit: 2; opacity: 1;"><g class="fills"/><g class="errorbars"/><g class="lines"><path class="js-line" d="M0,260.3L4.11,258.4L8.21,257.95L12.32,258.51L16.42,257.11L24.64,253.4L28.74,252.42L32.85,252.79L36.95,254.1L45.17,257.16L49.27,254.82L53.38,253.53L57.48,255.16L65.7,255.87L69.8,255.29L78.01,256.04L82.12,259.3L86.23,257.79L90.33,258.44L102.65,258.1L106.75,259.57L110.86,258.73L114.97,256.89L119.07,256.92L123.18,257.72L127.28,257.43L131.39,256.07L135.5,254.71L139.6,255.09L147.81,253.48L151.92,253.73L156.03,248.69L160.13,248.5L164.24,249.58L168.34,247.51L176.56,248.07L180.66,246.96L184.77,247.49L188.87,246.62L192.98,244.59L197.09,244.91L201.19,242.01L205.3,241.86L209.4,240.87L213.51,243.17L217.62,246.88L221.72,246.27L225.83,248.08L229.93,248.6L238.15,249.42L242.25,246.32L246.36,247.19L250.46,245.7L254.57,247.06L258.68,246.81L262.78,246.82L266.89,245.24L270.99,244.52L275.1,242.74L283.31,240.69L287.42,241.01L291.52,238.31L295.63,239.65L299.74,241.99L303.84,241.38L307.95,239.95L312.05,240.65L320.26,240.33L324.37,240.88L328.48,242.95L332.58,242.8L340.79,244.89L344.9,242.53L357.22,240.72L361.32,239.92L373.64,239.6L377.75,240.82L385.96,239.82L390.07,240.42L394.17,241.9L398.28,240.33L402.38,240.38L406.49,239.31L414.7,239.24L418.81,236.75L427.02,236.88L431.13,238.09L435.23,238.7L439.34,241.78L443.44,242.12L447.55,241.6L455.76,244.85L459.87,245.32L468.08,246.76L472.19,243.3L476.29,242.6L480.4,242.74L484.5,243.62L488.61,240.72L492.72,240.67L496.82,241.5L500.93,241.1L505.03,243.77L509.14,240.95L513.25,241.66L521.46,240L525.56,240.39L529.67,242.03L533.77,241.44L537.88,246.66L541.99,246.27L546.09,246.15L550.2,248.31L554.3,248.52L558.41,250.53L562.52,250.96L566.62,255.04L570.73,252.43L574.83,254.83L578.94,254.67L583.05,256.58L587.15,253.86L591.26,254.07L595.36,253.46L599.47,254.05L603.58,255.94L607.68,256.68L615.89,254.81L620,255.26" style="vector-effect: non-scaling-stroke; fill: none; stroke: rgb(31, 119, 180); stroke-opacity: 1; stroke-width: 2px; opacity: 1;"/></g><g class="points"/><g class="text"/></g><g class="trace scatter tracef4fbe511-e1b1-4241-8c0b-042c05b57c40" style="stroke-miterlimit: 2; opacity: 1;"><g class="fills"/><g class="errorbars"/><g class="lines"><path class="js-line" d="M0,260.3L4.11,259.07L8.21,253.5L16.42,250.04L20.53,247.07L28.74,246.6L32.85,245.02L36.95,245.54L41.06,250.32L45.17,251.61L49.27,249.19L53.38,246.76L57.48,248.05L61.59,246.34L65.7,246.43L69.8,245.68L73.91,242.35L78.01,242.21L82.12,249.45L86.23,246.26L90.33,246.41L94.44,241.95L98.54,243.82L102.65,242.91L106.75,245.79L110.86,244.55L114.97,242.2L119.07,242.38L123.18,244.08L127.28,242.58L131.39,238.52L135.5,234.48L139.6,236.32L143.71,232.88L147.81,234.01L151.92,235.78L156.03,232.1L160.13,231.51L164.24,232.17L172.45,229.41L176.56,230.23L188.87,231.15L192.98,229.28L197.09,226.81L201.19,226.18L205.3,227.3L209.4,226.86L213.51,231.12L217.62,237L221.72,235.43L225.83,239.62L229.93,240.44L234.04,240.06L238.15,241.27L242.25,237.15L246.36,239.15L250.46,236.84L258.68,238.02L262.78,234.65L266.89,232.75L270.99,229.66L275.1,228.73L279.21,230.64L283.31,229.89L287.42,231.4L291.52,227.16L295.63,229.11L299.74,230.85L303.84,230.43L307.95,229.97L312.05,231.1L316.16,230.13L320.26,230.27L324.37,230.95L328.48,233.64L332.58,233.99L336.69,236.35L340.79,236.3L344.9,233.32L349.01,232.94L353.11,233.64L357.22,230.08L361.32,229.34L369.54,225.7L373.64,221.1L377.75,224.28L381.85,222.49L390.07,221.79L394.17,225.87L398.28,222.61L402.38,223.07L406.49,221.3L410.6,220.7L414.7,221.21L418.81,216.77L422.91,213L427.02,210.67L443.44,220.46L447.55,215.91L455.76,213.88L459.87,214.98L463.97,219.2L468.08,216.3L472.19,210.24L476.29,206.68L480.4,204.36L484.5,204.07L488.61,203.62L492.72,198.83L496.82,198.66L500.93,185.36L505.03,190.29L509.14,182.82L517.35,183.88L521.46,172.28L529.67,170.9L533.77,164.9L537.88,175.52L541.99,177.48L546.09,167.38L550.2,179.62L554.3,181.02L558.41,189.49L562.52,186.78L566.62,212.29L570.73,203.31L574.83,213.12L578.94,216.87L583.05,222.03L587.15,207.21L591.26,205.47L595.36,200.41L599.47,204.64L603.58,213.42L607.68,217.32L611.79,214.24L615.89,205.23L620,207.49" style="vector-effect: non-scaling-stroke; fill: none; stroke: rgb(255, 127, 14); stroke-opacity: 1; stroke-width: 2px; opacity: 1;"/></g><g class="points"/><g class="text"/></g><g class="trace scatter traceb5e55f9d-7fc8-46f9-8355-0a3302494f9b" style="stroke-miterlimit: 2; opacity: 1;"><g class="fills"/><g class="errorbars"/><g class="lines"><path class="js-line" d="M0,260.3L4.11,260.06L8.21,256.87L12.32,254.59L16.42,250.71L20.53,242.21L24.64,245.9L28.74,245.25L32.85,242.08L41.06,248.73L45.17,247.4L49.27,244.32L53.38,244.69L57.48,245.6L61.59,239.83L65.7,236.67L69.8,237.64L73.91,237.9L78.01,237.18L82.12,244.71L86.23,240.16L90.33,240.62L94.44,239.67L98.54,240.82L102.65,240.78L106.75,244.38L110.86,242.05L119.07,238.66L123.18,240.71L127.28,234.1L131.39,231.3L135.5,229.55L139.6,229.59L147.81,208L151.92,203.91L160.13,199.26L164.24,173.05L172.45,173.59L176.56,175.89L180.66,182.51L184.77,181.06L188.87,179.91L192.98,177.6L197.09,174.92L201.19,173.36L205.3,150.78L209.4,153.38L213.51,153.54L217.62,170.23L221.72,159.02L225.83,155.85L229.93,137.13L234.04,127.45L242.25,131.2L246.36,138.92L250.46,139.96L254.57,151.72L258.68,145.52L262.78,149.85L266.89,149.58L270.99,151.35L275.1,142.44L279.21,149.39L283.31,150.57L287.42,160.47L291.52,153.05L295.63,158.16L299.74,161.12L303.84,136.92L307.95,121.23L312.05,137.37L316.16,130.07L320.26,141.12L324.37,143.14L328.48,152.3L332.58,150.95L336.69,156.33L340.79,153.26L344.9,140.27L349.01,144.59L353.11,142.91L361.32,140.34L365.43,142.66L369.54,143.12L373.64,142.28L377.75,144.97L381.85,142.87L385.96,140.23L390.07,135.48L394.17,144.75L398.28,139.63L402.38,141.47L406.49,139.71L414.7,128.46L418.81,117.4L422.91,112.36L427.02,109.34L431.13,116.81L435.23,120.52L439.34,133.16L443.44,142.12L447.55,134.26L451.66,141.1L455.76,148L459.87,147L463.97,153.28L468.08,154.8L472.19,137.95L476.29,129.52L480.4,126.2L484.5,129.4L488.61,124.26L492.72,124.19L496.82,127.22L500.93,123.15L505.03,133.32L509.14,110.04L513.25,89.86L517.35,89.47L521.46,93.39L525.56,75.94L529.67,90.49L533.77,76.69L537.88,101.11L541.99,57.09L546.09,48.87L550.2,29.31L554.3,13.7L558.41,45.7L562.52,49L566.62,109.23L570.73,71.33L574.83,101.17L578.94,111.41L583.05,127.38L587.15,101.49L591.26,100.81L595.36,74.54L599.47,90.34L603.58,105.82L607.68,118.05L615.89,79.15L620,80.08" style="vector-effect: non-scaling-stroke; fill: none; stroke: rgb(44, 160, 44); stroke-opacity: 1; stroke-width: 2px; opacity: 1;"/></g><g class="points"/><g class="text"/></g></g></g><g class="overplot"/><path class="xlines-above crisp" d="M0,0" style="fill: none;"/><path class="ylines-above crisp" d="M0,0" style="fill: none;"/><g class="overlines-above"/><g class="xaxislayer-above"><g class="xtick"><text text-anchor="middle" x="0" y="333" transform="translate(40,0)" style="font-family: 'Open Sans', verdana, arial, sans-serif; font-size: 12px; fill: rgb(42, 63, 95); fill-opacity: 1; white-space: pre; opacity: 1;">Jan 2021</text></g><g class="xtick"><text text-anchor="middle" x="0" y="333" style="font-family: 'Open Sans', verdana, arial, sans-serif; font-size: 12px; fill: rgb(42, 63, 95); fill-opacity: 1; white-space: pre; opacity: 1;" transform="translate(167.28,0)">Feb 2021</text></g><g class="xtick"><text text-anchor="middle" x="0" y="333" style="font-family: 'Open Sans', verdana, arial, sans-serif; font-size: 12px; fill: rgb(42, 63, 95); fill-opacity: 1; white-space: pre; opacity: 1;" transform="translate(282.25,0)">Mar 2021</text></g><g class="xtick"><text text-anchor="middle" x="0" y="333" style="font-family: 'Open Sans', verdana, arial, sans-serif; font-size: 12px; fill: rgb(42, 63, 95); fill-opacity: 1; white-space: pre; opacity: 1;" transform="translate(409.54,0)">Apr 2021</text></g><g class="xtick"><text text-anchor="middle" x="0" y="333" style="font-family: 'Open Sans', verdana, arial, sans-serif; font-size: 12px; fill: rgb(42, 63, 95); fill-opacity: 1; white-space: pre; opacity: 1;" transform="translate(532.72,0)">May 2021</text></g><g class="xtick"><text text-anchor="middle" x="0" y="333" style="font-family: 'Open Sans', verdana, arial, sans-serif; font-size: 12px; fill: rgb(42, 63, 95); fill-opacity: 1; white-space: pre; opacity: 1;" transform="translate(660,0)">Jun 2021</text></g></g><g class="yaxislayer-above"><g class="ytick"><text text-anchor="end" x="39" y="4.199999999999999" transform="translate(0,286.03)" style="font-family: 'Open Sans', verdana, arial, sans-serif; font-size: 12px; fill: rgb(42, 63, 95); fill-opacity: 1; white-space: pre; opacity: 1;">2</text></g><g class="ytick"><text text-anchor="end" x="39" y="4.199999999999999" style="font-family: 'Open Sans', verdana, arial, sans-serif; font-size: 12px; fill: rgb(42, 63, 95); fill-opacity: 1; white-space: pre; opacity: 1;" transform="translate(0,245.5)">4</text></g><g class="ytick"><text text-anchor="end" x="39" y="4.199999999999999" style="font-family: 'Open Sans', verdana, arial, sans-serif; font-size: 12px; fill: rgb(42, 63, 95); fill-opacity: 1; white-space: pre; opacity: 1;" transform="translate(0,204.97)">6</text></g><g class="ytick"><text text-anchor="end" x="39" y="4.199999999999999" style="font-family: 'Open Sans', verdana, arial, sans-serif; font-size: 12px; fill: rgb(42, 63, 95); fill-opacity: 1; white-space: pre; opacity: 1;" transform="translate(0,164.44)">8</text></g><g class="ytick"><text text-anchor="end" x="39" y="4.199999999999999" style="font-family: 'Open Sans', verdana, arial, sans-serif; font-size: 12px; fill: rgb(42, 63, 95); fill-opacity: 1; white-space: pre; opacity: 1;" transform="translate(0,123.91)">10</text></g><g class="ytick"><text text-anchor="end" x="39" y="4.199999999999999" style="font-family: 'Open Sans', verdana, arial, sans-serif; font-size: 12px; fill: rgb(42, 63, 95); fill-opacity: 1; white-space: pre; opacity: 1;" transform="translate(0,83.38)">12</text></g></g><g class="overaxes-above"/></g></g><g class="polarlayer"/><g class="ternarylayer"/><g class="geolayer"/><g class="funnelarealayer"/><g class="pielayer"/><g class="iciclelayer"/><g class="treemaplayer"/><g class="sunburstlayer"/><g class="glimages"/><defs id="topdefs-000cdb"><g class="clips"/><clipPath id="legend000cdb"><rect width="304" height="29" x="0" y="0"/></clipPath></defs><g class="layer-above"><g class="imagelayer"/><g class="shapelayer"/></g><g class="infolayer"><g class="legend" pointer-events="all" transform="translate(356,11.519999999999996)"><rect class="bg" shape-rendering="crispEdges" style="stroke: rgb(68, 68, 68); stroke-opacity: 1; fill: rgb(255, 255, 255); fill-opacity: 1; stroke-width: 0px;" width="304" height="29" x="0" y="0"/><g class="scrollbox" transform="" clip-path="url(#legend000cdb)"><g class="groups"><g class="traces" transform="translate(0,14.5)" style="opacity: 1;"><text class="legendtext" text-anchor="start" x="40" y="4.680000000000001" style="font-family: 'Open Sans', verdana, arial, sans-serif; font-size: 12px; fill: rgb(42, 63, 95); fill-opacity: 1; white-space: pre;">BTC-USD</text><g class="layers" style="opacity: 1;"><g class="legendfill"/><g class="legendlines"><path class="js-line" d="M5,0h30" style="fill: none; stroke: rgb(31, 119, 180); stroke-opacity: 1; stroke-width: 2px;"/></g><g class="legendsymbols"><g class="legendpoints"/></g></g><rect class="legendtoggle" x="0" y="-9.5" width="98.1875" height="19" style="fill: rgb(0, 0, 0); fill-opacity: 0;"/></g><g class="traces" transform="translate(100.6875,14.5)" style="opacity: 1;"><text class="legendtext" text-anchor="start" x="40" y="4.680000000000001" style="font-family: 'Open Sans', verdana, arial, sans-serif; font-size: 12px; fill: rgb(42, 63, 95); fill-opacity: 1; white-space: pre;">ETH-USD</text><g class="layers" style="opacity: 1;"><g class="legendfill"/><g class="legendlines"><path class="js-line" d="M5,0h30" style="fill: none; stroke: rgb(255, 127, 14); stroke-opacity: 1; stroke-width: 2px;"/></g><g class="legendsymbols"><g class="legendpoints"/></g></g><rect class="legendtoggle" x="0" y="-9.5" width="98.1875" height="19" style="fill: rgb(0, 0, 0); fill-opacity: 0;"/></g><g class="traces" transform="translate(201.375,14.5)" style="opacity: 1;"><text class="legendtext" text-anchor="start" x="40" y="4.680000000000001" style="font-family: 'Open Sans', verdana, arial, sans-serif; font-size: 12px; fill: rgb(42, 63, 95); fill-opacity: 1; white-space: pre;">ADA-USD</text><g class="layers" style="opacity: 1;"><g class="legendfill"/><g class="legendlines"><path class="js-line" d="M5,0h30" style="fill: none; stroke: rgb(44, 160, 44); stroke-opacity: 1; stroke-width: 2px;"/></g><g class="legendsymbols"><g class="legendpoints"/></g></g><rect class="legendtoggle" x="0" y="-9.5" width="99.84375" height="19" style="fill: rgb(0, 0, 0); fill-opacity: 0;"/></g></g></g><rect class="scrollbar" rx="20" ry="3" width="0" height="0" style="fill: rgb(128, 139, 164); fill-opacity: 1;" x="0" y="0"/></g><g class="g-gtitle"/><g class="g-xtitle"/><g class="g-ytitle"/></g></svg>