<svg class="main-svg" xmlns="http://www.w3.org/2000/svg" xmlns:xlink="http://www.w3.org/1999/xlink" width="750" height="960" viewBox="0 0 750 960"><rect x="0" y="0" width="750" height="960" style="fill: rgb(255, 255, 255); fill-opacity: 1;"/><defs id="defs-b40134"><g class="clips"><clipPath id="clipb40134xyplot" class="plotclip"><rect width="647" height="254.22222222222223"/></clipPath><clipPath id="clipb40134x2y2plot" class="plotclip"><rect width="647" height="254.22222222222214"/></clipPath><clipPath id="clipb40134x3y3plot" class="plotclip"><rect width="647" height="254.2222222222222"/></clipPath><clipPath class="axesclip" id="clipb40134x"><rect x="73" y="0" width="647" height="960"/></clipPath><clipPath class="axesclip" id="clipb40134y"><rect x="0" y="76" width="750" height="254.22222222222223"/></clipPath><clipPath class="axesclip" id="clipb40134xy"><rect x="73" y="76" width="647" height="254.22222222222223"/></clipPath><clipPath class="axesclip" id="clipb40134y2"><rect x="0" y="364.88888888888897" width="750" height="254.22222222222214"/></clipPath><clipPath class="axesclip" id="clipb40134xy2"><rect x="73" y="364.88888888888897" width="647" height="254.22222222222214"/></clipPath><clipPath class="axesclip" id="clipb40134y3"><rect x="0" y="653.7777777777777" width="750" height="254.2222222222222"/></clipPath><clipPath class="axesclip" id="clipb40134xy3"><rect x="73" y="653.7777777777777" width="647" height="254.2222222222222"/></clipPath><clipPath class="axesclip" id="clipb40134x2"><rect x="73" y="0" width="647" height="960"/></clipPath><clipPath class="axesclip" id="clipb40134x2y"><rect x="73" y="76" width="647" height="254.22222222222223"/></clipPath><clipPath class="axesclip" id="clipb40134x2y2"><rect x="73" y="364.88888888888897" width="647" height="254.22222222222214"/></clipPath><clipPath class="axesclip" id="clipb40134x2y3"><rect x="73" y="653.7777777777777" width="647" height="254.2222222222222"/></clipPath><clipPath class="axesclip" id="clipb40134x3"><rect x="73" y="0" width="647" height="960"/></clipPath><clipPath class="axesclip" id="clipb40134x3y"><rect x="73" y="76" width="647" height="254.22222222222223"/></clipPath><clipPath class="axesclip" id="clipb40134x3y2"><rect x="73" y="364.88888888888897" width="647" height="254.22222222222214"/></clipPath><clipPath class="axesclip" id="clipb40134x3y3"><rect x="73" y="653.7777777777777" width="647" height="254.2222222222222"/></clipPath></g><g class="gradients"/><g class="patterns"/></defs><g class="bglayer"><rect class="bg" x="73" y="76" width="647" height="254.22222222222223" style="fill: rgb(229, 236, 246); fill-opacity: 1; stroke-width: 0;"/><rect class="bg" x="73" y="364.88888888888897" width="647" height="254.22222222222214" style="fill: rgb(229, 236, 246); fill-opacity: 1; stroke-width: 0;"/><rect class="bg" x="73" y="653.7777777777777" width="647" height="254.2222222222222" style="fill: rgb(229, 236, 246); fill-opacity: 1; stroke-width: 0;"/></g><g class="layer-below"><g class="imagelayer"/><g class="shapelayer"/></g><g class="cartesianlayer"><g class="subplot xy"><g class="layer-subplot"><g class="shapelayer"/><g class="imagelayer"/></g><g class="gridlayer"><g class="x"><path class="xgrid crisp" transform="translate(95.68,0)" d="M0,76v254.22222222222223" style="stroke: rgb(255, 255, 255); stroke-opacity: 1; stroke-width: 1px;"/><path class="xgrid crisp" transform="translate(173.13,0)" d="M0,76v254.22222222222223" style="stroke: rgb(255, 255, 255); stroke-opacity: 1; stroke-width: 1px;"/><path class="xgrid crisp" transform="translate(251.87,0)" d="M0,76v254.22222222222223" style="stroke: rgb(255, 255, 255); stroke-opacity: 1; stroke-width: 1px;"/><path class="xgrid crisp" transform="translate(329.32,0)" d="M0,76v254.22222222222223" style="stroke: rgb(255, 255, 255); stroke-opacity: 1; stroke-width: 1px;"/><path class="xgrid crisp" transform="translate(408.05,0)" d="M0,76v254.22222222222223" style="stroke: rgb(255, 255, 255); stroke-opacity: 1; stroke-width: 1px;"/><path class="xgrid crisp" transform="translate(485.93,0)" d="M0,76v254.22222222222223" style="stroke: rgb(255, 255, 255); stroke-opacity: 1; stroke-width: 1px;"/><path class="xgrid crisp" transform="translate(564.6700000000001,0)" d="M0,76v254.22222222222223" style="stroke: rgb(255, 255, 255); stroke-opacity: 1; stroke-width: 1px;"/><path class="xgrid crisp" transform="translate(642.12,0)" d="M0,76v254.22222222222223" style="stroke: rgb(255, 255, 255); stroke-opacity: 1; stroke-width: 1px;"/></g><g class="y"><path class="ygrid crisp" transform="translate(0,260.99)" d="M73,0h647" style="stroke: rgb(255, 255, 255); stroke-opacity: 1; stroke-width: 1px;"/><path class="ygrid crisp" transform="translate(0,204.46)" d="M73,0h647" style="stroke: rgb(255, 255, 255); stroke-opacity: 1; stroke-width: 1px;"/><path class="ygrid crisp" transform="translate(0,147.93)" d="M73,0h647" style="stroke: rgb(255, 255, 255); stroke-opacity: 1; stroke-width: 1px;"/><path class="ygrid crisp" transform="translate(0,91.41)" d="M73,0h647" style="stroke: rgb(255, 255, 255); stroke-opacity: 1; stroke-width: 1px;"/></g></g><g class="zerolinelayer"><path class="yzl zl crisp" transform="translate(0,317.51)" d="M73,0h647" style="stroke: rgb(255, 255, 255); stroke-opacity: 1; stroke-width: 2px;"/></g><path class="xlines-below"/><path class="ylines-below"/><g class="overlines-below"/><g class="xaxislayer-below"/><g class="yaxislayer-below"/><g class="overaxes-below"/><g class="plot" transform="translate(73,76)" clip-path="url(#clipb40134xyplot)"><g class="scatterlayer mlayer"><g class="trace scatter trace7c988f7e-f346-47a9-aaaa-83fb1c37307c" style="stroke-miterlimit: 2;"><g class="fills"><g><path class="js-fill" d="M0,128.46L463.43,128.46L463.85,96.14L580.67,96.14L581.1,128.46L622.18,128.46L622.61,12.71L647,12.71L647,128.46L0,128.46Z" style="fill: rgb(44, 160, 44); fill-opacity: 0.3; stroke-width: 0;"/></g></g><g class="errorbars"/><g class="lines"><path class="js-line" d="M0,128.46L647,128.46" style="vector-effect: non-scaling-stroke; fill: none; stroke: rgb(0, 0, 0); stroke-opacity: 0; stroke-width: 0px; opacity: 1;"/></g><g class="points"/><g class="text"/></g><g class="trace scatter tracecbde5a36-02f6-4b3c-b2fd-aa95aa33654f" style="stroke-miterlimit: 2;"><g class="fills"/><g class="errorbars"/><g class="lines"><path class="js-line" d="M0,128.46L463.43,128.46L463.85,96.14L580.67,96.14L581.1,128.46L622.18,128.46L622.61,12.71L647,12.71" style="vector-effect: non-scaling-stroke; fill: none; stroke: rgb(0, 0, 0); stroke-opacity: 0; stroke-width: 0px; opacity: 1;"/></g><g class="points"/><g class="text"/></g><g class="trace scatter tracefba9e520-f508-45d0-a5b1-8930458c90d5" style="stroke-miterlimit: 2;"><g class="fills"><g><path class="js-fill" d="M0,128.46L102.7,128.46L103.13,241.51L134.36,241.51L134.79,132.7L146.35,132.7L146.77,241.51L181.86,241.51L182.29,173.72L329.06,173.72L329.49,241.51L361.16,241.51L361.58,158.8L383.41,158.8L383.84,241.51L463.43,241.51L463.85,128.46L580.67,128.46L581.1,241.51L622.18,241.51L622.61,128.46L647,128.46L647,128.46L0,128.46Z" style="fill: rgb(220, 57, 18); fill-opacity: 0.3; stroke-width: 0;"/></g></g><g class="errorbars"/><g class="lines"><path class="js-line" d="M0,128.46L647,128.46" style="vector-effect: non-scaling-stroke; fill: none; stroke: rgb(0, 0, 0); stroke-opacity: 0; stroke-width: 0px; opacity: 1;"/></g><g class="points"/><g class="text"/></g><g class="trace scatter trace04b472c4-8f36-436c-a9e9-1c0e1c4dd2f1" style="stroke-miterlimit: 2;"><g class="fills"/><g class="errorbars"/><g class="lines"><path class="js-line" d="M0,128.46L102.7,128.46L103.13,241.51L134.36,241.51L134.79,132.7L146.35,132.7L146.77,241.51L181.86,241.51L182.29,173.72L329.06,173.72L329.49,241.51L361.16,241.51L361.58,158.8L383.41,158.8L383.84,241.51L463.43,241.51L463.85,128.46L580.67,128.46L581.1,241.51L622.18,241.51L622.61,128.46L647,128.46" style="vector-effect: non-scaling-stroke; fill: none; stroke: rgb(0, 0, 0); stroke-opacity: 0; stroke-width: 0px; opacity: 1;"/></g><g class="points"/><g class="text"/></g><g class="trace scatter trace9043feb5-769d-4112-bfef-b0671c422097" style="stroke-miterlimit: 2; opacity: 1;"><g class="fills"/><g class="errorbars"/><g class="lines"><path class="js-line" d="M0,128.46L102.7,128.46L103.13,241.51L134.36,241.51L134.79,132.7L146.35,132.7L146.77,241.51L181.86,241.51L182.29,173.72L329.06,173.72L329.49,241.51L361.16,241.51L361.58,158.8L383.41,158.8L383.84,241.51L463.43,241.51L463.85,96.14L580.67,96.14L581.1,241.51L622.18,241.51L622.61,12.71L647,12.71" style="vector-effect: non-scaling-stroke; fill: none; stroke: rgb(44, 160, 44); stroke-opacity: 1; stroke-width: 2px; opacity: 1;"/></g><g class="points"/><g class="text"/></g><g class="trace scatter trace8eb55ea7-b5d7-48cd-b06c-68b6b79cd2a7" style="stroke-miterlimit: 2; opacity: 0;"><g class="fills"/><g class="errorbars"/><g class="lines"><path class="js-line" d="M0,128.46L647,128.46" style="vector-effect: non-scaling-stroke; fill: none; stroke: rgb(0, 0, 0); stroke-opacity: 0; stroke-width: 0px; opacity: 1;"/></g><g class="points"/><g class="text"/></g></g></g><g class="overplot"/><path class="xlines-above crisp" d="M0,0" style="fill: none;"/><path class="ylines-above crisp" d="M0,0" style="fill: none;"/><g class="overlines-above"/><g class="xaxislayer-above"/><g class="yaxislayer-above"><g class="ytick"><text text-anchor="end" x="72" y="4.199999999999999" transform="translate(0,317.51)" style="font-family: 'Open Sans', verdana, arial, sans-serif; font-size: 12px; fill: rgb(42, 63, 95); fill-opacity: 1; white-space: pre; opacity: 1;">0</text></g><g class="ytick"><text text-anchor="end" x="72" y="4.199999999999999" style="font-family: 'Open Sans', verdana, arial, sans-serif; font-size: 12px; fill: rgb(42, 63, 95); fill-opacity: 1; white-space: pre; opacity: 1;" transform="translate(0,260.99)">50</text></g><g class="ytick"><text text-anchor="end" x="72" y="4.199999999999999" style="font-family: 'Open Sans', verdana, arial, sans-serif; font-size: 12px; fill: rgb(42, 63, 95); fill-opacity: 1; white-space: pre; opacity: 1;" transform="translate(0,204.46)">100</text></g><g class="ytick"><text text-anchor="end" x="72" y="4.199999999999999" style="font-family: 'Open Sans', verdana, arial, sans-serif; font-size: 12px; fill: rgb(42, 63, 95); fill-opacity: 1; white-space: pre; opacity: 1;" transform="translate(0,147.93)">150</text></g><g class="ytick"><text text-anchor="end" x="72" y="4.199999999999999" style="font-family: 'Open Sans', verdana, arial, sans-serif; font-size: 12px; fill: rgb(42, 63, 95); fill-opacity: 1; white-space: pre; opacity: 1;" transform="translate(0,91.41)">200</text></g></g><g class="overaxes-above"/></g><g class="subplot x2y2"><g class="layer-subplot"><g class="shapelayer"/><g class="imagelayer"/></g><g class="gridlayer"><g class="x2"><path class="x2grid crisp" transform="translate(95.68,0)" d="M0,364.88888888888897v254.22222222222214" style="stroke: rgb(255, 255, 255); stroke-opacity: 1; stroke-width: 1px;"/><path class="x2grid crisp" transform="translate(173.13,0)" d="M0,364.88888888888897v254.22222222222214" style="stroke: rgb(255, 255, 255); stroke-opacity: 1; stroke-width: 1px;"/><path class="x2grid crisp" transform="translate(251.87,0)" d="M0,364.88888888888897v254.22222222222214" style="stroke: rgb(255, 255, 255); stroke-opacity: 1; stroke-width: 1px;"/><path class="x2grid crisp" transform="translate(329.32,0)" d="M0,364.88888888888897v254.22222222222214" style="stroke: rgb(255, 255, 255); stroke-opacity: 1; stroke-width: 1px;"/><path class="x2grid crisp" transform="translate(408.05,0)" d="M0,364.88888888888897v254.22222222222214" style="stroke: rgb(255, 255, 255); stroke-opacity: 1; stroke-width: 1px;"/><path class="x2grid crisp" transform="translate(485.93,0)" d="M0,364.88888888888897v254.22222222222214" style="stroke: rgb(255, 255, 255); stroke-opacity: 1; stroke-width: 1px;"/><path class="x2grid crisp" transform="translate(564.6700000000001,0)" d="M0,364.88888888888897v254.22222222222214" style="stroke: rgb(255, 255, 255); stroke-opacity: 1; stroke-width: 1px;"/><path class="x2grid crisp" transform="translate(642.12,0)" d="M0,364.88888888888897v254.22222222222214" style="stroke: rgb(255, 255, 255); stroke-opacity: 1; stroke-width: 1px;"/></g><g class="y2"><path class="y2grid crisp" transform="translate(0,529.418888888889)" d="M73,0h647" style="stroke: rgb(255, 255, 255); stroke-opacity: 1; stroke-width: 1px;"/><path class="y2grid crisp" transform="translate(0,452.438888888889)" d="M73,0h647" style="stroke: rgb(255, 255, 255); stroke-opacity: 1; stroke-width: 1px;"/><path class="y2grid crisp" transform="translate(0,375.448888888889)" d="M73,0h647" style="stroke: rgb(255, 255, 255); stroke-opacity: 1; stroke-width: 1px;"/></g></g><g class="zerolinelayer"><path class="y2zl zl crisp" transform="translate(0,606.3988888888889)" d="M73,0h647" style="stroke: rgb(255, 255, 255); stroke-opacity: 1; stroke-width: 2px;"/></g><path class="xlines-below"/><path class="ylines-below"/><g class="overlines-below"/><g class="xaxislayer-below"/><g class="yaxislayer-below"/><g class="overaxes-below"/><g class="plot" transform="translate(73,364.88888888888897)" clip-path="url(#clipb40134x2y2plot)"><g class="scatterlayer mlayer"><g class="trace scatter trace1df8c344-5d2e-42dd-88d6-7618895e1d5a" style="stroke-miterlimit: 2;"><g class="fills"><g><path class="js-fill" d="M0,241.51L102.7,241.51L103.13,14.22L134.36,14.22L134.79,241.51L146.35,241.51L146.77,12.71L181.86,12.71L182.29,241.51L329.06,241.51L329.49,113.33L361.16,113.33L361.58,241.51L383.41,241.51L383.84,92.33L463.43,92.33L463.85,241.51L580.67,241.51L581.1,192.03L622.18,192.03L622.61,241.51L647,241.51L647,241.51L0,241.51Z" style="fill: rgb(140, 86, 75); fill-opacity: 0.3; stroke-width: 0;"/></g></g><g class="errorbars"/><g class="lines"><path class="js-line" d="M0,241.51L647,241.51" style="vector-effect: non-scaling-stroke; fill: none; stroke: rgb(0, 0, 0); stroke-opacity: 0; stroke-width: 0px; opacity: 1;"/></g><g class="points"/><g class="text"/></g><g class="trace scatter traced63ad0a5-8808-4df0-aa81-2219c954a0e1" style="stroke-miterlimit: 2;"><g class="fills"/><g class="errorbars"/><g class="lines"><path class="js-line" d="M0,241.51L102.7,241.51L103.13,14.22L134.36,14.22L134.79,241.51L146.35,241.51L146.77,12.71L181.86,12.71L182.29,241.51L329.06,241.51L329.49,113.33L361.16,113.33L361.58,241.51L383.41,241.51L383.84,92.33L463.43,92.33L463.85,241.51L580.67,241.51L581.1,192.03L622.18,192.03L622.61,241.51L647,241.51" style="vector-effect: non-scaling-stroke; fill: none; stroke: rgb(0, 0, 0); stroke-opacity: 0; stroke-width: 0px; opacity: 1;"/></g><g class="points"/><g class="text"/></g><g class="trace scatter trace9a39f051-677f-4366-9531-ea512f2090c0" style="stroke-miterlimit: 2; opacity: 1;"><g class="fills"/><g class="errorbars"/><g class="lines"><path class="js-line" d="M0,241.51L102.7,241.51L103.13,14.22L134.36,14.22L134.79,241.51L146.35,241.51L146.77,12.71L181.86,12.71L182.29,241.51L329.06,241.51L329.49,113.33L361.16,113.33L361.58,241.51L383.41,241.51L383.84,92.33L463.43,92.33L463.85,241.51L580.67,241.51L581.1,192.03L622.18,192.03L622.61,241.51L647,241.51" style="vector-effect: non-scaling-stroke; fill: none; stroke: rgb(140, 86, 75); stroke-opacity: 1; stroke-width: 2px; opacity: 1;"/></g><g class="points"/><g class="text"/></g><g class="trace scatter trace679fd3f5-e9d1-448f-b871-8ee4fd789fdf" style="stroke-miterlimit: 2; opacity: 0;"><g class="fills"/><g class="errorbars"/><g class="lines"><path class="js-line" d="M0,241.51L647,241.51" style="vector-effect: non-scaling-stroke; fill: none; stroke: rgb(0, 0, 0); stroke-opacity: 0; stroke-width: 0px; opacity: 1;"/></g><g class="points"/><g class="text"/></g></g></g><g class="overplot"/><path class="xlines-above crisp" d="M0,0" style="fill: none;"/><path class="ylines-above crisp" d="M0,0" style="fill: none;"/><g class="overlines-above"/><g class="xaxislayer-above"/><g class="yaxislayer-above"><g class="y2tick"><text text-anchor="end" x="72" y="4.199999999999999" transform="translate(0,606.3988888888889)" style="font-family: 'Open Sans', verdana, arial, sans-serif; font-size: 12px; fill: rgb(42, 63, 95); fill-opacity: 1; white-space: pre; opacity: 1;">0</text></g><g class="y2tick"><text text-anchor="end" x="72" y="4.199999999999999" style="font-family: 'Open Sans', verdana, arial, sans-serif; font-size: 12px; fill: rgb(42, 63, 95); fill-opacity: 1; white-space: pre; opacity: 1;" transform="translate(0,529.418888888889)">0.005</text></g><g class="y2tick"><text text-anchor="end" x="72" y="4.199999999999999" style="font-family: 'Open Sans', verdana, arial, sans-serif; font-size: 12px; fill: rgb(42, 63, 95); fill-opacity: 1; white-space: pre; opacity: 1;" transform="translate(0,452.438888888889)">0.01</text></g><g class="y2tick"><text text-anchor="end" x="72" y="4.199999999999999" style="font-family: 'Open Sans', verdana, arial, sans-serif; font-size: 12px; fill: rgb(42, 63, 95); fill-opacity: 1; white-space: pre; opacity: 1;" transform="translate(0,375.448888888889)">0.015</text></g></g><g class="overaxes-above"/></g><g class="subplot x3y3"><g class="layer-subplot"><g class="shapelayer"/><g class="imagelayer"/></g><g class="gridlayer"><g class="x3"><path class="x3grid crisp" transform="translate(95.68,0)" d="M0,653.7777777777777v254.2222222222222" style="stroke: rgb(255, 255, 255); stroke-opacity: 1; stroke-width: 1px;"/><path class="x3grid crisp" transform="translate(173.13,0)" d="M0,653.7777777777777v254.2222222222222" style="stroke: rgb(255, 255, 255); stroke-opacity: 1; stroke-width: 1px;"/><path class="x3grid crisp" transform="translate(251.87,0)" d="M0,653.7777777777777v254.2222222222222" style="stroke: rgb(255, 255, 255); stroke-opacity: 1; stroke-width: 1px;"/><path class="x3grid crisp" transform="translate(329.32,0)" d="M0,653.7777777777777v254.2222222222222" style="stroke: rgb(255, 255, 255); stroke-opacity: 1; stroke-width: 1px;"/><path class="x3grid crisp" transform="translate(408.05,0)" d="M0,653.7777777777777v254.2222222222222" style="stroke: rgb(255, 255, 255); stroke-opacity: 1; stroke-width: 1px;"/><path class="x3grid crisp" transform="translate(485.93,0)" d="M0,653.7777777777777v254.2222222222222" style="stroke: rgb(255, 255, 255); stroke-opacity: 1; stroke-width: 1px;"/><path class="x3grid crisp" transform="translate(564.6700000000001,0)" d="M0,653.7777777777777v254.2222222222222" style="stroke: rgb(255, 255, 255); stroke-opacity: 1; stroke-width: 1px;"/><path class="x3grid crisp" transform="translate(642.12,0)" d="M0,653.7777777777777v254.2222222222222" style="stroke: rgb(255, 255, 255); stroke-opacity: 1; stroke-width: 1px;"/></g><g class="y3"><path class="y3grid crisp" transform="translate(0,892.6377777777777)" d="M73,0h647" style="stroke: rgb(255, 255, 255); stroke-opacity: 1; stroke-width: 1px;"/><path class="y3grid crisp" transform="translate(0,822.8777777777777)" d="M73,0h647" style="stroke: rgb(255, 255, 255); stroke-opacity: 1; stroke-width: 1px;"/><path class="y3grid crisp" transform="translate(0,753.1277777777777)" d="M73,0h647" style="stroke: rgb(255, 255, 255); stroke-opacity: 1; stroke-width: 1px;"/><path class="y3grid crisp" transform="translate(0,683.3677777777777)" d="M73,0h647" style="stroke: rgb(255, 255, 255); stroke-opacity: 1; stroke-width: 1px;"/></g></g><g class="zerolinelayer"/><path class="xlines-below"/><path class="ylines-below"/><g class="overlines-below"/><g class="xaxislayer-below"/><g class="yaxislayer-below"/><g class="overaxes-below"/><g class="plot" transform="translate(73,653.7777777777777)" clip-path="url(#clipb40134x3y3plot)"><g class="scatterlayer mlayer"><g class="trace scatter trace858b4c96-a4b3-49f7-85cd-4a0e54bfe989" style="stroke-miterlimit: 2;"><g class="fills"><g><path class="js-fill" d="M0,169.1L106.55,169.1L106.98,157.84L107.83,154.83L108.26,157.15L109.12,155.83L109.54,149.8L109.97,135.11L110.4,140.12L110.83,144.85L112.11,139.35L112.54,140.14L113.82,152.77L114.25,155.5L114.68,163.77L115.11,163.04L115.54,165.44L116.39,169.1L116.82,169.1L124.09,169.1L124.52,166.82L124.95,162.47L125.38,163.48L125.81,164.9L126.66,160.47L127.09,158.83L127.52,159.09L127.95,157L128.8,169.1L129.23,169.1L423.63,169.1L424.06,160.05L424.49,161.1L424.91,158.57L425.34,158.42L425.77,155.55L426.2,149.66L426.63,159.2L428.34,149.38L428.77,151.79L430.05,148.05L430.48,154.37L432.19,148.22L432.62,147.86L433.04,142.97L433.47,146.53L433.9,149.67L434.33,148.05L434.76,151.92L436.04,149.45L436.47,154.98L436.9,153.32L437.32,155.55L438.61,150.31L439.04,150.72L439.46,146.81L439.89,154.33L440.32,169.1L440.75,166.52L441.18,169.1L443.31,168.53L443.74,168.02L444.17,167.46L444.6,169.07L445.88,160.26L446.31,160.61L446.74,160.67L447.17,158.65L447.59,160.76L448.02,167.19L448.45,166.16L448.88,169.1L449.31,163.17L449.73,164.08L450.16,163.29L450.59,162.96L451.02,163.85L451.45,162.02L451.87,162.84L452.3,165.07L453.16,166.02L453.58,164.39L454.01,162.72L454.44,165.27L454.87,164.4L455.3,161.06L457.01,152.42L457.44,154.17L457.86,154.12L458.29,153.23L458.72,155.57L459.15,155.08L459.58,153.39L460.43,147.54L460.86,135.27L462.14,131.43L462.57,132.47L463,131.87L463.43,124.05L464.28,129.22L464.71,129.22L581.1,129.22L581.53,119.24L582.39,129.37L582.81,132.84L583.24,137.54L583.67,130.39L585.81,100.72L586.24,104.22L586.66,104.18L587.09,109.4L587.52,94.32L587.95,97.44L588.38,97.66L589.23,108.21L589.66,107.73L590.09,99.14L590.52,87.38L590.94,89.33L591.37,87.46L591.8,86.46L592.23,94.71L592.66,89.08L593.08,98.13L593.51,88.64L593.94,89.34L594.37,89.67L594.79,97.63L595.22,97.13L595.65,89.59L596.51,84.31L596.93,84.67L597.36,76.56L597.79,72.61L598.22,98.72L599.5,107.36L599.93,105.94L600.36,102.07L600.79,107.01L601.21,97.46L601.64,92.6L602.07,94.36L602.5,96.67L602.93,92.14L603.35,96.71L604.21,126.15L604.64,113.23L605.06,107.31L605.49,116.53L605.92,117.08L606.35,114.87L607.2,124.62L607.63,122.25L608.06,112.26L608.49,92.86L608.92,94.68L609.34,92.49L610.2,77.63L610.63,60.38L611.06,67.36L611.48,66.63L611.91,62.14L612.34,63.03L612.77,50.86L613.2,57.33L613.62,51.24L614.05,51.59L614.48,32.44L614.91,35.58L615.33,32.62L615.76,30.5L616.19,20.47L616.62,12.71L617.05,29.67L617.47,36.48L617.9,33.33L618.33,35.41L618.76,25.95L619.19,37.95L619.61,46.39L620.04,36.79L620.47,29.59L620.9,31.11L621.33,33.67L621.75,35.08L622.18,25.12L623.04,26.26L623.46,26.26L647,26.26L647,169.1L0,169.1Z" style="fill: rgb(0, 128, 0); fill-opacity: 0.3; stroke-width: 0;"/></g></g><g class="errorbars"/><g class="lines"><path class="js-line" d="M0,169.1L647,169.1" style="vector-effect: non-scaling-stroke; fill: none; stroke: rgb(0, 0, 0); stroke-opacity: 0; stroke-width: 0px; opacity: 1;"/></g><g class="points"/><g class="text"/></g><g class="trace scatter trace2b04924d-de1d-4268-88f9-2950153225c1" style="stroke-miterlimit: 2;"><g class="fills"/><g class="errorbars"/><g class="lines"><path class="js-line" d="M0,169.1L106.55,169.1L106.98,157.84L107.83,154.83L108.26,157.15L109.12,155.83L109.54,149.8L109.97,135.11L110.4,140.12L110.83,144.85L112.11,139.35L112.54,140.14L113.82,152.77L114.25,155.5L114.68,163.77L115.11,163.04L115.54,165.44L116.39,169.1L116.82,169.1L124.09,169.1L124.52,166.82L124.95,162.47L125.38,163.48L125.81,164.9L126.66,160.47L127.09,158.83L127.52,159.09L127.95,157L128.8,169.1L129.23,169.1L423.63,169.1L424.06,160.05L424.49,161.1L424.91,158.57L425.34,158.42L425.77,155.55L426.2,149.66L426.63,159.2L428.34,149.38L428.77,151.79L430.05,148.05L430.48,154.37L432.19,148.22L432.62,147.86L433.04,142.97L433.47,146.53L433.9,149.67L434.33,148.05L434.76,151.92L436.04,149.45L436.47,154.98L436.9,153.32L437.32,155.55L438.61,150.31L439.04,150.72L439.46,146.81L439.89,154.33L440.32,169.1L440.75,166.52L441.18,169.1L443.31,168.53L443.74,168.02L444.17,167.46L444.6,169.07L445.88,160.26L446.31,160.61L446.74,160.67L447.17,158.65L447.59,160.76L448.02,167.19L448.45,166.16L448.88,169.1L449.31,163.17L449.73,164.08L450.16,163.29L450.59,162.96L451.02,163.85L451.45,162.02L451.87,162.84L452.3,165.07L453.16,166.02L453.58,164.39L454.01,162.72L454.44,165.27L454.87,164.4L455.3,161.06L457.01,152.42L457.44,154.17L457.86,154.12L458.29,153.23L458.72,155.57L459.15,155.08L459.58,153.39L460.43,147.54L460.86,135.27L462.14,131.43L462.57,132.47L463,131.87L463.43,124.05L464.28,129.22L464.71,129.22L581.1,129.22L581.53,119.24L582.39,129.37L582.81,132.84L583.24,137.54L583.67,130.39L585.81,100.72L586.24,104.22L586.66,104.18L587.09,109.4L587.52,94.32L587.95,97.44L588.38,97.66L589.23,108.21L589.66,107.73L590.09,99.14L590.52,87.38L590.94,89.33L591.37,87.46L591.8,86.46L592.23,94.71L592.66,89.08L593.08,98.13L593.51,88.64L593.94,89.34L594.37,89.67L594.79,97.63L595.22,97.13L595.65,89.59L596.51,84.31L596.93,84.67L597.36,76.56L597.79,72.61L598.22,98.72L599.5,107.36L599.93,105.94L600.36,102.07L600.79,107.01L601.21,97.46L601.64,92.6L602.07,94.36L602.5,96.67L602.93,92.14L603.35,96.71L604.21,126.15L604.64,113.23L605.06,107.31L605.49,116.53L605.92,117.08L606.35,114.87L607.2,124.62L607.63,122.25L608.06,112.26L608.49,92.86L608.92,94.68L609.34,92.49L610.2,77.63L610.63,60.38L611.06,67.36L611.48,66.63L611.91,62.14L612.34,63.03L612.77,50.86L613.2,57.33L613.62,51.24L614.05,51.59L614.48,32.44L614.91,35.58L615.33,32.62L615.76,30.5L616.19,20.47L616.62,12.71L617.05,29.67L617.47,36.48L617.9,33.33L618.33,35.41L618.76,25.95L619.19,37.95L619.61,46.39L620.04,36.79L620.47,29.59L620.9,31.11L621.33,33.67L621.75,35.08L622.18,25.12L623.04,26.26L623.46,26.26L647,26.26" style="vector-effect: non-scaling-stroke; fill: none; stroke: rgb(0, 0, 0); stroke-opacity: 0; stroke-width: 0px; opacity: 1;"/></g><g class="points"/><g class="text"/></g><g class="trace scatter tracef6cea283-d863-415e-a9d1-58336f042cb2" style="stroke-miterlimit: 2;"><g class="fills"><g><path class="js-fill" d="M0,169.1L103.55,169.77L103.98,178.25L104.41,176.91L104.84,180.33L105.69,179.36L106.12,177.64L106.98,169.1L107.41,169.1L115.96,169.53L116.39,178.75L116.82,173.34L117.25,181.24L118.1,178.4L118.53,178.91L118.96,180.93L119.39,178.69L119.81,178.15L120.24,173.09L121.53,178.69L121.95,174.98L122.38,177.28L122.81,174.03L123.67,169.33L124.09,170.48L124.95,169.1L125.38,169.1L128.37,169.1L128.8,174.14L129.23,175.42L129.66,180.39L130.51,178.25L130.94,178.43L131.37,177.8L131.8,174.39L132.22,174.48L132.65,173.86L133.08,174.39L133.51,179.25L135.22,174.34L135.65,174.34L151.05,174.14L151.48,177.33L152.34,177.64L152.76,176.39L154.48,175.52L154.9,174.67L155.33,173.23L155.76,174.82L156.19,176.23L156.62,175.74L157.04,175.7L157.9,176.77L158.33,189.65L159.61,193.46L160.04,192.03L160.89,216.32L161.32,213.2L161.75,218.1L162.18,218.49L162.61,228.16L163.03,225.48L163.46,230.27L163.89,229.4L164.32,220.35L164.75,219.91L165.17,225.33L165.6,221.24L166.03,222.79L166.46,227.88L166.88,226.58L167.31,230.79L168.17,237.71L168.6,236.55L169.02,233.69L169.45,236L171.59,241.51L172.02,241.18L173.73,222.9L174.16,227.83L175.44,224.06L175.87,229.51L176.3,228.65L176.73,232.84L177.15,227.26L177.58,229.41L178.01,228.47L178.44,231.02L178.87,228.93L179.29,226.86L179.72,229.07L180.58,228.9L181.01,224.1L181.86,225.05L182.29,224.96L330.35,225.09L330.77,221.37L332.06,224.12L332.49,224.54L333.77,222.4L334.2,223.91L335.48,227.48L335.91,223.31L336.77,222.53L337.19,218.38L337.62,213.8L338.05,214.77L338.48,217.1L338.9,213.76L339.33,215.26L339.76,213.46L340.19,214.02L340.62,206.08L341.47,207.29L341.9,204.91L342.33,204.75L342.76,207.49L343.18,208.06L343.61,207.03L344.04,207.79L344.47,210.98L344.9,210.52L345.32,211.42L347.46,198.17L347.89,200.01L348.32,199.52L348.75,200.08L349.17,200.67L349.6,201.98L350.03,196.96L351.74,191.11L352.17,194.13L353.03,188.68L353.45,189.98L353.88,188.84L354.31,193.75L354.74,193.23L355.17,196.07L355.59,190.82L356.02,196.73L356.45,197.01L356.88,196.11L357.3,196.38L357.73,193.34L359.87,207.89L360.3,208.73L360.73,209.16L361.16,205.6L362.01,206.55L362.44,206.55L384.26,206.29L384.69,204.8L385.55,203.08L385.97,189.65L386.4,191.57L386.83,188.79L387.26,187.11L387.69,188.34L388.11,188.14L388.54,186.92L388.97,183.33L389.4,174.1L389.83,175.57L390.25,178.93L391.11,192.34L391.54,189.6L392.39,177.04L392.82,182.52L393.25,181.86L393.68,177.89L394.53,177.1L394.96,179.89L395.39,185.85L395.82,184.49L396.24,184.13L396.67,189.79L397.1,188.22L397.53,189.19L399.24,177.49L399.67,180.73L400.1,171.18L400.52,179.8L401.38,176.14L401.81,177.96L402.24,178.12L402.66,176.7L403.52,176.2L403.95,175.2L404.38,182.61L404.8,180.46L405.23,180.53L405.66,181.73L406.09,180.87L406.51,179.69L407.8,183.07L408.23,182.47L408.65,182.85L409.08,178.19L409.51,178.45L409.94,182.72L410.79,184.76L411.22,186.35L412.08,184.38L412.51,185.09L412.93,183.87L413.36,185.29L414.64,185.96L415.07,181.88L415.5,183.55L415.93,181.17L417.21,183.71L417.64,183.22L419.78,184.91L420.21,184.81L421.06,184.74L421.49,181.89L422.35,179.1L422.78,179.7L423.63,174.72L424.06,169.1L439.89,169.1L440.32,170.13L440.75,169.1L441.18,171.15L442.03,169.1L442.46,171.66L443.74,169.1L444.17,169.1L448.45,169.1L448.88,170.11L449.73,169.1L450.16,169.1L647,169.1L647,169.1L0,169.1Z" style="fill: rgb(255, 0, 0); fill-opacity: 0.3; stroke-width: 0;"/></g></g><g class="errorbars"/><g class="lines"><path class="js-line" d="M0,169.1L647,169.1" style="vector-effect: non-scaling-stroke; fill: none; stroke: rgb(0, 0, 0); stroke-opacity: 0; stroke-width: 0px; opacity: 1;"/></g><g class="points"/><g class="text"/></g><g class="trace scatter trace1d445d41-fd51-4e3e-98a5-9c428faccb85" style="stroke-miterlimit: 2;"><g class="fills"/><g class="errorbars"/><g class="lines"><path class="js-line" d="M0,169.1L103.55,169.77L103.98,178.25L104.41,176.91L104.84,180.33L105.69,179.36L106.12,177.64L106.98,169.1L107.41,169.1L115.96,169.53L116.39,178.75L116.82,173.34L117.25,181.24L118.1,178.4L118.53,178.91L118.96,180.93L119.39,178.69L119.81,178.15L120.24,173.09L121.53,178.69L121.95,174.98L122.38,177.28L122.81,174.03L123.67,169.33L124.09,170.48L124.95,169.1L125.38,169.1L128.37,169.1L128.8,174.14L129.23,175.42L129.66,180.39L130.51,178.25L130.94,178.43L131.37,177.8L131.8,174.39L132.22,174.48L132.65,173.86L133.08,174.39L133.51,179.25L135.22,174.34L135.65,174.34L151.05,174.14L151.48,177.33L152.34,177.64L152.76,176.39L154.48,175.52L154.9,174.67L155.33,173.23L155.76,174.82L156.19,176.23L156.62,175.74L157.04,175.7L157.9,176.77L158.33,189.65L159.61,193.46L160.04,192.03L160.89,216.32L161.32,213.2L161.75,218.1L162.18,218.49L162.61,228.16L163.03,225.48L163.46,230.27L163.89,229.4L164.32,220.35L164.75,219.91L165.17,225.33L165.6,221.24L166.03,222.79L166.46,227.88L166.88,226.58L167.31,230.79L168.17,237.71L168.6,236.55L169.02,233.69L169.45,236L171.59,241.51L172.02,241.18L173.73,222.9L174.16,227.83L175.44,224.06L175.87,229.51L176.3,228.65L176.73,232.84L177.15,227.26L177.58,229.41L178.01,228.47L178.44,231.02L178.87,228.93L179.29,226.86L179.72,229.07L180.58,228.9L181.01,224.1L181.86,225.05L182.29,224.96L330.35,225.09L330.77,221.37L332.06,224.12L332.49,224.54L333.77,222.4L334.2,223.91L335.48,227.48L335.91,223.31L336.77,222.53L337.19,218.38L337.62,213.8L338.05,214.77L338.48,217.1L338.9,213.76L339.33,215.26L339.76,213.46L340.19,214.02L340.62,206.08L341.47,207.29L341.9,204.91L342.33,204.75L342.76,207.49L343.18,208.06L343.61,207.03L344.04,207.79L344.47,210.98L344.9,210.52L345.32,211.42L347.46,198.17L347.89,200.01L348.32,199.52L348.75,200.08L349.17,200.67L349.6,201.98L350.03,196.96L351.74,191.11L352.17,194.13L353.03,188.68L353.45,189.98L353.88,188.84L354.31,193.75L354.74,193.23L355.17,196.07L355.59,190.82L356.02,196.73L356.45,197.01L356.88,196.11L357.3,196.38L357.73,193.34L359.87,207.89L360.3,208.73L360.73,209.16L361.16,205.6L362.01,206.55L362.44,206.55L384.26,206.29L384.69,204.8L385.55,203.08L385.97,189.65L386.4,191.57L386.83,188.79L387.26,187.11L387.69,188.34L388.11,188.14L388.54,186.92L388.97,183.33L389.4,174.1L389.83,175.57L390.25,178.93L391.11,192.34L391.54,189.6L392.39,177.04L392.82,182.52L393.25,181.86L393.68,177.89L394.53,177.1L394.96,179.89L395.39,185.85L395.82,184.49L396.24,184.13L396.67,189.79L397.1,188.22L397.53,189.19L399.24,177.49L399.67,180.73L400.1,171.18L400.52,179.8L401.38,176.14L401.81,177.96L402.24,178.12L402.66,176.7L403.52,176.2L403.95,175.2L404.38,182.61L404.8,180.46L405.23,180.53L405.66,181.73L406.09,180.87L406.51,179.69L407.8,183.07L408.23,182.47L408.65,182.85L409.08,178.19L409.51,178.45L409.94,182.72L410.79,184.76L411.22,186.35L412.08,184.38L412.51,185.09L412.93,183.87L413.36,185.29L414.64,185.96L415.07,181.88L415.5,183.55L415.93,181.17L417.21,183.71L417.64,183.22L419.78,184.91L420.21,184.81L421.06,184.74L421.49,181.89L422.35,179.1L422.78,179.7L423.63,174.72L424.06,169.1L439.89,169.1L440.32,170.13L440.75,169.1L441.18,171.15L442.03,169.1L442.46,171.66L443.74,169.1L444.17,169.1L448.45,169.1L448.88,170.11L449.73,169.1L450.16,169.1L647,169.1" style="vector-effect: non-scaling-stroke; fill: none; stroke: rgb(0, 0, 0); stroke-opacity: 0; stroke-width: 0px; opacity: 1;"/></g><g class="points"/><g class="text"/></g><g class="trace scatter tracedcb45cb0-809e-4172-999c-da7a68d338c0" style="stroke-miterlimit: 2; opacity: 1;"><g class="fills"/><g class="errorbars"/><g class="lines"><path class="js-line" d="M0,169.1L103.55,169.77L103.98,178.25L104.41,176.91L104.84,180.33L105.69,179.36L106.12,177.64L107.83,154.83L108.26,157.15L109.12,155.83L109.54,149.8L109.97,135.11L110.4,140.12L110.83,144.85L112.11,139.35L112.54,140.14L113.82,152.77L114.25,155.5L114.68,163.77L115.11,163.04L115.54,165.44L116.39,178.75L116.82,173.34L117.25,181.24L117.68,178.95L118.1,178.4L118.53,178.91L118.96,180.93L120.24,173.09L120.67,176.32L121.1,174.62L121.53,178.69L123.24,170.22L123.67,169.33L124.09,170.48L124.52,166.82L124.95,162.47L125.38,163.48L125.81,164.9L126.66,160.47L127.09,158.83L127.52,159.09L127.95,157L129.23,175.42L129.66,180.39L130.51,178.25L130.94,178.43L131.37,177.8L131.8,174.39L132.22,174.48L132.65,173.86L133.08,174.39L133.51,179.25L135.22,174.34L135.65,174.34L151.05,174.14L151.48,177.33L152.34,177.64L152.76,176.39L154.48,175.52L154.9,174.67L155.33,173.23L155.76,174.82L156.19,176.23L156.62,175.74L157.04,175.7L157.9,176.77L158.33,189.65L159.61,193.46L160.04,192.03L160.89,216.32L161.32,213.2L161.75,218.1L162.18,218.49L162.61,228.16L163.03,225.48L163.46,230.27L163.89,229.4L164.32,220.35L164.75,219.91L165.17,225.33L165.6,221.24L166.03,222.79L166.46,227.88L166.88,226.58L167.31,230.79L168.17,237.71L168.6,236.55L169.02,233.69L169.45,236L171.59,241.51L172.02,241.18L173.73,222.9L174.16,227.83L175.44,224.06L175.87,229.51L176.3,228.65L176.73,232.84L177.15,227.26L177.58,229.41L178.01,228.47L178.44,231.02L178.87,228.93L179.29,226.86L179.72,229.07L180.58,228.9L181.01,224.1L181.86,225.05L182.29,224.96L330.35,225.09L330.77,221.37L332.06,224.12L332.49,224.54L333.77,222.4L334.2,223.91L335.48,227.48L335.91,223.31L336.77,222.53L337.19,218.38L337.62,213.8L338.05,214.77L338.48,217.1L338.9,213.76L339.33,215.26L339.76,213.46L340.19,214.02L340.62,206.08L341.47,207.29L341.9,204.91L342.33,204.75L342.76,207.49L343.18,208.06L343.61,207.03L344.04,207.79L344.47,210.98L344.9,210.52L345.32,211.42L347.46,198.17L347.89,200.01L348.32,199.52L348.75,200.08L349.17,200.67L349.6,201.98L350.03,196.96L351.74,191.11L352.17,194.13L353.03,188.68L353.45,189.98L353.88,188.84L354.31,193.75L354.74,193.23L355.17,196.07L355.59,190.82L356.02,196.73L356.45,197.01L356.88,196.11L357.3,196.38L357.73,193.34L359.87,207.89L360.3,208.73L360.73,209.16L361.16,205.6L362.01,206.55L362.44,206.55L384.26,206.29L384.69,204.8L385.55,203.08L385.97,189.65L386.4,191.57L386.83,188.79L387.26,187.11L387.69,188.34L388.11,188.14L388.54,186.92L388.97,183.33L389.4,174.1L389.83,175.57L390.25,178.93L391.11,192.34L391.54,189.6L392.39,177.04L392.82,182.52L393.25,181.86L393.68,177.89L394.53,177.1L394.96,179.89L395.39,185.85L395.82,184.49L396.24,184.13L396.67,189.79L397.1,188.22L397.53,189.19L399.24,177.49L399.67,180.73L400.1,171.18L400.52,179.8L401.38,176.14L401.81,177.96L402.24,178.12L402.66,176.7L403.52,176.2L403.95,175.2L404.38,182.61L404.8,180.46L405.23,180.53L405.66,181.73L406.09,180.87L406.51,179.69L407.8,183.07L408.23,182.47L408.65,182.85L409.08,178.19L409.51,178.45L409.94,182.72L410.79,184.76L411.22,186.35L412.08,184.38L412.51,185.09L412.93,183.87L413.36,185.29L414.64,185.96L415.07,181.88L415.5,183.55L415.93,181.17L417.21,183.71L417.64,183.22L419.78,184.91L420.21,184.81L421.06,184.74L421.49,181.89L422.35,179.1L422.78,179.7L423.63,174.72L424.06,160.05L424.49,161.1L424.91,158.57L425.34,158.42L425.77,155.55L426.2,149.66L426.63,159.2L428.34,149.38L428.77,151.79L430.05,148.05L430.48,154.37L432.19,148.22L432.62,147.86L433.04,142.97L433.47,146.53L433.9,149.67L434.33,148.05L434.76,151.92L436.04,149.45L436.47,154.98L436.9,153.32L437.32,155.55L438.61,150.31L439.04,150.72L439.46,146.81L439.89,154.33L440.32,170.13L440.75,166.52L441.18,171.15L442.03,168.45L442.46,171.66L444.17,167.46L444.6,169.07L445.88,160.26L446.31,160.61L446.74,160.67L447.17,158.65L447.59,160.76L448.02,167.19L448.45,166.16L448.88,170.11L449.31,163.17L449.73,164.08L450.16,163.29L450.59,162.96L451.02,163.85L451.45,162.02L451.87,162.84L452.3,165.07L453.16,166.02L453.58,164.39L454.01,162.72L454.44,165.27L454.87,164.4L455.3,161.06L457.01,152.42L457.44,154.17L457.86,154.12L458.29,153.23L458.72,155.57L459.15,155.08L459.58,153.39L460.43,147.54L460.86,135.27L462.14,131.43L462.57,132.47L463,131.87L463.43,124.05L464.28,129.22L464.71,129.22L581.1,129.22L581.53,119.24L582.39,129.37L582.81,132.84L583.24,137.54L583.67,130.39L585.81,100.72L586.24,104.22L586.66,104.18L587.09,109.4L587.52,94.32L587.95,97.44L588.38,97.66L589.23,108.21L589.66,107.73L590.09,99.14L590.52,87.38L590.94,89.33L591.37,87.46L591.8,86.46L592.23,94.71L592.66,89.08L593.08,98.13L593.51,88.64L593.94,89.34L594.37,89.67L594.79,97.63L595.22,97.13L595.65,89.59L596.51,84.31L596.93,84.67L597.36,76.56L597.79,72.61L598.22,98.72L599.5,107.36L599.93,105.94L600.36,102.07L600.79,107.01L601.21,97.46L601.64,92.6L602.07,94.36L602.5,96.67L602.93,92.14L603.35,96.71L604.21,126.15L604.64,113.23L605.06,107.31L605.49,116.53L605.92,117.08L606.35,114.87L607.2,124.62L607.63,122.25L608.06,112.26L608.49,92.86L608.92,94.68L609.34,92.49L610.2,77.63L610.63,60.38L611.06,67.36L611.48,66.63L611.91,62.14L612.34,63.03L612.77,50.86L613.2,57.33L613.62,51.24L614.05,51.59L614.48,32.44L614.91,35.58L615.33,32.62L615.76,30.5L616.19,20.47L616.62,12.71L617.05,29.67L617.47,36.48L617.9,33.33L618.33,35.41L618.76,25.95L619.19,37.95L619.61,46.39L620.04,36.79L620.47,29.59L620.9,31.11L621.33,33.67L621.75,35.08L622.18,25.12L623.04,26.26L623.46,26.26L647,26.26" style="vector-effect: non-scaling-stroke; fill: none; stroke: rgb(148, 103, 189); stroke-opacity: 1; stroke-width: 2px; opacity: 1;"/></g><g class="points"/><g class="text"/></g><g class="trace scatter trace79106799-7859-4d61-bfe2-09c665f6044c" style="stroke-miterlimit: 2; opacity: 0;"><g class="fills"/><g class="errorbars"/><g class="lines"><path class="js-line" d="M0,169.1L647,169.1" style="vector-effect: non-scaling-stroke; fill: none; stroke: rgb(0, 0, 0); stroke-opacity: 0; stroke-width: 0px; opacity: 1;"/></g><g class="points"/><g class="text"/></g></g></g><g class="overplot"/><path class="xlines-above crisp" d="M0,0" style="fill: none;"/><path class="ylines-above crisp" d="M0,0" style="fill: none;"/><g class="overlines-above"/><g class="xaxislayer-above"><g class="x3tick"><text text-anchor="middle" x="0" y="920.9999999999999" transform="translate(95.68,0)" style="font-family: 'Open Sans', verdana, arial, sans-serif; font-size: 12px; fill: rgb(42, 63, 95); fill-opacity: 1; white-space: pre; opacity: 1;">Jan 2018</text></g><g class="x3tick"><text text-anchor="middle" x="0" y="920.9999999999999" style="font-family: 'Open Sans', verdana, arial, sans-serif; font-size: 12px; fill: rgb(42, 63, 95); fill-opacity: 1; white-space: pre; opacity: 1;" transform="translate(173.13,0)">Jul 2018</text></g><g class="x3tick"><text text-anchor="middle" x="0" y="920.9999999999999" style="font-family: 'Open Sans', verdana, arial, sans-serif; font-size: 12px; fill: rgb(42, 63, 95); fill-opacity: 1; white-space: pre; opacity: 1;" transform="translate(251.87,0)">Jan 2019</text></g><g class="x3tick"><text text-anchor="middle" x="0" y="920.9999999999999" style="font-family: 'Open Sans', verdana, arial, sans-serif; font-size: 12px; fill: rgb(42, 63, 95); fill-opacity: 1; white-space: pre; opacity: 1;" transform="translate(329.32,0)">Jul 2019</text></g><g class="x3tick"><text text-anchor="middle" x="0" y="920.9999999999999" style="font-family: 'Open Sans', verdana, arial, sans-serif; font-size: 12px; fill: rgb(42, 63, 95); fill-opacity: 1; white-space: pre; opacity: 1;" transform="translate(408.05,0)">Jan 2020</text></g><g class="x3tick"><text text-anchor="middle" x="0" y="920.9999999999999" style="font-family: 'Open Sans', verdana, arial, sans-serif; font-size: 12px; fill: rgb(42, 63, 95); fill-opacity: 1; white-space: pre; opacity: 1;" transform="translate(485.93,0)">Jul 2020</text></g><g class="x3tick"><text text-anchor="middle" x="0" y="920.9999999999999" style="font-family: 'Open Sans', verdana, arial, sans-serif; font-size: 12px; fill: rgb(42, 63, 95); fill-opacity: 1; white-space: pre; opacity: 1;" transform="translate(564.6700000000001,0)">Jan 2021</text></g><g class="x3tick"><text text-anchor="middle" x="0" y="920.9999999999999" style="font-family: 'Open Sans', verdana, arial, sans-serif; font-size: 12px; fill: rgb(42, 63, 95); fill-opacity: 1; white-space: pre; opacity: 1;" transform="translate(642.12,0)">Jul 2021</text></g></g><g class="yaxislayer-above"><g class="y3tick"><text text-anchor="end" x="72" y="4.199999999999999" transform="translate(0,892.6377777777777)" style="font-family: 'Open Sans', verdana, arial, sans-serif; font-size: 12px; fill: rgb(42, 63, 95); fill-opacity: 1; white-space: pre; opacity: 1;">50</text></g><g class="y3tick"><text text-anchor="end" x="72" y="4.199999999999999" style="font-family: 'Open Sans', verdana, arial, sans-serif; font-size: 12px; fill: rgb(42, 63, 95); fill-opacity: 1; white-space: pre; opacity: 1;" transform="translate(0,822.8777777777777)">100</text></g><g class="y3tick"><text text-anchor="end" x="72" y="4.199999999999999" style="font-family: 'Open Sans', verdana, arial, sans-serif; font-size: 12px; fill: rgb(42, 63, 95); fill-opacity: 1; white-space: pre; opacity: 1;" transform="translate(0,753.1277777777777)">150</text></g><g class="y3tick"><text text-anchor="end" x="72" y="4.199999999999999" style="font-family: 'Open Sans', verdana, arial, sans-serif; font-size: 12px; fill: rgb(42, 63, 95); fill-opacity: 1; white-space: pre; opacity: 1;" transform="translate(0,683.3677777777777)">200</text></g></g><g class="overaxes-above"/></g></g><g class="polarlayer"/><g class="ternarylayer"/><g class="geolayer"/><g class="funnelarealayer"/><g class="pielayer"/><g class="iciclelayer"/><g class="treemaplayer"/><g class="sunburstlayer"/><g class="glimages"/><defs id="topdefs-b40134"><g class="clips"/><clipPath id="legendb40134"><rect width="237" height="29" x="0" y="0"/></clipPath></defs><g class="layer-above"><g class="imagelayer"/><g class="shapelayer"><path data-index="0" fill-rule="evenodd" d="M73,204.46L720,204.46" clip-path="url(#clipb40134y)" style="opacity: 1; stroke: rgb(128, 128, 128); stroke-opacity: 1; fill: rgb(0, 0, 0); fill-opacity: 0; stroke-dasharray: 9px, 9px; stroke-width: 2px;"/><path data-index="1" fill-rule="evenodd" d="M73,606.3988888888889L720,606.3988888888889" clip-path="url(#clipb40134y2)" style="opacity: 1; stroke: rgb(128, 128, 128); stroke-opacity: 1; fill: rgb(0, 0, 0); fill-opacity: 0; stroke-dasharray: 9px, 9px; stroke-width: 2px;"/><path data-index="2" fill-rule="evenodd" d="M73,822.8777777777777L720,822.8777777777777" clip-path="url(#clipb40134y3)" style="opacity: 1; stroke: rgb(128, 128, 128); stroke-opacity: 1; fill: rgb(0, 0, 0); fill-opacity: 0; stroke-dasharray: 9px, 9px; stroke-width: 2px;"/></g></g><g class="infolayer"><g class="legend" pointer-events="all" transform="translate(483,12.333333333333272)"><rect class="bg" shape-rendering="crispEdges" width="237" height="29" x="0" y="0" style="stroke: rgb(68, 68, 68); stroke-opacity: 1; fill: rgb(255, 255, 255); fill-opacity: 1; stroke-width: 0px;"/><g class="scrollbox" transform="" clip-path="url(#legendb40134)"><g class="groups"><g class="traces" transform="translate(0,14.5)" style="opacity: 1;"><text class="legendtext" text-anchor="start" x="40" y="4.680000000000001" style="font-family: 'Open Sans', verdana, arial, sans-serif; font-size: 12px; fill: rgb(42, 63, 95); fill-opacity: 1; white-space: pre;">Cash</text><g class="layers" style="opacity: 1;"><g class="legendfill"/><g class="legendlines"><path class="js-line" d="M5,0h30" style="fill: none; stroke: rgb(44, 160, 44); stroke-opacity: 1; stroke-width: 2px;"/></g><g class="legendsymbols"><g class="legendpoints"/></g></g><rect class="legendtoggle" x="0" y="-9.5" width="71.921875" height="19" style="fill: rgb(0, 0, 0); fill-opacity: 0;"/></g><g class="traces" transform="translate(74.421875,14.5)" style="opacity: 1;"><text class="legendtext" text-anchor="start" x="40" y="4.680000000000001" style="font-family: 'Open Sans', verdana, arial, sans-serif; font-size: 12px; fill: rgb(42, 63, 95); fill-opacity: 1; white-space: pre;">Assets</text><g class="layers" style="opacity: 1;"><g class="legendfill"/><g class="legendlines"><path class="js-line" d="M5,0h30" style="fill: none; stroke: rgb(140, 86, 75); stroke-opacity: 1; stroke-width: 2px;"/></g><g class="legendsymbols"><g class="legendpoints"/></g></g><rect class="legendtoggle" x="0" y="-9.5" width="81.328125" height="19" style="fill: rgb(0, 0, 0); fill-opacity: 0;"/></g><g class="traces" transform="translate(158.25,14.5)" style="opacity: 1;"><text class="legendtext" text-anchor="start" x="40" y="4.680000000000001" style="font-family: 'Open Sans', verdana, arial, sans-serif; font-size: 12px; fill: rgb(42, 63, 95); fill-opacity: 1; white-space: pre;">Value</text><g class="layers" style="opacity: 1;"><g class="legendfill"/><g class="legendlines"><path class="js-line" d="M5,0h30" style="fill: none; stroke: rgb(148, 103, 189); stroke-opacity: 1; stroke-width: 2px;"/></g><g class="legendsymbols"><g class="legendpoints"/></g></g><rect class="legendtoggle" x="0" y="-9.5" width="75.9375" height="19" style="fill: rgb(0, 0, 0); fill-opacity: 0;"/></g></g></g><rect class="scrollbar" rx="20" ry="3" width="0" height="0" x="0" y="0" style="fill: rgb(128, 139, 164); fill-opacity: 1;"/></g><g class="g-gtitle"/><g class="g-xtitle"/><g class="g-x2title"/><g class="g-x3title"><text class="x3title" x="396.5" y="948.3" text-anchor="middle" style="font-family: 'Open Sans', verdana, arial, sans-serif; font-size: 14px; fill: rgb(42, 63, 95); opacity: 1; font-weight: normal; white-space: pre;">Index</text></g><g class="g-ytitle"><text class="ytitle" transform="rotate(-90,24.309375000000003,203.11111111111111)" x="24.309375000000003" y="203.11111111111111" text-anchor="middle" style="font-family: 'Open Sans', verdana, arial, sans-serif; font-size: 14px; fill: rgb(42, 63, 95); opacity: 1; font-weight: normal; white-space: pre;">Cash</text></g><g class="g-y2title" transform="translate(1.6904296875,0)"><text class="y2title" transform="rotate(-90,12.309375000000003,492.00000000000006)" x="12.309375000000003" y="492.00000000000006" text-anchor="middle" style="font-family: 'Open Sans', verdana, arial, sans-serif; font-size: 14px; fill: rgb(42, 63, 95); opacity: 1; font-weight: normal; white-space: pre;">Assets</text></g><g class="g-y3title"><text class="y3title" transform="rotate(-90,24.309375000000003,780.8888888888888)" x="24.309375000000003" y="780.8888888888888" text-anchor="middle" style="font-family: 'Open Sans', verdana, arial, sans-serif; font-size: 14px; fill: rgb(42, 63, 95); opacity: 1; font-weight: normal; white-space: pre;">Value</text></g><g class="annotation" data-index="0" style="opacity: 1;"><g class="annotation-text-g" transform="rotate(0,396.5,64)"><g class="cursor-pointer" transform="translate(375,52)"><rect class="bg" x="0.5" y="0.5" width="42" height="23" style="stroke-width: 1px; stroke: rgb(0, 0, 0); stroke-opacity: 0; fill: rgb(0, 0, 0); fill-opacity: 0;"/><text class="annotation-text" text-anchor="middle" x="21.609375" y="18" style="font-family: 'Open Sans', verdana, arial, sans-serif; font-size: 16px; fill: rgb(42, 63, 95); fill-opacity: 1; white-space: pre;">Cash</text></g></g></g><g class="annotation" data-index="1" style="opacity: 1;"><g class="annotation-text-g" transform="rotate(0,396.5,352.88888888888897)"><g class="cursor-pointer" transform="translate(369,341)"><rect class="bg" x="0.5" y="0.5" width="55" height="23" style="stroke-width: 1px; stroke: rgb(0, 0, 0); stroke-opacity: 0; fill: rgb(0, 0, 0); fill-opacity: 0;"/><text class="annotation-text" text-anchor="middle" x="27.890625" y="18" style="font-family: 'Open Sans', verdana, arial, sans-serif; font-size: 16px; fill: rgb(42, 63, 95); fill-opacity: 1; white-space: pre;">Assets</text></g></g></g><g class="annotation" data-index="2" style="opacity: 1;"><g class="annotation-text-g" transform="rotate(0,396.5,641.7777777777777)"><g class="cursor-pointer" transform="translate(372,630)"><rect class="bg" x="0.5" y="0.5" width="48" height="23" style="stroke-width: 1px; stroke: rgb(0, 0, 0); stroke-opacity: 0; fill: rgb(0, 0, 0); fill-opacity: 0;"/><text class="annotation-text" text-anchor="middle" x="24.296875" y="18" style="font-family: 'Open Sans', verdana, arial, sans-serif; font-size: 16px; fill: rgb(42, 63, 95); fill-opacity: 1; white-space: pre;">Value</text></g></g></g></g></svg>