<svg class="main-svg" xmlns="http://www.w3.org/2000/svg" xmlns:xlink="http://www.w3.org/1999/xlink" width="700" height="350" viewBox="0 0 700 350"><rect x="0" y="0" width="700" height="350" style="fill: rgb(255, 255, 255); fill-opacity: 1;"/><defs id="defs-d5499a"><g class="clips"><clipPath id="clipd5499axyplot" class="plotclip"><rect width="631" height="255"/></clipPath><clipPath class="axesclip" id="clipd5499ax"><rect x="39" y="0" width="631" height="350"/></clipPath><clipPath class="axesclip" id="clipd5499ay"><rect x="0" y="65" width="700" height="255"/></clipPath><clipPath class="axesclip" id="clipd5499axy"><rect x="39" y="65" width="631" height="255"/></clipPath></g><g class="gradients"/><g class="patterns"/></defs><g class="bglayer"><rect class="bg" x="39" y="65" width="631" height="255" style="fill: rgb(229, 236, 246); fill-opacity: 1; stroke-width: 0;"/></g><g class="layer-below"><g class="imagelayer"/><g class="shapelayer"/></g><g class="cartesianlayer"><g class="subplot xy"><g class="layer-subplot"><g class="shapelayer"><path data-index="0" fill-rule="evenodd" d="M234.37,299.3H309.82V285.82H234.37Z" clip-path="url(#clipd5499axy)" style="opacity: 0.2; stroke: rgb(0, 0, 0); stroke-opacity: 0; fill: rgb(0, 128, 0); fill-opacity: 1; stroke-width: 0px;"/><path data-index="1" fill-rule="evenodd" d="M394.66,286.4H555.36V191.74H394.66Z" clip-path="url(#clipd5499axy)" style="opacity: 0.2; stroke: rgb(0, 0, 0); stroke-opacity: 0; fill: rgb(0, 128, 0); fill-opacity: 1; stroke-width: 0px;"/><path data-index="2" fill-rule="evenodd" d="M357.13,284.43H371.41V294.96000000000004H357.13Z" clip-path="url(#clipd5499axy)" style="opacity: 0.2; stroke: rgb(0, 0, 0); stroke-opacity: 0; fill: rgb(255, 0, 0); fill-opacity: 1; stroke-width: 0px;"/><path data-index="3" fill-rule="evenodd" d="M591.25,146.93H634.07V150.29000000000002H591.25Z" clip-path="url(#clipd5499axy)" style="opacity: 0.2; stroke: rgb(0, 0, 0); stroke-opacity: 0; fill: rgb(255, 0, 0); fill-opacity: 1; stroke-width: 0px;"/></g><g class="imagelayer"/></g><g class="gridlayer"><g class="x"><path class="xgrid crisp" transform="translate(113.23,0)" d="M0,65v255" style="stroke: rgb(255, 255, 255); stroke-opacity: 1; stroke-width: 1px;"/><path class="xgrid crisp" transform="translate(188.28,0)" d="M0,65v255" style="stroke: rgb(255, 255, 255); stroke-opacity: 1; stroke-width: 1px;"/><path class="xgrid crisp" transform="translate(262.1,0)" d="M0,65v255" style="stroke: rgb(255, 255, 255); stroke-opacity: 1; stroke-width: 1px;"/><path class="xgrid crisp" transform="translate(337.15,0)" d="M0,65v255" style="stroke: rgb(255, 255, 255); stroke-opacity: 1; stroke-width: 1px;"/><path class="xgrid crisp" transform="translate(411.38,0)" d="M0,65v255" style="stroke: rgb(255, 255, 255); stroke-opacity: 1; stroke-width: 1px;"/><path class="xgrid crisp" transform="translate(486.43,0)" d="M0,65v255" style="stroke: rgb(255, 255, 255); stroke-opacity: 1; stroke-width: 1px;"/><path class="xgrid crisp" transform="translate(560.25,0)" d="M0,65v255" style="stroke: rgb(255, 255, 255); stroke-opacity: 1; stroke-width: 1px;"/><path class="xgrid crisp" transform="translate(635.3,0)" d="M0,65v255" style="stroke: rgb(255, 255, 255); stroke-opacity: 1; stroke-width: 1px;"/></g><g class="y"><path class="ygrid crisp" transform="translate(0,283.12)" d="M39,0h631" style="stroke: rgb(255, 255, 255); stroke-opacity: 1; stroke-width: 1px;"/><path class="ygrid crisp" transform="translate(0,247.45)" d="M39,0h631" style="stroke: rgb(255, 255, 255); stroke-opacity: 1; stroke-width: 1px;"/><path class="ygrid crisp" transform="translate(0,211.77)" d="M39,0h631" style="stroke: rgb(255, 255, 255); stroke-opacity: 1; stroke-width: 1px;"/><path class="ygrid crisp" transform="translate(0,176.1)" d="M39,0h631" style="stroke: rgb(255, 255, 255); stroke-opacity: 1; stroke-width: 1px;"/><path class="ygrid crisp" transform="translate(0,140.42000000000002)" d="M39,0h631" style="stroke: rgb(255, 255, 255); stroke-opacity: 1; stroke-width: 1px;"/><path class="ygrid crisp" transform="translate(0,104.74000000000001)" d="M39,0h631" style="stroke: rgb(255, 255, 255); stroke-opacity: 1; stroke-width: 1px;"/><path class="ygrid crisp" transform="translate(0,69.07)" d="M39,0h631" style="stroke: rgb(255, 255, 255); stroke-opacity: 1; stroke-width: 1px;"/></g></g><g class="zerolinelayer"><path class="yzl zl crisp" transform="translate(0,318.8)" d="M39,0h631" style="stroke: rgb(255, 255, 255); stroke-opacity: 1; stroke-width: 2px;"/></g><path class="xlines-below"/><path class="ylines-below"/><g class="overlines-below"/><g class="xaxislayer-below"/><g class="yaxislayer-below"/><g class="overaxes-below"/><g class="plot" transform="translate(39,65)" clip-path="url(#clipd5499axyplot)"><g class="scatterlayer mlayer"><g class="trace scatter traceaba368c7-644b-4644-afda-d59a209b6a36" style="stroke-miterlimit: 2; opacity: 1;"><g class="fills"/><g class="errorbars"/><g class="lines"><path class="js-line" d="M0,203.29L0.41,205.07L0.82,200.35L1.63,198.15L2.04,191.62L2.45,191.27L2.86,195.01L3.67,201.73L4.08,200.38L4.49,205.97L4.89,203.92L5.3,202.57L5.71,204.67L6.12,204.49L6.53,212.8L6.93,213.88L7.34,212.86L7.75,212.39L8.16,207.78L8.57,212.41L9.38,215.02L9.79,213.27L10.6,213.94L11.01,212.98L11.42,211.75L11.83,213.5L13.05,221.08L13.46,222.29L13.87,221.07L14.28,224.27L14.68,228.98L15.09,226.13L15.5,226.61L16.31,222.63L16.72,223.04L17.13,224.79L18.76,217.53L19.17,217.29L19.58,214.15L19.99,216.15L20.39,213.75L20.8,213.11L21.21,215.66L22.43,218.79L22.84,219.32L23.66,215.53L24.06,216.7L25.29,212.81L25.7,212.73L26.1,212.51L26.51,215.34L28.14,222.17L28.55,219.63L30.18,224.18L30.59,224.05L31,225.55L31.41,224.46L31.81,223.01L32.63,221.94L33.04,222.66L33.44,222.12L33.85,222.87L35.08,225.85L35.48,225.42L35.89,228.23L37.12,229.38L37.52,228.53L37.93,227.2L38.34,229.35L39.16,230.12L39.56,229.14L39.97,228.74L40.38,229.64L41.19,228.94L41.6,225.65L42.42,225.31L42.83,224.08L43.64,225.61L44.05,224.67L44.46,224.21L44.87,222.24L46.09,221.94L46.5,219.2L46.9,222.24L47.31,220.69L47.72,221.74L48.54,220.19L48.94,220.83L49.35,221.26L49.76,220.85L50.17,219.04L51.39,219.35L51.8,220.36L53.02,221.53L53.43,223.68L54.65,222.7L55.06,223.44L55.88,224.92L56.29,224.36L56.69,224.38L57.1,223.43L57.51,223.76L57.92,225.11L59.14,227.11L59.55,227.55L59.96,227.51L60.36,228.34L60.77,227.14L61.18,227.37L61.59,227.06L62.81,226.25L63.22,226.99L64.44,226.4L64.85,226.6L65.26,226.93L65.67,229.59L66.07,229.16L66.48,230.31L66.89,231.14L67.3,229.98L67.71,230.76L68.11,230.43L68.52,230.61L69.74,229.62L70.15,229.79L70.56,232.09L70.97,231.81L71.38,231.77L72.6,231.83L73.01,232.74L74.64,230.2L75.05,230.5L77.09,229.63L77.49,229.75L78.72,231.58L79.13,231.54L79.94,231.11L80.35,229.75L81.57,227.16L81.98,227.56L83.2,226.29L83.61,223.74L84.43,225.43L84.84,224.67L85.24,224.57L86.06,224.61L86.47,226.04L89.73,231.3L90.14,230.36L90.55,231.73L90.95,231.34L91.36,231.24L92.99,231.2L93.4,230.32L94.62,231.29L95.03,230.65L95.44,231.05L95.85,230.48L96.26,229.82L97.48,229.24L97.89,228.48L99.11,228.69L99.52,228.14L100.74,227.53L101.15,229.56L102.37,231.59L102.78,231.32L105.64,230.55L106.04,231.39L108.49,229.86L108.9,230.27L109.72,230.63L110.12,229.98L113.79,230.29L114.2,230.24L115.43,230.3L115.83,231.48L117.06,231.35L117.47,230.26L122.77,230.66L123.18,231.21L129.29,231.11L129.7,233.33L131.33,233.74L131.74,236.42L132.96,238.22L133.37,238.29L134.6,240.32L135,240.17L135.82,238.53L136.23,239.47L136.63,238.76L137.04,239.03L137.45,239.9L137.86,239.68L138.27,240.4L139.08,241.6L139.49,241.4L139.9,240.9L142.34,242.25L142.75,242.19L144.38,239.05L144.79,239.9L146.02,239.25L146.42,240.19L146.83,240.04L147.24,240.76L147.65,239.8L148.05,240.17L148.46,240.01L149.28,240.09L149.69,239.73L150.91,240.08L151.32,239.25L152.54,239.4L152.95,240.67L159.07,240.95L159.48,240.95L164.37,241.67L164.78,240.72L168.45,240.69L168.86,239.83L170.9,239.02L171.3,240.2L172.93,240.05L173.34,240.03L179.05,239.67L179.46,239.35L183.54,239.58L183.95,239.22L185.99,238.96L186.39,236.39L188.84,234.93L189.25,235.23L189.66,234.8L190.07,235.73L194.55,234.53L194.96,233.92L196.59,235L197,234.94L197.81,234.71L198.22,234.52L199.85,233.12L200.26,233.3L201.49,231.77L201.89,231.04L203.12,225.92L203.52,225.28L203.93,224.53L204.34,225.67L205.16,227.86L205.56,224.55L206.79,226.4L207.2,225.68L208.01,225.07L208.42,222.86L209.23,222.69L209.64,222.9L210.05,224.12L210.46,223.21L210.87,223.24L211.27,222.61L211.68,224.51L212.09,226.3L212.5,225.88L212.91,225.89L213.31,225.1L213.72,225.42L214.13,226.37L215.35,224.74L215.76,224.43L217.39,220.55L217.8,221.4L218.62,219.81L219.02,217.61L221.06,207.36L221.47,213.9L221.88,209.53L222.29,211.13L222.69,215.21L223.1,216.04L223.51,215.26L223.92,211.12L224.73,214.63L225.14,213.81L225.55,212.95L225.96,209.97L226.37,208.94L226.77,210.43L227.18,213.27L227.59,211.64L228,213.15L229.22,219.99L229.63,219.21L230.04,215.74L230.44,216.23L230.85,215.39L231.67,216.9L232.08,218.48L233.3,218.58L233.71,219.99L234.93,219.52L235.34,217.82L237.38,211.68L237.79,212.85L238.6,211.11L239.01,211.48L239.42,213.29L239.82,212.69L240.23,213.19L241.05,217.94L241.46,217.01L241.86,216.79L242.27,217.3L242.68,216.89L243.09,214.85L243.5,215.4L243.9,217.63L244.31,217.65L244.72,216.67L245.53,217.63L245.94,216.8L247.17,219.87L247.57,219.56L247.98,219.44L248.39,218.99L248.8,216.88L249.61,216L250.02,216.07L250.43,216.86L250.84,216.28L251.24,216.55L252.47,217.49L252.88,216.66L256.95,217.87L257.36,219.09L258.59,224.83L258.99,224.36L260.22,224.21L260.63,224.03L261.44,224.33L261.85,224.52L262.67,225.3L263.07,224.38L263.48,224.44L263.89,223.13L264.3,223.16L264.7,224.11L266.34,224.52L266.74,225.09L268.78,224.39L269.19,224.98L270.01,227.06L270.41,222.9L271.23,219.72L271.64,220.78L272.05,220.16L272.45,220.96L274.09,220.85L274.49,220.22L275.72,220.73L276.12,222.39L276.53,222.35L276.94,221.49L277.35,222.55L277.76,222.35L278.16,222.37L279.39,223.29L279.8,223.2L282.65,228.65L283.06,228.3L284.28,227.17L284.69,226.11L286.32,227.68L286.73,227.93L287.95,226.84L288.36,226.81L289.99,227.96L290.4,227.86L292.03,230.11L292.44,227.84L293.66,228.14L294.07,227L295.7,227.97L296.11,227.79L297.33,227.78L297.74,228.13L298.15,228.11L298.56,228.88L300.6,224.67L301,224.97L301.41,225.69L301.82,224.66L302.23,225.12L302.64,224.57L303.04,224.74L303.45,222.3L303.86,222.38L304.27,222.67L305.08,221.89L305.49,222.74L306.71,222.83L307.12,223.81L308.35,223.13L308.75,222.01L309.98,219.87L310.39,220.44L311.61,220.64L312.02,221.04L313.24,218.85L313.65,218.6L314.87,217.38L315.28,216.96L316.1,217.01L316.5,218.52L316.91,218.36L317.32,219.23L317.73,217.62L318.13,219.43L319.36,219.32L319.77,218.39L321.81,222.86L322.21,223.12L322.62,223.25L323.03,222.15L323.84,222.56L324.25,221.41L324.66,221.25L325.07,222.01L326.29,225.58L326.7,225.57L327.11,236.06L327.52,233.95L327.92,235.24L328.33,234.56L328.74,235.91L329.55,235.11L329.96,231.71L330.78,231.73L331.19,233L332,229.77L332.41,229.96L332.82,229.84L334.04,232.67L334.45,230.86L335.27,230.23L335.67,229.56L336.9,229.57L337.3,227.85L337.71,228.2L338.12,227.63L338.53,227.75L339.34,229.33L339.75,228.93L340.98,230.1L341.38,228.41L342.61,228.15L343.01,229.25L343.42,229.25L343.83,228.41L345.05,226.79L345.46,226.4L346.28,225.95L346.69,222.4L347.09,222.91L347.5,222.17L348.32,222.06L348.72,222L349.54,220.73L349.95,218.29L350.76,219.57L351.17,222.56L351.58,223.11L351.99,222.39L352.8,219.07L353.21,220.52L353.62,220.34L354.84,219.09L355.25,219.82L355.66,221.4L356.07,221.04L356.47,220.94L356.88,222.44L357.29,222.02L357.7,222.28L359.33,219.19L359.74,220.04L360.14,217.53L360.55,219.8L361.37,218.83L361.78,219.32L362.18,219.36L363.82,218.59L364.22,220.54L365.04,219.99L365.45,220.31L366.67,219.98L367.08,220.22L368.3,220.61L368.71,219.38L369.12,219.44L369.53,220.57L371.16,221.18L371.56,221.01L374.01,221.43L374.42,220.35L375.64,220.7L376.05,220.69L379.31,221.12L379.72,221.03L380.13,221.1L380.54,220.35L382.58,218.46L382.99,214.59L383.39,214.87L383.8,214.2L384.62,213.4L385.02,211.84L385.43,214.36L385.84,213.68L386.25,213.82L387.06,211.77L387.47,212.41L388.7,211.42L389.1,213.09L390.73,211.47L391.14,211.37L391.55,210.08L391.96,211.02L392.37,211.85L392.77,211.42L393.18,212.44L394.41,211.79L394.81,213.25L396.04,212.62L396.44,212.75L397.67,211.09L398.08,213.08L398.48,217.25L398.89,216.3L399.3,217.52L400.12,216.8L400.52,217.65L402.15,216.54L402.56,216.97L403.79,214.64L404.19,214.74L405.42,214.77L405.83,216.47L406.23,216.2L406.64,217.24L407.05,215.41L407.46,215.65L407.86,215.44L409.5,215.32L409.9,215.91L411.13,215.73L411.54,215.29L412.35,215.74L412.76,214.86L414.39,212.57L414.8,213.03L415.21,213.02L416.02,213.41L416.43,213.28L417.65,211.29L418.06,208.05L419.29,207.03L419.69,207.31L420.1,207.15L420.51,205.09L420.92,206.45L421.32,205.86L421.73,205.47L422.55,204.79L422.96,205.46L423.77,203.37L424.18,198.22L424.59,198.27L425,200.88L425.4,198.57L425.81,199.1L426.22,199.25L427.44,195.58L427.85,196.47L428.26,196.88L428.67,194.16L429.89,190.23L430.3,187.37L430.71,187.29L431.11,188.26L431.52,188.28L431.93,185.63L432.34,186.97L432.74,192.61L433.15,192.76L433.56,190.59L433.97,188.95L434.38,183.78L434.78,186.72L435.19,185.3L435.6,184.43L436.01,187.09L436.42,185.46L436.82,184.78L437.23,185.33L437.64,188.44L438.05,187.61L438.45,188.64L438.86,189.37L439.27,186.71L440.49,184.53L440.9,177.77L442.13,168.64L442.53,170.04L442.94,172.45L443.35,168.95L443.76,170.88L444.16,169.12L445.8,157.17L446.2,156.18L448.24,136.85L448.65,139.74L450.28,108.25L450.69,110.19L451.1,116.96L451.91,132.78L452.32,120.67L452.73,113.99L453.14,122.42L453.95,126.11L454.36,123.12L455.18,126.98L455.59,143.83L455.99,136.05L456.4,139.39L456.81,138.6L457.62,137.6L458.03,145.23L458.85,131.37L459.26,131.54L459.66,135.66L460.07,134.15L460.48,127.11L461.7,117.72L462.11,113.71L462.52,115.01L462.93,88.99L463.33,87.97L463.74,93.55L464.15,82.88L464.56,84.32L464.97,85.75L466.6,67.75L467.01,69.43L468.23,48.52L468.64,60.41L469.86,85.79L470.27,88.48L470.68,89.02L471.08,92.77L472.31,73.5L472.72,80.55L473.53,79.3L473.94,71.12L475.16,53.98L475.57,47.58L475.98,49.26L476.39,35.31L477.2,54.35L477.61,51.14L478.02,43.77L478.43,47.38L478.83,45.64L479.24,45.76L479.65,48.58L480.06,59.26L480.46,58.51L480.87,65.52L481.28,69.34L481.69,57.09L484.14,42.97L484.54,41.94L484.95,48.29L485.36,44.17L485.77,43.11L486.58,53.84L486.99,45.72L487.4,46.01L487.81,40.48L488.21,39.01L488.62,40.13L489.03,27.25L489.44,28.65L489.85,27.92L490.25,34.13L490.66,37.31L491.07,53.24L491.48,55L491.89,52.33L493.52,75.24L493.92,78.97L494.74,57.46L495.15,58.21L495.56,62.74L495.96,47.77L496.37,47.49L496.78,51.76L497.19,49.73L497.6,63.53L498,48.93L498.41,52.6L498.82,49.18L499.23,44.01L499.63,46.05L500.04,54.52L500.45,51.5L500.86,78.45L501.67,75.85L502.08,86.98L502.49,88.06L502.9,98.48L503.31,100.72L503.71,121.79L504.12,108.3L504.53,120.71L504.94,119.88L505.34,129.75L505.75,115.71L506.16,116.8L506.57,113.61L506.98,116.67L507.38,126.44L507.79,130.3L508.2,126.51L509.42,119.75L509.83,113.92L511.46,134.07L511.87,134.38L512.28,120.57L512.69,122.86L513.09,120.61L513.5,126.96L513.91,114.31L514.73,109.65L515.13,116.99L515.54,118.04L515.95,126.12L516.36,126.74L516.76,126.44L517.17,140.79L518.4,130.14L518.8,140.93L519.21,138.97L519.62,130.18L520.03,130.95L520.44,125.84L521.25,134.03L521.66,132.87L522.07,130.12L522.48,127.91L522.88,133.41L523.29,131.66L523.7,133.02L524.11,136.51L525.33,131.64L525.74,135.51L527.37,141.7L527.78,141.3L528.19,140.36L529,147.46L529.41,139.24L529.82,138.52L530.22,133.99L531.04,127.68L531.45,120.59L533.08,103.12L533.49,105.29L534.71,117.69L535.12,112L537.16,88.39L537.57,91.17L537.97,91.14L538.38,95.3L538.79,83.29L539.2,85.78L539.61,85.96L540.42,94.34L540.83,93.97L541.24,87.13L541.64,77.78L542.05,79.33L542.46,77.84L542.87,77.04L543.28,83.6L543.68,79.13L544.09,86.33L544.5,78.78L544.91,79.34L545.32,79.59L545.72,85.93L546.13,85.53L546.54,79.53L547.35,75.33L547.76,75.62L548.17,69.16L548.58,66.03L548.99,86.8L550.21,93.67L550.62,92.54L551.03,89.46L551.43,93.39L551.84,85.79L552.25,81.93L552.66,83.33L553.06,85.17L553.47,81.56L553.88,85.19L554.7,108.62L555.1,98.34L555.51,93.63L555.92,100.96L556.33,101.4L556.74,99.65L557.55,107.4L557.96,105.51L558.37,97.57L558.78,82.14L559.18,83.58L559.59,81.84L560.41,70.02L560.81,56.29L561.22,61.84L561.63,61.26L562.04,57.7L562.45,58.4L562.85,48.72L563.26,53.87L563.67,49.02L564.08,49.3L564.49,34.06L564.89,36.56L565.3,34.2L565.71,32.52L566.12,24.54L566.52,18.37L566.93,31.86L567.34,37.28L567.75,34.77L568.16,36.42L568.56,28.9L568.97,38.45L569.38,45.16L569.79,37.53L570.2,31.8L570.6,33.01L571.01,35.04L571.42,36.16L571.83,28.23L572.23,29.15L572.64,34.56L573.05,35.73L573.46,34.3L574.27,12.75L574.68,14.87L575.09,21.92L575.5,22.09L575.91,24.92L576.31,23.8L576.72,20.24L578.35,50.65L578.76,46.45L579.17,40.83L579.58,44.27L579.98,52.98L580.39,48.42L580.8,53.01L581.21,49.47L581.62,62.69L582.84,47.57L583.25,50.43L583.65,49.63L584.06,52.31L584.88,78.27L585.29,77.67L585.69,73.34L586.1,72.92L586.51,73.62L587.33,85.25L587.73,77.69L588.14,75.07L588.55,87.06L588.96,87.5L589.36,79.36L590.18,88.97L590.59,86.66L591,87.17L591.4,86.55L591.81,79.21L592.22,80.31L592.63,72.62L593.04,72.49L593.44,73.89L593.85,72.53L594.26,73.14L594.67,84.02L595.07,85.29" style="vector-effect: non-scaling-stroke; fill: none; stroke: rgb(31, 119, 180); stroke-opacity: 1; stroke-width: 2px; opacity: 1;"/></g><g class="points"/><g class="text"/></g><g class="trace scatter trace64df0bc7-f44f-45d2-91b7-cd7bd44f1753" style="stroke-miterlimit: 2; opacity: 1;"><g class="fills"/><g class="errorbars"/><g class="lines"><path class="js-line" d="M19.99,212.38L22.43,214.35L22.84,214.91L25.29,216.6L25.7,216.8L34.67,220.03L35.08,219.97L37.93,220.52L38.34,220.64L47.31,224.76L47.72,224.79L56.29,224.06L56.69,223.96L61.59,223.35L62,223.37L66.48,224.14L66.89,224.38L73.01,227.55L73.42,227.75L81.17,229.7L81.57,229.69L87.69,229.1L88.1,229.06L96.66,228.96L97.07,228.97L104.01,229.2L104.41,229.32L110.94,230.26L111.35,230.23L124.81,230.59L125.21,230.6L132.96,231.6L133.37,231.76L152.54,240.09L152.95,240.16L161.92,240.54L162.33,240.52L186.39,239.72L186.8,239.62L201.89,235.66L202.3,235.43L210.87,230.23L211.27,229.97L219.84,224.94L220.25,224.57L224.33,221.19L224.73,220.97L230.04,218.11L230.44,217.95L241.05,214.76L241.46,214.95L252.47,216.58L252.88,216.54L257.77,216.67L258.18,216.88L262.67,219.13L263.07,219.28L267.97,220.92L268.38,221.02L277.76,223.23L278.16,223.22L284.69,223.73L285.1,223.78L294.07,225.78L294.48,225.91L301,227.52L301.41,227.53L308.35,226.14L308.75,226.05L316.5,222.66L316.91,222.47L323.03,220.68L323.44,220.63L327.52,221.29L327.92,221.52L343.83,229.52L344.24,229.62L347.09,229.84L347.5,229.56L357.7,224.15L358.11,224.01L368.3,220.23L368.71,220.18L374.01,220.24L374.42,220.26L382.58,220.4L382.99,220.31L388.29,218.55L388.7,218.37L396.04,215.22L396.44,215.06L401.34,213.77L401.75,213.71L405.83,213.69L406.23,213.74L417.65,215.08L418.06,215.02L421.32,213.44L421.73,213.21L427.03,209.33L427.44,208.93L431.11,204.56L431.52,204.01L438.05,195.6L438.45,195.21L441.31,191.87L441.72,191.18L447.84,179.12L448.24,177.93L452.32,164.42L452.73,162.96L456.81,151.53L457.22,150.6L462.52,136.49L462.93,134.87L469.86,108.28L470.27,107.78L471.9,105.33L472.31,104.15L474.75,98.24L475.16,96.82L483.32,65.67L483.73,64.78L486.58,59.44L486.99,59L489.44,56.11L489.85,55.14L492.29,50.73L492.7,50.64L495.56,50.15L495.96,50.16L497.19,50.6L497.6,50.78L500.45,50.89L500.86,51.29L502.08,52.23L502.49,52.91L504.12,57.71L504.53,59.27L513.91,94.06L514.32,94.69L516.36,100.89L516.76,102.47L522.07,122.32L522.48,123.14L524.51,126.15L524.92,126.42L526.96,128.13L527.37,128.63L531.45,131.21L531.86,130.79L534.3,129.11L534.71,129.26L535.93,128.79L536.34,128.16L538.38,124.13L538.79,123.19L551.43,91.08L551.84,90.38L554.29,87.65L554.7,87.54L556.33,86.65L556.74,86.75L559.59,87.32L560,87.17L562.85,83.46L563.26,82.99L565.71,77.97L566.12,76.74L568.16,72.04L568.56,71.23L569.79,68.81L570.2,67.68L576.72,46.86L577.13,45.41L579.98,38.44L580.39,37.83L582.02,37.31L582.43,37.15L584.06,36.95L584.47,37.22L594.26,59.46L594.67,60.89L595.07,62.3" style="vector-effect: non-scaling-stroke; fill: none; stroke: rgb(255, 127, 14); stroke-opacity: 1; stroke-width: 2px; opacity: 1;"/></g><g class="points"/><g class="text"/></g><g class="trace scatter trace7ffe69b4-288f-46a4-a3e0-08562b6b8741" style="stroke-miterlimit: 2; opacity: 1;"><g class="fills"/><g class="errorbars"/><g class="lines"><path class="js-line" d="M81.17,221.85L94.62,225.3L95.03,225.34L121.95,228.09L122.36,228.1L131.33,229.05L131.74,229.13L146.02,231.86L146.42,231.93L170.9,235.36L171.3,235.41L196.18,237.71L196.59,237.73L205.97,237.68L206.38,237.65L216.58,236.42L216.98,236.34L224.73,233.89L225.14,233.75L257.36,224.23L257.77,224.14L281.43,220.24L281.83,220.21L290.81,220.3L291.22,220.32L332,223.88L332.41,223.94L344.24,225.23L344.65,225.24L360.96,224.93L361.37,224.9L380.95,223.2L381.35,223.16L409.9,220.34L410.31,220.24L426.63,215.94L427.03,215.78L441.72,209.71L442.13,209.45L447.84,205.29L448.24,204.87L452.32,199.97L452.73,199.43L464.97,184.56L465.37,183.89L475.98,165.53L476.39,164.64L494.33,128.25L494.74,127.47L503.31,112.09L503.71,111.68L509.42,106.13L509.83,105.72L518.4,99.08L518.8,98.86L526.55,94.66L526.96,94.56L531.45,94.35L531.86,94.38L535.93,93.76L536.34,93.61L539.61,91.67L540.01,91.45L545.72,89.24L546.13,89.25L549.8,89.68L550.21,89.85L556.74,91.09L557.14,91.37L560.81,93.11L561.22,93.18L566.12,92.69L566.52,92.54L574.68,91.18L575.09,90.91L577.54,89.86L577.94,89.82L584.06,89.01L584.47,88.83L588.14,87.09L588.55,86.94L595.07,83.43" style="vector-effect: non-scaling-stroke; fill: none; stroke: rgb(44, 160, 44); stroke-opacity: 1; stroke-width: 2px; opacity: 1;"/></g><g class="points"/><g class="text"/></g><g class="trace scatter tracec16ee4b0-a401-4eb7-bf6a-7c91786ab420" style="stroke-miterlimit: 2; opacity: 1;"><g class="fills"/><g class="errorbars"/><g class="lines"/><g class="points"><path class="point plotly-customdata" transform="translate(195.37,234.3)" d="M3.5,3.5H-3.5V-3.5H3.5Z" style="opacity: 1; stroke-width: 1px; fill: rgb(66, 133, 244); fill-opacity: 1; stroke: rgb(11, 84, 205); stroke-opacity: 1;"/><path class="point plotly-customdata" transform="translate(318.13,219.43)" d="M3.5,3.5H-3.5V-3.5H3.5Z" style="opacity: 1; stroke-width: 1px; fill: rgb(66, 133, 244); fill-opacity: 1; stroke: rgb(11, 84, 205); stroke-opacity: 1;"/><path class="point plotly-customdata" transform="translate(355.66,221.4)" d="M3.5,3.5H-3.5V-3.5H3.5Z" style="opacity: 1; stroke-width: 1px; fill: rgb(66, 133, 244); fill-opacity: 1; stroke: rgb(11, 84, 205); stroke-opacity: 1;"/><path class="point plotly-customdata" transform="translate(552.25,81.93)" d="M3.5,3.5H-3.5V-3.5H3.5Z" style="opacity: 1; stroke-width: 1px; fill: rgb(66, 133, 244); fill-opacity: 1; stroke: rgb(11, 84, 205); stroke-opacity: 1;"/></g><g class="text"/></g><g class="trace scatter trace9b6e96cc-53c2-428a-b5c3-6bcfad382660" style="stroke-miterlimit: 2; opacity: 1;"><g class="fills"/><g class="errorbars"/><g class="lines"/><g class="points"><path class="point plotly-customdata" transform="translate(270.82,220.82)" d="M3.5,3.5H-3.5V-3.5H3.5Z" style="opacity: 1; stroke-width: 1px; fill: rgb(55, 177, 63); fill-opacity: 1; stroke: rgb(38, 123, 44); stroke-opacity: 1;"/><path class="point plotly-customdata" transform="translate(516.36,126.74)" d="M3.5,3.5H-3.5V-3.5H3.5Z" style="opacity: 1; stroke-width: 1px; fill: rgb(55, 177, 63); fill-opacity: 1; stroke: rgb(38, 123, 44); stroke-opacity: 1;"/></g><g class="text"/></g><g class="trace scatter trace6a9ed65e-58e0-4ea2-b402-25a45881b03c" style="stroke-miterlimit: 2; opacity: 1;"><g class="fills"/><g class="errorbars"/><g class="lines"/><g class="points"><path class="point plotly-customdata" transform="translate(332.41,229.96)" d="M3.5,3.5H-3.5V-3.5H3.5Z" style="opacity: 1; stroke-width: 1px; fill: rgb(234, 67, 53); fill-opacity: 1; stroke: rgb(181, 31, 18); stroke-opacity: 1;"/></g><g class="text"/></g><g class="trace scatter traced2072769-7b6e-4913-8a93-9e5ea621e0e2" style="stroke-miterlimit: 2; opacity: 1;"><g class="fills"/><g class="errorbars"/><g class="lines"/><g class="points"><path class="point plotly-customdata" transform="translate(595.07,85.29)" d="M3.5,3.5H-3.5V-3.5H3.5Z" style="opacity: 1; stroke-width: 1px; fill: rgb(255, 170, 0); fill-opacity: 1; stroke: rgb(178, 118, 0); stroke-opacity: 1;"/></g><g class="text"/></g></g></g><g class="overplot"/><path class="xlines-above crisp" d="M0,0" style="fill: none;"/><path class="ylines-above crisp" d="M0,0" style="fill: none;"/><g class="overlines-above"/><g class="xaxislayer-above"><g class="xtick"><text text-anchor="middle" x="0" y="333" transform="translate(39.41,0)" style="font-family: 'Open Sans', verdana, arial, sans-serif; font-size: 12px; fill: rgb(42, 63, 95); fill-opacity: 1; white-space: pre; opacity: 1;">Jan 2018</text></g><g class="xtick"><text text-anchor="middle" x="0" y="333" style="font-family: 'Open Sans', verdana, arial, sans-serif; font-size: 12px; fill: rgb(42, 63, 95); fill-opacity: 1; white-space: pre; opacity: 1;" transform="translate(113.23,0)">Jul 2018</text></g><g class="xtick"><text text-anchor="middle" x="0" y="333" style="font-family: 'Open Sans', verdana, arial, sans-serif; font-size: 12px; fill: rgb(42, 63, 95); fill-opacity: 1; white-space: pre; opacity: 1;" transform="translate(188.28,0)">Jan 2019</text></g><g class="xtick"><text text-anchor="middle" x="0" y="333" style="font-family: 'Open Sans', verdana, arial, sans-serif; font-size: 12px; fill: rgb(42, 63, 95); fill-opacity: 1; white-space: pre; opacity: 1;" transform="translate(262.1,0)">Jul 2019</text></g><g class="xtick"><text text-anchor="middle" x="0" y="333" style="font-family: 'Open Sans', verdana, arial, sans-serif; font-size: 12px; fill: rgb(42, 63, 95); fill-opacity: 1; white-space: pre; opacity: 1;" transform="translate(337.15,0)">Jan 2020</text></g><g class="xtick"><text text-anchor="middle" x="0" y="333" style="font-family: 'Open Sans', verdana, arial, sans-serif; font-size: 12px; fill: rgb(42, 63, 95); fill-opacity: 1; white-space: pre; opacity: 1;" transform="translate(411.38,0)">Jul 2020</text></g><g class="xtick"><text text-anchor="middle" x="0" y="333" style="font-family: 'Open Sans', verdana, arial, sans-serif; font-size: 12px; fill: rgb(42, 63, 95); fill-opacity: 1; white-space: pre; opacity: 1;" transform="translate(486.43,0)">Jan 2021</text></g><g class="xtick"><text text-anchor="middle" x="0" y="333" style="font-family: 'Open Sans', verdana, arial, sans-serif; font-size: 12px; fill: rgb(42, 63, 95); fill-opacity: 1; white-space: pre; opacity: 1;" transform="translate(560.25,0)">Jul 2021</text></g><g class="xtick"><text text-anchor="middle" x="0" y="333" style="font-family: 'Open Sans', verdana, arial, sans-serif; font-size: 12px; fill: rgb(42, 63, 95); fill-opacity: 1; white-space: pre; opacity: 1;" transform="translate(635.3,0)">Jan 2022</text></g></g><g class="yaxislayer-above"><g class="ytick"><text text-anchor="end" x="38" y="4.199999999999999" transform="translate(0,318.8)" style="font-family: 'Open Sans', verdana, arial, sans-serif; font-size: 12px; fill: rgb(42, 63, 95); fill-opacity: 1; white-space: pre; opacity: 1;">0</text></g><g class="ytick"><text text-anchor="end" x="38" y="4.199999999999999" style="font-family: 'Open Sans', verdana, arial, sans-serif; font-size: 12px; fill: rgb(42, 63, 95); fill-opacity: 1; white-space: pre; opacity: 1;" transform="translate(0,283.12)">10k</text></g><g class="ytick"><text text-anchor="end" x="38" y="4.199999999999999" style="font-family: 'Open Sans', verdana, arial, sans-serif; font-size: 12px; fill: rgb(42, 63, 95); fill-opacity: 1; white-space: pre; opacity: 1;" transform="translate(0,247.45)">20k</text></g><g class="ytick"><text text-anchor="end" x="38" y="4.199999999999999" style="font-family: 'Open Sans', verdana, arial, sans-serif; font-size: 12px; fill: rgb(42, 63, 95); fill-opacity: 1; white-space: pre; opacity: 1;" transform="translate(0,211.77)">30k</text></g><g class="ytick"><text text-anchor="end" x="38" y="4.199999999999999" style="font-family: 'Open Sans', verdana, arial, sans-serif; font-size: 12px; fill: rgb(42, 63, 95); fill-opacity: 1; white-space: pre; opacity: 1;" transform="translate(0,176.1)">40k</text></g><g class="ytick"><text text-anchor="end" x="38" y="4.199999999999999" style="font-family: 'Open Sans', verdana, arial, sans-serif; font-size: 12px; fill: rgb(42, 63, 95); fill-opacity: 1; white-space: pre; opacity: 1;" transform="translate(0,140.42000000000002)">50k</text></g><g class="ytick"><text text-anchor="end" x="38" y="4.199999999999999" style="font-family: 'Open Sans', verdana, arial, sans-serif; font-size: 12px; fill: rgb(42, 63, 95); fill-opacity: 1; white-space: pre; opacity: 1;" transform="translate(0,104.74000000000001)">60k</text></g><g class="ytick"><text text-anchor="end" x="38" y="4.199999999999999" style="font-family: 'Open Sans', verdana, arial, sans-serif; font-size: 12px; fill: rgb(42, 63, 95); fill-opacity: 1; white-space: pre; opacity: 1;" transform="translate(0,69.07)">70k</text></g></g><g class="overaxes-above"/></g></g><g class="polarlayer"/><g class="ternarylayer"/><g class="geolayer"/><g class="funnelarealayer"/><g class="pielayer"/><g class="iciclelayer"/><g class="treemaplayer"/><g class="sunburstlayer"/><g class="glimages"/><defs id="topdefs-d5499a"><g class="clips"/><clipPath id="legendd5499a"><rect width="568" height="48" x="0" y="0"/></clipPath></defs><g class="layer-above"><g class="imagelayer"/><g class="shapelayer"/></g><g class="infolayer"><g class="legend" pointer-events="all" transform="translate(102,11.899999999999991)"><rect class="bg" shape-rendering="crispEdges" width="568" height="48" x="0" y="0" style="stroke: rgb(68, 68, 68); stroke-opacity: 1; fill: rgb(255, 255, 255); fill-opacity: 1; stroke-width: 0px;"/><g class="scrollbox" transform="" clip-path="url(#legendd5499a)"><g class="groups"><g class="traces" transform="translate(0,14.5)" style="opacity: 1;"><text class="legendtext" text-anchor="start" x="40" y="4.680000000000001" style="font-family: 'Open Sans', verdana, arial, sans-serif; font-size: 12px; fill: rgb(42, 63, 95); fill-opacity: 1; white-space: pre;">Close</text><g class="layers" style="opacity: 1;"><g class="legendfill"/><g class="legendlines"><path class="js-line" d="M5,0h30" style="fill: none; stroke: rgb(31, 119, 180); stroke-opacity: 1; stroke-width: 2px;"/></g><g class="legendsymbols"><g class="legendpoints"/></g></g><rect class="legendtoggle" x="0" y="-9.5" width="74.84375" height="19" style="fill: rgb(0, 0, 0); fill-opacity: 0;"/></g><g class="traces" transform="translate(113.46875,14.5)" style="opacity: 1;"><text class="legendtext" text-anchor="start" x="40" y="4.680000000000001" style="font-family: 'Open Sans', verdana, arial, sans-serif; font-size: 12px; fill: rgb(42, 63, 95); fill-opacity: 1; white-space: pre;">Fast MA</text><g class="layers" style="opacity: 1;"><g class="legendfill"/><g class="legendlines"><path class="js-line" d="M5,0h30" style="fill: none; stroke: rgb(255, 127, 14); stroke-opacity: 1; stroke-width: 2px;"/></g><g class="legendsymbols"><g class="legendpoints"/></g></g><rect class="legendtoggle" x="0" y="-9.5" width="90.109375" height="19" style="fill: rgb(0, 0, 0); fill-opacity: 0;"/></g><g class="traces" transform="translate(226.9375,14.5)" style="opacity: 1;"><text class="legendtext" text-anchor="start" x="40" y="4.680000000000001" style="font-family: 'Open Sans', verdana, arial, sans-serif; font-size: 12px; fill: rgb(42, 63, 95); fill-opacity: 1; white-space: pre;">Slow MA</text><g class="layers" style="opacity: 1;"><g class="legendfill"/><g class="legendlines"><path class="js-line" d="M5,0h30" style="fill: none; stroke: rgb(44, 160, 44); stroke-opacity: 1; stroke-width: 2px;"/></g><g class="legendsymbols"><g class="legendpoints"/></g></g><rect class="legendtoggle" x="0" y="-9.5" width="93.625" height="19" style="fill: rgb(0, 0, 0); fill-opacity: 0;"/></g><g class="traces" transform="translate(340.40625,14.5)" style="opacity: 1;"><text class="legendtext" text-anchor="start" x="40" y="4.680000000000001" style="font-family: 'Open Sans', verdana, arial, sans-serif; font-size: 12px; fill: rgb(42, 63, 95); fill-opacity: 1; white-space: pre;">Entry</text><g class="layers" style="opacity: 1;"><g class="legendfill"/><g class="legendlines"/><g class="legendsymbols"><g class="legendpoints"><path class="scatterpts" transform="translate(20,0)" d="M3.5,3.5H-3.5V-3.5H3.5Z" style="opacity: 1; stroke-width: 1px; fill: rgb(66, 133, 244); fill-opacity: 1; stroke: rgb(11, 84, 205); stroke-opacity: 1;"/></g></g></g><rect class="legendtoggle" x="0" y="-9.5" width="74.625" height="19" style="fill: rgb(0, 0, 0); fill-opacity: 0;"/></g><g class="traces" transform="translate(453.875,14.5)" style="opacity: 1;"><text class="legendtext" text-anchor="start" x="40" y="4.680000000000001" style="font-family: 'Open Sans', verdana, arial, sans-serif; font-size: 12px; fill: rgb(42, 63, 95); fill-opacity: 1; white-space: pre;">Exit - Profit</text><g class="layers" style="opacity: 1;"><g class="legendfill"/><g class="legendlines"/><g class="legendsymbols"><g class="legendpoints"><path class="scatterpts" transform="translate(20,0)" d="M3.5,3.5H-3.5V-3.5H3.5Z" style="opacity: 1; stroke-width: 1px; fill: rgb(55, 177, 63); fill-opacity: 1; stroke: rgb(38, 123, 44); stroke-opacity: 1;"/></g></g></g><rect class="legendtoggle" x="0" y="-9.5" width="110.96875" height="19" style="fill: rgb(0, 0, 0); fill-opacity: 0;"/></g><g class="traces" transform="translate(0,33.5)" style="opacity: 1;"><text class="legendtext" text-anchor="start" x="40" y="4.680000000000001" style="font-family: 'Open Sans', verdana, arial, sans-serif; font-size: 12px; fill: rgb(42, 63, 95); fill-opacity: 1; white-space: pre;">Exit - Loss</text><g class="layers" style="opacity: 1;"><g class="legendfill"/><g class="legendlines"/><g class="legendsymbols"><g class="legendpoints"><path class="scatterpts" transform="translate(20,0)" d="M3.5,3.5H-3.5V-3.5H3.5Z" style="opacity: 1; stroke-width: 1px; fill: rgb(234, 67, 53); fill-opacity: 1; stroke: rgb(181, 31, 18); stroke-opacity: 1;"/></g></g></g><rect class="legendtoggle" x="0" y="-9.5" width="105.5625" height="19" style="fill: rgb(0, 0, 0); fill-opacity: 0;"/></g><g class="traces" transform="translate(113.46875,33.5)" style="opacity: 1;"><text class="legendtext" text-anchor="start" x="40" y="4.680000000000001" style="font-family: 'Open Sans', verdana, arial, sans-serif; font-size: 12px; fill: rgb(42, 63, 95); fill-opacity: 1; white-space: pre;">Active</text><g class="layers" style="opacity: 1;"><g class="legendfill"/><g class="legendlines"/><g class="legendsymbols"><g class="legendpoints"><path class="scatterpts" transform="translate(20,0)" d="M3.5,3.5H-3.5V-3.5H3.5Z" style="opacity: 1; stroke-width: 1px; fill: rgb(255, 170, 0); fill-opacity: 1; stroke: rgb(178, 118, 0); stroke-opacity: 1;"/></g></g></g><rect class="legendtoggle" x="0" y="-9.5" width="79.21875" height="19" style="fill: rgb(0, 0, 0); fill-opacity: 0;"/></g></g></g><rect class="scrollbar" rx="20" ry="3" width="0" height="0" x="0" y="0" style="fill: rgb(128, 139, 164); fill-opacity: 1;"/></g><g class="g-gtitle"/><g class="g-xtitle"/><g class="g-ytitle"/></g></svg>