<svg class="main-svg" xmlns="http://www.w3.org/2000/svg" xmlns:xlink="http://www.w3.org/1999/xlink" width="700" height="350" viewBox="0 0 700 350"><rect x="0" y="0" width="700" height="350" style="fill: rgb(255, 255, 255); fill-opacity: 1;"/><defs id="defs-4978ad"><g class="clips"><clipPath id="clip4978adxyplot" class="plotclip"><rect width="635" height="274"/></clipPath><clipPath class="axesclip" id="clip4978adx"><rect x="35" y="0" width="635" height="350"/></clipPath><clipPath class="axesclip" id="clip4978ady"><rect x="0" y="46" width="700" height="274"/></clipPath><clipPath class="axesclip" id="clip4978adxy"><rect x="35" y="46" width="635" height="274"/></clipPath></g><g class="gradients"/><g class="patterns"/></defs><g class="bglayer"><rect class="bg" x="35" y="46" width="635" height="274" style="fill: rgb(229, 236, 246); fill-opacity: 1; stroke-width: 0;"/></g><g class="layer-below"><g class="imagelayer"/><g class="shapelayer"><path data-index="0" fill-rule="evenodd" d="M71.12,320H210.09V46H71.12Z" clip-path="url(#clip4978adx)" style="opacity: 0.2; stroke: rgb(0, 0, 0); stroke-opacity: 0; fill: rgb(255, 0, 0); fill-opacity: 1; stroke-width: 0px;"/><path data-index="1" fill-rule="evenodd" d="M534.61,320H572.03V46H534.61Z" clip-path="url(#clip4978adx)" style="opacity: 0.2; stroke: rgb(0, 0, 0); stroke-opacity: 0; fill: rgb(255, 0, 0); fill-opacity: 1; stroke-width: 0px;"/><path data-index="2" fill-rule="evenodd" d="M210.09,320H483.45V46H210.09Z" clip-path="url(#clip4978adx)" style="opacity: 0.2; stroke: rgb(0, 0, 0); stroke-opacity: 0; fill: rgb(0, 128, 0); fill-opacity: 1; stroke-width: 0px;"/><path data-index="3" fill-rule="evenodd" d="M572.03,320H606.77V46H572.03Z" clip-path="url(#clip4978adx)" style="opacity: 0.2; stroke: rgb(0, 0, 0); stroke-opacity: 0; fill: rgb(0, 128, 0); fill-opacity: 1; stroke-width: 0px;"/><path data-index="4" fill-rule="evenodd" d="M614.4,320H633.88V46H614.4Z" clip-path="url(#clip4978adx)" style="opacity: 0.2; stroke: rgb(0, 0, 0); stroke-opacity: 0; fill: rgb(255, 165, 0); fill-opacity: 1; stroke-width: 0px;"/></g></g><g class="cartesianlayer"><g class="subplot xy"><g class="layer-subplot"><g class="shapelayer"/><g class="imagelayer"/></g><g class="gridlayer"><g class="x"><path class="xgrid crisp" transform="translate(77.22999999999999,0)" d="M0,46v274" style="stroke: rgb(255, 255, 255); stroke-opacity: 1; stroke-width: 1px;"/><path class="xgrid crisp" transform="translate(216.58,0)" d="M0,46v274" style="stroke: rgb(255, 255, 255); stroke-opacity: 1; stroke-width: 1px;"/><path class="xgrid crisp" transform="translate(355.94,0)" d="M0,46v274" style="stroke: rgb(255, 255, 255); stroke-opacity: 1; stroke-width: 1px;"/><path class="xgrid crisp" transform="translate(495.67,0)" d="M0,46v274" style="stroke: rgb(255, 255, 255); stroke-opacity: 1; stroke-width: 1px;"/><path class="xgrid crisp" transform="translate(635.02,0)" d="M0,46v274" style="stroke: rgb(255, 255, 255); stroke-opacity: 1; stroke-width: 1px;"/></g><g class="y"><path class="ygrid crisp" transform="translate(0,276.91999999999996)" d="M35,0h635" style="stroke: rgb(255, 255, 255); stroke-opacity: 1; stroke-width: 1px;"/><path class="ygrid crisp" transform="translate(0,239.95)" d="M35,0h635" style="stroke: rgb(255, 255, 255); stroke-opacity: 1; stroke-width: 1px;"/><path class="ygrid crisp" transform="translate(0,202.97)" d="M35,0h635" style="stroke: rgb(255, 255, 255); stroke-opacity: 1; stroke-width: 1px;"/><path class="ygrid crisp" transform="translate(0,166)" d="M35,0h635" style="stroke: rgb(255, 255, 255); stroke-opacity: 1; stroke-width: 1px;"/><path class="ygrid crisp" transform="translate(0,129.03)" d="M35,0h635" style="stroke: rgb(255, 255, 255); stroke-opacity: 1; stroke-width: 1px;"/><path class="ygrid crisp" transform="translate(0,92.05)" d="M35,0h635" style="stroke: rgb(255, 255, 255); stroke-opacity: 1; stroke-width: 1px;"/><path class="ygrid crisp" transform="translate(0,55.08)" d="M35,0h635" style="stroke: rgb(255, 255, 255); stroke-opacity: 1; stroke-width: 1px;"/></g></g><g class="zerolinelayer"><path class="yzl zl crisp" transform="translate(0,313.89)" d="M35,0h635" style="stroke: rgb(255, 255, 255); stroke-opacity: 1; stroke-width: 2px;"/></g><path class="xlines-below"/><path class="ylines-below"/><g class="overlines-below"/><g class="xaxislayer-below"/><g class="yaxislayer-below"/><g class="overaxes-below"/><g class="plot" transform="translate(35,46)" clip-path="url(#clip4978adxyplot)"><g class="scatterlayer mlayer"><g class="trace scatter traced8502df4-84cc-4893-9910-454a3119802c" style="stroke-miterlimit: 2; opacity: 1;"><g class="fills"/><g class="errorbars"/><g class="lines"><path class="js-line" d="M22,241.48L23.14,245.89L23.53,243.64L23.91,243.36L24.29,240.84L24.67,238.79L25.05,239.39L25.44,239.09L26.96,237.38L27.34,238.17L28.11,235.39L28.49,233.39L29.25,230.7L29.63,231.33L30.02,230.06L31.16,226.03L31.54,224.79L31.93,223.83L32.31,215.05L32.69,201.71L33.07,206.63L33.45,211.77L33.83,210.75L34.22,205.27L34.6,203.5L34.98,207.23L35.36,206.65L35.74,202.42L36.12,195.8L36.51,197.12L36.89,197.22L38.42,216.75L38.8,213.54L39.18,216.4L39.56,216.03L39.94,208.37L40.32,209.33L40.71,213.89L41.09,213.7L41.47,220L42.62,212.5L43,211.69L43.38,210.22L43.76,203.45L44.14,203.09L44.52,206.97L46.05,218.33L46.43,216.2L46.81,214.8L47.2,216.97L47.58,216.8L47.96,225.41L48.34,226.52L48.72,225.47L49.11,224.98L49.49,220.2L49.87,225L50.63,227.71L51.01,225.89L51.78,226.59L52.16,225.59L52.54,224.31L52.92,226.13L54.45,235.24L54.83,233.97L55.6,242.18L55.98,239.22L56.36,239.71L57.12,235.59L57.5,236.01L57.89,237.83L59.41,230.3L59.8,230.05L60.94,226.39L61.32,225.73L62.85,231.61L63.23,232.16L64,228.24L64.38,229.45L64.76,227.4L66.29,225.1L66.67,228.04L68.19,235.11L68.58,232.48L69.72,237.32L70.1,237.2L70.49,237.06L70.87,238.62L71.25,237.49L71.63,235.98L72.39,234.88L72.78,235.62L73.16,235.06L73.54,235.84L74.69,238.93L75.07,238.48L75.45,241.4L76.59,242.59L76.98,241.7L77.36,240.32L77.74,242.55L78.5,243.36L78.88,242.34L79.27,241.92L79.65,242.86L80.41,242.13L80.79,238.72L81.56,238.36L81.94,237.1L82.7,238.68L83.08,237.71L83.47,237.23L83.85,235.19L84.99,234.87L85.38,232.04L85.76,235.19L86.14,233.58L86.52,234.66L87.28,233.07L87.67,233.73L88.05,234.18L88.43,233.74L88.81,231.87L89.96,232.2L90.34,233.24L91.48,234.45L91.87,236.68L93.01,235.66L93.39,236.43L94.16,237.96L94.54,237.39L94.92,237.4L95.3,236.42L95.68,236.76L96.07,238.16L97.21,240.24L97.59,240.7L97.97,240.65L98.36,241.51L99.5,240.18L99.88,240.01L100.65,239.35L101.03,240.11L102.17,239.5L102.56,239.7L102.94,240.04L103.32,242.8L103.7,242.36L104.08,243.56L104.46,244.41L104.85,243.21L105.23,244.02L105.61,243.67L105.99,243.86L107.14,242.84L107.52,243.01L107.9,245.4L108.28,245.11L108.66,245.07L109.81,245.13L110.19,246.07L111.72,243.44L112.1,243.75L114.01,242.85L114.39,242.97L115.54,244.86L115.92,244.83L116.68,244.38L117.06,242.97L118.21,240.28L118.59,240.7L119.74,239.38L120.12,236.75L120.88,238.49L121.26,237.7L121.64,237.6L122.41,237.65L122.79,239.13L125.84,244.58L126.23,243.61L126.61,245.03L126.99,244.61L127.37,244.52L128.9,244.47L129.28,243.56L130.43,244.57L130.81,243.9L131.19,244.32L131.57,243.73L131.95,243.05L133.1,242.44L133.48,241.66L134.63,241.87L135.01,241.3L136.15,240.67L136.53,242.78L137.68,244.87L138.06,244.6L138.44,244.49L139.21,244.41L139.59,243.8L140.73,243.8L141.12,244.67L143.41,243.08L143.79,243.51L144.55,243.88L144.93,243.21L148.37,243.53L148.75,243.48L149.9,243.54L150.28,244.76L151.42,244.63L151.81,243.5L156.77,243.91L157.15,244.48L162.88,244.38L163.26,246.68L164.79,247.1L165.17,249.88L166.31,251.75L166.7,251.82L167.84,253.92L168.22,253.77L168.99,252.07L169.37,253.04L169.75,252.31L170.13,252.59L170.51,253.49L170.89,253.26L171.28,254.01L172.04,255.25L172.42,255.04L172.8,254.53L175.09,255.93L175.48,255.87L177,252.61L177.39,253.49L178.53,252.81L178.91,253.79L179.29,253.63L179.68,254.38L180.06,253.38L180.44,253.77L180.82,253.6L181.2,254.05L181.58,253.68L181.97,253.31L183.11,253.68L183.49,252.82L184.64,252.97L185.02,254.29L190.75,254.58L191.13,254.57L195.71,255.32L196.09,254.34L199.53,254.31L199.91,253.41L201.82,252.58L202.2,253.8L203.73,253.64L204.11,253.62L209.46,253.25L209.84,252.92L213.65,253.16L214.04,252.78L215.95,252.52L216.33,249.85L218.62,248.33L219,248.65L219.38,248.21L219.76,249.17L223.96,247.93L224.34,247.29L225.87,248.41L226.25,248.35L227.02,248.11L227.4,247.92L228.93,246.46L229.31,246.64L230.45,245.06L230.83,244.31L231.98,239L232.36,238.33L232.74,237.56L233.13,238.74L233.89,241.01L234.27,237.58L235.42,239.5L235.8,238.75L236.56,238.12L236.94,235.82L237.33,235.33L237.71,235.65L238.09,235.88L238.47,237.13L238.85,236.19L239.23,236.23L239.62,235.57L240,237.54L240.38,239.39L240.76,238.96L241.14,238.97L241.52,238.15L241.91,238.48L242.29,239.47L243.43,237.77L243.82,237.46L245.34,233.43L245.72,234.31L246.49,232.67L246.87,230.38L248.78,219.77L249.16,226.55L249.54,222.02L249.92,223.67L250.31,227.9L250.69,228.76L251.07,227.95L251.45,223.67L252.21,227.3L252.6,226.45L252.98,225.55L253.36,222.47L253.74,221.4L254.12,222.95L254.51,225.9L254.89,224.2L255.27,225.77L256.41,232.85L256.8,232.05L257.94,228.08L258.32,228.7L259.47,231.61L259.85,231.24L260.23,231.4L260.61,232.85L261,232.57L261.38,232.7L261.76,232.37L262.14,230.6L264.81,223.74L265.2,223.65L265.58,224.03L265.96,225.91L266.34,225.29L266.72,225.81L267.1,227.61L267.49,230.73L267.87,229.77L268.25,229.53L268.63,230.06L269.01,229.64L269.4,227.53L269.78,228.1L270.16,230.41L270.54,230.43L270.92,229.41L271.69,230.41L272.07,229.55L273.21,232.73L273.59,232.4L273.98,232.28L274.36,231.81L274.74,229.64L275.5,228.72L275.89,228.79L276.27,229.61L276.65,229.01L277.03,229.29L278.18,230.26L278.56,229.4L282.38,230.66L282.76,231.92L283.9,237.87L284.28,237.38L285.43,237.23L285.81,237.04L286.58,237.35L286.96,237.55L287.72,238.36L288.1,237.41L288.48,237.47L288.87,236.11L289.25,236.15L289.63,237.12L291.16,237.55L291.54,238.14L293.45,237.41L293.83,238.02L294.59,240.19L294.97,235.87L295.74,232.58L296.12,233.67L296.5,233.04L297.27,233.88L297.65,233.65L299.56,233.28L299.94,233.63L300.7,235.31L301.08,234.41L301.47,235.51L301.85,235.3L302.23,235.33L303.37,236.28L303.76,236.18L306.43,241.83L306.81,241.47L307.96,240.3L308.34,239.2L309.86,240.83L310.25,241.08L311.39,239.95L311.77,239.92L313.3,241.11L313.68,241.01L315.21,243.34L315.59,240.99L316.74,241.3L317.12,240.12L318.65,241.13L319.03,240.94L320.17,240.93L320.55,241.3L320.94,241.27L321.32,242.06L323.23,237.71L323.61,238.02L323.99,238.76L324.37,237.7L324.75,238.17L325.14,237.6L325.52,237.78L325.9,235.25L326.28,235.33L326.66,235.64L327.43,234.83L327.81,235.7L328.95,235.8L329.34,236.81L330.48,236.11L330.86,234.95L332.01,232.73L332.39,233.32L333.53,233.53L333.92,233.95L335.06,231.67L335.44,231.42L336.97,229.71L337.35,230.13L337.73,229.77L338.12,231.33L338.5,231.16L338.88,232.06L339.26,230.39L339.64,232.27L340.79,232.16L341.17,231.2L343.08,235.83L343.46,236.1L343.84,236.23L344.22,235.1L344.99,235.52L345.37,234.33L345.75,234.16L346.13,234.95L347.28,238.65L347.66,238.64L348.04,249.51L348.42,247.32L348.81,248.66L349.19,247.96L349.57,249.35L350.33,248.52L350.72,245L351.48,245.02L351.86,246.34L352.62,242.99L353.01,243.19L353.39,243.06L354.53,246L354.91,244.12L355.68,243.46L356.06,242.77L357.21,242.78L357.59,241.01L357.97,241.36L358.35,240.78L358.73,240.89L359.5,242.53L359.88,242.12L361.02,243.33L361.41,241.58L362.55,241.31L362.93,242.45L363.31,242.45L363.7,241.58L364.84,239.9L365.22,239.5L365.99,239.03L366.37,235.35L366.75,235.88L367.13,235.12L367.51,234.66L367.9,235L368.28,234.94L369.04,233.62L369.42,231.1L370.19,232.42L370.57,235.52L370.95,236.09L371.33,235.34L371.71,233.62L372.1,231.9L372.48,233.4L372.86,233.22L374,231.92L374.39,232.68L374.77,234.31L375.15,233.94L375.53,233.84L375.91,235.39L376.29,234.96L376.68,235.23L378.2,232.03L378.59,232.91L378.97,230.3L379.35,232.66L379.73,232.19L380.11,231.66L380.49,232.16L380.88,232.2L382.4,231.4L382.79,233.43L383.55,232.86L383.93,233.19L385.08,232.84L385.46,233.09L386.6,233.49L386.98,232.22L387.37,232.29L387.75,233.46L389.28,234.09L389.66,233.91L391.95,234.34L392.33,233.23L393.48,233.59L393.86,233.59L396.91,234.03L397.29,233.93L397.67,234.01L398.06,233.23L399.97,231.27L400.35,227.26L400.73,227.54L401.11,226.85L401.87,226.03L402.26,224.41L402.64,227.02L403.02,226.31L403.4,226.46L404.17,224.34L404.55,225L405.69,223.98L406.07,225.7L407.6,224.02L407.98,223.92L408.36,222.58L408.75,223.56L409.13,224.42L409.51,223.97L409.89,225.03L411.04,224.36L411.42,225.87L412.56,225.22L412.95,225.35L414.09,223.63L414.47,225.69L415.62,230.29L416,229.88L416.38,229.55L416.76,230.43L418.29,229.28L418.67,229.72L419.82,227.31L420.2,227.41L421.35,227.45L421.73,229.21L422.11,228.93L422.49,230.01L422.87,228.11L423.25,228.36L423.64,228.14L425.16,228.02L425.54,228.63L426.69,228.44L427.07,227.99L427.45,228.68L427.84,228.45L428.22,227.53L429.74,225.17L430.13,225.65L430.51,225.63L430.89,225.39L431.27,226.03L431.65,225.9L432.8,223.83L433.18,220.48L434.33,219.43L434.71,219.71L435.09,219.55L435.47,217.41L435.85,218.82L436.23,218.21L436.62,217.81L437.38,217.1L437.76,217.79L438.53,215.64L438.91,210.29L439.29,210.34L439.67,213.05L440.05,210.66L440.43,211.2L440.82,211.36L441.96,207.56L442.34,208.48L442.73,208.9L443.11,206.09L444.63,199.04L445.02,198.97L445.78,199.99L446.16,197.25L446.54,198.63L446.92,204.48L447.31,204.64L447.69,202.39L448.07,200.68L448.45,195.33L448.83,198.37L449.22,196.9L449.6,196L449.98,198.75L450.36,197.07L450.74,196.37L451.12,196.93L451.51,200.15L451.89,199.29L452.27,200.36L452.65,201.12L453.03,198.37L454.18,196.1L454.56,189.1L455.71,179.64L456.09,181.09L456.47,183.58L456.85,179.96L457.23,181.96L457.61,180.13L458,176.7L459.14,167.75L459.52,166.72L461.43,146.69L461.81,149.68L463.34,117.05L463.72,119.06L464.11,126.08L464.87,142.47L465.25,129.92L465.63,123L466.01,131.74L466.78,135.56L467.16,132.46L467.92,136.46L468.3,153.92L468.69,145.86L469.07,149.33L469.45,148.51L470.21,147.47L470.6,155.37L471.36,141.01L471.74,141.19L472.12,145.46L472.5,143.89L472.89,136.6L474.03,126.86L474.41,122.71L474.8,124.05L475.18,97.09L475.56,96.04L475.94,101.81L476.32,90.76L476.7,92.25L477.09,93.73L478.61,75.08L478.99,76.81L480.14,55.15L480.52,67.47L481.67,93.77L482.05,96.56L482.43,97.12L482.81,101L483.96,81.04L484.34,88.35L485.1,87.05L485.49,78.56L486.63,60.81L487.01,54.17L487.39,55.92L487.78,41.46L488.54,61.18L488.92,57.87L489.3,50.23L489.68,53.97L490.07,52.17L490.45,52.29L490.83,55.21L491.21,66.28L491.59,65.5L491.98,72.77L492.36,76.72L492.74,64.03L495.03,49.4L495.41,48.33L495.79,54.91L496.18,50.64L496.56,49.54L497.32,60.66L497.7,52.25L498.08,52.54L498.47,46.82L498.85,45.29L499.23,46.45L499.61,33.1L499.99,34.55L500.37,33.8L500.76,40.24L501.14,43.52L501.52,60.04L501.9,61.86L502.28,59.09L503.81,82.84L504.19,86.71L504.96,64.42L505.34,65.19L505.72,69.88L506.48,54.08L506.86,58.51L507.25,56.4L507.63,70.7L508.01,55.58L508.39,59.38L508.77,55.83L509.16,50.47L509.54,52.59L509.92,61.36L510.3,58.24L510.68,86.17L511.45,83.47L511.83,95L512.21,96.13L512.59,106.92L512.97,109.24L513.36,131.08L513.74,117.1L514.12,129.96L514.5,129.11L514.88,139.33L515.26,124.78L515.65,125.91L516.03,122.61L516.41,125.78L516.79,135.91L517.17,139.91L517.55,135.98L517.94,129.86L518.32,132.26L518.7,128.96L519.08,122.92L519.46,131.48L520.99,144.13L521.37,129.81L521.75,132.19L522.14,129.85L522.52,136.44L522.9,123.33L523.66,118.5L524.05,126.11L524.43,127.2L524.81,135.57L525.19,136.21L525.57,135.9L525.95,150.77L527.1,139.73L527.48,150.92L527.86,148.89L528.24,139.78L528.63,140.58L529.01,135.28L529.77,143.76L530.15,142.56L530.54,139.71L530.92,137.42L531.3,143.12L531.68,141.31L532.06,142.72L532.44,146.33L533.59,141.29L533.97,145.3L535.5,151.72L535.88,151.3L536.26,150.33L537.03,157.68L537.41,149.17L537.79,148.42L538.17,143.73L538.93,137.19L539.32,129.84L540.84,111.73L541.23,113.99L542.37,126.83L542.75,120.93L544.66,96.46L545.04,99.35L545.43,99.32L545.81,103.63L546.19,91.18L546.57,93.76L546.95,93.94L547.72,102.64L548.1,102.25L548.48,95.16L548.86,85.47L549.24,87.07L549.62,85.53L550.01,84.7L550.39,91.51L550.77,86.87L551.15,94.33L551.53,86.51L551.92,87.08L552.3,87.35L552.68,93.91L553.06,93.5L553.44,87.29L554.21,82.93L554.59,83.23L554.97,76.54L555.35,73.29L555.73,94.82L556.88,101.94L557.26,100.77L557.64,97.58L558.02,101.65L558.41,93.78L558.79,89.77L559.17,91.22L559.55,93.13L559.93,89.39L560.31,93.16L561.08,117.43L561.46,106.78L561.84,101.9L562.22,109.5L562.61,109.95L562.99,108.14L563.75,116.17L564.13,114.21L564.51,105.98L564.9,89.99L565.28,91.49L565.66,89.68L566.42,77.42L566.81,63.2L567.19,68.95L567.57,68.36L567.95,64.66L568.33,65.38L568.71,55.35L569.1,60.69L569.48,55.66L569.86,55.96L570.24,40.16L570.62,42.75L571,40.31L571.39,38.56L571.77,30.29L572.15,23.89L572.53,37.88L572.91,43.49L573.3,40.9L573.68,42.61L574.06,34.81L574.44,44.71L574.82,51.66L575.2,43.75L575.59,37.81L575.97,39.07L576.35,41.18L576.73,42.34L577.11,34.12L577.5,35.07L577.88,40.68L578.26,41.89L578.64,40.4L579.4,18.07L579.79,20.27L580.17,27.58L580.55,27.75L580.93,30.69L581.31,29.53L581.69,25.84L583.22,57.36L583.6,53L583.99,47.17L584.75,59.77L585.13,55.04L586.28,69.83L586.66,65.22L587.04,56.23L587.42,54.16L587.8,57.12L588.19,56.29L588.57,59.07L589.33,85.98L589.71,85.36L590.09,80.87L590.48,80.44L590.86,81.16L591.62,93.22L592,85.38L592.38,82.66L592.77,95.09L593.15,95.55L593.53,87.1L594.29,97.07L594.68,94.68L595.06,95.2L595.44,94.56L595.82,86.96L596.2,88.1L596.58,80.12L596.97,79.99L597.35,81.44L597.73,80.03L598.11,80.66L598.49,91.94L598.88,93.39" style="vector-effect: non-scaling-stroke; fill: none; stroke: rgb(31, 119, 180); stroke-opacity: 1; stroke-width: 2px; opacity: 1;"/></g><g class="points"/><g class="text"/></g><g class="trace scatter trace5a82940d-8c06-4a17-b80b-dc4e2a9f9afe" style="stroke-miterlimit: 2; opacity: 1;"><g class="fills"/><g class="errorbars"/><g class="lines"/><g class="points"><path class="point plotly-customdata" transform="translate(36.12,195.8)" d="M4.55,0L0,4.55L-4.55,0L0,-4.55Z" style="opacity: 1; stroke-width: 1px; fill: rgb(66, 133, 244); fill-opacity: 1; stroke: rgb(11, 84, 205); stroke-opacity: 1;"/><path class="point plotly-customdata" transform="translate(499.61,33.1)" d="M4.55,0L0,4.55L-4.55,0L0,-4.55Z" style="opacity: 1; stroke-width: 1px; fill: rgb(66, 133, 244); fill-opacity: 1; stroke: rgb(11, 84, 205); stroke-opacity: 1;"/><path class="point plotly-customdata" transform="translate(579.4,18.07)" d="M4.55,0L0,4.55L-4.55,0L0,-4.55Z" style="opacity: 1; stroke-width: 1px; fill: rgb(66, 133, 244); fill-opacity: 1; stroke: rgb(11, 84, 205); stroke-opacity: 1;"/></g><g class="text"/></g><g class="trace scatter traced2f1b8ed-5206-4dc6-8637-ce4f91d00edc" style="stroke-miterlimit: 2; opacity: 1;"><g class="fills"/><g class="errorbars"/><g class="lines"/><g class="points"><path class="point plotly-customdata" transform="translate(175.09,255.93)" d="M4.55,0L0,4.55L-4.55,0L0,-4.55Z" style="opacity: 1; stroke-width: 1px; fill: rgb(234, 67, 53); fill-opacity: 1; stroke: rgb(181, 31, 18); stroke-opacity: 1;"/><path class="point plotly-customdata" transform="translate(537.03,157.68)" d="M4.55,0L0,4.55L-4.55,0L0,-4.55Z" style="opacity: 1; stroke-width: 1px; fill: rgb(234, 67, 53); fill-opacity: 1; stroke: rgb(181, 31, 18); stroke-opacity: 1;"/></g><g class="text"/></g><g class="trace scatter trace92e4ee9a-7a69-40da-9746-4e728ab65093" style="stroke-miterlimit: 2; opacity: 1;"><g class="fills"/><g class="errorbars"/><g class="lines"/><g class="points"><path class="point plotly-customdata" transform="translate(448.45,195.33)" d="M4.55,0L0,4.55L-4.55,0L0,-4.55Z" style="opacity: 1; stroke-width: 1px; fill: rgb(55, 177, 63); fill-opacity: 1; stroke: rgb(38, 123, 44); stroke-opacity: 1;"/><path class="point plotly-customdata" transform="translate(571.77,30.29)" d="M4.55,0L0,4.55L-4.55,0L0,-4.55Z" style="opacity: 1; stroke-width: 1px; fill: rgb(55, 177, 63); fill-opacity: 1; stroke: rgb(38, 123, 44); stroke-opacity: 1;"/></g><g class="text"/></g><g class="trace scatter traceaa729771-df8b-47bf-ab5a-ecff5cd9af28" style="stroke-miterlimit: 2; opacity: 1;"><g class="fills"/><g class="errorbars"/><g class="lines"/><g class="points"><path class="point plotly-customdata" transform="translate(598.88,93.39)" d="M4.55,0L0,4.55L-4.55,0L0,-4.55Z" style="opacity: 1; stroke-width: 1px; fill: rgb(255, 170, 0); fill-opacity: 1; stroke: rgb(178, 118, 0); stroke-opacity: 1;"/></g><g class="text"/></g></g></g><g class="overplot"/><path class="xlines-above crisp" d="M0,0" style="fill: none;"/><path class="ylines-above crisp" d="M0,0" style="fill: none;"/><g class="overlines-above"/><g class="xaxislayer-above"><g class="xtick"><text text-anchor="middle" x="0" y="333" transform="translate(77.22999999999999,0)" style="font-family: 'Open Sans', verdana, arial, sans-serif; font-size: 12px; fill: rgb(42, 63, 95); fill-opacity: 1; white-space: pre; opacity: 1;">2018</text></g><g class="xtick"><text text-anchor="middle" x="0" y="333" style="font-family: 'Open Sans', verdana, arial, sans-serif; font-size: 12px; fill: rgb(42, 63, 95); fill-opacity: 1; white-space: pre; opacity: 1;" transform="translate(216.58,0)">2019</text></g><g class="xtick"><text text-anchor="middle" x="0" y="333" style="font-family: 'Open Sans', verdana, arial, sans-serif; font-size: 12px; fill: rgb(42, 63, 95); fill-opacity: 1; white-space: pre; opacity: 1;" transform="translate(355.94,0)">2020</text></g><g class="xtick"><text text-anchor="middle" x="0" y="333" style="font-family: 'Open Sans', verdana, arial, sans-serif; font-size: 12px; fill: rgb(42, 63, 95); fill-opacity: 1; white-space: pre; opacity: 1;" transform="translate(495.67,0)">2021</text></g><g class="xtick"><text text-anchor="middle" x="0" y="333" style="font-family: 'Open Sans', verdana, arial, sans-serif; font-size: 12px; fill: rgb(42, 63, 95); fill-opacity: 1; white-space: pre; opacity: 1;" transform="translate(635.02,0)">2022</text></g></g><g class="yaxislayer-above"><g class="ytick"><text text-anchor="end" x="34" y="4.199999999999999" transform="translate(0,313.89)" style="font-family: 'Open Sans', verdana, arial, sans-serif; font-size: 12px; fill: rgb(42, 63, 95); fill-opacity: 1; white-space: pre; opacity: 1;">0</text></g><g class="ytick"><text text-anchor="end" x="34" y="4.199999999999999" style="font-family: 'Open Sans', verdana, arial, sans-serif; font-size: 12px; fill: rgb(42, 63, 95); fill-opacity: 1; white-space: pre; opacity: 1;" transform="translate(0,276.91999999999996)">10k</text></g><g class="ytick"><text text-anchor="end" x="34" y="4.199999999999999" style="font-family: 'Open Sans', verdana, arial, sans-serif; font-size: 12px; fill: rgb(42, 63, 95); fill-opacity: 1; white-space: pre; opacity: 1;" transform="translate(0,239.95)">20k</text></g><g class="ytick"><text text-anchor="end" x="34" y="4.199999999999999" style="font-family: 'Open Sans', verdana, arial, sans-serif; font-size: 12px; fill: rgb(42, 63, 95); fill-opacity: 1; white-space: pre; opacity: 1;" transform="translate(0,202.97)">30k</text></g><g class="ytick"><text text-anchor="end" x="34" y="4.199999999999999" style="font-family: 'Open Sans', verdana, arial, sans-serif; font-size: 12px; fill: rgb(42, 63, 95); fill-opacity: 1; white-space: pre; opacity: 1;" transform="translate(0,166)">40k</text></g><g class="ytick"><text text-anchor="end" x="34" y="4.199999999999999" style="font-family: 'Open Sans', verdana, arial, sans-serif; font-size: 12px; fill: rgb(42, 63, 95); fill-opacity: 1; white-space: pre; opacity: 1;" transform="translate(0,129.03)">50k</text></g><g class="ytick"><text text-anchor="end" x="34" y="4.199999999999999" style="font-family: 'Open Sans', verdana, arial, sans-serif; font-size: 12px; fill: rgb(42, 63, 95); fill-opacity: 1; white-space: pre; opacity: 1;" transform="translate(0,92.05)">60k</text></g><g class="ytick"><text text-anchor="end" x="34" y="4.199999999999999" style="font-family: 'Open Sans', verdana, arial, sans-serif; font-size: 12px; fill: rgb(42, 63, 95); fill-opacity: 1; white-space: pre; opacity: 1;" transform="translate(0,55.08)">70k</text></g></g><g class="overaxes-above"/></g></g><g class="polarlayer"/><g class="ternarylayer"/><g class="geolayer"/><g class="funnelarealayer"/><g class="pielayer"/><g class="iciclelayer"/><g class="treemaplayer"/><g class="sunburstlayer"/><g class="glimages"/><defs id="topdefs-4978ad"><g class="clips"/><clipPath id="legend4978ad"><rect width="449" height="29" x="0" y="0"/></clipPath></defs><g class="layer-above"><g class="imagelayer"/><g class="shapelayer"/></g><g class="infolayer"><g class="legend" pointer-events="all" transform="translate(221,11.519999999999996)"><rect class="bg" shape-rendering="crispEdges" style="stroke: rgb(68, 68, 68); stroke-opacity: 1; fill: rgb(255, 255, 255); fill-opacity: 1; stroke-width: 0px;" width="449" height="29" x="0" y="0"/><g class="scrollbox" transform="" clip-path="url(#legend4978ad)"><g class="groups"><g class="traces" transform="translate(0,14.5)" style="opacity: 1;"><text class="legendtext" text-anchor="start" x="40" y="4.680000000000001" style="font-family: 'Open Sans', verdana, arial, sans-serif; font-size: 12px; fill: rgb(42, 63, 95); fill-opacity: 1; white-space: pre;">Close</text><g class="layers" style="opacity: 1;"><g class="legendfill"/><g class="legendlines"><path class="js-line" d="M5,0h30" style="fill: none; stroke: rgb(31, 119, 180); stroke-opacity: 1; stroke-width: 2px;"/></g><g class="legendsymbols"><g class="legendpoints"/></g></g><rect class="legendtoggle" x="0" y="-9.5" width="74.84375" height="19" style="fill: rgb(0, 0, 0); fill-opacity: 0;"/></g><g class="traces" transform="translate(77.34375,14.5)" style="opacity: 1;"><text class="legendtext" text-anchor="start" x="40" y="4.680000000000001" style="font-family: 'Open Sans', verdana, arial, sans-serif; font-size: 12px; fill: rgb(42, 63, 95); fill-opacity: 1; white-space: pre;">Peak</text><g class="layers" style="opacity: 1;"><g class="legendfill"/><g class="legendlines"/><g class="legendsymbols"><g class="legendpoints"><path class="scatterpts" transform="translate(20,0)" d="M4.55,0L0,4.55L-4.55,0L0,-4.55Z" style="opacity: 1; stroke-width: 1px; fill: rgb(66, 133, 244); fill-opacity: 1; stroke: rgb(11, 84, 205); stroke-opacity: 1;"/></g></g></g><rect class="legendtoggle" x="0" y="-9.5" width="71.1875" height="19" style="fill: rgb(0, 0, 0); fill-opacity: 0;"/></g><g class="traces" transform="translate(151.03125,14.5)" style="opacity: 1;"><text class="legendtext" text-anchor="start" x="40" y="4.680000000000001" style="font-family: 'Open Sans', verdana, arial, sans-serif; font-size: 12px; fill: rgb(42, 63, 95); fill-opacity: 1; white-space: pre;">Valley</text><g class="layers" style="opacity: 1;"><g class="legendfill"/><g class="legendlines"/><g class="legendsymbols"><g class="legendpoints"><path class="scatterpts" transform="translate(20,0)" d="M4.55,0L0,4.55L-4.55,0L0,-4.55Z" style="opacity: 1; stroke-width: 1px; fill: rgb(234, 67, 53); fill-opacity: 1; stroke: rgb(181, 31, 18); stroke-opacity: 1;"/></g></g></g><rect class="legendtoggle" x="0" y="-9.5" width="78.734375" height="19" style="fill: rgb(0, 0, 0); fill-opacity: 0;"/></g><g class="traces" transform="translate(232.265625,14.5)" style="opacity: 1;"><text class="legendtext" text-anchor="start" x="40" y="4.680000000000001" style="font-family: 'Open Sans', verdana, arial, sans-serif; font-size: 12px; fill: rgb(42, 63, 95); fill-opacity: 1; white-space: pre;">Recovery/Peak</text><g class="layers" style="opacity: 1;"><g class="legendfill"/><g class="legendlines"/><g class="legendsymbols"><g class="legendpoints"><path class="scatterpts" transform="translate(20,0)" d="M4.55,0L0,4.55L-4.55,0L0,-4.55Z" style="opacity: 1; stroke-width: 1px; fill: rgb(55, 177, 63); fill-opacity: 1; stroke: rgb(38, 123, 44); stroke-opacity: 1;"/></g></g></g><rect class="legendtoggle" x="0" y="-9.5" width="132.140625" height="19" style="fill: rgb(0, 0, 0); fill-opacity: 0;"/></g><g class="traces" transform="translate(366.90625,14.5)" style="opacity: 1;"><text class="legendtext" text-anchor="start" x="40" y="4.680000000000001" style="font-family: 'Open Sans', verdana, arial, sans-serif; font-size: 12px; fill: rgb(42, 63, 95); fill-opacity: 1; white-space: pre;">Active</text><g class="layers" style="opacity: 1;"><g class="legendfill"/><g class="legendlines"/><g class="legendsymbols"><g class="legendpoints"><path class="scatterpts" transform="translate(20,0)" d="M4.55,0L0,4.55L-4.55,0L0,-4.55Z" style="opacity: 1; stroke-width: 1px; fill: rgb(255, 170, 0); fill-opacity: 1; stroke: rgb(178, 118, 0); stroke-opacity: 1;"/></g></g></g><rect class="legendtoggle" x="0" y="-9.5" width="79.21875" height="19" style="fill: rgb(0, 0, 0); fill-opacity: 0;"/></g></g></g><rect class="scrollbar" rx="20" ry="3" width="0" height="0" style="fill: rgb(128, 139, 164); fill-opacity: 1;" x="0" y="0"/></g><g class="g-gtitle"/><g class="g-xtitle"/><g class="g-ytitle"/></g></svg>