<svg class="main-svg" xmlns="http://www.w3.org/2000/svg" xmlns:xlink="http://www.w3.org/1999/xlink" width="700" height="350" viewBox="0 0 700 350"><rect x="0" y="0" width="700" height="350" style="fill: rgb(255, 255, 255); fill-opacity: 1;"/><defs id="defs-b9b873"><g class="clips"><clipPath id="clipb9b873xyplot" class="plotclip"><rect width="631" height="290"/></clipPath><clipPath class="axesclip" id="clipb9b873x"><rect x="39" y="0" width="631" height="350"/></clipPath><clipPath class="axesclip" id="clipb9b873y"><rect x="0" y="30" width="700" height="290"/></clipPath><clipPath class="axesclip" id="clipb9b873xy"><rect x="39" y="30" width="631" height="290"/></clipPath></g><g class="gradients"/><g class="patterns"/></defs><g class="bglayer"><rect class="bg" x="39" y="30" width="631" height="290" style="fill: rgb(229, 236, 246); fill-opacity: 1; stroke-width: 0;"/></g><g class="layer-below"><g class="imagelayer"/><g class="shapelayer"/></g><g class="cartesianlayer"><g class="subplot xy"><g class="layer-subplot"><g class="shapelayer"/><g class="imagelayer"/></g><g class="gridlayer"><g class="x"><path class="xgrid crisp" transform="translate(142.51,0)" d="M0,30v290" style="stroke: rgb(255, 255, 255); stroke-opacity: 1; stroke-width: 1px;"/><path class="xgrid crisp" transform="translate(247.68,0)" d="M0,30v290" style="stroke: rgb(255, 255, 255); stroke-opacity: 1; stroke-width: 1px;"/><path class="xgrid crisp" transform="translate(352.85,0)" d="M0,30v290" style="stroke: rgb(255, 255, 255); stroke-opacity: 1; stroke-width: 1px;"/><path class="xgrid crisp" transform="translate(459.74,0)" d="M0,30v290" style="stroke: rgb(255, 255, 255); stroke-opacity: 1; stroke-width: 1px;"/><path class="xgrid crisp" transform="translate(564.91,0)" d="M0,30v290" style="stroke: rgb(255, 255, 255); stroke-opacity: 1; stroke-width: 1px;"/></g><g class="y"><path class="ygrid crisp" transform="translate(0,260.28)" d="M39,0h631" style="stroke: rgb(255, 255, 255); stroke-opacity: 1; stroke-width: 1px;"/><path class="ygrid crisp" transform="translate(0,200.66)" d="M39,0h631" style="stroke: rgb(255, 255, 255); stroke-opacity: 1; stroke-width: 1px;"/><path class="ygrid crisp" transform="translate(0,141.03)" d="M39,0h631" style="stroke: rgb(255, 255, 255); stroke-opacity: 1; stroke-width: 1px;"/><path class="ygrid crisp" transform="translate(0,81.4)" d="M39,0h631" style="stroke: rgb(255, 255, 255); stroke-opacity: 1; stroke-width: 1px;"/></g></g><g class="zerolinelayer"><path class="yzl zl crisp" transform="translate(0,319.91)" d="M39,0h631" style="stroke: rgb(255, 255, 255); stroke-opacity: 1; stroke-width: 2px;"/></g><path class="xlines-below"/><path class="ylines-below"/><g class="overlines-below"/><g class="xaxislayer-below"/><g class="yaxislayer-below"/><g class="overaxes-below"/><g class="plot" transform="translate(39,30)" clip-path="url(#clipb9b873xyplot)"><g class="scatterlayer mlayer"><g class="trace scatter trace5ecc73d7-8181-4173-b3ea-f90e281f4342" style="stroke-miterlimit: 2; opacity: 1;"><g class="fills"/><g class="errorbars"/><g class="lines"><path class="js-line" d="M0,228.33L1.72,228.82L3.45,230.1L5.17,233.91L6.9,234.11L10.34,235.64L12.07,237.38L13.79,231.3L15.52,231.59L17.24,232.45L18.96,231.46L20.69,224.4L22.41,232.19L24.14,229.45L25.86,228.61L27.58,223.31L29.31,226.91L32.76,219.45L34.48,219.11L37.93,225.12L39.65,231.85L41.38,235.4L43.1,234.97L44.83,230.58L46.55,233.34L50,236.94L51.72,235.19L53.45,235.98L55.17,235.89L56.89,238.14L58.62,237.76L62.07,236.98L63.79,236.98L65.51,230.99L67.24,231.12L68.96,230.13L70.69,228.2L72.41,230.52L74.13,234.77L75.86,236L77.58,233.23L81.03,237.94L82.75,238.25L86.2,239.16L87.93,242.07L89.65,239.9L91.37,239.95L93.1,238.94L94.82,235.99L98.27,237.68L99.99,237.45L101.72,237.48L103.44,238.73L105.17,241.13L106.89,239.98L108.61,238.62L110.34,238.7L113.79,239.93L115.51,242.79L117.23,243.65L118.96,241.52L120.68,242.47L122.41,237.83L124.13,231.05L125.86,233.76L127.58,235.99L129.3,233.71L134.48,236.29L136.2,232.97L137.92,236.53L139.65,238.35L141.37,239.99L143.1,235.03L144.82,230.35L146.54,232.07L148.27,233.72L149.99,232.47L151.72,233.92L153.44,233.63L155.16,232.71L156.89,227.2L158.61,226.95L160.34,223.71L163.78,228.12L165.51,226.69L168.96,233.7L170.68,229.75L172.4,228.79L174.13,220.71L175.85,230.84L177.58,234.77L179.3,235.39L181.02,237.19L182.75,234.63L184.47,235.59L187.92,240.18L189.64,233.82L191.37,228.58L193.09,229.61L194.82,232.47L196.54,228.01L198.27,226L199.99,227.49L201.71,230.56L203.44,229.6L205.16,223.8L206.89,230.85L208.61,230.05L210.33,226.8L212.06,227.44L213.78,231.19L215.51,229.48L217.23,234.26L218.95,230.83L220.68,231.74L222.4,234.1L224.13,237.95L225.85,233.14L227.57,236.96L231.02,229.54L232.75,228.84L234.47,230.3L236.19,229.19L241.37,241.21L243.09,241.01L246.54,238.02L248.26,238.12L249.99,234.87L251.71,234.2L253.43,233.97L255.16,236.4L258.61,237.67L260.33,239.7L262.05,238.05L263.78,238.84L265.5,241.45L267.23,239.32L270.67,232.85L272.4,234.74L274.12,235.66L275.85,239.09L277.57,234.9L279.3,235.55L281.02,241.21L282.74,242.57L284.47,243.41L286.19,240.71L287.92,241.73L289.64,244.61L291.36,243.52L293.09,239.32L294.81,236.75L296.54,238.12L298.26,240.32L299.98,235.37L301.71,235.21L303.43,232.15L305.16,231.59L306.88,235.13L308.6,229.73L310.33,233.38L312.05,229.06L313.78,229.44L315.5,225.29L317.22,226.14L318.95,225.66L320.67,220.64L322.4,222.3L324.12,221.44L325.84,220.92L327.57,215.84L329.29,210.33L331.02,209.98L332.74,210.63L334.46,205.29L336.19,205.83L337.91,207.31L339.64,200.98L341.36,199.32L343.08,196.21L344.81,205.43L346.53,205.25L348.26,207.18L351.7,220.41L353.43,215.54L355.15,213.89L356.88,216.49L358.6,213.96L360.33,219.22L362.05,216.81L363.77,216.18L365.5,208.72L367.22,211.76L368.95,213.34L370.67,212.75L372.39,216.09L374.12,216.29L375.84,215.74L377.57,213.99L379.29,213.55L381.01,208.87L382.74,205.93L384.46,196.39L386.19,195.31L387.91,191.6L391.36,201.51L393.08,200.51L396.53,209.67L398.25,210.39L399.98,211.83L401.7,207.24L405.15,206.17L406.87,204.01L408.6,203.5L410.32,205.03L412.05,207.86L413.77,212.45L417.22,222.71L418.94,225.43L420.67,226.38L422.39,225.51L424.11,229.25L425.84,227.49L429.29,227.05L431.01,221.94L436.18,231.62L437.91,233.08L439.63,230.78L441.36,234.17L443.08,232.86L444.8,232.86L448.25,223.26L449.98,223.28L451.7,224.92L453.42,224.82L455.15,228.63L456.87,229.21L458.6,229.71L460.32,232.06L462.04,229.83L463.77,225.4L465.49,226.77L467.22,226.16L468.94,228.9L470.66,225.74L472.39,222.04L474.11,221.93L475.84,225.31L477.56,226.1L479.28,227.42L481.01,225.3L482.73,228.66L484.46,222.65L486.18,230.63L487.9,231.7L489.63,230.82L491.35,233.25L494.8,229.96L496.52,233.01L498.25,238.79L499.97,238.25L501.7,233.34L503.42,231.34L505.14,231.13L506.87,233.11L508.59,236.19L510.32,234.93L513.77,233.47L515.49,234.9L517.21,232.69L518.94,232.96L520.66,231.69L522.39,232.73L524.11,230.57L525.83,224.09L527.56,222.77L529.28,214.04L531.01,215.41L532.73,211.14L534.45,216.75L536.18,217.63L539.63,227.98L541.35,229.87L544.8,219.87L546.52,225.2L548.25,221.8L549.97,223.02L551.69,220.73L553.42,221.93L555.14,223.73L556.87,226.67L558.59,226.84L560.31,229.41L562.04,227.66L563.76,229.46L565.49,233.03L567.21,226.46L568.93,225.69L570.66,230.36L574.11,225.89L575.83,221.49L577.55,227.86L579.28,228.76L581,227.24L582.73,229.78L584.45,229.97L586.17,226.59L587.9,229.72L589.62,225.74L591.35,227.2L593.07,227.42L594.8,227.51L596.52,223.99L598.24,224.43L599.97,226.67L601.69,229.5L603.42,225.63L605.14,218.93L606.86,218.43L608.59,219.72L610.31,224.35L612.04,225.78L613.76,222.32L615.48,221.9L617.21,226.51L618.93,234.21L620.66,235.41L624.1,236.43L625.83,236.69L627.55,239.09L629.28,236.63L631,233.69" style="vector-effect: non-scaling-stroke; fill: none; stroke: rgb(31, 119, 180); stroke-opacity: 1; stroke-width: 2px; opacity: 1;"/></g><g class="points"/><g class="text"/></g><g class="trace scatter trace5d1c9083-9f49-42f8-b8ec-7268c8cb582f" style="stroke-miterlimit: 2; opacity: 1;"><g class="fills"/><g class="errorbars"/><g class="lines"><path class="js-line" d="M0,228.77L1.72,229.95L3.45,234.07L5.17,236.09L6.9,239.9L8.62,239.06L10.34,240.57L12.07,243.53L13.79,242.89L15.52,245.13L17.24,242.87L18.96,241.74L20.69,243.04L22.41,242.71L24.14,245.31L25.86,243.13L27.58,243.53L31.03,240.24L32.76,236.96L36.2,238.7L37.93,228.15L39.65,225.33L41.38,227.18L43.1,226.71L44.83,227.18L50,231.5L51.72,227.22L55.17,224.53L56.89,223.94L58.62,224.41L60.34,229.23L62.07,231.46L63.79,228.68L65.51,223.06L67.24,220.01L68.96,212.64L70.69,214.31L72.41,213.07L74.13,205.75L75.86,203.39L77.58,197.02L81.03,204.65L82.75,213.67L84.48,211.6L86.2,212.41L87.93,220.01L89.65,218.38L91.37,220.92L93.1,218.97L94.82,224.23L96.55,221.48L98.27,221.82L99.99,222.99L101.72,221.43L103.44,222.85L105.17,216.55L106.89,213.59L108.61,220.73L110.34,218.91L112.06,220.23L113.79,214.62L117.23,215.34L118.96,220.89L120.68,222.78L122.41,222.57L125.86,230.86L127.58,229.61L129.3,229.85L131.03,223.41L134.48,224.48L136.2,223.63L137.92,225.04L139.65,224.6L141.37,223.96L143.1,222.29L144.82,209.59L146.54,207.76L148.27,205.31L149.99,200.48L153.44,205.52L155.16,201.52L156.89,199.36L158.61,200.15L165.51,190.53L167.23,181.27L170.68,184.35L172.4,183.62L174.13,189.72L175.85,192.8L177.58,191.71L179.3,194.08L181.02,186.01L182.75,181.76L184.47,179.61L186.2,182.18L187.92,180.98L189.64,182.4L191.37,179.62L193.09,182.44L194.82,174.51L196.54,181.67L198.27,180.59L199.99,183.48L201.71,181.46L203.44,182.07L205.16,190.23L206.89,184.75L208.61,192.69L210.33,182.6L212.06,187.76L213.78,182.13L215.51,178.65L217.23,179.76L218.95,174.94L220.68,173.76L222.4,161.25L224.13,168.3L225.85,173.1L227.57,172.35L229.3,167.96L231.02,167.16L234.47,167.46L236.19,167.83L237.92,174.82L239.64,164.28L241.37,166.78L243.09,178.93L244.81,177.9L246.54,179.51L248.26,173.89L249.99,174.69L251.71,156.68L253.43,170.94L256.88,185.77L258.61,184.99L262.05,192.36L263.78,199.46L265.5,203.02L267.23,200.36L268.95,202.37L270.67,196.46L272.4,194.37L274.12,189.84L275.85,185.41L277.57,186.36L279.3,190.25L281.02,183.95L282.74,180.85L284.47,186.52L286.19,186.78L287.92,185.75L289.64,186.21L291.36,167.32L294.81,154.18L296.54,158.6L301.71,156.09L303.43,168.4L305.16,180.9L306.88,176.74L308.6,176.8L310.33,192.39L312.05,185.59L313.78,196.43L317.22,197.48L318.95,203.17L320.67,206.89L322.4,215.51L324.12,212.18L325.84,214.74L327.57,217.59L329.29,216.85L331.02,216.01L332.74,211.92L337.91,203.53L339.64,201.91L343.08,201.77L344.81,195.05L346.53,195.9L348.26,190.51L349.98,200.84L351.7,203.28L355.15,197.42L356.88,200.58L358.6,203.85L360.33,209.46L362.05,207.76L363.77,213.52L365.5,213.23L367.22,208.24L370.67,205.8L372.39,202.42L374.12,205.22L375.84,203.99L377.57,207.11L379.29,202.91L381.01,195.02L382.74,191.33L384.46,193.74L386.19,192.33L387.91,191.14L389.63,188.77L393.08,171.94L394.81,171.86L398.25,174.62L399.98,177.81L401.7,176.64L403.43,184.56L405.15,188.8L406.87,186.15L408.6,183.41L410.32,176.09L412.05,174.54L413.77,179.1L417.22,169.92L418.94,172.57L422.39,177.68L424.11,169.08L425.84,165.94L427.56,174.79L429.29,191.07L431.01,185.48L432.73,188.23L434.46,182.98L436.18,187.56L437.91,188.78L439.63,193.73L441.36,189.64L443.08,189.5L444.8,181.47L446.53,179.32L448.25,172.36L451.7,165.47L453.42,168.48L455.15,166.03L456.87,165.87L458.6,161.49L460.32,161.84L462.04,157.42L463.77,157.12L465.49,151.51L467.22,148.54L470.66,148.65L472.39,155.4L474.11,156.44L475.84,148.71L477.56,148.59L479.28,142.03L481.01,146.16L482.73,133.1L484.46,121.52L486.18,121.5L487.9,111.8L489.63,124.01L491.35,134.26L493.08,132.53L494.8,127.51L496.52,125.87L498.25,142.67L499.97,134.55L501.7,141.77L503.42,137.68L505.14,131.34L506.87,139.82L508.59,148.61L510.32,148.02L512.04,156.76L513.77,152.45L515.49,144.94L517.21,143.89L520.66,154.72L522.39,153.43L524.11,165.05L525.83,166.58L527.56,167.94L529.28,161.04L531.01,161.94L532.73,164.48L534.45,161.8L536.18,156.54L539.63,140.07L541.35,137.14L546.52,151.44L548.25,149.39L549.97,148.92L551.69,140.46L553.42,135.19L555.14,134.52L558.59,129.82L560.31,145.25L562.04,152.62L563.76,143.11L565.49,149.98L567.21,148.74L568.93,143.98L570.66,148.53L572.38,148.14L574.11,158.48L575.83,158.2L577.55,160.21L579.28,156.4L581,157.45L582.73,151.92L584.45,158.11L586.17,157.92L587.9,158.82L589.62,151.06L591.35,154.12L593.07,146.69L594.8,124.23L596.52,137.37L598.24,135.53L599.97,126.88L601.69,123.09L603.42,112.99L605.14,115.97L608.59,114.55L610.31,122.17L612.04,111.07L613.76,118.04L615.48,128.2L617.21,125.37L618.93,121.85L620.66,133.66L622.38,145.12L624.1,144.11L625.83,145L627.55,139.24L629.28,136.37L631,149.04" style="vector-effect: non-scaling-stroke; fill: none; stroke: rgb(255, 127, 14); stroke-opacity: 1; stroke-width: 2px; opacity: 1;"/></g><g class="points"/><g class="text"/></g><g class="trace scatter trace6e19fdd2-ca21-42dd-90fb-3e21b0996a69" style="stroke-miterlimit: 2; opacity: 1;"><g class="fills"/><g class="errorbars"/><g class="lines"><path class="js-line" d="M0,232.38L3.45,227.63L5.17,229.59L6.9,228.44L8.62,225.57L10.34,229.27L12.07,224.81L13.79,226.28L15.52,229.05L17.24,231.84L18.96,229.42L20.69,225.26L22.41,227.77L24.14,226.71L25.86,218.41L27.58,216.64L29.31,219.1L31.03,217.25L32.76,218.45L34.48,215L36.2,215.1L37.93,213.57L39.65,214.62L43.1,208.39L44.83,209.97L46.55,207.22L48.27,200.39L51.72,220.14L53.45,218.83L55.17,221.65L56.89,219.78L58.62,215.28L60.34,216.35L62.07,202.67L63.79,202.28L65.51,203.99L67.24,200.82L68.96,200.18L70.69,205.91L72.41,203.49L74.13,203.84L75.86,199.84L77.58,200.74L81.03,190.8L82.75,193.05L84.48,195.36L86.2,195.39L87.93,199.79L89.65,199.74L93.1,205.44L94.82,202.84L96.55,203.77L98.27,200.56L99.99,201.57L101.72,201.32L103.44,204.99L105.17,203.57L108.61,205.64L110.34,209.52L112.06,211.73L113.79,208.45L115.51,203.47L117.23,209.34L120.68,217.56L122.41,216.86L124.13,214.16L125.86,208.62L127.58,214.84L129.3,212.89L132.75,211.35L134.48,212.34L137.92,212.67L139.65,213.31L141.37,214.24L143.1,213.04L144.82,218.84L146.54,219.72L149.99,221.62L151.72,220.38L153.44,215.54L155.16,205.09L156.89,199.37L158.61,201.45L160.34,205.38L162.06,205.13L163.78,211.51L165.51,206.52L167.23,206.29L168.96,211.97L170.68,213.6L172.4,216.85L174.13,218.56L175.85,216.47L177.58,215.42L179.3,215.77L182.75,224.04L184.47,225.86L186.2,227.43L187.92,225.14L189.64,226.16L191.37,225.29L193.09,224.2L194.82,226.44L196.54,226.8L198.27,225.86L199.99,223.12L201.71,224.04L203.44,228.17L205.16,228.76L206.89,227.64L208.61,224.4L210.33,221.42L212.06,216.63L213.78,215.83L215.51,223.72L218.95,230.04L220.68,231.44L224.13,221.73L225.85,221.1L227.57,219.06L229.3,218.69L231.02,216.72L232.75,218.09L236.19,214.74L237.92,210.46L239.64,215.05L241.37,214.55L243.09,219.04L244.81,218.81L246.54,216.32L248.26,215.36L249.99,211.22L251.71,212.26L253.43,217.43L255.16,219.83L256.88,224.65L258.61,223.75L260.33,227.56L262.05,225.31L263.78,221.55L265.5,223.03L267.23,219.73L268.95,218.57L272.4,216.74L274.12,213.26L275.85,216.04L277.57,213.34L281.02,211.13L282.74,212.13L284.47,209.55L286.19,212.35L289.64,223.79L291.36,225.68L293.09,226.98L294.81,224.23L296.54,226.78L298.26,225.57L299.98,222.71L301.71,228.31L303.43,220.38L305.16,220.39L308.6,222.25L310.33,218.66L312.05,218.4L313.78,213.05L315.5,212.14L317.22,213.05L320.67,202.72L322.4,202.73L324.12,205.06L325.84,210.29L327.57,209.55L329.29,216.89L331.02,215.78L332.74,217.21L334.46,219.17L336.19,213.95L337.91,216.04L339.64,220.99L341.36,224.1L343.08,221.3L344.81,217.5L346.53,220.43L348.26,218.23L349.98,213.78L351.7,217.24L353.43,211.51L355.15,210.08L356.88,211.45L358.6,207.72L360.33,207.86L362.05,207.73L363.77,209.16L367.22,211.26L368.95,209.83L370.67,207.65L372.39,210.21L375.84,203L377.57,201.69L379.29,197.85L381.01,196.09L382.74,201.18L384.46,196.24L387.91,193.32L389.63,198.74L393.08,206.75L394.81,204.94L396.53,212.82L398.25,211.75L399.98,209.55L401.7,212.12L403.43,218.42L405.15,214.85L406.87,208.58L408.6,208.05L410.32,206.52L412.05,209.89L413.77,206.61L415.49,206.43L417.22,205.11L418.94,208.59L420.67,198.75L422.39,196.17L424.11,192.66L425.84,197.34L427.56,198.44L429.29,197.97L431.01,210.26L432.73,207.98L434.46,205.15L436.18,195.21L439.63,198.46L441.36,193.66L443.08,191.26L444.8,192.26L446.53,189.41L448.25,183.9L451.7,201.75L453.42,194.69L455.15,196.85L456.87,194.46L458.6,204.02L460.32,204.66L463.77,192.93L465.49,198.23L467.22,188.9L468.94,197.66L470.66,199.6L472.39,197.1L474.11,185.24L475.84,179.66L477.56,177.64L479.28,182.01L481.01,165.3L482.73,168.7L484.46,172.68L486.18,161.49L487.9,154.65L489.63,158.81L491.35,156.1L493.08,161.93L494.8,143.23L496.52,147.18L498.25,142.85L499.97,144.2L501.7,149L503.42,150.52L505.14,151.01L506.87,155.22L510.32,158.93L512.04,152.54L513.77,151.41L515.49,138L517.21,138.9L518.94,137.09L520.66,131.46L522.39,130.01L524.11,136.36L525.83,130.31L527.56,127.59L529.28,134.35L531.01,129.46L532.73,120.04L534.45,139.28L536.18,135.86L541.35,107.89L543.07,85.88L544.8,72.04L546.52,80.92L548.25,82.74L549.97,91.73L551.69,88.88L553.42,90.48L555.14,87.1L556.87,79.84L562.04,60.75L563.76,66.12L565.49,72.59L567.21,61.35L568.93,70.12L570.66,66.45L572.38,73.91L574.11,65.91L575.83,71.26L577.55,54.47L579.28,53.9L581,55.87L582.73,23.85L584.45,14.5L587.9,49.94L589.62,55.79L593.07,98.59L594.8,102.55L596.52,94.62L598.24,95.11L599.97,93.08L601.69,89.62L603.42,92.12L605.14,99.6L606.86,85.97L608.59,96.84L610.31,98.79L612.04,103.47L613.76,98.04L615.48,101.16L617.21,117.6L618.93,122.37L620.66,108.96L622.38,123.07L624.1,132.59L625.83,137.69L629.28,123.38L631,111.3" style="vector-effect: non-scaling-stroke; fill: none; stroke: rgb(44, 160, 44); stroke-opacity: 1; stroke-width: 2px; opacity: 1;"/></g><g class="points"/><g class="text"/></g><g class="trace scatter tracef5f7a73a-a313-41d7-bd3a-ba40b1a73420" style="stroke-miterlimit: 2; opacity: 1;"><g class="fills"/><g class="errorbars"/><g class="lines"><path class="js-line" d="M0,229.77L1.72,229.25L3.45,229.62L5.17,231.16L6.9,235.28L8.62,236.1L10.34,234.11L13.79,224.7L15.52,222.26L17.24,226.94L18.96,222.68L20.69,228.66L22.41,229L24.14,222.94L25.86,229.81L27.58,227.64L29.31,223.69L31.03,219.41L32.76,225.15L36.2,226.66L37.93,220.51L39.65,220.8L41.38,219.08L43.1,221.47L44.83,216.69L46.55,217.31L48.27,220.07L50,218.71L51.72,219.58L55.17,223.94L56.89,220.64L58.62,223.04L60.34,224.1L65.51,220.99L67.24,218.81L74.13,227.34L75.86,231.4L81.03,237.22L82.75,239.73L86.2,240.73L87.93,243.78L91.37,240.9L93.1,241.29L94.82,240.11L96.55,237.38L98.27,240.58L99.99,239.3L101.72,239.36L103.44,240.18L105.17,239.25L106.89,242.28L108.61,239.68L110.34,241.24L112.06,244.99L113.79,245.56L115.51,245.7L117.23,246.65L120.68,241.51L122.41,239.67L124.13,239.72L125.86,238.22L129.3,232.47L131.03,234.87L134.48,242.19L136.2,241.36L143.1,240L144.82,236.67L146.54,232.08L148.27,234.5L149.99,232.4L151.72,232.11L156.89,220.54L158.61,220.64L162.06,211.83L163.78,213.42L165.51,210.28L167.23,203.23L168.96,206.98L170.68,202.56L174.13,190.89L175.85,194.96L179.3,204.65L181.02,199.18L184.47,183.39L186.2,186.39L187.92,185.62L189.64,192.4L191.37,191.63L193.09,184.76L194.82,182.48L196.54,178.74L198.27,184.18L199.99,194.08L203.44,203.22L205.16,199.67L206.89,198.37L208.61,190.4L210.33,189.21L212.06,193.24L213.78,194.71L215.51,189.67L217.23,194.1L218.95,196.22L222.4,187.58L224.13,187.4L225.85,191.83L227.57,193.69L229.3,194.49L231.02,200.56L232.75,202.75L234.47,210L236.19,212.2L237.92,209.93L239.64,206.93L241.37,206.78L243.09,206.82L244.81,205.15L246.54,203.5L248.26,196.34L249.99,199.97L251.71,198.19L253.43,199.49L255.16,202.44L260.33,211.83L262.05,205.7L263.78,204.17L265.5,209.31L267.23,208.86L268.95,202.85L270.67,199.32L272.4,206.76L274.12,209.02L275.85,207.25L277.57,206.7L279.3,207.25L281.02,207.34L282.74,198.18L284.47,202.77L286.19,195.42L289.64,183.22L291.36,185.12L293.09,196.6L294.81,195.34L298.26,187.78L299.98,192.69L301.71,191.89L303.43,192.53L305.16,182.54L306.88,187.44L310.33,180.73L312.05,185.07L315.5,186.27L317.22,180.88L320.67,184.69L322.4,179.67L324.12,169.68L325.84,171.59L327.57,152.73L329.29,163.84L331.02,167.33L332.74,156.9L334.46,158.17L336.19,156.47L337.91,148.14L339.64,148.32L341.36,141.75L343.08,138.27L346.53,145.45L348.26,152.61L349.98,159.96L351.7,144.54L353.43,129.85L355.15,134.42L356.88,129.16L358.6,130.94L360.33,123.32L362.05,106.39L363.77,100.93L365.5,105.39L367.22,106.01L368.95,99.23L370.67,104.21L372.39,100.72L374.12,102.97L375.84,96.62L377.57,108.35L379.29,96.3L381.01,84.75L382.74,65.87L386.19,54.79L387.91,58.13L389.63,80.67L391.36,88.89L393.08,74.98L394.81,101.26L398.25,128.47L399.98,129.07L401.7,127.02L403.43,117.76L405.15,104.44L406.87,114.9L408.6,115.7L410.32,118.06L412.05,125.7L413.77,140.9L417.22,156.97L418.94,151.32L420.67,148.81L422.39,155.28L424.11,155.21L425.84,162.22L427.56,162.4L429.29,175.61L431.01,168.9L432.73,171.78L437.91,174.03L439.63,179.32L441.36,173.61L443.08,176.44L444.8,173.73L446.53,179.56L449.98,186.58L451.7,185.77L453.42,186.09L455.15,183.72L456.87,185.28L458.6,180.55L460.32,187.61L462.04,181.76L463.77,180.46L465.49,174.87L467.22,177.22L468.94,164.54L470.66,165.52L472.39,169.1L474.11,164.84L475.84,169.91L477.56,165.79L479.28,171.9L481.01,172.47L482.73,171.88L484.46,172.11L486.18,171.49L487.9,162.9L489.63,160.21L491.35,161.41L493.08,156.07L494.8,163.99L496.52,165.06L498.25,163.07L499.97,155.56L501.7,153.32L503.42,147.54L505.14,150.11L506.87,155.47L510.32,152.47L512.04,165.18L513.77,161.64L515.49,166.97L517.21,168.58L518.94,172.25L520.66,175.58L522.39,177.05L525.83,178.48L527.56,170.19L532.73,158L534.45,162.88L536.18,161.09L537.9,156.54L541.35,161.25L543.07,161.16L546.52,173.22L548.25,171.08L551.69,174.76L553.42,165.63L555.14,164.01L556.87,165.92L558.59,163.58L560.31,175.96L562.04,177.03L563.76,167.92L567.21,172.49L568.93,172.29L570.66,177.26L572.38,177.1L574.11,174.22L575.83,183.54L579.28,178.55L581,181.23L582.73,183.55L584.45,181.02L586.17,175.46L587.9,182.07L589.62,181.81L591.35,189.71L593.07,183.9L594.8,185.27L596.52,179.53L598.24,181.55L599.97,185.4L601.69,194.97L603.42,193.86L605.14,197.53L606.86,194.97L608.59,196.58L610.31,195.03L612.04,197.16L613.76,196.33L615.48,201.5L617.21,201.01L618.93,206.17L620.66,209.47L622.38,206.27L624.1,207.41L625.83,214.55L627.55,216.42L629.28,213.95L631,213.17" style="vector-effect: non-scaling-stroke; fill: none; stroke: rgb(220, 57, 18); stroke-opacity: 1; stroke-width: 2px; opacity: 1;"/></g><g class="points"/><g class="text"/></g><g class="trace scatter tracec6331b82-1808-4dbd-8c00-aa93f62336e5" style="stroke-miterlimit: 2; opacity: 1;"><g class="fills"/><g class="errorbars"/><g class="lines"><path class="js-line" d="M0,230.23L1.72,232.96L3.45,232.89L5.17,231.89L6.9,233.57L8.62,235.04L10.34,231.73L15.52,235.76L17.24,230.59L18.96,235.32L20.69,236.65L22.41,238.88L24.14,239.5L25.86,240.43L27.58,244.71L29.31,247.91L31.03,248.42L32.76,247.58L34.48,248.32L36.2,249.31L37.93,246.28L41.38,245.39L43.1,246.57L46.55,246.77L48.27,249.28L55.17,244.48L56.89,246.8L58.62,246.99L60.34,245.38L62.07,246.67L63.79,245.24L65.51,244.42L67.24,240.16L68.96,237.98L70.69,237.98L74.13,233.42L75.86,235.85L77.58,238.95L79.31,239.39L81.03,234.61L82.75,234.17L84.48,230.35L86.2,228.7L87.93,228.47L89.65,226.77L91.37,227.84L93.1,227.24L94.82,224.12L96.55,213.96L99.99,210.32L101.72,213.68L103.44,211.76L105.17,215.68L106.89,217.2L108.61,215.78L110.34,210.59L112.06,211.92L117.23,217.36L118.96,215.46L120.68,225.99L122.41,226.86L124.13,231.89L125.86,232.61L129.3,232.19L131.03,235.73L134.48,235.35L136.2,233.95L137.92,233.78L139.65,231.76L141.37,233.54L143.1,233.23L144.82,234.38L146.54,234.01L148.27,230.49L149.99,231.69L151.72,227.02L153.44,231.06L155.16,229.12L156.89,228.65L158.61,228.96L160.34,228.19L163.78,222.69L165.51,220.41L167.23,221.85L168.96,221.53L170.68,224.31L172.4,222.21L174.13,222.97L175.85,221.65L177.58,220.56L179.3,223.66L181.02,224.43L182.75,227.78L184.47,231.31L186.2,227.2L187.92,232.55L189.64,228.79L191.37,230.56L193.09,230.65L194.82,234.61L196.54,230.04L198.27,233.2L199.99,228.34L201.71,224.74L203.44,225.77L205.16,227.72L206.89,228.15L212.06,221.79L213.78,223.45L215.51,227.59L217.23,228.86L218.95,225.42L220.68,226.24L222.4,224.88L224.13,222.12L225.85,223.82L227.57,223.46L229.3,229.35L231.02,230.45L234.47,221.21L236.19,220.5L237.92,216.85L239.64,217.31L241.37,221.93L243.09,220.49L244.81,218.62L246.54,221.34L249.99,222.58L251.71,220.8L253.43,217.4L255.16,219.74L256.88,225.24L258.61,227.13L262.05,234.56L263.78,231.56L267.23,235.89L268.95,235.01L270.67,232.37L272.4,232.52L274.12,239.3L275.85,238.88L279.3,231.03L281.02,230.69L282.74,238.16L284.47,237.54L286.19,239.92L287.92,239.03L291.36,240.76L293.09,242.48L294.81,242.03L296.54,242.96L298.26,244.12L299.98,242.97L303.43,246.83L305.16,251.53L306.88,251.49L308.6,248.12L310.33,246.47L312.05,246.77L313.78,242.94L315.5,236.22L318.95,242.93L320.67,240.95L322.4,244.23L324.12,241.11L325.84,240.71L327.57,236.73L329.29,235.18L331.02,236L337.91,222.31L339.64,221.2L343.08,209.06L344.81,215.53L346.53,216.64L348.26,218.88L349.98,218.05L351.7,218.96L353.43,218.72L355.15,220.62L358.6,219.76L360.33,217.67L362.05,213.24L363.77,216.56L367.22,205.82L368.95,209.66L372.39,206L374.12,206.93L375.84,208.96L377.57,208.56L379.29,207.17L381.01,215.39L382.74,213.11L384.46,219.26L386.19,222.21L387.91,221.29L389.63,228.24L391.36,228.44L393.08,225.64L394.81,232.75L398.25,229.95L399.98,233.93L401.7,234.22L403.43,242.19L405.15,243.5L406.87,241.24L408.6,238.04L410.32,238.12L413.77,243.27L415.49,239.46L418.94,239.64L420.67,236.41L422.39,238.09L424.11,230.17L425.84,231.43L427.56,226.44L429.29,232.07L431.01,233.5L432.73,234.47L434.46,234.11L436.18,234.84L437.91,234.06L439.63,235.09L441.36,234.14L443.08,231.73L444.8,236.83L448.25,236.69L449.98,239.58L453.42,245.15L455.15,242.91L456.87,239.18L458.6,241.05L467.22,258.3L468.94,259.51L470.66,258.05L472.39,258.45L475.84,259.57L477.56,259.88L479.28,259.89L481.01,262.04L484.46,263.77L486.18,264.65L487.9,264.43L489.63,265.14L491.35,266.78L493.08,266.8L494.8,266.35L496.52,266.88L501.7,269.89L503.42,268.98L506.87,269.91L508.59,269.18L510.32,270.82L512.04,270.93L515.49,270.72L517.21,269.68L520.66,269.83L522.39,268.78L524.11,269.39L525.83,265.71L527.56,263.55L529.28,264.98L531.01,262.8L532.73,263.08L544.8,267.31L546.52,265.92L553.42,270.74L555.14,270.06L558.59,269.57L560.31,269.39L562.04,268.02L563.76,267.63L568.93,265.2L570.66,268.26L572.38,268.31L574.11,267.59L577.55,269.17L579.28,269.68L584.45,273.34L586.17,273.42L587.9,272.69L589.62,273.33L591.35,271.89L593.07,272.84L594.8,272.93L596.52,275.11L599.97,274.92L601.69,275.5L603.42,273.99L605.14,274.46L606.86,273.52L608.59,273.86L610.31,274.22L612.04,272.94L613.76,273.69L615.48,273.62L618.93,273.86L620.66,273.23L622.38,274.23L624.1,273.87L625.83,274.87L627.55,273.81L631,275.29" style="vector-effect: non-scaling-stroke; fill: none; stroke: rgb(148, 103, 189); stroke-opacity: 1; stroke-width: 2px; opacity: 1;"/></g><g class="points"/><g class="text"/></g></g></g><g class="overplot"/><path class="xlines-above crisp" d="M0,0" style="fill: none;"/><path class="ylines-above crisp" d="M0,0" style="fill: none;"/><g class="overlines-above"/><g class="xaxislayer-above"><g class="xtick"><text text-anchor="middle" x="0" y="333" transform="translate(39.07,0)" style="font-family: 'Open Sans', verdana, arial, sans-serif; font-size: 12px; fill: rgb(42, 63, 95); fill-opacity: 1; white-space: pre; opacity: 1;">Jan 2020</text></g><g class="xtick"><text text-anchor="middle" x="0" y="333" style="font-family: 'Open Sans', verdana, arial, sans-serif; font-size: 12px; fill: rgb(42, 63, 95); fill-opacity: 1; white-space: pre; opacity: 1;" transform="translate(142.51,0)">Mar 2020</text></g><g class="xtick"><text text-anchor="middle" x="0" y="333" style="font-family: 'Open Sans', verdana, arial, sans-serif; font-size: 12px; fill: rgb(42, 63, 95); fill-opacity: 1; white-space: pre; opacity: 1;" transform="translate(247.68,0)">May 2020</text></g><g class="xtick"><text text-anchor="middle" x="0" y="333" style="font-family: 'Open Sans', verdana, arial, sans-serif; font-size: 12px; fill: rgb(42, 63, 95); fill-opacity: 1; white-space: pre; opacity: 1;" transform="translate(352.85,0)">Jul 2020</text></g><g class="xtick"><text text-anchor="middle" x="0" y="333" style="font-family: 'Open Sans', verdana, arial, sans-serif; font-size: 12px; fill: rgb(42, 63, 95); fill-opacity: 1; white-space: pre; opacity: 1;" transform="translate(459.74,0)">Sep 2020</text></g><g class="xtick"><text text-anchor="middle" x="0" y="333" style="font-family: 'Open Sans', verdana, arial, sans-serif; font-size: 12px; fill: rgb(42, 63, 95); fill-opacity: 1; white-space: pre; opacity: 1;" transform="translate(564.91,0)">Nov 2020</text></g></g><g class="yaxislayer-above"><g class="ytick"><text text-anchor="end" x="38" y="4.199999999999999" transform="translate(0,319.91)" style="font-family: 'Open Sans', verdana, arial, sans-serif; font-size: 12px; fill: rgb(42, 63, 95); fill-opacity: 1; white-space: pre; opacity: 1;">0</text></g><g class="ytick"><text text-anchor="end" x="38" y="4.199999999999999" style="font-family: 'Open Sans', verdana, arial, sans-serif; font-size: 12px; fill: rgb(42, 63, 95); fill-opacity: 1; white-space: pre; opacity: 1;" transform="translate(0,260.28)">100</text></g><g class="ytick"><text text-anchor="end" x="38" y="4.199999999999999" style="font-family: 'Open Sans', verdana, arial, sans-serif; font-size: 12px; fill: rgb(42, 63, 95); fill-opacity: 1; white-space: pre; opacity: 1;" transform="translate(0,200.66)">200</text></g><g class="ytick"><text text-anchor="end" x="38" y="4.199999999999999" style="font-family: 'Open Sans', verdana, arial, sans-serif; font-size: 12px; fill: rgb(42, 63, 95); fill-opacity: 1; white-space: pre; opacity: 1;" transform="translate(0,141.03)">300</text></g><g class="ytick"><text text-anchor="end" x="38" y="4.199999999999999" style="font-family: 'Open Sans', verdana, arial, sans-serif; font-size: 12px; fill: rgb(42, 63, 95); fill-opacity: 1; white-space: pre; opacity: 1;" transform="translate(0,81.4)">400</text></g></g><g class="overaxes-above"/></g></g><g class="polarlayer"/><g class="ternarylayer"/><g class="geolayer"/><g class="funnelarealayer"/><g class="pielayer"/><g class="iciclelayer"/><g class="treemaplayer"/><g class="sunburstlayer"/><g class="glimages"/><defs id="topdefs-b9b873"><g class="clips"/></defs><g class="layer-above"><g class="imagelayer"/><g class="shapelayer"/></g><g class="infolayer"><g class="g-gtitle"/><g class="g-xtitle"/><g class="g-ytitle"/></g></svg>