<svg class="main-svg" xmlns="http://www.w3.org/2000/svg" xmlns:xlink="http://www.w3.org/1999/xlink" width="700" height="350" style="" viewBox="0 0 700 350"><rect x="0" y="0" width="700" height="350" style="fill: rgb(255, 255, 255); fill-opacity: 1;"/><defs id="defs-8d94ec"><g class="clips"><clipPath id="clip8d94ecxyplot" class="plotclip"><rect width="624" height="274"/></clipPath><clipPath class="axesclip" id="clip8d94ecx"><rect x="46" y="0" width="624" height="350"/></clipPath><clipPath class="axesclip" id="clip8d94ecy"><rect x="0" y="46" width="700" height="274"/></clipPath><clipPath class="axesclip" id="clip8d94ecxy"><rect x="46" y="46" width="624" height="274"/></clipPath></g><g class="gradients"/></defs><g class="bglayer"><rect class="bg" x="46" y="46" width="624" height="274" style="fill: rgb(229, 236, 246); fill-opacity: 1; stroke-width: 0;"/></g><g class="layer-below"><g class="imagelayer"/><g class="shapelayer"/></g><g class="cartesianlayer"><g class="subplot xy"><g class="layer-subplot"><g class="shapelayer"/><g class="imagelayer"/></g><g class="gridlayer"><g class="x"/><g class="y"><path class="ygrid crisp" transform="translate(0,280)" d="M46,0h624" style="stroke: rgb(255, 255, 255); stroke-opacity: 1; stroke-width: 1px;"/><path class="ygrid crisp" transform="translate(0,168.38)" d="M46,0h624" style="stroke: rgb(255, 255, 255); stroke-opacity: 1; stroke-width: 1px;"/><path class="ygrid crisp" transform="translate(0,112.57)" d="M46,0h624" style="stroke: rgb(255, 255, 255); stroke-opacity: 1; stroke-width: 1px;"/><path class="ygrid crisp" transform="translate(0,56.76)" d="M46,0h624" style="stroke: rgb(255, 255, 255); stroke-opacity: 1; stroke-width: 1px;"/></g></g><g class="zerolinelayer"><path class="yzl zl crisp" transform="translate(0,224.19)" d="M46,0h624" style="stroke: rgb(255, 255, 255); stroke-opacity: 1; stroke-width: 2px;"/></g><path class="xlines-below"/><path class="ylines-below"/><g class="overlines-below"/><g class="xaxislayer-below"/><g class="yaxislayer-below"/><g class="overaxes-below"/><g class="plot" transform="translate(46, 46)" clip-path="url('#clip8d94ecxyplot')"><g class="barlayer mlayer"><g class="trace bars" shape-rendering="crispEdges" style="opacity: 1;"><g class="points"><g class="point"><path d="M0,178.19V178.19H3.37V178.19Z" style="vector-effect: non-scaling-stroke; opacity: 1; stroke-width: 0px; fill: rgb(192, 192, 192); fill-opacity: 0.75;"/></g><g class="point"><path d="M3.37,178.19V178.19H6.75V178.19Z" style="vector-effect: non-scaling-stroke; opacity: 1; stroke-width: 0px; fill: rgb(192, 192, 192); fill-opacity: 0.75;"/></g><g class="point"><path d="M6.75,178.19V178.19H10.12V178.19Z" style="vector-effect: non-scaling-stroke; opacity: 1; stroke-width: 0px; fill: rgb(192, 192, 192); fill-opacity: 0.75;"/></g><g class="point"><path d="M10.12,178.19V178.19H13.49V178.19Z" style="vector-effect: non-scaling-stroke; opacity: 1; stroke-width: 0px; fill: rgb(192, 192, 192); fill-opacity: 0.75;"/></g><g class="point"><path d="M13.49,178.19V178.19H16.86V178.19Z" style="vector-effect: non-scaling-stroke; opacity: 1; stroke-width: 0px; fill: rgb(192, 192, 192); fill-opacity: 0.75;"/></g><g class="point"><path d="M16.86,178.19V178.19H20.24V178.19Z" style="vector-effect: non-scaling-stroke; opacity: 1; stroke-width: 0px; fill: rgb(192, 192, 192); fill-opacity: 0.75;"/></g><g class="point"><path d="M20.24,178.19V178.19H23.61V178.19Z" style="vector-effect: non-scaling-stroke; opacity: 1; stroke-width: 0px; fill: rgb(192, 192, 192); fill-opacity: 0.75;"/></g><g class="point"><path d="M23.61,178.19V178.19H26.98V178.19Z" style="vector-effect: non-scaling-stroke; opacity: 1; stroke-width: 0px; fill: rgb(192, 192, 192); fill-opacity: 0.75;"/></g><g class="point"><path d="M26.98,178.19V178.19H30.36V178.19Z" style="vector-effect: non-scaling-stroke; opacity: 1; stroke-width: 0px; fill: rgb(192, 192, 192); fill-opacity: 0.75;"/></g><g class="point"><path d="M30.36,178.19V178.19H33.73V178.19Z" style="vector-effect: non-scaling-stroke; opacity: 1; stroke-width: 0px; fill: rgb(192, 192, 192); fill-opacity: 0.75;"/></g><g class="point"><path d="M33.73,178.19V178.19H37.1V178.19Z" style="vector-effect: non-scaling-stroke; opacity: 1; stroke-width: 0px; fill: rgb(192, 192, 192); fill-opacity: 0.75;"/></g><g class="point"><path d="M37.1,178.19V178.19H40.48V178.19Z" style="vector-effect: non-scaling-stroke; opacity: 1; stroke-width: 0px; fill: rgb(192, 192, 192); fill-opacity: 0.75;"/></g><g class="point"><path d="M40.48,178.19V178.19H43.85V178.19Z" style="vector-effect: non-scaling-stroke; opacity: 1; stroke-width: 0px; fill: rgb(192, 192, 192); fill-opacity: 0.75;"/></g><g class="point"><path d="M43.85,178.19V178.19H47.22V178.19Z" style="vector-effect: non-scaling-stroke; opacity: 1; stroke-width: 0px; fill: rgb(192, 192, 192); fill-opacity: 0.75;"/></g><g class="point"><path d="M47.22,178.19V178.19H50.59V178.19Z" style="vector-effect: non-scaling-stroke; opacity: 1; stroke-width: 0px; fill: rgb(192, 192, 192); fill-opacity: 0.75;"/></g><g class="point"><path d="M50.59,178.19V178.19H53.97V178.19Z" style="vector-effect: non-scaling-stroke; opacity: 1; stroke-width: 0px; fill: rgb(192, 192, 192); fill-opacity: 0.75;"/></g><g class="point"><path d="M53.97,178.19V178.19H57.34V178.19Z" style="vector-effect: non-scaling-stroke; opacity: 1; stroke-width: 0px; fill: rgb(192, 192, 192); fill-opacity: 0.75;"/></g><g class="point"><path d="M57.34,178.19V178.19H60.71V178.19Z" style="vector-effect: non-scaling-stroke; opacity: 1; stroke-width: 0px; fill: rgb(192, 192, 192); fill-opacity: 0.75;"/></g><g class="point"><path d="M60.71,178.19V178.19H64.09V178.19Z" style="vector-effect: non-scaling-stroke; opacity: 1; stroke-width: 0px; fill: rgb(192, 192, 192); fill-opacity: 0.75;"/></g><g class="point"><path d="M64.09,178.19V178.19H67.46V178.19Z" style="vector-effect: non-scaling-stroke; opacity: 1; stroke-width: 0px; fill: rgb(192, 192, 192); fill-opacity: 0.75;"/></g><g class="point"><path d="M67.46,178.19V178.19H70.83V178.19Z" style="vector-effect: non-scaling-stroke; opacity: 1; stroke-width: 0px; fill: rgb(192, 192, 192); fill-opacity: 0.75;"/></g><g class="point"><path d="M70.83,178.19V178.19H74.21V178.19Z" style="vector-effect: non-scaling-stroke; opacity: 1; stroke-width: 0px; fill: rgb(192, 192, 192); fill-opacity: 0.75;"/></g><g class="point"><path d="M74.21,178.19V178.19H77.58V178.19Z" style="vector-effect: non-scaling-stroke; opacity: 1; stroke-width: 0px; fill: rgb(192, 192, 192); fill-opacity: 0.75;"/></g><g class="point"><path d="M77.58,178.19V178.19H80.95V178.19Z" style="vector-effect: non-scaling-stroke; opacity: 1; stroke-width: 0px; fill: rgb(192, 192, 192); fill-opacity: 0.75;"/></g><g class="point"><path d="M80.95,178.19V178.19H84.32V178.19Z" style="vector-effect: non-scaling-stroke; opacity: 1; stroke-width: 0px; fill: rgb(192, 192, 192); fill-opacity: 0.75;"/></g><g class="point"><path d="M84.32,178.19V178.19H87.7V178.19Z" style="vector-effect: non-scaling-stroke; opacity: 1; stroke-width: 0px; fill: rgb(192, 192, 192); fill-opacity: 0.75;"/></g><g class="point"><path d="M87.7,178.19V178.19H91.07V178.19Z" style="vector-effect: non-scaling-stroke; opacity: 1; stroke-width: 0px; fill: rgb(192, 192, 192); fill-opacity: 0.75;"/></g><g class="point"><path d="M91.07,178.19V178.19H94.44V178.19Z" style="vector-effect: non-scaling-stroke; opacity: 1; stroke-width: 0px; fill: rgb(192, 192, 192); fill-opacity: 0.75;"/></g><g class="point"><path d="M94.44,178.19V178.19H97.82V178.19Z" style="vector-effect: non-scaling-stroke; opacity: 1; stroke-width: 0px; fill: rgb(192, 192, 192); fill-opacity: 0.75;"/></g><g class="point"><path d="M97.82,178.19V178.19H101.19V178.19Z" style="vector-effect: non-scaling-stroke; opacity: 1; stroke-width: 0px; fill: rgb(192, 192, 192); fill-opacity: 0.75;"/></g><g class="point"><path d="M101.19,178.19V178.19H104.56V178.19Z" style="vector-effect: non-scaling-stroke; opacity: 1; stroke-width: 0px; fill: rgb(192, 192, 192); fill-opacity: 0.75;"/></g><g class="point"><path d="M104.56,178.19V178.19H107.94V178.19Z" style="vector-effect: non-scaling-stroke; opacity: 1; stroke-width: 0px; fill: rgb(192, 192, 192); fill-opacity: 0.75;"/></g><g class="point"><path d="M107.94,178.19V178.19H111.31V178.19Z" style="vector-effect: non-scaling-stroke; opacity: 1; stroke-width: 0px; fill: rgb(192, 192, 192); fill-opacity: 0.75;"/></g><g class="point"><path d="M111.31,178.19V176.38H114.68V178.19Z" style="vector-effect: non-scaling-stroke; opacity: 1; stroke-width: 0px; fill: rgb(192, 192, 192); fill-opacity: 0.75;"/></g><g class="point"><path d="M114.68,178.19V172.74H118.05V178.19Z" style="vector-effect: non-scaling-stroke; opacity: 1; stroke-width: 0px; fill: rgb(0, 128, 0); fill-opacity: 0.75;"/></g><g class="point"><path d="M118.05,178.19V169.66H121.43V178.19Z" style="vector-effect: non-scaling-stroke; opacity: 1; stroke-width: 0px; fill: rgb(0, 128, 0); fill-opacity: 0.75;"/></g><g class="point"><path d="M121.43,178.19V166.43H124.8V178.19Z" style="vector-effect: non-scaling-stroke; opacity: 1; stroke-width: 0px; fill: rgb(0, 128, 0); fill-opacity: 0.75;"/></g><g class="point"><path d="M124.8,178.19V163.4H128.17V178.19Z" style="vector-effect: non-scaling-stroke; opacity: 1; stroke-width: 0px; fill: rgb(0, 128, 0); fill-opacity: 0.75;"/></g><g class="point"><path d="M128.17,178.19V160.55H131.55V178.19Z" style="vector-effect: non-scaling-stroke; opacity: 1; stroke-width: 0px; fill: rgb(0, 128, 0); fill-opacity: 0.75;"/></g><g class="point"><path d="M131.55,178.19V158.87H134.92V178.19Z" style="vector-effect: non-scaling-stroke; opacity: 1; stroke-width: 0px; fill: rgb(0, 128, 0); fill-opacity: 0.75;"/></g><g class="point"><path d="M134.92,178.19V158H138.29V178.19Z" style="vector-effect: non-scaling-stroke; opacity: 1; stroke-width: 0px; fill: rgb(0, 128, 0); fill-opacity: 0.75;"/></g><g class="point"><path d="M138.29,178.19V157.31H141.66V178.19Z" style="vector-effect: non-scaling-stroke; opacity: 1; stroke-width: 0px; fill: rgb(0, 128, 0); fill-opacity: 0.75;"/></g><g class="point"><path d="M141.66,178.19V157.71H145.04V178.19Z" style="vector-effect: non-scaling-stroke; opacity: 1; stroke-width: 0px; fill: rgb(144, 238, 144); fill-opacity: 0.75;"/></g><g class="point"><path d="M145.04,178.19V158.11H148.41V178.19Z" style="vector-effect: non-scaling-stroke; opacity: 1; stroke-width: 0px; fill: rgb(144, 238, 144); fill-opacity: 0.75;"/></g><g class="point"><path d="M148.41,178.19V158.95H151.78V178.19Z" style="vector-effect: non-scaling-stroke; opacity: 1; stroke-width: 0px; fill: rgb(144, 238, 144); fill-opacity: 0.75;"/></g><g class="point"><path d="M151.78,178.19V165.21H155.16V178.19Z" style="vector-effect: non-scaling-stroke; opacity: 1; stroke-width: 0px; fill: rgb(144, 238, 144); fill-opacity: 0.75;"/></g><g class="point"><path d="M155.16,178.19V171.83H158.53V178.19Z" style="vector-effect: non-scaling-stroke; opacity: 1; stroke-width: 0px; fill: rgb(144, 238, 144); fill-opacity: 0.75;"/></g><g class="point"><path d="M158.53,178.19V176.49H161.9V178.19Z" style="vector-effect: non-scaling-stroke; opacity: 1; stroke-width: 0px; fill: rgb(144, 238, 144); fill-opacity: 0.75;"/></g><g class="point"><path d="M161.9,178.19V181.21H165.28V178.19Z" style="vector-effect: non-scaling-stroke; opacity: 1; stroke-width: 0px; fill: rgb(255, 0, 0); fill-opacity: 0.75;"/></g><g class="point"><path d="M165.28,178.19V184.93H168.65V178.19Z" style="vector-effect: non-scaling-stroke; opacity: 1; stroke-width: 0px; fill: rgb(255, 0, 0); fill-opacity: 0.75;"/></g><g class="point"><path d="M168.65,178.19V188.87H172.02V178.19Z" style="vector-effect: non-scaling-stroke; opacity: 1; stroke-width: 0px; fill: rgb(255, 0, 0); fill-opacity: 0.75;"/></g><g class="point"><path d="M172.02,178.19V192.62H175.39V178.19Z" style="vector-effect: non-scaling-stroke; opacity: 1; stroke-width: 0px; fill: rgb(255, 0, 0); fill-opacity: 0.75;"/></g><g class="point"><path d="M175.39,178.19V194.57H178.77V178.19Z" style="vector-effect: non-scaling-stroke; opacity: 1; stroke-width: 0px; fill: rgb(255, 0, 0); fill-opacity: 0.75;"/></g><g class="point"><path d="M178.77,178.19V195.77H182.14V178.19Z" style="vector-effect: non-scaling-stroke; opacity: 1; stroke-width: 0px; fill: rgb(255, 0, 0); fill-opacity: 0.75;"/></g><g class="point"><path d="M182.14,178.19V193.78H185.51V178.19Z" style="vector-effect: non-scaling-stroke; opacity: 1; stroke-width: 0px; fill: rgb(240, 128, 128); fill-opacity: 0.75;"/></g><g class="point"><path d="M185.51,178.19V192.55H188.89V178.19Z" style="vector-effect: non-scaling-stroke; opacity: 1; stroke-width: 0px; fill: rgb(240, 128, 128); fill-opacity: 0.75;"/></g><g class="point"><path d="M188.89,178.19V192.47H192.26V178.19Z" style="vector-effect: non-scaling-stroke; opacity: 1; stroke-width: 0px; fill: rgb(240, 128, 128); fill-opacity: 0.75;"/></g><g class="point"><path d="M192.26,178.19V192.63H195.63V178.19Z" style="vector-effect: non-scaling-stroke; opacity: 1; stroke-width: 0px; fill: rgb(255, 0, 0); fill-opacity: 0.75;"/></g><g class="point"><path d="M195.63,178.19V191.71H199.01V178.19Z" style="vector-effect: non-scaling-stroke; opacity: 1; stroke-width: 0px; fill: rgb(240, 128, 128); fill-opacity: 0.75;"/></g><g class="point"><path d="M199.01,178.19V189.54H202.38V178.19Z" style="vector-effect: non-scaling-stroke; opacity: 1; stroke-width: 0px; fill: rgb(240, 128, 128); fill-opacity: 0.75;"/></g><g class="point"><path d="M202.38,178.19V187.78H205.75V178.19Z" style="vector-effect: non-scaling-stroke; opacity: 1; stroke-width: 0px; fill: rgb(240, 128, 128); fill-opacity: 0.75;"/></g><g class="point"><path d="M205.75,178.19V186.53H209.12V178.19Z" style="vector-effect: non-scaling-stroke; opacity: 1; stroke-width: 0px; fill: rgb(240, 128, 128); fill-opacity: 0.75;"/></g><g class="point"><path d="M209.12,178.19V185.05H212.5V178.19Z" style="vector-effect: non-scaling-stroke; opacity: 1; stroke-width: 0px; fill: rgb(240, 128, 128); fill-opacity: 0.75;"/></g><g class="point"><path d="M212.5,178.19V183.42H215.87V178.19Z" style="vector-effect: non-scaling-stroke; opacity: 1; stroke-width: 0px; fill: rgb(240, 128, 128); fill-opacity: 0.75;"/></g><g class="point"><path d="M215.87,178.19V180.13H219.24V178.19Z" style="vector-effect: non-scaling-stroke; opacity: 1; stroke-width: 0px; fill: rgb(240, 128, 128); fill-opacity: 0.75;"/></g><g class="point"><path d="M219.24,178.19V177.52H222.62V178.19Z" style="vector-effect: non-scaling-stroke; opacity: 1; stroke-width: 0px; fill: rgb(0, 128, 0); fill-opacity: 0.75;"/></g><g class="point"><path d="M222.62,178.19V177.45H225.99V178.19Z" style="vector-effect: non-scaling-stroke; opacity: 1; stroke-width: 0px; fill: rgb(0, 128, 0); fill-opacity: 0.75;"/></g><g class="point"><path d="M225.99,178.19V176.52H229.36V178.19Z" style="vector-effect: non-scaling-stroke; opacity: 1; stroke-width: 0px; fill: rgb(0, 128, 0); fill-opacity: 0.75;"/></g><g class="point"><path d="M229.36,178.19V174.35H232.74V178.19Z" style="vector-effect: non-scaling-stroke; opacity: 1; stroke-width: 0px; fill: rgb(0, 128, 0); fill-opacity: 0.75;"/></g><g class="point"><path d="M232.74,178.19V172.38H236.11V178.19Z" style="vector-effect: non-scaling-stroke; opacity: 1; stroke-width: 0px; fill: rgb(0, 128, 0); fill-opacity: 0.75;"/></g><g class="point"><path d="M236.11,178.19V169.89H239.48V178.19Z" style="vector-effect: non-scaling-stroke; opacity: 1; stroke-width: 0px; fill: rgb(0, 128, 0); fill-opacity: 0.75;"/></g><g class="point"><path d="M239.48,178.19V166.85H242.85V178.19Z" style="vector-effect: non-scaling-stroke; opacity: 1; stroke-width: 0px; fill: rgb(0, 128, 0); fill-opacity: 0.75;"/></g><g class="point"><path d="M242.85,178.19V160.8H246.23V178.19Z" style="vector-effect: non-scaling-stroke; opacity: 1; stroke-width: 0px; fill: rgb(0, 128, 0); fill-opacity: 0.75;"/></g><g class="point"><path d="M246.23,178.19V156.8H249.6V178.19Z" style="vector-effect: non-scaling-stroke; opacity: 1; stroke-width: 0px; fill: rgb(0, 128, 0); fill-opacity: 0.75;"/></g><g class="point"><path d="M249.6,178.19V150.08H252.97V178.19Z" style="vector-effect: non-scaling-stroke; opacity: 1; stroke-width: 0px; fill: rgb(0, 128, 0); fill-opacity: 0.75;"/></g><g class="point"><path d="M252.97,178.19V144.55H256.35V178.19Z" style="vector-effect: non-scaling-stroke; opacity: 1; stroke-width: 0px; fill: rgb(0, 128, 0); fill-opacity: 0.75;"/></g><g class="point"><path d="M256.35,178.19V141.43H259.72V178.19Z" style="vector-effect: non-scaling-stroke; opacity: 1; stroke-width: 0px; fill: rgb(0, 128, 0); fill-opacity: 0.75;"/></g><g class="point"><path d="M259.72,178.19V140.99H263.09V178.19Z" style="vector-effect: non-scaling-stroke; opacity: 1; stroke-width: 0px; fill: rgb(0, 128, 0); fill-opacity: 0.75;"/></g><g class="point"><path d="M263.09,178.19V143.36H266.46V178.19Z" style="vector-effect: non-scaling-stroke; opacity: 1; stroke-width: 0px; fill: rgb(144, 238, 144); fill-opacity: 0.75;"/></g><g class="point"><path d="M266.46,178.19V145.53H269.84V178.19Z" style="vector-effect: non-scaling-stroke; opacity: 1; stroke-width: 0px; fill: rgb(144, 238, 144); fill-opacity: 0.75;"/></g><g class="point"><path d="M269.84,178.19V143.73H273.21V178.19Z" style="vector-effect: non-scaling-stroke; opacity: 1; stroke-width: 0px; fill: rgb(0, 128, 0); fill-opacity: 0.75;"/></g><g class="point"><path d="M273.21,178.19V144.78H276.58V178.19Z" style="vector-effect: non-scaling-stroke; opacity: 1; stroke-width: 0px; fill: rgb(144, 238, 144); fill-opacity: 0.75;"/></g><g class="point"><path d="M276.58,178.19V148.47H279.96V178.19Z" style="vector-effect: non-scaling-stroke; opacity: 1; stroke-width: 0px; fill: rgb(144, 238, 144); fill-opacity: 0.75;"/></g><g class="point"><path d="M279.96,178.19V154.11H283.33V178.19Z" style="vector-effect: non-scaling-stroke; opacity: 1; stroke-width: 0px; fill: rgb(144, 238, 144); fill-opacity: 0.75;"/></g><g class="point"><path d="M283.33,178.19V164.64H286.7V178.19Z" style="vector-effect: non-scaling-stroke; opacity: 1; stroke-width: 0px; fill: rgb(144, 238, 144); fill-opacity: 0.75;"/></g><g class="point"><path d="M286.7,178.19V171.03H290.08V178.19Z" style="vector-effect: non-scaling-stroke; opacity: 1; stroke-width: 0px; fill: rgb(144, 238, 144); fill-opacity: 0.75;"/></g><g class="point"><path d="M290.08,178.19V183.09H293.45V178.19Z" style="vector-effect: non-scaling-stroke; opacity: 1; stroke-width: 0px; fill: rgb(255, 0, 0); fill-opacity: 0.75;"/></g><g class="point"><path d="M293.45,178.19V191.75H296.82V178.19Z" style="vector-effect: non-scaling-stroke; opacity: 1; stroke-width: 0px; fill: rgb(255, 0, 0); fill-opacity: 0.75;"/></g><g class="point"><path d="M296.82,178.19V199.8H300.19V178.19Z" style="vector-effect: non-scaling-stroke; opacity: 1; stroke-width: 0px; fill: rgb(255, 0, 0); fill-opacity: 0.75;"/></g><g class="point"><path d="M300.19,178.19V203H303.57V178.19Z" style="vector-effect: non-scaling-stroke; opacity: 1; stroke-width: 0px; fill: rgb(255, 0, 0); fill-opacity: 0.75;"/></g><g class="point"><path d="M303.57,178.19V199.46H306.94V178.19Z" style="vector-effect: non-scaling-stroke; opacity: 1; stroke-width: 0px; fill: rgb(240, 128, 128); fill-opacity: 0.75;"/></g><g class="point"><path d="M306.94,178.19V196.03H310.31V178.19Z" style="vector-effect: non-scaling-stroke; opacity: 1; stroke-width: 0px; fill: rgb(240, 128, 128); fill-opacity: 0.75;"/></g><g class="point"><path d="M310.31,178.19V198.96H313.69V178.19Z" style="vector-effect: non-scaling-stroke; opacity: 1; stroke-width: 0px; fill: rgb(255, 0, 0); fill-opacity: 0.75;"/></g><g class="point"><path d="M313.69,178.19V199.92H317.06V178.19Z" style="vector-effect: non-scaling-stroke; opacity: 1; stroke-width: 0px; fill: rgb(255, 0, 0); fill-opacity: 0.75;"/></g><g class="point"><path d="M317.06,178.19V199.15H320.43V178.19Z" style="vector-effect: non-scaling-stroke; opacity: 1; stroke-width: 0px; fill: rgb(240, 128, 128); fill-opacity: 0.75;"/></g><g class="point"><path d="M320.43,178.19V198.33H323.81V178.19Z" style="vector-effect: non-scaling-stroke; opacity: 1; stroke-width: 0px; fill: rgb(240, 128, 128); fill-opacity: 0.75;"/></g><g class="point"><path d="M323.81,178.19V201.05H327.18V178.19Z" style="vector-effect: non-scaling-stroke; opacity: 1; stroke-width: 0px; fill: rgb(255, 0, 0); fill-opacity: 0.75;"/></g><g class="point"><path d="M327.18,178.19V203.44H330.55V178.19Z" style="vector-effect: non-scaling-stroke; opacity: 1; stroke-width: 0px; fill: rgb(255, 0, 0); fill-opacity: 0.75;"/></g><g class="point"><path d="M330.55,178.19V203.03H333.92V178.19Z" style="vector-effect: non-scaling-stroke; opacity: 1; stroke-width: 0px; fill: rgb(240, 128, 128); fill-opacity: 0.75;"/></g><g class="point"><path d="M333.92,178.19V207.15H337.3V178.19Z" style="vector-effect: non-scaling-stroke; opacity: 1; stroke-width: 0px; fill: rgb(255, 0, 0); fill-opacity: 0.75;"/></g><g class="point"><path d="M337.3,178.19V208.48H340.67V178.19Z" style="vector-effect: non-scaling-stroke; opacity: 1; stroke-width: 0px; fill: rgb(255, 0, 0); fill-opacity: 0.75;"/></g><g class="point"><path d="M340.67,178.19V209.6H344.04V178.19Z" style="vector-effect: non-scaling-stroke; opacity: 1; stroke-width: 0px; fill: rgb(255, 0, 0); fill-opacity: 0.75;"/></g><g class="point"><path d="M344.04,178.19V207.83H347.42V178.19Z" style="vector-effect: non-scaling-stroke; opacity: 1; stroke-width: 0px; fill: rgb(240, 128, 128); fill-opacity: 0.75;"/></g><g class="point"><path d="M347.42,178.19V204.81H350.79V178.19Z" style="vector-effect: non-scaling-stroke; opacity: 1; stroke-width: 0px; fill: rgb(240, 128, 128); fill-opacity: 0.75;"/></g><g class="point"><path d="M350.79,178.19V205.07H354.16V178.19Z" style="vector-effect: non-scaling-stroke; opacity: 1; stroke-width: 0px; fill: rgb(255, 0, 0); fill-opacity: 0.75;"/></g><g class="point"><path d="M354.16,178.19V205.23H357.54V178.19Z" style="vector-effect: non-scaling-stroke; opacity: 1; stroke-width: 0px; fill: rgb(255, 0, 0); fill-opacity: 0.75;"/></g><g class="point"><path d="M357.54,178.19V201.34H360.91V178.19Z" style="vector-effect: non-scaling-stroke; opacity: 1; stroke-width: 0px; fill: rgb(240, 128, 128); fill-opacity: 0.75;"/></g><g class="point"><path d="M360.91,178.19V193.46H364.28V178.19Z" style="vector-effect: non-scaling-stroke; opacity: 1; stroke-width: 0px; fill: rgb(240, 128, 128); fill-opacity: 0.75;"/></g><g class="point"><path d="M364.28,178.19V182.21H367.65V178.19Z" style="vector-effect: non-scaling-stroke; opacity: 1; stroke-width: 0px; fill: rgb(240, 128, 128); fill-opacity: 0.75;"/></g><g class="point"><path d="M367.65,178.19V173.33H371.03V178.19Z" style="vector-effect: non-scaling-stroke; opacity: 1; stroke-width: 0px; fill: rgb(0, 128, 0); fill-opacity: 0.75;"/></g><g class="point"><path d="M371.03,178.19V166.41H374.4V178.19Z" style="vector-effect: non-scaling-stroke; opacity: 1; stroke-width: 0px; fill: rgb(0, 128, 0); fill-opacity: 0.75;"/></g><g class="point"><path d="M374.4,178.19V161.38H377.77V178.19Z" style="vector-effect: non-scaling-stroke; opacity: 1; stroke-width: 0px; fill: rgb(0, 128, 0); fill-opacity: 0.75;"/></g><g class="point"><path d="M377.77,178.19V155.32H381.15V178.19Z" style="vector-effect: non-scaling-stroke; opacity: 1; stroke-width: 0px; fill: rgb(0, 128, 0); fill-opacity: 0.75;"/></g><g class="point"><path d="M381.15,178.19V143.68H384.52V178.19Z" style="vector-effect: non-scaling-stroke; opacity: 1; stroke-width: 0px; fill: rgb(0, 128, 0); fill-opacity: 0.75;"/></g><g class="point"><path d="M384.52,178.19V134.28H387.89V178.19Z" style="vector-effect: non-scaling-stroke; opacity: 1; stroke-width: 0px; fill: rgb(0, 128, 0); fill-opacity: 0.75;"/></g><g class="point"><path d="M387.89,178.19V126.1H391.26V178.19Z" style="vector-effect: non-scaling-stroke; opacity: 1; stroke-width: 0px; fill: rgb(0, 128, 0); fill-opacity: 0.75;"/></g><g class="point"><path d="M391.26,178.19V121.03H394.64V178.19Z" style="vector-effect: non-scaling-stroke; opacity: 1; stroke-width: 0px; fill: rgb(0, 128, 0); fill-opacity: 0.75;"/></g><g class="point"><path d="M394.64,178.19V115.49H398.01V178.19Z" style="vector-effect: non-scaling-stroke; opacity: 1; stroke-width: 0px; fill: rgb(0, 128, 0); fill-opacity: 0.75;"/></g><g class="point"><path d="M398.01,178.19V108.6H401.38V178.19Z" style="vector-effect: non-scaling-stroke; opacity: 1; stroke-width: 0px; fill: rgb(0, 128, 0); fill-opacity: 0.75;"/></g><g class="point"><path d="M401.38,178.19V112.73H404.76V178.19Z" style="vector-effect: non-scaling-stroke; opacity: 1; stroke-width: 0px; fill: rgb(144, 238, 144); fill-opacity: 0.75;"/></g><g class="point"><path d="M404.76,178.19V112.54H408.13V178.19Z" style="vector-effect: non-scaling-stroke; opacity: 1; stroke-width: 0px; fill: rgb(0, 128, 0); fill-opacity: 0.75;"/></g><g class="point"><path d="M408.13,178.19V119.93H411.5V178.19Z" style="vector-effect: non-scaling-stroke; opacity: 1; stroke-width: 0px; fill: rgb(144, 238, 144); fill-opacity: 0.75;"/></g><g class="point"><path d="M411.5,178.19V131.44H414.88V178.19Z" style="vector-effect: non-scaling-stroke; opacity: 1; stroke-width: 0px; fill: rgb(144, 238, 144); fill-opacity: 0.75;"/></g><g class="point"><path d="M414.88,178.19V143.56H418.25V178.19Z" style="vector-effect: non-scaling-stroke; opacity: 1; stroke-width: 0px; fill: rgb(144, 238, 144); fill-opacity: 0.75;"/></g><g class="point"><path d="M418.25,178.19V154.85H421.62V178.19Z" style="vector-effect: non-scaling-stroke; opacity: 1; stroke-width: 0px; fill: rgb(144, 238, 144); fill-opacity: 0.75;"/></g><g class="point"><path d="M421.62,178.19V163.28H424.99V178.19Z" style="vector-effect: non-scaling-stroke; opacity: 1; stroke-width: 0px; fill: rgb(144, 238, 144); fill-opacity: 0.75;"/></g><g class="point"><path d="M424.99,178.19V177.97H428.37V178.19Z" style="vector-effect: non-scaling-stroke; opacity: 1; stroke-width: 0px; fill: rgb(144, 238, 144); fill-opacity: 0.75;"/></g><g class="point"><path d="M428.37,178.19V192.63H431.74V178.19Z" style="vector-effect: non-scaling-stroke; opacity: 1; stroke-width: 0px; fill: rgb(255, 0, 0); fill-opacity: 0.75;"/></g><g class="point"><path d="M431.74,178.19V203.75H435.11V178.19Z" style="vector-effect: non-scaling-stroke; opacity: 1; stroke-width: 0px; fill: rgb(255, 0, 0); fill-opacity: 0.75;"/></g><g class="point"><path d="M435.11,178.19V217.4H438.49V178.19Z" style="vector-effect: non-scaling-stroke; opacity: 1; stroke-width: 0px; fill: rgb(255, 0, 0); fill-opacity: 0.75;"/></g><g class="point"><path d="M438.49,178.19V233.67H441.86V178.19Z" style="vector-effect: non-scaling-stroke; opacity: 1; stroke-width: 0px; fill: rgb(255, 0, 0); fill-opacity: 0.75;"/></g><g class="point"><path d="M441.86,178.19V230.13H445.23V178.19Z" style="vector-effect: non-scaling-stroke; opacity: 1; stroke-width: 0px; fill: rgb(240, 128, 128); fill-opacity: 0.75;"/></g><g class="point"><path d="M445.23,178.19V236.13H448.61V178.19Z" style="vector-effect: non-scaling-stroke; opacity: 1; stroke-width: 0px; fill: rgb(255, 0, 0); fill-opacity: 0.75;"/></g><g class="point"><path d="M448.61,178.19V239.62H451.98V178.19Z" style="vector-effect: non-scaling-stroke; opacity: 1; stroke-width: 0px; fill: rgb(255, 0, 0); fill-opacity: 0.75;"/></g><g class="point"><path d="M451.98,178.19V229.21H455.35V178.19Z" style="vector-effect: non-scaling-stroke; opacity: 1; stroke-width: 0px; fill: rgb(240, 128, 128); fill-opacity: 0.75;"/></g><g class="point"><path d="M455.35,178.19V218.21H458.72V178.19Z" style="vector-effect: non-scaling-stroke; opacity: 1; stroke-width: 0px; fill: rgb(240, 128, 128); fill-opacity: 0.75;"/></g><g class="point"><path d="M458.72,178.19V216.28H462.1V178.19Z" style="vector-effect: non-scaling-stroke; opacity: 1; stroke-width: 0px; fill: rgb(240, 128, 128); fill-opacity: 0.75;"/></g><g class="point"><path d="M462.1,178.19V220.57H465.47V178.19Z" style="vector-effect: non-scaling-stroke; opacity: 1; stroke-width: 0px; fill: rgb(255, 0, 0); fill-opacity: 0.75;"/></g><g class="point"><path d="M465.47,178.19V224.18H468.84V178.19Z" style="vector-effect: non-scaling-stroke; opacity: 1; stroke-width: 0px; fill: rgb(255, 0, 0); fill-opacity: 0.75;"/></g><g class="point"><path d="M468.84,178.19V223.48H472.22V178.19Z" style="vector-effect: non-scaling-stroke; opacity: 1; stroke-width: 0px; fill: rgb(240, 128, 128); fill-opacity: 0.75;"/></g><g class="point"><path d="M472.22,178.19V217.74H475.59V178.19Z" style="vector-effect: non-scaling-stroke; opacity: 1; stroke-width: 0px; fill: rgb(240, 128, 128); fill-opacity: 0.75;"/></g><g class="point"><path d="M475.59,178.19V215.4H478.96V178.19Z" style="vector-effect: non-scaling-stroke; opacity: 1; stroke-width: 0px; fill: rgb(240, 128, 128); fill-opacity: 0.75;"/></g><g class="point"><path d="M478.96,178.19V219.33H482.34V178.19Z" style="vector-effect: non-scaling-stroke; opacity: 1; stroke-width: 0px; fill: rgb(255, 0, 0); fill-opacity: 0.75;"/></g><g class="point"><path d="M482.34,178.19V222.28H485.71V178.19Z" style="vector-effect: non-scaling-stroke; opacity: 1; stroke-width: 0px; fill: rgb(255, 0, 0); fill-opacity: 0.75;"/></g><g class="point"><path d="M485.71,178.19V216.93H489.08V178.19Z" style="vector-effect: non-scaling-stroke; opacity: 1; stroke-width: 0px; fill: rgb(240, 128, 128); fill-opacity: 0.75;"/></g><g class="point"><path d="M489.08,178.19V214.46H492.45V178.19Z" style="vector-effect: non-scaling-stroke; opacity: 1; stroke-width: 0px; fill: rgb(240, 128, 128); fill-opacity: 0.75;"/></g><g class="point"><path d="M492.45,178.19V212.48H495.83V178.19Z" style="vector-effect: non-scaling-stroke; opacity: 1; stroke-width: 0px; fill: rgb(240, 128, 128); fill-opacity: 0.75;"/></g><g class="point"><path d="M495.83,178.19V209.21H499.2V178.19Z" style="vector-effect: non-scaling-stroke; opacity: 1; stroke-width: 0px; fill: rgb(240, 128, 128); fill-opacity: 0.75;"/></g><g class="point"><path d="M499.2,178.19V201.63H502.57V178.19Z" style="vector-effect: non-scaling-stroke; opacity: 1; stroke-width: 0px; fill: rgb(240, 128, 128); fill-opacity: 0.75;"/></g><g class="point"><path d="M502.57,178.19V202.59H505.95V178.19Z" style="vector-effect: non-scaling-stroke; opacity: 1; stroke-width: 0px; fill: rgb(255, 0, 0); fill-opacity: 0.75;"/></g><g class="point"><path d="M505.95,178.19V190.51H509.32V178.19Z" style="vector-effect: non-scaling-stroke; opacity: 1; stroke-width: 0px; fill: rgb(240, 128, 128); fill-opacity: 0.75;"/></g><g class="point"><path d="M509.32,178.19V178.07H512.69V178.19Z" style="vector-effect: non-scaling-stroke; opacity: 1; stroke-width: 0px; fill: rgb(0, 128, 0); fill-opacity: 0.75;"/></g><g class="point"><path d="M512.69,178.19V178.58H516.06V178.19Z" style="vector-effect: non-scaling-stroke; opacity: 1; stroke-width: 0px; fill: rgb(255, 0, 0); fill-opacity: 0.75;"/></g><g class="point"><path d="M516.06,178.19V177.02H519.44V178.19Z" style="vector-effect: non-scaling-stroke; opacity: 1; stroke-width: 0px; fill: rgb(0, 128, 0); fill-opacity: 0.75;"/></g><g class="point"><path d="M519.44,178.19V175.99H522.81V178.19Z" style="vector-effect: non-scaling-stroke; opacity: 1; stroke-width: 0px; fill: rgb(0, 128, 0); fill-opacity: 0.75;"/></g><g class="point"><path d="M522.81,178.19V172.97H526.18V178.19Z" style="vector-effect: non-scaling-stroke; opacity: 1; stroke-width: 0px; fill: rgb(0, 128, 0); fill-opacity: 0.75;"/></g><g class="point"><path d="M526.18,178.19V164.2H529.56V178.19Z" style="vector-effect: non-scaling-stroke; opacity: 1; stroke-width: 0px; fill: rgb(0, 128, 0); fill-opacity: 0.75;"/></g><g class="point"><path d="M529.56,178.19V151.16H532.93V178.19Z" style="vector-effect: non-scaling-stroke; opacity: 1; stroke-width: 0px; fill: rgb(0, 128, 0); fill-opacity: 0.75;"/></g><g class="point"><path d="M532.93,178.19V138.06H536.3V178.19Z" style="vector-effect: non-scaling-stroke; opacity: 1; stroke-width: 0px; fill: rgb(0, 128, 0); fill-opacity: 0.75;"/></g><g class="point"><path d="M536.3,178.19V131.85H539.68V178.19Z" style="vector-effect: non-scaling-stroke; opacity: 1; stroke-width: 0px; fill: rgb(0, 128, 0); fill-opacity: 0.75;"/></g><g class="point"><path d="M539.68,178.19V122.06H543.05V178.19Z" style="vector-effect: non-scaling-stroke; opacity: 1; stroke-width: 0px; fill: rgb(0, 128, 0); fill-opacity: 0.75;"/></g><g class="point"><path d="M543.05,178.19V112.94H546.42V178.19Z" style="vector-effect: non-scaling-stroke; opacity: 1; stroke-width: 0px; fill: rgb(0, 128, 0); fill-opacity: 0.75;"/></g><g class="point"><path d="M546.42,178.19V111.57H549.79V178.19Z" style="vector-effect: non-scaling-stroke; opacity: 1; stroke-width: 0px; fill: rgb(0, 128, 0); fill-opacity: 0.75;"/></g><g class="point"><path d="M549.79,178.19V111.36H553.17V178.19Z" style="vector-effect: non-scaling-stroke; opacity: 1; stroke-width: 0px; fill: rgb(0, 128, 0); fill-opacity: 0.75;"/></g><g class="point"><path d="M553.17,178.19V117.86H556.54V178.19Z" style="vector-effect: non-scaling-stroke; opacity: 1; stroke-width: 0px; fill: rgb(144, 238, 144); fill-opacity: 0.75;"/></g><g class="point"><path d="M556.54,178.19V127.92H559.91V178.19Z" style="vector-effect: non-scaling-stroke; opacity: 1; stroke-width: 0px; fill: rgb(144, 238, 144); fill-opacity: 0.75;"/></g><g class="point"><path d="M559.91,178.19V137.7H563.29V178.19Z" style="vector-effect: non-scaling-stroke; opacity: 1; stroke-width: 0px; fill: rgb(144, 238, 144); fill-opacity: 0.75;"/></g><g class="point"><path d="M563.29,178.19V150.91H566.66V178.19Z" style="vector-effect: non-scaling-stroke; opacity: 1; stroke-width: 0px; fill: rgb(144, 238, 144); fill-opacity: 0.75;"/></g><g class="point"><path d="M566.66,178.19V162.76H570.03V178.19Z" style="vector-effect: non-scaling-stroke; opacity: 1; stroke-width: 0px; fill: rgb(144, 238, 144); fill-opacity: 0.75;"/></g><g class="point"><path d="M570.03,178.19V173.81H573.41V178.19Z" style="vector-effect: non-scaling-stroke; opacity: 1; stroke-width: 0px; fill: rgb(144, 238, 144); fill-opacity: 0.75;"/></g><g class="point"><path d="M573.41,178.19V190.56H576.78V178.19Z" style="vector-effect: non-scaling-stroke; opacity: 1; stroke-width: 0px; fill: rgb(255, 0, 0); fill-opacity: 0.75;"/></g><g class="point"><path d="M576.78,178.19V202.6H580.15V178.19Z" style="vector-effect: non-scaling-stroke; opacity: 1; stroke-width: 0px; fill: rgb(255, 0, 0); fill-opacity: 0.75;"/></g><g class="point"><path d="M580.15,178.19V213.21H583.52V178.19Z" style="vector-effect: non-scaling-stroke; opacity: 1; stroke-width: 0px; fill: rgb(255, 0, 0); fill-opacity: 0.75;"/></g><g class="point"><path d="M583.52,178.19V221.73H586.9V178.19Z" style="vector-effect: non-scaling-stroke; opacity: 1; stroke-width: 0px; fill: rgb(255, 0, 0); fill-opacity: 0.75;"/></g><g class="point"><path d="M586.9,178.19V230.15H590.27V178.19Z" style="vector-effect: non-scaling-stroke; opacity: 1; stroke-width: 0px; fill: rgb(255, 0, 0); fill-opacity: 0.75;"/></g><g class="point"><path d="M590.27,178.19V233.58H593.64V178.19Z" style="vector-effect: non-scaling-stroke; opacity: 1; stroke-width: 0px; fill: rgb(255, 0, 0); fill-opacity: 0.75;"/></g><g class="point"><path d="M593.64,178.19V235.57H597.02V178.19Z" style="vector-effect: non-scaling-stroke; opacity: 1; stroke-width: 0px; fill: rgb(255, 0, 0); fill-opacity: 0.75;"/></g><g class="point"><path d="M597.02,178.19V236.38H600.39V178.19Z" style="vector-effect: non-scaling-stroke; opacity: 1; stroke-width: 0px; fill: rgb(255, 0, 0); fill-opacity: 0.75;"/></g><g class="point"><path d="M600.39,178.19V231.86H603.76V178.19Z" style="vector-effect: non-scaling-stroke; opacity: 1; stroke-width: 0px; fill: rgb(240, 128, 128); fill-opacity: 0.75;"/></g><g class="point"><path d="M603.76,178.19V218.04H607.14V178.19Z" style="vector-effect: non-scaling-stroke; opacity: 1; stroke-width: 0px; fill: rgb(240, 128, 128); fill-opacity: 0.75;"/></g><g class="point"><path d="M607.14,178.19V207.56H610.51V178.19Z" style="vector-effect: non-scaling-stroke; opacity: 1; stroke-width: 0px; fill: rgb(240, 128, 128); fill-opacity: 0.75;"/></g><g class="point"><path d="M610.51,178.19V200.64H613.88V178.19Z" style="vector-effect: non-scaling-stroke; opacity: 1; stroke-width: 0px; fill: rgb(240, 128, 128); fill-opacity: 0.75;"/></g><g class="point"><path d="M613.88,178.19V193.84H617.25V178.19Z" style="vector-effect: non-scaling-stroke; opacity: 1; stroke-width: 0px; fill: rgb(240, 128, 128); fill-opacity: 0.75;"/></g><g class="point"><path d="M617.25,178.19V188.81H620.63V178.19Z" style="vector-effect: non-scaling-stroke; opacity: 1; stroke-width: 0px; fill: rgb(240, 128, 128); fill-opacity: 0.75;"/></g><g class="point"><path d="M620.63,178.19V186.62H624V178.19Z" style="vector-effect: non-scaling-stroke; opacity: 1; stroke-width: 0px; fill: rgb(240, 128, 128); fill-opacity: 0.75;"/></g></g></g></g><g class="scatterlayer mlayer"><g class="trace scatter tracee39b8b16-203e-4d19-b8bd-05027b6f096d" style="stroke-miterlimit: 2; opacity: 1;"><g class="fills"/><g class="errorbars"/><g class="lines"><path class="js-line" d="M86.01,170.35L96.13,170.84L99.5,171.24L109.62,173.04L112.99,169.29L123.11,156.15L126.49,150.91L139.98,129.29L143.35,124.74L150.1,115.99L153.47,118.02L156.84,121.35L160.22,123.62L166.96,130.09L170.34,134.62L180.45,149.7L183.83,151.43L187.2,153.8L190.57,157.48L197.32,164.38L200.69,165.66L210.81,168.88L214.18,169.24L220.93,165.77L224.3,166.23L227.68,165.42L231.05,162.94L234.42,160.24L237.79,156.43L241.17,151.46L244.54,142.43L247.91,134.8L251.29,123.37L258.03,101.58L261.41,93.41L268.15,81.57L271.52,70.82L274.9,63.04L278.27,58.22L281.64,56.42L285.02,61.35L288.39,63.51L291.76,73.34L301.88,96.35L305.25,96.52L308.63,97.45L312,105.88L318.75,117.78L322.12,122.42L328.86,138.34L332.24,143.14L338.98,162.11L342.36,170.4L345.73,175.65L349.1,179.48L355.85,194.12L359.22,196.71L362.59,194.55L365.97,187.01L379.46,159.35L382.83,142.82L396.32,72.99L399.7,51.86L403.07,41.29L406.44,25.28L409.82,16.83L413.19,14.04L416.56,13.7L419.94,14.64L423.31,14.56L426.68,23.78L433.43,48.7L436.8,66.99L440.17,91.55L443.55,97.26L450.29,130.87L453.66,133.69L457.04,135.06L460.41,145.17L467.16,178L470.53,188.02L473.9,192.91L477.28,200.08L484.02,226.41L487.39,231.8L494.14,247.36L497.51,252.34L500.89,251.86L504.26,260.3L507.63,254.24L511.01,245.38L514.38,248.33L517.75,248.63L521.12,248.58L524.5,245.33L527.87,234.59L531.24,217.76L534.62,197.71L537.99,183.65L548.11,129.64L551.48,114.55L554.85,105.51L558.23,100.69L561.6,97.06L564.97,99.34L568.35,102.13L571.72,106.71L585.21,162.45L588.58,179.64L598.7,222L602.08,231.32L605.45,229.58L608.82,229.83L612.19,232.32L615.57,233.4L618.94,234.46L622.31,237.08" style="vector-effect: non-scaling-stroke; fill: none; stroke: rgb(31, 119, 180); stroke-opacity: 1; stroke-width: 2px; opacity: 1;"/></g><g class="points"/><g class="text"/></g><g class="trace scatter trace2112f951-672f-4593-86b8-e9949b7a8f59" style="stroke-miterlimit: 2; opacity: 1;"><g class="fills"/><g class="errorbars"/><g class="lines"><path class="js-line" d="M112.99,171.1L119.74,169.47L123.11,167.91L129.86,162.8L133.23,159.23L139.98,150.17L143.35,145.22L153.47,131L156.84,127.71L160.22,125.32L163.59,123.88L166.96,123.35L170.34,123.94L173.71,125.65L177.08,128.38L204.06,157.29L207.44,159.89L217.56,165.52L220.93,166.44L227.68,167.08L231.05,166.78L237.79,164.73L241.17,162.8L247.91,156.19L251.29,151.48L258.03,138.34L261.41,130.61L274.9,96.45L278.27,87.95L281.64,80.51L285.02,74.9L288.39,70.67L291.76,68.44L295.14,67.73L298.51,68.7L305.25,75.26L308.63,79.62L335.61,124.64L338.98,131.82L359.22,173.57L362.59,179.28L365.97,182.99L369.34,184.99L372.71,185.35L376.09,184.46L379.46,182.22L382.83,177.32L386.21,169.73L389.58,159.85L396.32,135.7L399.7,121.45L416.56,48.33L419.94,37.98L423.31,29.46L426.68,24L430.05,22.32L433.43,23.14L436.8,27.78L440.17,36.08L446.92,56.52L450.29,69.43L463.78,119.68L467.16,132.01L477.28,162.87L480.65,172.02L494.14,213.07L497.51,221.32L507.63,241.92L511.01,245.5L517.75,249.81L521.12,250.78L524.5,250.55L527.87,248.58L531.24,244.79L534.62,237.84L541.36,221.05L544.74,209.49L551.48,181.37L554.85,165.84L561.6,137.55L564.97,126.62L568.35,117.56L571.72,111.1L575.09,108.5L578.46,108.91L581.84,112.58L585.21,118.91L591.96,138.43L595.33,150.49L605.45,189.73L608.82,200.46L615.57,217.75L618.94,223.84L622.31,228.65" style="vector-effect: non-scaling-stroke; fill: none; stroke: rgb(255, 127, 14); stroke-opacity: 1; stroke-width: 2px; opacity: 1;"/></g><g class="points"/><g class="text"/></g></g></g><g class="overplot"/><path class="xlines-above crisp" d="M0,0" style="fill: none;"/><path class="ylines-above crisp" d="M0,0" style="fill: none;"/><g class="overlines-above"/><g class="xaxislayer-above"><g class="xtick"><text text-anchor="middle" x="0" y="333" transform="translate(51.06,0)" style="font-family: 'Open Sans', verdana, arial, sans-serif; font-size: 12px; fill: rgb(42, 63, 95); fill-opacity: 1; white-space: pre;">Mar 2019</text></g><g class="xtick"><text text-anchor="middle" x="0" y="333" transform="translate(155.62,0)" style="font-family: 'Open Sans', verdana, arial, sans-serif; font-size: 12px; fill: rgb(42, 63, 95); fill-opacity: 1; white-space: pre;">Apr 2019</text></g><g class="xtick"><text text-anchor="middle" x="0" y="333" transform="translate(256.81,0)" style="font-family: 'Open Sans', verdana, arial, sans-serif; font-size: 12px; fill: rgb(42, 63, 95); fill-opacity: 1; white-space: pre;">May 2019</text></g><g class="xtick"><text text-anchor="middle" x="0" y="333" transform="translate(361.37,0)" style="font-family: 'Open Sans', verdana, arial, sans-serif; font-size: 12px; fill: rgb(42, 63, 95); fill-opacity: 1; white-space: pre;">Jun 2019</text></g><g class="xtick"><text text-anchor="middle" x="0" y="333" transform="translate(462.56,0)" style="font-family: 'Open Sans', verdana, arial, sans-serif; font-size: 12px; fill: rgb(42, 63, 95); fill-opacity: 1; white-space: pre;">Jul 2019</text></g><g class="xtick"><text text-anchor="middle" x="0" y="333" transform="translate(567.12,0)" style="font-family: 'Open Sans', verdana, arial, sans-serif; font-size: 12px; fill: rgb(42, 63, 95); fill-opacity: 1; white-space: pre;">Aug 2019</text></g></g><g class="yaxislayer-above"><g class="ytick"><text text-anchor="end" x="45" y="4.199999999999999" transform="translate(0,280)" style="font-family: 'Open Sans', verdana, arial, sans-serif; font-size: 12px; fill: rgb(42, 63, 95); fill-opacity: 1; white-space: pre;">−500</text></g><g class="ytick"><text text-anchor="end" x="45" y="4.199999999999999" transform="translate(0,224.19)" style="font-family: 'Open Sans', verdana, arial, sans-serif; font-size: 12px; fill: rgb(42, 63, 95); fill-opacity: 1; white-space: pre;">0</text></g><g class="ytick"><text text-anchor="end" x="45" y="4.199999999999999" transform="translate(0,168.38)" style="font-family: 'Open Sans', verdana, arial, sans-serif; font-size: 12px; fill: rgb(42, 63, 95); fill-opacity: 1; white-space: pre;">500</text></g><g class="ytick"><text text-anchor="end" x="45" y="4.199999999999999" transform="translate(0,112.57)" style="font-family: 'Open Sans', verdana, arial, sans-serif; font-size: 12px; fill: rgb(42, 63, 95); fill-opacity: 1; white-space: pre;">1000</text></g><g class="ytick"><text text-anchor="end" x="45" y="4.199999999999999" transform="translate(0,56.76)" style="font-family: 'Open Sans', verdana, arial, sans-serif; font-size: 12px; fill: rgb(42, 63, 95); fill-opacity: 1; white-space: pre;">1500</text></g></g><g class="overaxes-above"/></g></g><g class="polarlayer"/><g class="ternarylayer"/><g class="geolayer"/><g class="funnelarealayer"/><g class="pielayer"/><g class="treemaplayer"/><g class="sunburstlayer"/><g class="glimages"/><defs id="topdefs-8d94ec"><g class="clips"/><clipPath id="legend8d94ec"><rect width="271" height="29" x="0" y="0"/></clipPath></defs><g class="layer-above"><g class="imagelayer"/><g class="shapelayer"/></g><g class="infolayer"><g class="legend" pointer-events="all" transform="translate(399, 11.519999999999996)"><rect class="bg" shape-rendering="crispEdges" style="stroke: rgb(68, 68, 68); stroke-opacity: 1; fill: rgb(255, 255, 255); fill-opacity: 1; stroke-width: 0px;" width="271" height="29" x="0" y="0"/><g class="scrollbox" transform="translate(0, 0)" clip-path="url('#legend8d94ec')"><g class="groups"><g class="traces" transform="translate(0, 14.5)" style="opacity: 1;"><text class="legendtext" text-anchor="start" x="40" y="4.680000000000001" style="font-family: 'Open Sans', verdana, arial, sans-serif; font-size: 12px; fill: rgb(42, 63, 95); fill-opacity: 1; white-space: pre;">MACD</text><g class="layers" style="opacity: 1;"><g class="legendfill"/><g class="legendlines"><path class="js-line" d="M5,0h30" style="fill: none; stroke: rgb(31, 119, 180); stroke-opacity: 1; stroke-width: 2px;"/></g><g class="legendsymbols"><g class="legendpoints"/></g></g><rect class="legendtoggle" x="0" y="-9.5" width="78.453125" height="19" style="fill: rgb(0, 0, 0); fill-opacity: 0;"/></g><g class="traces" transform="translate(80.953125, 14.5)" style="opacity: 1;"><text class="legendtext" text-anchor="start" x="40" y="4.680000000000001" style="font-family: 'Open Sans', verdana, arial, sans-serif; font-size: 12px; fill: rgb(42, 63, 95); fill-opacity: 1; white-space: pre;">Signal</text><g class="layers" style="opacity: 1;"><g class="legendfill"/><g class="legendlines"><path class="js-line" d="M5,0h30" style="fill: none; stroke: rgb(255, 127, 14); stroke-opacity: 1; stroke-width: 2px;"/></g><g class="legendsymbols"><g class="legendpoints"/></g></g><rect class="legendtoggle" x="0" y="-9.5" width="79.578125" height="19" style="fill: rgb(0, 0, 0); fill-opacity: 0;"/></g><g class="traces" transform="translate(163.03125, 14.5)" style="opacity: 1;"><text class="legendtext" text-anchor="start" x="40" y="4.680000000000001" style="font-family: 'Open Sans', verdana, arial, sans-serif; font-size: 12px; fill: rgb(42, 63, 95); fill-opacity: 1; white-space: pre;">Histogram</text><g class="layers" style="opacity: 1;"><g class="legendfill"/><g class="legendlines"/><g class="legendsymbols"><g class="legendpoints"><path class="legendundefined" d="M6,6H-6V-6H6Z" transform="translate(20,0)" style="stroke-width: 0px; fill: rgb(192, 192, 192); fill-opacity: 0.75;"/></g></g></g><rect class="legendtoggle" x="0" y="-9.5" width="104.5625" height="19" style="fill: rgb(0, 0, 0); fill-opacity: 0;"/></g></g></g><rect class="scrollbar" rx="20" ry="3" width="0" height="0" style="fill: rgb(128, 139, 164); fill-opacity: 1;" x="0" y="0"/></g><g class="g-gtitle"/><g class="g-xtitle"/><g class="g-ytitle"/></g></svg>