<svg class="main-svg" xmlns="http://www.w3.org/2000/svg" xmlns:xlink="http://www.w3.org/1999/xlink" width="700" height="350" style="" viewBox="0 0 700 350"><rect x="0" y="0" width="700" height="350" style="fill: rgb(255, 255, 255); fill-opacity: 1;"/><defs id="defs-8e0a6f"><g class="clips"><clipPath id="clip8e0a6fxyplot" class="plotclip"><rect width="633" height="274"/></clipPath><clipPath class="axesclip" id="clip8e0a6fx"><rect x="37" y="0" width="633" height="350"/></clipPath><clipPath class="axesclip" id="clip8e0a6fy"><rect x="0" y="46" width="700" height="274"/></clipPath><clipPath class="axesclip" id="clip8e0a6fxy"><rect x="37" y="46" width="633" height="274"/></clipPath></g><g class="gradients"/></defs><g class="bglayer"><rect class="bg" x="37" y="46" width="633" height="274" style="fill: rgb(229, 236, 246); fill-opacity: 1; stroke-width: 0;"/></g><g class="layer-below"><g class="imagelayer"/><g class="shapelayer"/></g><g class="cartesianlayer"><g class="subplot xy"><g class="layer-subplot"><g class="shapelayer"/><g class="imagelayer"/></g><g class="gridlayer"><g class="x"><path class="xgrid crisp" transform="translate(40.44,0)" d="M0,46v274" style="stroke: rgb(255, 255, 255); stroke-opacity: 1; stroke-width: 1px;"/><path class="xgrid crisp" transform="translate(147.09,0)" d="M0,46v274" style="stroke: rgb(255, 255, 255); stroke-opacity: 1; stroke-width: 1px;"/><path class="xgrid crisp" transform="translate(250.29,0)" d="M0,46v274" style="stroke: rgb(255, 255, 255); stroke-opacity: 1; stroke-width: 1px;"/><path class="xgrid crisp" transform="translate(356.94,0)" d="M0,46v274" style="stroke: rgb(255, 255, 255); stroke-opacity: 1; stroke-width: 1px;"/><path class="xgrid crisp" transform="translate(460.15,0)" d="M0,46v274" style="stroke: rgb(255, 255, 255); stroke-opacity: 1; stroke-width: 1px;"/><path class="xgrid crisp" transform="translate(566.79,0)" d="M0,46v274" style="stroke: rgb(255, 255, 255); stroke-opacity: 1; stroke-width: 1px;"/></g><g class="y"><path class="ygrid crisp" transform="translate(0,291.99)" d="M37,0h633" style="stroke: rgb(255, 255, 255); stroke-opacity: 1; stroke-width: 1px;"/><path class="ygrid crisp" transform="translate(0,240.64)" d="M37,0h633" style="stroke: rgb(255, 255, 255); stroke-opacity: 1; stroke-width: 1px;"/><path class="ygrid crisp" transform="translate(0,189.28)" d="M37,0h633" style="stroke: rgb(255, 255, 255); stroke-opacity: 1; stroke-width: 1px;"/><path class="ygrid crisp" transform="translate(0,137.93)" d="M37,0h633" style="stroke: rgb(255, 255, 255); stroke-opacity: 1; stroke-width: 1px;"/><path class="ygrid crisp" transform="translate(0,86.58)" d="M37,0h633" style="stroke: rgb(255, 255, 255); stroke-opacity: 1; stroke-width: 1px;"/></g></g><g class="zerolinelayer"/><path class="xlines-below"/><path class="ylines-below"/><g class="overlines-below"/><g class="xaxislayer-below"/><g class="yaxislayer-below"/><g class="overaxes-below"/><g class="plot" transform="translate(37, 46)" clip-path="url('#clip8e0a6fxyplot')"><g class="scatterlayer mlayer"><g class="trace scatter trace741f2fde-25ad-4567-a74b-f764e090e3c3" style="stroke-miterlimit: 2;"><g class="fills"><g><path class="js-fill" d="M65.36,244.1L72.24,243.25L75.68,243.07L86.01,243.36L89.45,243.38L110.09,241.8L113.53,234.01L116.97,228.7L120.41,225.09L134.17,210.8L137.61,208.13L141.05,205.3L144.49,204.01L154.81,201.4L158.25,201.44L165.13,201.12L168.57,201.51L172.01,202.6L175.45,204.79L178.89,209.25L182.33,208.87L185.77,207.27L189.21,206.87L206.41,207.05L209.85,206.97L216.73,206.24L220.17,203.96L223.61,201.59L227.05,200.22L233.93,197.64L237.38,195.49L244.26,188.46L247.7,178.46L251.14,172.77L254.58,161.81L261.46,142.54L264.9,136.66L271.78,132.42L275.22,127.37L282.1,121.91L285.54,121.2L292.42,118.64L295.86,118.11L302.74,114.58L306.18,114.41L309.62,115.22L313.06,117.98L316.5,117.11L319.94,117.93L323.38,116.05L326.82,115.87L333.7,115.86L337.14,116.89L340.58,118.62L344.02,118.7L350.9,118.36L354.34,118.7L361.22,118.62L364.66,117.24L371.54,115.48L374.98,112.09L378.42,110.27L381.86,106.88L385.3,102.77L388.74,95.03L402.51,53.74L405.95,34.99L409.39,29.99L412.83,20.04L416.27,14.74L419.71,14.1L426.59,15.8L430.03,13.7L433.47,13.96L436.91,15.15L443.79,16.56L447.23,15.92L450.67,14.77L454.11,16.04L457.55,17.66L460.99,17.44L464.43,17.72L467.87,15.96L471.31,16.47L474.75,18.78L478.19,16.54L481.63,20.5L485.07,22.81L488.51,22.83L495.39,22.66L498.83,24.66L509.15,25.25L512.59,26.27L516.03,32.07L519.47,41.34L522.91,49.45L526.35,53.44L529.79,61.03L533.23,65.95L536.67,63.9L540.11,63.48L543.55,55.43L546.99,50.9L553.88,38.91L557.32,34.71L567.64,28.23L571.08,27.99L577.96,28.46L581.4,29.74L588.28,32.66L591.72,34.31L595.16,34.98L598.6,34.53L605.48,33.99L608.92,33.92L615.8,38.77L619.24,43.49L626.12,53.71L629.56,56.6L633,61.7L633,108.56L629.56,108.8L626.12,107.18L619.24,105.68L615.8,105.89L598.6,98.87L595.16,97.75L591.72,100.16L588.28,105.17L581.4,111.95L577.96,115.54L574.52,117L571.08,117.49L567.64,120.04L564.2,122L560.76,122.34L557.32,122.33L550.43,118.82L546.99,115.91L543.55,115.97L540.11,113.9L536.67,113.67L533.23,113.07L529.79,115.75L526.35,119.7L516.03,123.41L512.59,122.2L495.39,105.68L491.95,104.32L488.51,104.37L485.07,104.25L481.63,102.9L478.19,102.38L474.75,96.32L471.31,89.54L467.87,87.76L464.43,84.06L460.99,85.72L457.55,88.36L454.11,93.09L450.67,101.12L436.91,128.59L433.47,135.28L423.15,157.08L419.71,164.83L412.83,177.09L409.39,178.57L405.95,181.63L402.51,176.22L399.07,174L395.63,173.71L392.18,170.61L388.74,165.42L385.3,161.74L381.86,160.07L374.98,158.4L371.54,156.55L364.66,155.7L361.22,155.97L350.9,158.17L347.46,158.27L344.02,157.18L340.58,156.63L337.14,160.34L333.7,162.6L330.26,162.42L326.82,161.16L323.38,161.53L319.94,162.03L316.5,166.94L313.06,169.59L306.18,184.52L302.74,191.38L292.42,208.27L288.98,212.6L282.1,221.54L278.66,225.81L268.34,235.31L264.9,238.12L261.46,238.93L258.02,237.3L254.58,233.85L251.14,228.64L247.7,226.99L244.26,221.85L240.82,220.56L237.38,219.73L227.05,219.55L223.61,220.04L220.17,219.39L216.73,218.82L213.29,219.31L209.85,220.03L199.53,220.11L196.09,220.23L185.77,222.48L182.33,222.42L178.89,223.37L175.45,230.79L172.01,236.15L168.57,240.32L154.81,252.27L151.37,254.74L141.05,259.6L137.61,260.09L130.73,259.8L127.29,259.17L120.41,257.32L116.97,256.18L113.53,253.57L110.09,248.28L86.01,249.7L82.57,249.91L79.13,250.97L75.68,251.32L65.36,251.73Z" style="fill: rgb(128, 128, 128); fill-opacity: 0.2; stroke-width: 0;"/></g></g><g class="errorbars"/><g class="lines"><path class="js-line" d="M65.36,251.73L75.68,251.32L79.13,250.97L82.57,249.91L86.01,249.7L110.09,248.28L113.53,253.57L116.97,256.18L120.41,257.32L127.29,259.17L130.73,259.8L137.61,260.09L141.05,259.6L151.37,254.74L154.81,252.27L168.57,240.32L172.01,236.15L175.45,230.79L178.89,223.37L182.33,222.42L185.77,222.48L196.09,220.23L199.53,220.11L209.85,220.03L213.29,219.31L216.73,218.82L220.17,219.39L223.61,220.04L227.05,219.55L237.38,219.73L240.82,220.56L244.26,221.85L247.7,226.99L251.14,228.64L254.58,233.85L258.02,237.3L261.46,238.93L264.9,238.12L268.34,235.31L278.66,225.81L282.1,221.54L288.98,212.6L292.42,208.27L302.74,191.38L306.18,184.52L313.06,169.59L316.5,166.94L319.94,162.03L323.38,161.53L326.82,161.16L330.26,162.42L333.7,162.6L337.14,160.34L340.58,156.63L344.02,157.18L347.46,158.27L350.9,158.17L361.22,155.97L364.66,155.7L371.54,156.55L374.98,158.4L381.86,160.07L385.3,161.74L388.74,165.42L392.18,170.61L395.63,173.71L399.07,174L402.51,176.22L405.95,181.63L409.39,178.57L412.83,177.09L419.71,164.83L423.15,157.08L433.47,135.28L436.91,128.59L450.67,101.12L454.11,93.09L457.55,88.36L460.99,85.72L464.43,84.06L467.87,87.76L471.31,89.54L474.75,96.32L478.19,102.38L481.63,102.9L485.07,104.25L488.51,104.37L491.95,104.32L495.39,105.68L512.59,122.2L516.03,123.41L526.35,119.7L529.79,115.75L533.23,113.07L536.67,113.67L540.11,113.9L543.55,115.97L546.99,115.91L550.43,118.82L557.32,122.33L560.76,122.34L564.2,122L567.64,120.04L571.08,117.49L574.52,117L577.96,115.54L581.4,111.95L588.28,105.17L591.72,100.16L595.16,97.75L598.6,98.87L615.8,105.89L619.24,105.68L626.12,107.18L629.56,108.8L633,108.56" style="vector-effect: non-scaling-stroke; fill: none; stroke: rgb(127, 127, 127); stroke-opacity: 0.75; stroke-width: 2px; opacity: 1;"/></g><g class="points"/><g class="text"/></g><g class="trace scatter tracefa92ac2f-3757-4553-8f38-96a08e3c8a95" style="stroke-miterlimit: 2;"><g class="fills"/><g class="errorbars"/><g class="lines"><path class="js-line" d="M65.36,244.1L72.24,243.25L75.68,243.07L86.01,243.36L89.45,243.38L110.09,241.8L113.53,234.01L116.97,228.7L120.41,225.09L134.17,210.8L137.61,208.13L141.05,205.3L144.49,204.01L154.81,201.4L158.25,201.44L165.13,201.12L168.57,201.51L172.01,202.6L175.45,204.79L178.89,209.25L182.33,208.87L185.77,207.27L189.21,206.87L206.41,207.05L209.85,206.97L216.73,206.24L220.17,203.96L223.61,201.59L227.05,200.22L233.93,197.64L237.38,195.49L244.26,188.46L247.7,178.46L251.14,172.77L254.58,161.81L261.46,142.54L264.9,136.66L271.78,132.42L275.22,127.37L282.1,121.91L285.54,121.2L292.42,118.64L295.86,118.11L302.74,114.58L306.18,114.41L309.62,115.22L313.06,117.98L316.5,117.11L319.94,117.93L323.38,116.05L326.82,115.87L333.7,115.86L337.14,116.89L340.58,118.62L344.02,118.7L350.9,118.36L354.34,118.7L361.22,118.62L364.66,117.24L371.54,115.48L374.98,112.09L378.42,110.27L381.86,106.88L385.3,102.77L388.74,95.03L402.51,53.74L405.95,34.99L409.39,29.99L412.83,20.04L416.27,14.74L419.71,14.1L426.59,15.8L430.03,13.7L433.47,13.96L436.91,15.15L443.79,16.56L447.23,15.92L450.67,14.77L454.11,16.04L457.55,17.66L460.99,17.44L464.43,17.72L467.87,15.96L471.31,16.47L474.75,18.78L478.19,16.54L481.63,20.5L485.07,22.81L488.51,22.83L495.39,22.66L498.83,24.66L509.15,25.25L512.59,26.27L516.03,32.07L519.47,41.34L522.91,49.45L526.35,53.44L529.79,61.03L533.23,65.95L536.67,63.9L540.11,63.48L543.55,55.43L546.99,50.9L553.88,38.91L557.32,34.71L567.64,28.23L571.08,27.99L577.96,28.46L581.4,29.74L588.28,32.66L591.72,34.31L595.16,34.98L598.6,34.53L605.48,33.99L608.92,33.92L615.8,38.77L619.24,43.49L626.12,53.71L629.56,56.6L633,61.7" style="vector-effect: non-scaling-stroke; fill: none; stroke: rgb(127, 127, 127); stroke-opacity: 0.75; stroke-width: 2px; opacity: 1;"/></g><g class="points"/><g class="text"/></g><g class="trace scatter tracef07f3413-3824-4b3e-903e-e44bbda1f027" style="stroke-miterlimit: 2; opacity: 1;"><g class="fills"/><g class="errorbars"/><g class="lines"><path class="js-line" d="M65.36,247.92L92.89,246.2L96.33,245.99L110.09,245.04L113.53,243.79L151.37,228.38L154.81,226.84L182.33,215.64L185.77,214.87L192.65,213.95L196.09,213.67L213.29,213.07L216.73,212.53L244.26,205.15L247.7,202.73L254.58,197.83L258.02,194.58L264.9,187.39L268.34,184.73L271.78,182.18L275.22,178.39L285.54,168.94L288.98,166.22L295.86,160.56L299.3,156.8L309.62,146.27L313.06,143.78L323.38,138.79L326.82,138.51L333.7,139.23L337.14,138.62L340.58,137.63L344.02,137.94L350.9,138.26L354.34,137.94L374.98,135.24L378.42,134.7L385.3,132.25L388.74,130.23L395.63,124.31L399.07,120.07L402.51,114.98L405.95,108.31L409.39,104.28L412.83,98.57L416.27,93.08L419.71,89.47L426.59,82.65L430.03,77.86L440.35,69.03L443.79,66.29L454.11,54.57L457.55,53.01L464.43,50.89L467.87,51.86L471.31,53.01L474.75,57.55L485.07,63.53L488.51,63.6L495.39,64.17L498.83,66.81L512.59,74.23L516.03,77.74L522.91,84.94L526.35,86.57L533.23,89.51L536.67,88.79L540.11,88.69L543.55,85.7L550.43,81.77L553.88,79.93L571.08,72.74L574.52,72.56L581.4,70.85L584.84,69.97L595.16,66.36L598.6,66.7L608.92,68.77L612.36,70.91L615.8,72.33L619.24,74.58L629.56,82.7L633,85.13" style="vector-effect: non-scaling-stroke; fill: none; stroke: rgb(44, 160, 44); stroke-opacity: 1; stroke-width: 2px; opacity: 1;"/></g><g class="points"/><g class="text"/></g><g class="trace scatter trace01221f9e-6a31-4678-964f-614dfae744c2" style="stroke-miterlimit: 2; opacity: 1;"><g class="fills"/><g class="errorbars"/><g class="lines"><path class="js-line" d="M0,249.72L10.32,249.91L13.76,252.11L17.2,248.65L20.64,248.46L27.52,248.53L30.96,246.93L34.4,247.23L37.84,248.42L48.16,247.93L51.6,246.99L55.04,244.74L58.48,245.34L61.92,245.15L65.36,244.16L68.8,243.74L72.24,245.24L82.57,245.42L86.01,246.94L89.45,246.37L92.89,243.75L96.33,244.21L99.77,243.46L106.65,243.28L110.09,241.93L113.53,223.4L116.97,221.01L120.41,222.29L123.85,219.37L127.29,218.78L130.73,215.21L134.17,212.87L137.61,215.05L141.05,211.98L144.49,218.66L151.37,217.83L154.81,216.01L158.25,218.59L161.69,214.26L165.13,213.84L168.57,212.65L178.89,212.24L182.33,210.06L185.77,205.62L189.21,208.38L192.65,214.91L196.09,213.14L206.41,213.96L209.85,211.31L213.29,209.97L216.73,207.34L220.17,200.59L223.61,198.97L230.49,201.14L233.93,199.01L240.82,190.16L244.26,184.91L247.7,163.7L251.14,169.67L254.58,148.04L258.02,143.43L261.46,138.02L264.9,146.24L268.34,160.13L271.78,162L275.22,138.21L278.66,143.84L282.1,144.23L285.54,151.5L288.98,146.32L292.42,143.61L295.86,141.93L299.3,126L302.74,122.59L306.18,124.8L309.62,126.35L313.06,135.08L316.5,128.53L319.94,128.8L323.38,124.21L326.82,137.92L330.26,150.79L333.7,147.8L337.14,147.85L340.58,142.16L344.02,144.46L347.46,151.29L350.9,143.28L354.34,145.14L357.78,139.54L361.22,137.35L364.66,125.47L368.1,121.76L371.54,117.75L374.98,109.38L378.42,115.51L381.86,110.58L385.3,104.07L388.74,88.22L392.18,73.91L395.63,69.97L399.07,65.97L402.51,45.95L405.95,14.48L409.39,61.56L412.83,30.12L416.27,41.62L419.71,70.95L423.15,76.96L426.59,71.35L430.03,41.57L433.47,60.72L436.91,66.81L443.79,54.68L447.23,33.24L450.67,25.84L454.11,36.56L457.55,57.05L460.99,45.3L464.43,56.18L467.87,85.36L471.31,68.95L474.75,105.34L478.19,99.79L481.63,74.82L485.07,78.3L488.51,72.23L491.95,76.55L495.39,83.12L498.83,94.48L502.27,96.76L505.71,94.19L509.15,95.26L512.59,105.34L516.03,103.41L519.47,104.28L522.91,102.01L526.35,89.73L529.79,81.67L533.23,78.63L536.67,70.83L540.11,67.02L543.55,45.57L546.99,53.98L550.43,42.07L553.88,41.44L557.32,44.1L560.76,57.16L564.2,52.81L567.64,56.43L571.08,68.93L574.52,90.6L577.96,83.93L581.4,82.32L584.84,85.98L588.28,83.05L591.72,68.41L595.16,72.33L598.6,88.39L602.04,88.57L605.48,81.46L608.92,87.82L612.36,88.37L615.8,82.41L619.24,87.17L622.68,98.24L626.12,104.51L629.56,102.25L633,101.41" style="vector-effect: non-scaling-stroke; fill: none; stroke: rgb(31, 119, 180); stroke-opacity: 1; stroke-width: 2px; opacity: 1;"/></g><g class="points"/><g class="text"/></g></g></g><g class="overplot"/><path class="xlines-above crisp" d="M0,0" style="fill: none;"/><path class="ylines-above crisp" d="M0,0" style="fill: none;"/><g class="overlines-above"/><g class="xaxislayer-above"><g class="xtick"><text text-anchor="middle" x="0" y="333" transform="translate(40.44,0)" style="font-family: 'Open Sans', verdana, arial, sans-serif; font-size: 12px; fill: rgb(42, 63, 95); fill-opacity: 1; white-space: pre;">Mar 2019</text></g><g class="xtick"><text text-anchor="middle" x="0" y="333" transform="translate(147.09,0)" style="font-family: 'Open Sans', verdana, arial, sans-serif; font-size: 12px; fill: rgb(42, 63, 95); fill-opacity: 1; white-space: pre;">Apr 2019</text></g><g class="xtick"><text text-anchor="middle" x="0" y="333" transform="translate(250.29,0)" style="font-family: 'Open Sans', verdana, arial, sans-serif; font-size: 12px; fill: rgb(42, 63, 95); fill-opacity: 1; white-space: pre;">May 2019</text></g><g class="xtick"><text text-anchor="middle" x="0" y="333" transform="translate(356.94,0)" style="font-family: 'Open Sans', verdana, arial, sans-serif; font-size: 12px; fill: rgb(42, 63, 95); fill-opacity: 1; white-space: pre;">Jun 2019</text></g><g class="xtick"><text text-anchor="middle" x="0" y="333" transform="translate(460.15,0)" style="font-family: 'Open Sans', verdana, arial, sans-serif; font-size: 12px; fill: rgb(42, 63, 95); fill-opacity: 1; white-space: pre;">Jul 2019</text></g><g class="xtick"><text text-anchor="middle" x="0" y="333" transform="translate(566.79,0)" style="font-family: 'Open Sans', verdana, arial, sans-serif; font-size: 12px; fill: rgb(42, 63, 95); fill-opacity: 1; white-space: pre;">Aug 2019</text></g></g><g class="yaxislayer-above"><g class="ytick"><text text-anchor="end" x="36" y="4.199999999999999" transform="translate(0,291.99)" style="font-family: 'Open Sans', verdana, arial, sans-serif; font-size: 12px; fill: rgb(42, 63, 95); fill-opacity: 1; white-space: pre;">4k</text></g><g class="ytick"><text text-anchor="end" x="36" y="4.199999999999999" transform="translate(0,240.64)" style="font-family: 'Open Sans', verdana, arial, sans-serif; font-size: 12px; fill: rgb(42, 63, 95); fill-opacity: 1; white-space: pre;">6k</text></g><g class="ytick"><text text-anchor="end" x="36" y="4.199999999999999" transform="translate(0,189.28)" style="font-family: 'Open Sans', verdana, arial, sans-serif; font-size: 12px; fill: rgb(42, 63, 95); fill-opacity: 1; white-space: pre;">8k</text></g><g class="ytick"><text text-anchor="end" x="36" y="4.199999999999999" transform="translate(0,137.93)" style="font-family: 'Open Sans', verdana, arial, sans-serif; font-size: 12px; fill: rgb(42, 63, 95); fill-opacity: 1; white-space: pre;">10k</text></g><g class="ytick"><text text-anchor="end" x="36" y="4.199999999999999" transform="translate(0,86.58)" style="font-family: 'Open Sans', verdana, arial, sans-serif; font-size: 12px; fill: rgb(42, 63, 95); fill-opacity: 1; white-space: pre;">12k</text></g></g><g class="overaxes-above"/></g></g><g class="polarlayer"/><g class="ternarylayer"/><g class="geolayer"/><g class="funnelarealayer"/><g class="pielayer"/><g class="treemaplayer"/><g class="sunburstlayer"/><g class="glimages"/><defs id="topdefs-8e0a6f"><g class="clips"/><clipPath id="legend8e0a6f"><rect width="428" height="29" x="0" y="0"/></clipPath></defs><g class="layer-above"><g class="imagelayer"/><g class="shapelayer"/></g><g class="infolayer"><g class="legend" pointer-events="all" transform="translate(242, 11.519999999999996)"><rect class="bg" shape-rendering="crispEdges" style="stroke: rgb(68, 68, 68); stroke-opacity: 1; fill: rgb(255, 255, 255); fill-opacity: 1; stroke-width: 0px;" width="428" height="29" x="0" y="0"/><g class="scrollbox" transform="translate(0, 0)" clip-path="url('#legend8e0a6f')"><g class="groups"><g class="traces" transform="translate(0, 14.5)" style="opacity: 1;"><text class="legendtext" text-anchor="start" x="40" y="4.680000000000001" style="font-family: 'Open Sans', verdana, arial, sans-serif; font-size: 12px; fill: rgb(42, 63, 95); fill-opacity: 1; white-space: pre;">Lower Band</text><g class="layers"><g class="legendfill"/><g class="legendlines"><path class="js-line" d="M5,0h30" style="fill: none; stroke: rgb(127, 127, 127); stroke-opacity: 0.75; stroke-width: 2px;"/></g><g class="legendsymbols"><g class="legendpoints"/></g></g><rect class="legendtoggle" x="0" y="-9.5" width="113.28125" height="19" style="fill: rgb(0, 0, 0); fill-opacity: 0;"/></g><g class="traces" transform="translate(115.78125, 14.5)" style="opacity: 1;"><text class="legendtext" text-anchor="start" x="40" y="4.680000000000001" style="font-family: 'Open Sans', verdana, arial, sans-serif; font-size: 12px; fill: rgb(42, 63, 95); fill-opacity: 1; white-space: pre;">Upper Band</text><g class="layers"><g class="legendfill"><path class="js-fill" d="M5,-2h30v6h-30z" style="stroke-width: 0; fill: rgb(128, 128, 128); fill-opacity: 0.2;"/></g><g class="legendlines"><path class="js-line" d="M5,-2h30" style="fill: none; stroke: rgb(127, 127, 127); stroke-opacity: 0.75; stroke-width: 2px;"/></g><g class="legendsymbols"><g class="legendpoints"/></g></g><rect class="legendtoggle" x="0" y="-9.5" width="113.234375" height="19" style="fill: rgb(0, 0, 0); fill-opacity: 0;"/></g><g class="traces" transform="translate(231.515625, 14.5)" style="opacity: 1;"><text class="legendtext" text-anchor="start" x="40" y="4.680000000000001" style="font-family: 'Open Sans', verdana, arial, sans-serif; font-size: 12px; fill: rgb(42, 63, 95); fill-opacity: 1; white-space: pre;">Middle Band</text><g class="layers" style="opacity: 1;"><g class="legendfill"/><g class="legendlines"><path class="js-line" d="M5,0h30" style="fill: none; stroke: rgb(44, 160, 44); stroke-opacity: 1; stroke-width: 2px;"/></g><g class="legendsymbols"><g class="legendpoints"/></g></g><rect class="legendtoggle" x="0" y="-9.5" width="116.03125" height="19" style="fill: rgb(0, 0, 0); fill-opacity: 0;"/></g><g class="traces" transform="translate(350.046875, 14.5)" style="opacity: 1;"><text class="legendtext" text-anchor="start" x="40" y="4.680000000000001" style="font-family: 'Open Sans', verdana, arial, sans-serif; font-size: 12px; fill: rgb(42, 63, 95); fill-opacity: 1; white-space: pre;">Close</text><g class="layers" style="opacity: 1;"><g class="legendfill"/><g class="legendlines"><path class="js-line" d="M5,0h30" style="fill: none; stroke: rgb(31, 119, 180); stroke-opacity: 1; stroke-width: 2px;"/></g><g class="legendsymbols"><g class="legendpoints"/></g></g><rect class="legendtoggle" x="0" y="-9.5" width="74.859375" height="19" style="fill: rgb(0, 0, 0); fill-opacity: 0;"/></g></g></g><rect class="scrollbar" rx="20" ry="3" width="0" height="0" style="fill: rgb(128, 139, 164); fill-opacity: 1;" x="0" y="0"/></g><g class="g-gtitle"/><g class="g-xtitle"/><g class="g-ytitle"/></g></svg>