<svg class="main-svg" xmlns="http://www.w3.org/2000/svg" xmlns:xlink="http://www.w3.org/1999/xlink" width="489.99999999999994" height="350" style="" viewBox="0 0 489.99999999999994 350"><rect x="0" y="0" width="489.99999999999994" height="350" style="fill: rgb(255, 255, 255); fill-opacity: 1;"/><defs id="defs-0ced95"><g class="clips"/><g class="gradients"/></defs><g class="bglayer"/><g class="layer-below"><g class="imagelayer"/><g class="shapelayer"/></g><g class="cartesianlayer"/><g class="polarlayer"/><g class="ternarylayer"/><g class="geolayer"/><g class="funnelarealayer"/><g class="pielayer"/><g class="treemaplayer"/><g class="sunburstlayer"/><g class="glimages"/><defs id="topdefs-0ced95"><g class="clips"/></defs><g class="indicatorlayer"><g class="trace"><g class="numbers" transform="translate(245,243.35880522335202) scale(0.9792548820862288)"><text text-anchor="middle" class="number" x="0" y="0" style="font-family: 'Open Sans', verdana, arial, sans-serif; font-size: 80px; fill: rgb(42, 63, 95); fill-opacity: 1; white-space: pre;">2</text><text text-anchor="middle" class="delta" x="0" y="0" style="font-family: 'Open Sans', verdana, arial, sans-serif; font-size: 40px; fill: rgb(61, 153, 112); fill-opacity: 1; white-space: pre;" dy="48.5">-</text></g><g class="angular" transform="translate(245,307.5)"><g class="bg-arc"><path d="M-215,-2.6329906181668095e-14A215,215 0 0,1 215,0L161.25,0A161.25,161.25 0 0,0 -161.25,-1.974742963625107e-14Z" style="stroke: rgb(68, 68, 68); stroke-opacity: 1; fill: rgb(255, 255, 255); fill-opacity: 1; stroke-width: 0;"/></g><g class="value-arc"><path d="M-201.5625,-2.468428704531384e-14A201.5625,201.5625 0 0,1 1.234214352265692e-14,-201.5625L1.0696524386302663e-14,-174.6875A174.6875,174.6875 0 0,0 -174.6875,-2.1393048772605326e-14Z" style="stroke: rgb(68, 68, 68); stroke-opacity: 1; fill: rgb(255, 255, 190); fill-opacity: 1; stroke-width: 0;"/></g><g class="gauge-outline"><path d="M-215,-2.6329906181668095e-14A215,215 0 0,1 215,0L161.25,0A161.25,161.25 0 0,0 -161.25,-1.974742963625107e-14Z" style="stroke: rgb(68, 68, 68); stroke-opacity: 1; fill: rgb(0, 0, 0); fill-opacity: 0; stroke-width: 1;"/></g></g><g class="angularaxis crisp"><path class="xangularaxistick ticks crisp" d="M0.5,0h5" transform="translate(30,307.5)rotate(-180)" style="stroke: rgb(68, 68, 68); stroke-opacity: 1; stroke-width: 1px;"/><path class="xangularaxistick ticks crisp" d="M0.5,0h5" transform="translate(92.9720420448923,155.47204204489228)rotate(-135)" style="stroke: rgb(68, 68, 68); stroke-opacity: 1; stroke-width: 1px;"/><path class="xangularaxistick ticks crisp" d="M0.5,0h5" transform="translate(245,92.5)rotate(-90)" style="stroke: rgb(68, 68, 68); stroke-opacity: 1; stroke-width: 1px;"/><path class="xangularaxistick ticks crisp" d="M0.5,0h5" transform="translate(397.0279579551077,155.4720420448923)rotate(-45)" style="stroke: rgb(68, 68, 68); stroke-opacity: 1; stroke-width: 1px;"/><path class="xangularaxistick ticks crisp" d="M0.5,0h5" transform="translate(460,307.5)rotate(0)" style="stroke: rgb(68, 68, 68); stroke-opacity: 1; stroke-width: 1px;"/><g class="xangularaxistick"><text text-anchor="end" x="-7.9" y="4.199999999999998" transform="translate(30,307.5)" style="font-family: 'Open Sans', verdana, arial, sans-serif; font-size: 12px; fill: rgb(42, 63, 95); fill-opacity: 1; white-space: pre;">1</text></g><g class="xangularaxistick"><text text-anchor="end" x="-5.586143571373725" y="-4.313351365237942" transform="translate(92.9720420448923,155.47204204489228)" style="font-family: 'Open Sans', verdana, arial, sans-serif; font-size: 12px; fill: rgb(42, 63, 95); fill-opacity: 1; white-space: pre;">1.5</text></g><g class="xangularaxistick"><text text-anchor="middle" x="4.837354856632045e-16" y="-10.3" transform="translate(245,92.5)" style="font-family: 'Open Sans', verdana, arial, sans-serif; font-size: 12px; fill: rgb(42, 63, 95); fill-opacity: 1; white-space: pre;">2</text></g><g class="xangularaxistick"><text text-anchor="start" x="5.586143571373726" y="-4.31335136523794" transform="translate(397.0279579551077,155.4720420448923)" style="font-family: 'Open Sans', verdana, arial, sans-serif; font-size: 12px; fill: rgb(42, 63, 95); fill-opacity: 1; white-space: pre;">2.5</text></g><g class="xangularaxistick"><text text-anchor="start" x="7.9" y="4.199999999999999" transform="translate(460,307.5)" style="font-family: 'Open Sans', verdana, arial, sans-serif; font-size: 12px; fill: rgb(42, 63, 95); fill-opacity: 1; white-space: pre;">3</text></g></g><text class="title" text-anchor="middle" x="0" y="0" style="font-family: 'Open Sans', verdana, arial, sans-serif; font-size: 20px; fill: rgb(42, 63, 95); fill-opacity: 1; white-space: pre;" transform="translate(245,61.046875)">My Gauge</text></g></g><g class="layer-above"><g class="imagelayer"/><g class="shapelayer"/></g><g class="infolayer"><g class="g-gtitle"/></g></svg>