<svg class="main-svg" xmlns="http://www.w3.org/2000/svg" xmlns:xlink="http://www.w3.org/1999/xlink" width="700" height="350" style="" viewBox="0 0 700 350"><rect x="0" y="0" width="700" height="350" style="fill: rgb(255, 255, 255); fill-opacity: 1;"/><defs id="defs-a7b3ed"><g class="clips"><clipPath id="clipa7b3edxyplot" class="plotclip"><rect width="619" height="274"/></clipPath><clipPath class="axesclip" id="clipa7b3edx"><rect x="40" y="0" width="619" height="350"/></clipPath><clipPath class="axesclip" id="clipa7b3edy"><rect x="0" y="46" width="700" height="274"/></clipPath><clipPath class="axesclip" id="clipa7b3edxy"><rect x="40" y="46" width="619" height="274"/></clipPath></g><g class="gradients"/></defs><g class="bglayer"><rect class="bg" x="40" y="46" width="619" height="274" style="fill: rgb(229, 236, 246); fill-opacity: 1; stroke-width: 0;"/></g><g class="layer-below"><g class="imagelayer"/><g class="shapelayer"/></g><g class="cartesianlayer"><g class="subplot xy"><g class="layer-subplot"><g class="shapelayer"/><g class="imagelayer"/></g><g class="gridlayer"><g class="x"><path class="xgrid crisp" transform="translate(118.64,0)" d="M0,46v274" style="stroke: rgb(255, 255, 255); stroke-opacity: 1; stroke-width: 1px;"/><path class="xgrid crisp" transform="translate(192.21,0)" d="M0,46v274" style="stroke: rgb(255, 255, 255); stroke-opacity: 1; stroke-width: 1px;"/><path class="xgrid crisp" transform="translate(270.86,0)" d="M0,46v274" style="stroke: rgb(255, 255, 255); stroke-opacity: 1; stroke-width: 1px;"/><path class="xgrid crisp" transform="translate(346.96,0)" d="M0,46v274" style="stroke: rgb(255, 255, 255); stroke-opacity: 1; stroke-width: 1px;"/><path class="xgrid crisp" transform="translate(425.61,0)" d="M0,46v274" style="stroke: rgb(255, 255, 255); stroke-opacity: 1; stroke-width: 1px;"/><path class="xgrid crisp" transform="translate(501.71,0)" d="M0,46v274" style="stroke: rgb(255, 255, 255); stroke-opacity: 1; stroke-width: 1px;"/><path class="xgrid crisp" transform="translate(580.36,0)" d="M0,46v274" style="stroke: rgb(255, 255, 255); stroke-opacity: 1; stroke-width: 1px;"/></g><g class="y"><path class="ygrid crisp" transform="translate(0,315.99)" d="M40,0h619" style="stroke: rgb(255, 255, 255); stroke-opacity: 1; stroke-width: 1px;"/><path class="ygrid crisp" transform="translate(0,247.69)" d="M40,0h619" style="stroke: rgb(255, 255, 255); stroke-opacity: 1; stroke-width: 1px;"/><path class="ygrid crisp" transform="translate(0,179.39)" d="M40,0h619" style="stroke: rgb(255, 255, 255); stroke-opacity: 1; stroke-width: 1px;"/><path class="ygrid crisp" transform="translate(0,111.09)" d="M40,0h619" style="stroke: rgb(255, 255, 255); stroke-opacity: 1; stroke-width: 1px;"/></g></g><g class="zerolinelayer"/><path class="xlines-below"/><path class="ylines-below"/><g class="overlines-below"/><g class="xaxislayer-below"/><g class="yaxislayer-below"/><g class="overaxes-below"/><g class="plot" transform="translate(40, 46)" clip-path="url('#clipa7b3edxyplot')"><g class="scatterlayer mlayer"><g class="trace scatter trace574b74ba-d74f-408c-95fc-22370fa67cd2" style="stroke-miterlimit: 2; opacity: 1;"><g class="fills"/><g class="errorbars"/><g class="lines"><path class="js-line" d="M0,237.45L38.05,236.8L40.59,236.65L53.27,237.07L55.81,237.43L65.96,236.79L68.5,236L86.25,236.42L88.79,235.59L98.94,234.56L101.48,235.24L106.55,234L109.09,234.34L111.62,234.04L114.16,235.31L119.23,235.85L121.77,234.82L124.31,236.13L126.84,236.19L134.45,235.17L136.99,236.23L142.07,239L144.6,239.11L152.21,239.7L154.75,238.9L159.82,239.28L162.36,238.23L164.9,238.08L167.43,238.87L169.97,241.6L172.51,242.05L177.58,242.09L180.12,252.66L182.66,250.99L185.19,252L187.73,251.52L190.27,252.37L195.34,251.93L197.88,248.33L202.95,248.38L205.49,249.96L210.56,245.77L213.1,246.08L215.64,245.88L218.17,247.56L223.25,250.88L225.78,248.38L228.32,248.34L230.86,247.27L233.39,246.07L235.93,246.45L238.47,245.59L241,246.1L243.54,243.01L246.08,243.73L248.61,242.57L251.15,242.81L253.69,246.03L256.23,246.08L258.76,245.26L261.3,246.21L263.84,246.24L266.37,247.88L268.91,244L273.98,242.77L276.52,243.44L279.06,246.36L281.59,246.38L284.13,243.91L286.67,240.41L289.2,239.05L291.74,238.83L294.28,237.53L296.82,236.13L299.35,235.99L301.89,223.22L304.43,225.05L309.5,220.87L312.04,222.04L314.57,221.85L317.11,220.64L319.65,217.03L322.18,207.74L324.72,209.22L327.26,212.54L329.8,223.59L332.33,225.61L334.87,223L337.41,217.08L339.94,210.99L342.48,216.45L345.02,215.81L347.55,211.66L352.63,210.85L355.16,214.07L357.7,220.88L360.24,219.34L362.77,218.93L365.31,225.66L367.85,223.9L370.39,225L375.46,214.49L378,215.87L380.53,211.78L383.07,215.6L385.61,204.75L388.14,214.64L393.22,210.46L395.75,212.54L398.29,212.72L400.83,211.07L405.9,210.48L408.44,209.21L410.98,218.64L413.51,215.91L416.05,216.01L418.59,217.59L423.66,214.9L426.2,215.96L428.73,217.2L431.27,219.46L433.81,218.66L436.34,219.2L438.88,212.82L441.42,213.2L443.95,219.36L446.49,220.3L451.57,224.55L454.1,222.65L456.64,221.73L459.18,222.77L461.71,221L464.25,223.04L466.79,223.74L469.32,222.88L471.86,224.03L474.4,218.11L476.93,220.65L479.47,217.07L482.01,220.16L484.55,220.15L487.08,220.97L489.62,220.22L497.23,222.04L499.77,223.36L507.38,222.19L509.91,222.67L514.99,214.59L517.52,213.33L520.06,214.33L522.6,211.16L525.14,205.96L527.67,181.14L530.21,182.94L532.75,178.65L535.28,178.41L537.82,173.47L540.36,163.34L542.89,179.91L545.43,175.42L547.97,176.36L550.5,163.67L553.04,162.9L555.58,167.28L558.11,163.53L560.65,165.46L563.19,160.49L565.73,172.05L568.26,167.76L570.8,162.86L573.34,163.24L575.87,160.85L578.41,160.19L580.95,150.97L583.48,157.79L586.02,163.77L588.56,160.7L591.09,168.07L593.63,165.81L596.17,166.25L598.7,163.43L601.24,174.05L603.78,170.89L606.32,175.18L608.85,169.48L611.39,170.44L613.93,165.13L616.46,165.95L619,158.33" style="vector-effect: non-scaling-stroke; fill: none; stroke: rgb(31, 119, 180); stroke-opacity: 1; stroke-width: 2px; opacity: 1;"/></g><g class="points"/><g class="text"/></g><g class="trace scatter trace8710ffee-cd85-44f7-9d68-06dc405403fe" style="stroke-miterlimit: 2; opacity: 1;"><g class="fills"/><g class="errorbars"/><g class="lines"><path class="js-line" d="M0,237.45L40.59,236.79L43.13,236.52L48.2,237.02L50.74,236.79L60.89,237.59L63.42,236.91L71.03,236.08L73.57,234.58L76.11,235.32L78.64,234.75L83.72,233.7L86.25,233.8L88.79,231.23L91.33,229.79L93.86,227.94L96.4,227.86L98.94,226.63L101.48,227.82L104.01,224.87L106.55,217.46L109.09,216.76L111.62,212.55L114.16,217.74L116.7,218.95L119.23,217.41L121.77,213.59L124.31,219.14L126.84,219.56L129.38,217.84L131.92,218.61L134.45,216L136.99,218.14L142.07,226.94L144.6,226.72L147.14,226.74L149.68,228.5L152.21,228.72L154.75,225.57L157.29,227.3L159.82,227.3L162.36,225.98L164.9,222.2L167.43,223.85L169.97,234.56L175.05,234.65L177.58,236.27L180.12,258.89L182.66,254.18L185.19,256.41L187.73,256.01L190.27,259.78L192.8,258.92L195.34,258.69L197.88,251.53L200.41,252.8L202.95,252.78L205.49,255.91L208.02,252.22L210.56,250.86L213.1,251.81L215.64,251.04L218.17,252.67L220.71,253.71L223.25,255.59L225.78,253.12L228.32,252.86L230.86,252L233.39,249.38L235.93,249.36L238.47,248.05L241,248.75L243.54,238.51L246.08,240.27L248.61,237.01L251.15,237.87L253.69,243.63L256.23,243.72L258.76,242.31L261.3,244.62L263.84,243.99L266.37,246.06L268.91,237.32L273.98,230.24L276.52,232.9L279.06,237.44L281.59,237.23L284.13,232.05L286.67,230.76L289.2,228.51L291.74,225.12L294.28,224.13L296.82,224.19L299.35,223.53L301.89,213.24L304.43,218.49L306.96,214.78L309.5,214.16L312.04,216.68L319.65,220.53L322.18,215.97L324.72,215.58L327.26,216.44L329.8,229.78L332.33,231.32L334.87,229.4L337.41,223.68L339.94,221.38L342.48,225.93L347.55,218.98L350.09,214.51L352.63,215.18L355.16,217.26L357.7,223.58L360.24,219.07L362.77,218.13L365.31,222.04L367.85,220.29L370.39,222.34L372.92,218.22L375.46,211.38L378,210.85L380.53,196.78L383.07,204.16L385.61,193.86L388.14,200.32L390.68,195.72L393.22,195.56L395.75,197.77L398.29,197.28L400.83,194.98L403.36,194.16L405.9,195.2L408.44,193.32L410.98,205.13L413.51,200.87L416.05,199.82L421.12,206.43L423.66,203.23L428.73,204.92L431.27,208.59L433.81,207.08L436.34,207.28L438.88,197.46L441.42,196.27L443.95,202.49L446.49,204.56L449.03,206.94L451.57,211.76L456.64,207.99L459.18,209.35L461.71,205.9L464.25,207.15L466.79,210.06L469.32,207.46L471.86,208.47L474.4,198.6L476.93,200.41L479.47,194.79L482.01,197.52L484.55,199.04L487.08,200.2L489.62,198.19L492.16,200.09L494.69,199.64L497.23,201.04L499.77,204.75L502.3,205.42L504.84,203.36L507.38,201.06L509.91,202.85L512.45,196.13L514.99,183.03L517.52,173.49L520.06,170.06L522.6,151.23L525.14,146.97L527.67,137.92L530.21,141.65L532.75,140.47L535.28,127.76L537.82,119.31L540.36,88.73L542.89,99.99L545.43,87.88L547.97,85.1L550.5,76.02L553.04,81.18L555.58,93.16L558.11,81.89L560.65,84.19L563.19,80.47L565.73,92.71L568.26,84.31L570.8,54.44L573.34,47.53L575.87,50.75L578.41,50.41L580.95,53.86L583.48,58.57L586.02,72.25L588.56,64.32L591.09,86.22L593.63,80.87L596.17,84.43L598.7,71.05L601.24,90.49L603.78,88.51L606.32,91.62L608.85,81.01L611.39,77.71L613.93,54.31L616.46,48.74L619,13.7" style="vector-effect: non-scaling-stroke; fill: none; stroke: rgb(255, 127, 14); stroke-opacity: 1; stroke-width: 2px; opacity: 1;"/></g><g class="points"/><g class="text"/></g><g class="trace scatter traceef817259-f758-44ea-97b3-527efb369954" style="stroke-miterlimit: 2; opacity: 1;"><g class="fills"/><g class="errorbars"/><g class="lines"><path class="js-line" d="M0,237.45L30.44,237.19L32.98,236.45L40.59,236.23L43.13,236L48.2,236.66L50.74,236.47L65.96,236.85L68.5,236.08L71.03,236.42L73.57,235.51L76.11,236.04L78.64,235.79L91.33,230.8L93.86,231.17L96.4,231.43L98.94,230.77L101.48,231.87L104.01,231.14L109.09,225.11L111.62,223.99L114.16,227.84L116.7,229.29L119.23,230.35L121.77,228.93L124.31,231.39L126.84,232L134.45,230.61L136.99,232.37L142.07,236.5L144.6,236.07L152.21,236.74L154.75,235.94L159.82,236.31L162.36,235.85L164.9,235.38L167.43,236.16L169.97,238.8L172.51,238.68L177.58,238.76L180.12,242.47L195.34,242.3L197.88,242.59L208.02,242.82L210.56,242.48L213.1,242.53L215.64,241.45L220.71,241.39L223.25,243.1L228.32,241.91L230.86,241.81L238.47,240.8L241,241.25L243.54,238.25L246.08,239.05L248.61,237.04L251.15,237.73L253.69,240.41L256.23,240.29L258.76,239.76L261.3,240.36L266.37,241.86L268.91,239.92L273.98,238.83L276.52,239.91L279.06,241.79L281.59,241.57L289.2,239.13L291.74,238.78L296.82,238.03L299.35,233.45L301.89,230.33L304.43,234.17L309.5,231.15L312.04,232.36L317.11,233.17L319.65,233.53L322.18,232.41L324.72,232.13L327.26,233.14L329.8,239.57L332.33,240.96L334.87,239.76L339.94,237.87L342.48,239.35L347.55,238.54L350.09,237.07L355.16,238.41L357.7,240.75L360.24,238.93L362.77,239.49L365.31,240.74L367.85,240.07L370.39,241.29L372.92,240L375.46,239.05L378,239.85L380.53,237.05L383.07,238.25L385.61,235.59L388.14,238.46L395.75,237.95L398.29,238.32L403.36,238.09L405.9,238.92L408.44,238.51L410.98,244.33L413.51,242.64L416.05,243.02L418.59,243.68L421.12,243.04L423.66,243.82L426.2,242.9L431.27,245.69L433.81,245.09L436.34,246.16L438.88,244.84L441.42,245.06L443.95,246.69L449.03,247.31L451.57,249.5L456.64,249.08L459.18,249.98L464.25,249.39L466.79,249.83L469.32,249.11L471.86,249.57L474.4,244.25L476.93,246.02L479.47,236.86L482.01,237.68L484.55,239.56L487.08,238.43L494.69,239.52L497.23,240.37L499.77,241.87L502.3,241.76L504.84,239.09L507.38,239.21L509.91,241.42L512.45,239.29L517.52,234.48L520.06,236.52L522.6,230.86L525.14,230.36L530.21,221.44L532.75,213.96L535.28,213.12L537.82,204.49L540.36,185.95L542.89,187.45L545.43,173.81L547.97,179.44L550.5,177.78L553.04,177.62L555.58,183.19L558.11,183.59L560.65,186.96L563.19,183.19L565.73,189.7L568.26,189.4L570.8,180.96L573.34,179.27L575.87,179.75L578.41,177.2L580.95,169.65L583.48,177.43L586.02,186.29L588.56,184.7L591.09,192.94L593.63,188.94L596.17,189.73L598.7,187.07L601.24,195.05L603.78,195.36L606.32,204.6L608.85,199.24L611.39,197.48L613.93,191.37L616.46,192.31L619,182.13" style="vector-effect: non-scaling-stroke; fill: none; stroke: rgb(44, 160, 44); stroke-opacity: 1; stroke-width: 2px; opacity: 1;"/></g><g class="points"/><g class="text"/></g><g class="trace scatter trace114a9989-6b65-4e24-b9cb-c14ca918679e" style="stroke-miterlimit: 2; opacity: 1;"><g class="fills"/><g class="errorbars"/><g class="lines"><path class="js-line" d="M0,237.45L71.03,237.56L73.57,237.05L78.64,237.37L81.18,237.11L86.25,237.56L88.79,235.93L93.86,230.94L96.4,231.44L98.94,227.09L101.48,225.33L106.55,222.88L109.09,224.83L111.62,223.16L114.16,227.47L116.7,228.8L119.23,228.65L121.77,227.61L124.31,231.17L131.92,231.89L134.45,230.17L136.99,231.94L139.53,235.76L142.07,238.81L144.6,238.17L147.14,238.72L149.68,237.32L152.21,238.5L154.75,236.89L157.29,237.23L159.82,236.62L164.9,234.01L167.43,236.19L169.97,242.29L172.51,242.88L175.05,242.47L177.58,242.94L180.12,252.2L182.66,251.5L190.27,252.4L192.8,251.77L195.34,251.72L197.88,247.72L200.41,248.62L202.95,248.26L205.49,250.45L208.02,248.38L210.56,247.7L213.1,247.9L215.64,245.66L218.17,247.7L220.71,248.49L223.25,250.36L225.78,248.69L228.32,247.94L235.93,245.98L238.47,244.87L241,245.09L243.54,241.91L246.08,243.01L248.61,242.03L251.15,242.01L253.69,245.61L256.23,245.44L258.76,243.74L263.84,240.23L266.37,243.04L268.91,239.91L273.98,237.25L276.52,238.73L279.06,242.07L281.59,241.69L284.13,240.11L286.67,239.06L289.2,239.03L294.28,237.62L296.82,237.31L299.35,237.41L301.89,232.4L304.43,234.63L306.96,232.06L309.5,231.96L312.04,234.49L314.57,234.63L317.11,235.63L319.65,237.07L322.18,235.07L324.72,233.81L327.26,235.53L329.8,244.9L332.33,246.01L334.87,242.39L337.41,240.16L339.94,238.91L342.48,242.41L350.09,237.31L352.63,234.26L355.16,235.85L357.7,240.35L360.24,237.36L362.77,237.66L365.31,240.54L367.85,238.76L370.39,239.84L372.92,238.23L375.46,234.96L378,235.09L380.53,230.75L383.07,235.27L385.61,229.66L388.14,234.1L390.68,232.09L393.22,231.96L395.75,231.12L398.29,232.19L403.36,233.18L405.9,232.89L408.44,233.1L410.98,241.54L413.51,238.82L416.05,237.64L421.12,241L423.66,240.73L426.2,240.9L428.73,242.49L431.27,244.95L433.81,243.84L436.34,244.21L438.88,240.27L441.42,240.74L443.95,244.14L449.03,246.52L451.57,251.31L454.1,249.3L456.64,248.57L459.18,249.35L461.71,245.86L466.79,250.43L469.32,248.32L471.86,248.94L474.4,242.16L479.47,234.11L482.01,237.05L487.08,230.69L489.62,225.29L492.16,223.75L494.69,226.7L499.77,235.15L502.3,235.67L504.84,235.3L507.38,227.3L509.91,231.97L512.45,229.69L514.99,225.96L517.52,220.17L522.6,208.86L525.14,211.5L527.67,210.49L530.21,204.75L532.75,207.64L535.28,206.43L537.82,199.58L540.36,190.33L542.89,196.7L545.43,184.65L547.97,182.16L550.5,170.6L553.04,177.54L555.58,181.87L558.11,175.65L560.65,180.07L563.19,178.56L565.73,193.55L568.26,188.09L570.8,184.5L573.34,173.46L575.87,173.99L578.41,168.69L580.95,168.55L583.48,173.65L586.02,182.37L588.56,173.41L591.09,184.44L593.63,183.19L596.17,187.37L598.7,179.1L601.24,191.97L606.32,174.07L608.85,173.47L611.39,174.88L613.93,167.75L616.46,172.89L619,154.38" style="vector-effect: non-scaling-stroke; fill: none; stroke: rgb(220, 57, 18); stroke-opacity: 1; stroke-width: 2px; opacity: 1;"/></g><g class="points"/><g class="text"/></g><g class="trace scatter tracedaf85faa-4302-49bc-ab30-65df065dedc7" style="stroke-miterlimit: 2; opacity: 1;"><g class="fills"/><g class="errorbars"/><g class="lines"><path class="js-line" d="M0,237.45L30.44,237.45L32.98,236.61L38.05,236.94L40.59,236.36L45.66,236.99L48.2,236.81L53.27,236.66L55.81,237.68L63.42,237.49L65.96,237.07L73.57,235.92L76.11,236.67L86.25,236.48L88.79,233.88L98.94,233.39L101.48,233.17L111.62,230.32L114.16,234.53L116.7,236.11L119.23,236.59L121.77,235.89L124.31,238.44L126.84,239.02L129.38,238.65L131.92,238.98L134.45,237.46L142.07,242.14L144.6,241.86L149.68,242.65L152.21,242.37L154.75,241.09L157.29,241.64L159.82,242.35L162.36,241L164.9,240.03L167.43,241.76L169.97,245.61L172.51,245.77L177.58,246.05L180.12,252.45L185.19,252.16L187.73,252.03L195.34,252.03L197.88,250.26L205.49,251.3L208.02,250.56L210.56,250.01L213.1,250.54L215.64,250.09L218.17,250.81L223.25,251.62L225.78,250.63L230.86,250.54L233.39,249.93L238.47,249.42L241,249.99L243.54,248.15L246.08,248.57L248.61,247.1L251.15,248.06L253.69,250.71L256.23,250.83L258.76,250.37L261.3,251.88L266.37,252.8L268.91,250.63L273.98,249.71L276.52,250.9L279.06,252.35L281.59,252.32L284.13,250.53L286.67,250L294.28,248.34L296.82,248.9L299.35,248.82L301.89,245.83L304.43,247.5L306.96,245.88L309.5,244.82L312.04,246.89L314.57,248.43L317.11,248.62L319.65,248.36L322.18,246.9L327.26,243.96L329.8,251.08L332.33,250.63L334.87,251.03L339.94,249.24L342.48,250.67L345.02,250.43L347.55,249.29L350.09,247.65L352.63,248.11L355.16,249.67L357.7,252.36L360.24,250.88L362.77,250.77L365.31,253.47L367.85,252.23L370.39,253.02L372.92,251.58L375.46,250.14L378,250.46L380.53,247.23L383.07,250.1L385.61,246.39L388.14,248.05L395.75,246.08L398.29,247.06L408.44,245.8L410.98,253.36L413.51,251.39L416.05,251.77L421.12,253.46L423.66,253.02L426.2,251.98L428.73,253.23L431.27,254.88L433.81,255.03L436.34,255.24L438.88,252.16L441.42,251.79L443.95,254.75L449.03,255.92L451.57,260.3L456.64,257.71L459.18,258.94L461.71,258.29L464.25,258.82L466.79,259.1L469.32,257.71L471.86,259.03L474.4,251.63L476.93,253.35L479.47,251.04L482.01,252.71L484.55,253.06L489.62,253.49L492.16,255.26L502.3,259.01L504.84,258.46L507.38,257.36L509.91,259.06L514.99,253.08L517.52,253.53L520.06,254.32L522.6,248.94L525.14,250.01L527.67,241.87L530.21,233.32L532.75,233.4L535.28,231.82L537.82,228.33L540.36,221L542.89,235.65L545.43,230.19L547.97,233.72L550.5,231.11L553.04,224.94L555.58,227.21L558.11,226.8L560.65,228.64L563.19,227.69L565.73,236.54L568.26,234.44L570.8,228.97L573.34,231.82L575.87,227.45L578.41,225.18L580.95,220.68L583.48,226.95L586.02,232.33L588.56,231.35L591.09,236.32L593.63,234.88L596.17,236.02L598.7,233.04L601.24,239.85L603.78,240.41L606.32,245.4L608.85,243.42L611.39,243.4L613.93,238.66L616.46,240.94L619,231.97" style="vector-effect: non-scaling-stroke; fill: none; stroke: rgb(148, 103, 189); stroke-opacity: 1; stroke-width: 2px; opacity: 1;"/></g><g class="points"/><g class="text"/></g><g class="trace scatter trace92a76955-da34-4c0b-b730-3640bf71fdfd" style="stroke-miterlimit: 2; opacity: 1;"><g class="fills"/><g class="errorbars"/><g class="lines"><path class="js-line" d="M0,237.45L71.03,237.49L73.57,236.76L88.79,236.2L91.33,236.05L98.94,235.22L101.48,235.95L106.55,234.18L109.09,234.45L111.62,233.83L114.16,235.62L119.23,236.2L121.77,235.63L126.84,236.83L129.38,236.42L134.45,235.26L136.99,236.36L139.53,237.46L142.07,239.64L144.6,239.53L147.14,240.18L152.21,240.83L154.75,239.57L159.82,239.96L162.36,238.97L164.9,238.37L167.43,239.96L169.97,245.4L172.51,246.22L175.05,246.18L177.58,247.2L180.12,258.11L182.66,255.21L185.19,256.56L187.73,255.73L190.27,257.05L192.8,256.89L195.34,256.85L197.88,252.74L200.41,253.61L202.95,253.44L205.49,256.32L208.02,253.27L210.56,251.29L213.1,252.93L215.64,251.74L218.17,253.25L220.71,253.32L223.25,255.2L225.78,253.22L228.32,253.02L233.39,252.21L235.93,251.5L241,251.05L243.54,245.38L246.08,244.92L248.61,242.01L251.15,241.89L253.69,249.8L258.76,249.47L261.3,252.12L263.84,252.42L266.37,255.32L268.91,249.19L273.98,245.78L279.06,253.27L281.59,252.83L286.67,248.57L289.2,244.32L296.82,244.56L299.35,241.19L301.89,233.08L304.43,239.5L306.96,236.73L309.5,232.4L314.57,237.67L317.11,239.52L319.65,241.76L322.18,238.01L324.72,236.53L327.26,238.18L329.8,251.5L332.33,253.29L334.87,252.19L337.41,249.41L339.94,247.21L342.48,250.26L347.55,248.09L350.09,243.91L352.63,243.42L355.16,246.82L357.7,250.71L360.24,246.79L362.77,247.27L365.31,251.66L367.85,250.3L370.39,251.7L372.92,247.88L375.46,245.43L378,245.73L380.53,237.65L383.07,243.22L385.61,236.14L388.14,242.43L390.68,238.86L393.22,237.53L395.75,239.2L400.83,240.28L403.36,240.85L405.9,242.03L408.44,240.25L410.98,249.66L413.51,245.8L416.05,245.01L418.59,248.04L423.66,248.66L426.2,248.2L428.73,249.67L431.27,252.39L433.81,250.43L436.34,251.2L438.88,247.94L441.42,247.97L443.95,252.01L446.49,252.85L449.03,250.6L451.57,255.83L454.1,256.27L456.64,254.99L459.18,256.1L461.71,255.43L466.79,256.83L469.32,254.43L471.86,255.8L474.4,248.96L476.93,250.87L479.47,245.37L482.01,247.33L484.55,248.18L487.08,246.92L489.62,247.04L492.16,249.16L494.69,249.51L497.23,251.06L499.77,254.7L502.3,255.06L504.84,253.54L507.38,253.17L509.91,254.92L514.99,245.95L517.52,246.24L520.06,248.38L522.6,233.86L525.14,236.51L527.67,220.61L530.21,212.15L532.75,213.46L537.82,204.25L540.36,193.39L542.89,208.83L545.43,202.77L547.97,205.87L550.5,201.01L553.04,200.5L555.58,207.06L558.11,204.04L560.65,207.45L563.19,203.56L565.73,216.87L568.26,214.88L570.8,205.43L573.34,208.83L575.87,198.08L580.95,173.44L583.48,178.69L586.02,191L588.56,187.62L591.09,200.4L593.63,197.13L596.17,196.03L598.7,190.29L601.24,203.59L603.78,204.4L606.32,212.92L608.85,208.09L611.39,208.33L613.93,187.99L616.46,194.22L619,187.45" style="vector-effect: non-scaling-stroke; fill: none; stroke: rgb(140, 86, 75); stroke-opacity: 1; stroke-width: 2px; opacity: 1;"/></g><g class="points"/><g class="text"/></g></g></g><g class="overplot"/><path class="xlines-above crisp" d="M0,0" style="fill: none;"/><path class="ylines-above crisp" d="M0,0" style="fill: none;"/><g class="overlines-above"/><g class="xaxislayer-above"><g class="xtick"><text text-anchor="middle" x="0" y="333" transform="translate(40,0)" style="font-family: 'Open Sans', verdana, arial, sans-serif; font-size: 12px; fill: rgb(42, 63, 95); fill-opacity: 1; white-space: pre;">Jan 2020</text></g><g class="xtick"><text text-anchor="middle" x="0" y="333" transform="translate(118.64,0)" style="font-family: 'Open Sans', verdana, arial, sans-serif; font-size: 12px; fill: rgb(42, 63, 95); fill-opacity: 1; white-space: pre;">Feb 2020</text></g><g class="xtick"><text text-anchor="middle" x="0" y="333" transform="translate(192.21,0)" style="font-family: 'Open Sans', verdana, arial, sans-serif; font-size: 12px; fill: rgb(42, 63, 95); fill-opacity: 1; white-space: pre;">Mar 2020</text></g><g class="xtick"><text text-anchor="middle" x="0" y="333" transform="translate(270.86,0)" style="font-family: 'Open Sans', verdana, arial, sans-serif; font-size: 12px; fill: rgb(42, 63, 95); fill-opacity: 1; white-space: pre;">Apr 2020</text></g><g class="xtick"><text text-anchor="middle" x="0" y="333" transform="translate(346.96,0)" style="font-family: 'Open Sans', verdana, arial, sans-serif; font-size: 12px; fill: rgb(42, 63, 95); fill-opacity: 1; white-space: pre;">May 2020</text></g><g class="xtick"><text text-anchor="middle" x="0" y="333" transform="translate(425.61,0)" style="font-family: 'Open Sans', verdana, arial, sans-serif; font-size: 12px; fill: rgb(42, 63, 95); fill-opacity: 1; white-space: pre;">Jun 2020</text></g><g class="xtick"><text text-anchor="middle" x="0" y="333" transform="translate(501.71,0)" style="font-family: 'Open Sans', verdana, arial, sans-serif; font-size: 12px; fill: rgb(42, 63, 95); fill-opacity: 1; white-space: pre;">Jul 2020</text></g><g class="xtick"><text text-anchor="middle" x="0" y="333" transform="translate(580.36,0)" style="font-family: 'Open Sans', verdana, arial, sans-serif; font-size: 12px; fill: rgb(42, 63, 95); fill-opacity: 1; white-space: pre;">Aug 2020</text></g><g class="xtick"><text text-anchor="middle" x="0" y="333" transform="translate(659,0)" style="font-family: 'Open Sans', verdana, arial, sans-serif; font-size: 12px; fill: rgb(42, 63, 95); fill-opacity: 1; white-space: pre;">Sep 2020</text></g></g><g class="yaxislayer-above"><g class="ytick"><text text-anchor="end" x="39" y="4.199999999999999" transform="translate(0,315.99)" style="font-family: 'Open Sans', verdana, arial, sans-serif; font-size: 12px; fill: rgb(42, 63, 95); fill-opacity: 1; white-space: pre;">15k</text></g><g class="ytick"><text text-anchor="end" x="39" y="4.199999999999999" transform="translate(0,247.69)" style="font-family: 'Open Sans', verdana, arial, sans-serif; font-size: 12px; fill: rgb(42, 63, 95); fill-opacity: 1; white-space: pre;">20k</text></g><g class="ytick"><text text-anchor="end" x="39" y="4.199999999999999" transform="translate(0,179.39)" style="font-family: 'Open Sans', verdana, arial, sans-serif; font-size: 12px; fill: rgb(42, 63, 95); fill-opacity: 1; white-space: pre;">25k</text></g><g class="ytick"><text text-anchor="end" x="39" y="4.199999999999999" transform="translate(0,111.09)" style="font-family: 'Open Sans', verdana, arial, sans-serif; font-size: 12px; fill: rgb(42, 63, 95); fill-opacity: 1; white-space: pre;">30k</text></g></g><g class="overaxes-above"/></g></g><g class="polarlayer"/><g class="ternarylayer"/><g class="geolayer"/><g class="funnelarealayer"/><g class="pielayer"/><g class="treemaplayer"/><g class="sunburstlayer"/><g class="glimages"/><defs id="topdefs-a7b3ed"><g class="clips"/><clipPath id="legenda7b3ed"><rect width="606" height="29" x="0" y="0"/></clipPath></defs><g class="layer-above"><g class="imagelayer"/><g class="shapelayer"/></g><g class="infolayer"><g class="legend" pointer-events="all" transform="translate(53, 11.519999999999996)"><rect class="bg" shape-rendering="crispEdges" width="606" height="29" x="0" y="0" style="stroke: rgb(68, 68, 68); stroke-opacity: 1; fill: rgb(255, 255, 255); fill-opacity: 1; stroke-width: 0px;"/><g class="scrollbox" transform="translate(0, 0)" clip-path="url('#legenda7b3ed')"><g class="groups"><g class="traces" transform="translate(0, 14.5)" style="opacity: 1;"><text class="legendtext" text-anchor="start" x="40" y="4.680000000000001" style="font-family: 'Open Sans', verdana, arial, sans-serif; font-size: 12px; fill: rgb(42, 63, 95); fill-opacity: 1; white-space: pre;">BTC-USD</text><g class="layers" style="opacity: 1;"><g class="legendfill"/><g class="legendlines"><path class="js-line" d="M5,0h30" style="fill: none; stroke: rgb(31, 119, 180); stroke-opacity: 1; stroke-width: 2px;"/></g><g class="legendsymbols"><g class="legendpoints"/></g></g><rect class="legendtoggle" x="0" y="-9.5" width="98.1875" height="19" style="fill: rgb(0, 0, 0); fill-opacity: 0;"/></g><g class="traces" transform="translate(100.6875, 14.5)" style="opacity: 1;"><text class="legendtext" text-anchor="start" x="40" y="4.680000000000001" style="font-family: 'Open Sans', verdana, arial, sans-serif; font-size: 12px; fill: rgb(42, 63, 95); fill-opacity: 1; white-space: pre;">ETH-USD</text><g class="layers" style="opacity: 1;"><g class="legendfill"/><g class="legendlines"><path class="js-line" d="M5,0h30" style="fill: none; stroke: rgb(255, 127, 14); stroke-opacity: 1; stroke-width: 2px;"/></g><g class="legendsymbols"><g class="legendpoints"/></g></g><rect class="legendtoggle" x="0" y="-9.5" width="98.1875" height="19" style="fill: rgb(0, 0, 0); fill-opacity: 0;"/></g><g class="traces" transform="translate(201.375, 14.5)" style="opacity: 1;"><text class="legendtext" text-anchor="start" x="40" y="4.680000000000001" style="font-family: 'Open Sans', verdana, arial, sans-serif; font-size: 12px; fill: rgb(42, 63, 95); fill-opacity: 1; white-space: pre;">XRP-USD</text><g class="layers" style="opacity: 1;"><g class="legendfill"/><g class="legendlines"><path class="js-line" d="M5,0h30" style="fill: none; stroke: rgb(44, 160, 44); stroke-opacity: 1; stroke-width: 2px;"/></g><g class="legendsymbols"><g class="legendpoints"/></g></g><rect class="legendtoggle" x="0" y="-9.5" width="97.984375" height="19" style="fill: rgb(0, 0, 0); fill-opacity: 0;"/></g><g class="traces" transform="translate(301.859375, 14.5)" style="opacity: 1;"><text class="legendtext" text-anchor="start" x="40" y="4.680000000000001" style="font-family: 'Open Sans', verdana, arial, sans-serif; font-size: 12px; fill: rgb(42, 63, 95); fill-opacity: 1; white-space: pre;">BNB-USD</text><g class="layers" style="opacity: 1;"><g class="legendfill"/><g class="legendlines"><path class="js-line" d="M5,0h30" style="fill: none; stroke: rgb(220, 57, 18); stroke-opacity: 1; stroke-width: 2px;"/></g><g class="legendsymbols"><g class="legendpoints"/></g></g><rect class="legendtoggle" x="0" y="-9.5" width="99.625" height="19" style="fill: rgb(0, 0, 0); fill-opacity: 0;"/></g><g class="traces" transform="translate(403.984375, 14.5)" style="opacity: 1;"><text class="legendtext" text-anchor="start" x="40" y="4.680000000000001" style="font-family: 'Open Sans', verdana, arial, sans-serif; font-size: 12px; fill: rgb(42, 63, 95); fill-opacity: 1; white-space: pre;">BCH-USD</text><g class="layers" style="opacity: 1;"><g class="legendfill"/><g class="legendlines"><path class="js-line" d="M5,0h30" style="fill: none; stroke: rgb(148, 103, 189); stroke-opacity: 1; stroke-width: 2px;"/></g><g class="legendsymbols"><g class="legendpoints"/></g></g><rect class="legendtoggle" x="0" y="-9.5" width="99.8125" height="19" style="fill: rgb(0, 0, 0); fill-opacity: 0;"/></g><g class="traces" transform="translate(506.296875, 14.5)" style="opacity: 1;"><text class="legendtext" text-anchor="start" x="40" y="4.680000000000001" style="font-family: 'Open Sans', verdana, arial, sans-serif; font-size: 12px; fill: rgb(42, 63, 95); fill-opacity: 1; white-space: pre;">LTC-USD</text><g class="layers" style="opacity: 1;"><g class="legendfill"/><g class="legendlines"><path class="js-line" d="M5,0h30" style="fill: none; stroke: rgb(140, 86, 75); stroke-opacity: 1; stroke-width: 2px;"/></g><g class="legendsymbols"><g class="legendpoints"/></g></g><rect class="legendtoggle" x="0" y="-9.5" width="96.640625" height="19" style="fill: rgb(0, 0, 0); fill-opacity: 0;"/></g></g></g><rect class="scrollbar" rx="20" ry="3" width="0" height="0" x="0" y="0" style="fill: rgb(128, 139, 164); fill-opacity: 1;"/></g><g class="g-gtitle"/><g class="g-xtitle"/><g class="g-ytitle"/></g></svg>