<svg class="main-svg" xmlns="http://www.w3.org/2000/svg" xmlns:xlink="http://www.w3.org/1999/xlink" width="750" height="600" style="" viewBox="0 0 750 600"><rect x="0" y="0" width="750" height="600" style="fill: rgb(255, 255, 255); fill-opacity: 1;"/><defs id="defs-38a343"><g class="clips"><clipPath id="clip38a343xyplot" class="plotclip"><rect width="648" height="225.4"/></clipPath><clipPath id="clip38a343x2y2plot" class="plotclip"><rect width="648" height="225.4"/></clipPath><clipPath class="axesclip" id="clip38a343x"><rect x="72" y="0" width="648" height="600"/></clipPath><clipPath class="axesclip" id="clip38a343y"><rect x="0" y="65" width="750" height="225.4"/></clipPath><clipPath class="axesclip" id="clip38a343xy"><rect x="72" y="65" width="648" height="225.4"/></clipPath><clipPath class="axesclip" id="clip38a343y2"><rect x="0" y="322.6" width="750" height="225.4"/></clipPath><clipPath class="axesclip" id="clip38a343xy2"><rect x="72" y="322.6" width="648" height="225.4"/></clipPath><clipPath class="axesclip" id="clip38a343x2"><rect x="72" y="0" width="648" height="600"/></clipPath><clipPath class="axesclip" id="clip38a343x2y"><rect x="72" y="65" width="648" height="225.4"/></clipPath><clipPath class="axesclip" id="clip38a343x2y2"><rect x="72" y="322.6" width="648" height="225.4"/></clipPath></g><g class="gradients"/></defs><g class="bglayer"><rect class="bg" x="72" y="65" width="648" height="225.4" style="fill: rgb(229, 236, 246); fill-opacity: 1; stroke-width: 0;"/><rect class="bg" x="72" y="322.6" width="648" height="225.4" style="fill: rgb(229, 236, 246); fill-opacity: 1; stroke-width: 0;"/></g><g class="layer-below"><g class="imagelayer"/><g class="shapelayer"><path data-index="0" fill-rule="evenodd" d="M392.64,290.4H540.44V65H392.64Z" clip-path="url('#clip38a343x')" style="opacity: 0.2; stroke: rgb(0, 0, 0); stroke-opacity: 0; fill: rgb(255, 0, 0); fill-opacity: 1; stroke-width: 0px;"/><path data-index="1" fill-rule="evenodd" d="M542.94,290.4H567.99V65H542.94Z" clip-path="url('#clip38a343x')" style="opacity: 0.2; stroke: rgb(0, 0, 0); stroke-opacity: 0; fill: rgb(255, 0, 0); fill-opacity: 1; stroke-width: 0px;"/><path data-index="2" fill-rule="evenodd" d="M540.44,290.4H542.94V65H540.44Z" clip-path="url('#clip38a343x')" style="opacity: 0.2; stroke: rgb(0, 0, 0); stroke-opacity: 0; fill: rgb(0, 128, 0); fill-opacity: 1; stroke-width: 0px;"/><path data-index="3" fill-rule="evenodd" d="M567.99,290.4H583.02V65H567.99Z" clip-path="url('#clip38a343x')" style="opacity: 0.2; stroke: rgb(0, 0, 0); stroke-opacity: 0; fill: rgb(0, 128, 0); fill-opacity: 1; stroke-width: 0px;"/><path data-index="4" fill-rule="evenodd" d="M608.07,290.4H683.22V65H608.07Z" clip-path="url('#clip38a343x')" style="opacity: 0.2; stroke: rgb(0, 0, 0); stroke-opacity: 0; fill: rgb(255, 165, 0); fill-opacity: 1; stroke-width: 0px;"/></g></g><g class="cartesianlayer"><g class="subplot xy"><g class="layer-subplot"><g class="shapelayer"/><g class="imagelayer"/></g><g class="gridlayer"><g class="x"><path class="xgrid crisp" transform="translate(74.51,0)" d="M0,65v225.4" style="stroke: rgb(255, 255, 255); stroke-opacity: 1; stroke-width: 1px;"/><path class="xgrid crisp" transform="translate(152.16,0)" d="M0,65v225.4" style="stroke: rgb(255, 255, 255); stroke-opacity: 1; stroke-width: 1px;"/><path class="xgrid crisp" transform="translate(224.81,0)" d="M0,65v225.4" style="stroke: rgb(255, 255, 255); stroke-opacity: 1; stroke-width: 1px;"/><path class="xgrid crisp" transform="translate(302.46000000000004,0)" d="M0,65v225.4" style="stroke: rgb(255, 255, 255); stroke-opacity: 1; stroke-width: 1px;"/><path class="xgrid crisp" transform="translate(377.61,0)" d="M0,65v225.4" style="stroke: rgb(255, 255, 255); stroke-opacity: 1; stroke-width: 1px;"/><path class="xgrid crisp" transform="translate(455.27,0)" d="M0,65v225.4" style="stroke: rgb(255, 255, 255); stroke-opacity: 1; stroke-width: 1px;"/><path class="xgrid crisp" transform="translate(530.4200000000001,0)" d="M0,65v225.4" style="stroke: rgb(255, 255, 255); stroke-opacity: 1; stroke-width: 1px;"/><path class="xgrid crisp" transform="translate(608.07,0)" d="M0,65v225.4" style="stroke: rgb(255, 255, 255); stroke-opacity: 1; stroke-width: 1px;"/><path class="xgrid crisp" transform="translate(685.73,0)" d="M0,65v225.4" style="stroke: rgb(255, 255, 255); stroke-opacity: 1; stroke-width: 1px;"/></g><g class="y"><path class="ygrid crisp" transform="translate(0,258.53)" d="M72,0h648" style="stroke: rgb(255, 255, 255); stroke-opacity: 1; stroke-width: 1px;"/><path class="ygrid crisp" transform="translate(0,219.06)" d="M72,0h648" style="stroke: rgb(255, 255, 255); stroke-opacity: 1; stroke-width: 1px;"/><path class="ygrid crisp" transform="translate(0,179.6)" d="M72,0h648" style="stroke: rgb(255, 255, 255); stroke-opacity: 1; stroke-width: 1px;"/><path class="ygrid crisp" transform="translate(0,140.14)" d="M72,0h648" style="stroke: rgb(255, 255, 255); stroke-opacity: 1; stroke-width: 1px;"/><path class="ygrid crisp" transform="translate(0,100.68)" d="M72,0h648" style="stroke: rgb(255, 255, 255); stroke-opacity: 1; stroke-width: 1px;"/></g></g><g class="zerolinelayer"/><path class="xlines-below"/><path class="ylines-below"/><g class="overlines-below"/><g class="xaxislayer-below"/><g class="yaxislayer-below"/><g class="overaxes-below"/><g class="plot" transform="translate(72, 65)" clip-path="url('#clip38a343xyplot')"><g class="scatterlayer mlayer"><g class="trace scatter trace56080afe-4b8e-442c-8575-7609e62dc6d3" style="stroke-miterlimit: 2; opacity: 1;"><g class="fills"/><g class="errorbars"/><g class="lines"><path class="js-line" d="M0,211.21L55.11,211.12L57.62,212.19L65.13,211.44L67.64,210.22L70.14,208.47L72.65,208.63L75.15,207.88L77.66,208.5L85.17,208.72L87.68,209.16L90.18,207.47L92.69,207.02L100.2,205.51L102.71,206.52L105.21,205.15L107.72,204.69L110.22,205.12L112.73,204.74L115.23,206.39L117.74,206.22L120.24,207.17L122.75,205.41L125.25,207.39L127.76,207.49L135.27,206.26L137.78,207.33L140.28,208.53L142.79,210.57L152.81,211.58L155.31,210.38L160.32,210.83L162.83,209.56L165.33,209.39L167.84,210.22L170.34,213.35L172.85,214.08L210.42,214.12L212.93,214.12L230.46,214.12L232.97,204.32L235.47,207.48L237.98,200.44L240.48,204.45L242.99,179.23L245.49,184.23L248,175.96L250.5,176.12L253.01,178.33L293.09,179.1L295.59,173.89L298.1,173.38L300.6,128.64L303.11,135.05L305.61,125.77L308.12,124.27L310.62,125.37L313.13,125.19L315.63,124.1L318.14,120.89L320.64,112.66L323.15,113.97L325.65,116.97L328.16,127.07L330.66,127.07L380.76,127.07L383.27,116.77L385.77,126.07L388.28,124.22L390.78,122.12L393.29,124.09L395.79,124.26L398.3,122.73L403.31,122.19L405.81,121.11L408.32,129.1L410.82,126.78L413.33,126.87L415.83,128.16L420.84,125.95L423.35,126.79L428.36,129.6L430.86,128.95L433.37,129.37L435.87,124.34L438.38,124.61L440.88,129.22L445.89,131.42L448.4,133.14L450.9,131.7L453.41,127.51L455.91,132.2L458.42,124.18L460.92,133.49L463.43,136.7L465.93,132.69L468.44,137.89L470.94,111.12L473.45,122.06L475.95,111.87L478.46,120.57L480.96,120.52L483.47,122.75L485.97,120.65L488.48,122.56L490.98,122.58L493.49,125.5L495.99,129L498.5,127.89L501,127.45L503.51,125.9L506.01,127.15L508.52,114.96L511.02,109.43L513.53,107.38L516.03,109.01L518.54,103.85L521.04,95.46L523.55,55.55L526.05,58.42L528.56,51.52L531.06,50.93L533.57,39.38L536.07,15.64L538.58,54.07L611.22,54.07" style="vector-effect: non-scaling-stroke; fill: none; stroke: rgb(148, 103, 189); stroke-opacity: 1; stroke-width: 2px; opacity: 1;"/></g><g class="points"/><g class="text"/></g><g class="trace scatter tracebb845fd6-31e5-4381-8553-a456eccbe801" style="stroke-miterlimit: 2; opacity: 1;"><g class="fills"/><g class="errorbars"/><g class="lines"/><g class="points"><path class="point plotly-customdata" transform="translate(320.64,112.66)" d="M4.55,0L0,4.55L-4.55,0L0,-4.55Z" style="opacity: 1; stroke-width: 1px; fill: rgb(66, 133, 244); fill-opacity: 1; stroke: rgb(11, 84, 205); stroke-opacity: 1;"/><path class="point plotly-customdata" transform="translate(536.07,15.64)" d="M4.55,0L0,4.55L-4.55,0L0,-4.55Z" style="opacity: 1; stroke-width: 1px; fill: rgb(66, 133, 244); fill-opacity: 1; stroke: rgb(11, 84, 205); stroke-opacity: 1;"/></g><g class="text"/></g><g class="trace scatter trace85f00d9d-a851-4d10-912c-3af6286701a3" style="stroke-miterlimit: 2; opacity: 1;"><g class="fills"/><g class="errorbars"/><g class="lines"/><g class="points"><path class="point plotly-customdata" transform="translate(468.44,137.89)" d="M4.55,0L0,4.55L-4.55,0L0,-4.55Z" style="opacity: 1; stroke-width: 1px; fill: rgb(234, 67, 53); fill-opacity: 1; stroke: rgb(181, 31, 18); stroke-opacity: 1;"/><path class="point plotly-customdata" transform="translate(495.99,129)" d="M4.55,0L0,4.55L-4.55,0L0,-4.55Z" style="opacity: 1; stroke-width: 1px; fill: rgb(234, 67, 53); fill-opacity: 1; stroke: rgb(181, 31, 18); stroke-opacity: 1;"/></g><g class="text"/></g><g class="trace scatter trace6c4047bc-02f5-4af9-a95d-92dc83db8033" style="stroke-miterlimit: 2; opacity: 1;"><g class="fills"/><g class="errorbars"/><g class="lines"/><g class="points"><path class="point plotly-customdata" transform="translate(470.94,111.12)" d="M4.55,0L0,4.55L-4.55,0L0,-4.55Z" style="opacity: 1; stroke-width: 1px; fill: rgb(55, 177, 63); fill-opacity: 1; stroke: rgb(38, 123, 44); stroke-opacity: 1;"/><path class="point plotly-customdata" transform="translate(511.02,109.43)" d="M4.55,0L0,4.55L-4.55,0L0,-4.55Z" style="opacity: 1; stroke-width: 1px; fill: rgb(55, 177, 63); fill-opacity: 1; stroke: rgb(38, 123, 44); stroke-opacity: 1;"/></g><g class="text"/></g><g class="trace scatter trace6fe0af2e-1f7f-455a-80ab-79b7a0f8cf37" style="stroke-miterlimit: 2; opacity: 1;"><g class="fills"/><g class="errorbars"/><g class="lines"/><g class="points"><path class="point plotly-customdata" transform="translate(611.22,54.07)" d="M4.55,0L0,4.55L-4.55,0L0,-4.55Z" style="opacity: 1; stroke-width: 1px; fill: rgb(255, 170, 0); fill-opacity: 1; stroke: rgb(178, 118, 0); stroke-opacity: 1;"/></g><g class="text"/></g></g></g><g class="overplot"/><path class="xlines-above crisp" d="M0,0" style="fill: none;"/><path class="ylines-above crisp" d="M0,0" style="fill: none;"/><g class="overlines-above"/><g class="xaxislayer-above"/><g class="yaxislayer-above"><g class="ytick"><text text-anchor="end" x="71" y="4.199999999999999" transform="translate(0,258.53)" style="font-family: 'Open Sans', verdana, arial, sans-serif; font-size: 12px; fill: rgb(42, 63, 95); fill-opacity: 1; white-space: pre;">9.5k</text></g><g class="ytick"><text text-anchor="end" x="71" y="4.199999999999999" transform="translate(0,219.06)" style="font-family: 'Open Sans', verdana, arial, sans-serif; font-size: 12px; fill: rgb(42, 63, 95); fill-opacity: 1; white-space: pre;">10k</text></g><g class="ytick"><text text-anchor="end" x="71" y="4.199999999999999" transform="translate(0,179.6)" style="font-family: 'Open Sans', verdana, arial, sans-serif; font-size: 12px; fill: rgb(42, 63, 95); fill-opacity: 1; white-space: pre;">10.5k</text></g><g class="ytick"><text text-anchor="end" x="71" y="4.199999999999999" transform="translate(0,140.14)" style="font-family: 'Open Sans', verdana, arial, sans-serif; font-size: 12px; fill: rgb(42, 63, 95); fill-opacity: 1; white-space: pre;">11k</text></g><g class="ytick"><text text-anchor="end" x="71" y="4.199999999999999" transform="translate(0,100.68)" style="font-family: 'Open Sans', verdana, arial, sans-serif; font-size: 12px; fill: rgb(42, 63, 95); fill-opacity: 1; white-space: pre;">11.5k</text></g></g><g class="overaxes-above"/></g><g class="subplot x2y2"><g class="layer-subplot"><g class="shapelayer"/><g class="imagelayer"/></g><g class="gridlayer"><g class="x2"><path class="x2grid crisp" transform="translate(74.51,0)" d="M0,322.6v225.4" style="stroke: rgb(255, 255, 255); stroke-opacity: 1; stroke-width: 1px;"/><path class="x2grid crisp" transform="translate(152.16,0)" d="M0,322.6v225.4" style="stroke: rgb(255, 255, 255); stroke-opacity: 1; stroke-width: 1px;"/><path class="x2grid crisp" transform="translate(224.81,0)" d="M0,322.6v225.4" style="stroke: rgb(255, 255, 255); stroke-opacity: 1; stroke-width: 1px;"/><path class="x2grid crisp" transform="translate(302.46000000000004,0)" d="M0,322.6v225.4" style="stroke: rgb(255, 255, 255); stroke-opacity: 1; stroke-width: 1px;"/><path class="x2grid crisp" transform="translate(377.61,0)" d="M0,322.6v225.4" style="stroke: rgb(255, 255, 255); stroke-opacity: 1; stroke-width: 1px;"/><path class="x2grid crisp" transform="translate(455.27,0)" d="M0,322.6v225.4" style="stroke: rgb(255, 255, 255); stroke-opacity: 1; stroke-width: 1px;"/><path class="x2grid crisp" transform="translate(530.4200000000001,0)" d="M0,322.6v225.4" style="stroke: rgb(255, 255, 255); stroke-opacity: 1; stroke-width: 1px;"/><path class="x2grid crisp" transform="translate(608.07,0)" d="M0,322.6v225.4" style="stroke: rgb(255, 255, 255); stroke-opacity: 1; stroke-width: 1px;"/><path class="x2grid crisp" transform="translate(685.73,0)" d="M0,322.6v225.4" style="stroke: rgb(255, 255, 255); stroke-opacity: 1; stroke-width: 1px;"/></g><g class="y2"><path class="y2grid crisp" transform="translate(0,529.4300000000001)" d="M72,0h648" style="stroke: rgb(255, 255, 255); stroke-opacity: 1; stroke-width: 1px;"/><path class="y2grid crisp" transform="translate(0,477.98)" d="M72,0h648" style="stroke: rgb(255, 255, 255); stroke-opacity: 1; stroke-width: 1px;"/><path class="y2grid crisp" transform="translate(0,426.52000000000004)" d="M72,0h648" style="stroke: rgb(255, 255, 255); stroke-opacity: 1; stroke-width: 1px;"/><path class="y2grid crisp" transform="translate(0,375.06)" d="M72,0h648" style="stroke: rgb(255, 255, 255); stroke-opacity: 1; stroke-width: 1px;"/></g></g><g class="zerolinelayer"><path class="y2zl zl crisp" transform="translate(0,323.6)" d="M72,0h648" style="stroke: rgb(255, 255, 255); stroke-opacity: 1; stroke-width: 2px;"/></g><path class="xlines-below"/><path class="ylines-below"/><g class="overlines-below"/><g class="xaxislayer-below"/><g class="yaxislayer-below"/><g class="overaxes-below"/><g class="plot" transform="translate(72, 322.6)" clip-path="url('#clip38a343x2y2plot')"><g class="scatterlayer mlayer"><g class="trace scatter trace2d814a43-d006-40a5-ba28-20ea49f953d8" style="stroke-miterlimit: 2;"><g class="fills"><g><path class="js-fill" d="M611.22,1L0,1L0,1L52.61,1L55.11,2.79L57.62,10.32L60.12,9.25L62.63,11.38L65.13,5.09L67.64,1L70.14,1L72.65,2.15L75.15,1L77.66,5.33L80.16,4.18L85.17,6.89L87.68,9.97L90.18,1L92.69,1L100.2,1L102.71,8.09L105.21,1L107.72,1L110.22,4.04L112.73,1.38L115.23,12.89L117.74,11.66L120.24,18.31L122.75,6.01L125.25,19.86L127.76,20.54L130.26,18.41L132.77,19.05L135.27,11.93L137.78,19.4L140.28,27.8L142.79,41.99L145.29,42.97L147.8,46.02L150.3,48.01L152.81,49.01L155.31,40.65L157.82,42.88L160.32,43.77L162.83,34.96L165.33,33.77L167.84,39.55L170.34,61.38L172.85,66.41L177.86,66.74L180.36,66.74L230.46,66.74L232.97,1L235.47,23.01L237.98,1L240.48,28.77L242.99,1L245.49,34.7L248,1L250.5,2.09L253.01,16.93L258.02,17.15L260.52,19.05L263.03,19.09L265.53,22.11L293.09,22.11L295.59,1L300.6,1L303.11,41.51L305.61,1L308.12,1L310.62,7.91L313.13,6.75L315.63,1L318.14,1L320.64,1L323.15,9.13L325.65,27.72L328.16,90.29L380.76,90.29L383.27,26.47L385.77,84.08L388.28,72.61L390.78,59.6L393.29,71.81L395.79,72.88L398.3,63.38L400.8,62.24L403.31,60.05L405.81,53.33L408.32,102.88L410.82,88.5L413.33,89.01L415.83,97L418.34,91.23L420.84,83.33L423.35,88.56L425.85,94.74L428.36,105.93L430.86,101.92L433.37,104.52L435.87,73.33L438.38,75.05L440.88,103.62L443.39,108.02L448.4,127.85L450.9,118.98L453.41,92.99L455.91,122.05L458.42,72.38L460.92,130.07L463.43,149.93L465.93,125.08L468.44,157.27L470.94,1L473.45,68.62L475.95,5.63L478.46,59.43L480.96,59.13L483.47,72.89L485.97,59.95L488.48,71.72L490.98,71.86L495.99,111.57L498.5,104.71L501,101.98L503.51,92.4L506.01,100.12L508.52,24.75L511.02,1L513.53,1L516.03,11L518.54,1L523.55,1L526.05,17.63L528.56,1L531.06,1L536.07,1L538.58,214.13L611.22,214.13" style="fill: rgb(255, 111, 0); fill-opacity: 0.3; stroke-width: 0;"/></g></g><g class="errorbars"/><g class="lines"><path class="js-line" d="M0,1L52.61,1L55.11,2.79L57.62,10.32L60.12,9.25L62.63,11.38L65.13,5.09L67.64,1L70.14,1L72.65,2.15L75.15,1L77.66,5.33L80.16,4.18L85.17,6.89L87.68,9.97L90.18,1L92.69,1L100.2,1L102.71,8.09L105.21,1L107.72,1L110.22,4.04L112.73,1.38L115.23,12.89L117.74,11.66L120.24,18.31L122.75,6.01L125.25,19.86L127.76,20.54L130.26,18.41L132.77,19.05L135.27,11.93L137.78,19.4L140.28,27.8L142.79,41.99L145.29,42.97L147.8,46.02L150.3,48.01L152.81,49.01L155.31,40.65L157.82,42.88L160.32,43.77L162.83,34.96L165.33,33.77L167.84,39.55L170.34,61.38L172.85,66.41L177.86,66.74L180.36,66.74L230.46,66.74L232.97,1L235.47,23.01L237.98,1L240.48,28.77L242.99,1L245.49,34.7L248,1L250.5,2.09L253.01,16.93L258.02,17.15L260.52,19.05L263.03,19.09L265.53,22.11L293.09,22.11L295.59,1L300.6,1L303.11,41.51L305.61,1L308.12,1L310.62,7.91L313.13,6.75L315.63,1L318.14,1L320.64,1L323.15,9.13L325.65,27.72L328.16,90.29L380.76,90.29L383.27,26.47L385.77,84.08L388.28,72.61L390.78,59.6L393.29,71.81L395.79,72.88L398.3,63.38L400.8,62.24L403.31,60.05L405.81,53.33L408.32,102.88L410.82,88.5L413.33,89.01L415.83,97L418.34,91.23L420.84,83.33L423.35,88.56L425.85,94.74L428.36,105.93L430.86,101.92L433.37,104.52L435.87,73.33L438.38,75.05L440.88,103.62L443.39,108.02L448.4,127.85L450.9,118.98L453.41,92.99L455.91,122.05L458.42,72.38L460.92,130.07L463.43,149.93L465.93,125.08L468.44,157.27L470.94,1L473.45,68.62L475.95,5.63L478.46,59.43L480.96,59.13L483.47,72.89L485.97,59.95L488.48,71.72L490.98,71.86L495.99,111.57L498.5,104.71L501,101.98L503.51,92.4L506.01,100.12L508.52,24.75L511.02,1L513.53,1L516.03,11L518.54,1L523.55,1L526.05,17.63L528.56,1L531.06,1L536.07,1L538.58,214.13L611.22,214.13" style="vector-effect: non-scaling-stroke; fill: none; stroke: rgb(255, 111, 0); stroke-opacity: 1; stroke-width: 2px; opacity: 1;"/></g><g class="points"/><g class="text"/></g></g></g><g class="overplot"/><path class="xlines-above crisp" d="M0,0" style="fill: none;"/><path class="ylines-above crisp" d="M0,0" style="fill: none;"/><g class="overlines-above"/><g class="xaxislayer-above"><g class="x2tick"><text text-anchor="middle" x="0" y="561" transform="translate(74.51,0)" style="font-family: 'Open Sans', verdana, arial, sans-serif; font-size: 12px; fill: rgb(42, 63, 95); fill-opacity: 1; white-space: pre;">Jan 2020</text></g><g class="x2tick"><text text-anchor="middle" x="0" y="561" transform="translate(152.16,0)" style="font-family: 'Open Sans', verdana, arial, sans-serif; font-size: 12px; fill: rgb(42, 63, 95); fill-opacity: 1; white-space: pre;">Feb 2020</text></g><g class="x2tick"><text text-anchor="middle" x="0" y="561" transform="translate(224.81,0)" style="font-family: 'Open Sans', verdana, arial, sans-serif; font-size: 12px; fill: rgb(42, 63, 95); fill-opacity: 1; white-space: pre;">Mar 2020</text></g><g class="x2tick"><text text-anchor="middle" x="0" y="561" transform="translate(302.46000000000004,0)" style="font-family: 'Open Sans', verdana, arial, sans-serif; font-size: 12px; fill: rgb(42, 63, 95); fill-opacity: 1; white-space: pre;">Apr 2020</text></g><g class="x2tick"><text text-anchor="middle" x="0" y="561" transform="translate(377.61,0)" style="font-family: 'Open Sans', verdana, arial, sans-serif; font-size: 12px; fill: rgb(42, 63, 95); fill-opacity: 1; white-space: pre;">May 2020</text></g><g class="x2tick"><text text-anchor="middle" x="0" y="561" transform="translate(455.27,0)" style="font-family: 'Open Sans', verdana, arial, sans-serif; font-size: 12px; fill: rgb(42, 63, 95); fill-opacity: 1; white-space: pre;">Jun 2020</text></g><g class="x2tick"><text text-anchor="middle" x="0" y="561" transform="translate(530.4200000000001,0)" style="font-family: 'Open Sans', verdana, arial, sans-serif; font-size: 12px; fill: rgb(42, 63, 95); fill-opacity: 1; white-space: pre;">Jul 2020</text></g><g class="x2tick"><text text-anchor="middle" x="0" y="561" transform="translate(608.07,0)" style="font-family: 'Open Sans', verdana, arial, sans-serif; font-size: 12px; fill: rgb(42, 63, 95); fill-opacity: 1; white-space: pre;">Aug 2020</text></g><g class="x2tick"><text text-anchor="middle" x="0" y="561" transform="translate(685.73,0)" style="font-family: 'Open Sans', verdana, arial, sans-serif; font-size: 12px; fill: rgb(42, 63, 95); fill-opacity: 1; white-space: pre;">Sep 2020</text></g></g><g class="yaxislayer-above"><g class="y2tick"><text text-anchor="end" x="71" y="4.199999999999999" transform="translate(0,529.4300000000001)" style="font-family: 'Open Sans', verdana, arial, sans-serif; font-size: 12px; fill: rgb(42, 63, 95); fill-opacity: 1; white-space: pre;">−4%</text></g><g class="y2tick"><text text-anchor="end" x="71" y="4.199999999999999" transform="translate(0,477.98)" style="font-family: 'Open Sans', verdana, arial, sans-serif; font-size: 12px; fill: rgb(42, 63, 95); fill-opacity: 1; white-space: pre;">−3%</text></g><g class="y2tick"><text text-anchor="end" x="71" y="4.199999999999999" transform="translate(0,426.52000000000004)" style="font-family: 'Open Sans', verdana, arial, sans-serif; font-size: 12px; fill: rgb(42, 63, 95); fill-opacity: 1; white-space: pre;">−2%</text></g><g class="y2tick"><text text-anchor="end" x="71" y="4.199999999999999" transform="translate(0,375.06)" style="font-family: 'Open Sans', verdana, arial, sans-serif; font-size: 12px; fill: rgb(42, 63, 95); fill-opacity: 1; white-space: pre;">−1%</text></g><g class="y2tick"><text text-anchor="end" x="71" y="4.199999999999999" transform="translate(0,323.6)" style="font-family: 'Open Sans', verdana, arial, sans-serif; font-size: 12px; fill: rgb(42, 63, 95); fill-opacity: 1; white-space: pre;">0%</text></g></g><g class="overaxes-above"/></g></g><g class="polarlayer"/><g class="ternarylayer"/><g class="geolayer"/><g class="funnelarealayer"/><g class="pielayer"/><g class="treemaplayer"/><g class="sunburstlayer"/><g class="glimages"/><defs id="topdefs-38a343"><g class="clips"/><clipPath id="legend38a343"><rect width="559" height="29" x="0" y="0"/></clipPath></defs><g class="layer-above"><g class="imagelayer"/><g class="shapelayer"><path data-index="5" fill-rule="evenodd" d="M72,323.6L720,323.6" clip-path="url('#clip38a343y2')" style="opacity: 1; stroke: rgb(128, 128, 128); stroke-opacity: 1; fill: rgb(0, 0, 0); fill-opacity: 0; stroke-dasharray: 9px, 9px; stroke-width: 2px;"/></g></g><g class="infolayer"><g class="legend" pointer-events="all" transform="translate(161, 11.84999999999998)"><rect class="bg" shape-rendering="crispEdges" style="stroke: rgb(68, 68, 68); stroke-opacity: 1; fill: rgb(255, 255, 255); fill-opacity: 1; stroke-width: 0px;" width="559" height="29" x="0" y="0"/><g class="scrollbox" transform="translate(0, 0)" clip-path="url('#legend38a343')"><g class="groups"><g class="traces" transform="translate(0, 14.5)" style="opacity: 1;"><text class="legendtext" text-anchor="start" x="40" y="4.680000000000001" style="font-family: 'Open Sans', verdana, arial, sans-serif; font-size: 12px; fill: rgb(42, 63, 95); fill-opacity: 1; white-space: pre;">Value</text><g class="layers" style="opacity: 1;"><g class="legendfill"/><g class="legendlines"><path class="js-line" d="M5,0h30" style="fill: none; stroke: rgb(148, 103, 189); stroke-opacity: 1; stroke-width: 2px;"/></g><g class="legendsymbols"><g class="legendpoints"/></g></g><rect class="legendtoggle" x="0" y="-9.5" width="75.953125" height="19" style="fill: rgb(0, 0, 0); fill-opacity: 0;"/></g><g class="traces" transform="translate(78.453125, 14.5)" style="opacity: 1;"><text class="legendtext" text-anchor="start" x="40" y="4.680000000000001" style="font-family: 'Open Sans', verdana, arial, sans-serif; font-size: 12px; fill: rgb(42, 63, 95); fill-opacity: 1; white-space: pre;">Peak</text><g class="layers" style="opacity: 1;"><g class="legendfill"/><g class="legendlines"/><g class="legendsymbols"><g class="legendpoints"><path class="scatterpts" transform="translate(20,0)" d="M4.55,0L0,4.55L-4.55,0L0,-4.55Z" style="opacity: 1; stroke-width: 1px; fill: rgb(66, 133, 244); fill-opacity: 1; stroke: rgb(11, 84, 205); stroke-opacity: 1;"/></g></g></g><rect class="legendtoggle" x="0" y="-9.5" width="71.203125" height="19" style="fill: rgb(0, 0, 0); fill-opacity: 0;"/></g><g class="traces" transform="translate(152.15625, 14.5)" style="opacity: 1;"><text class="legendtext" text-anchor="start" x="40" y="4.680000000000001" style="font-family: 'Open Sans', verdana, arial, sans-serif; font-size: 12px; fill: rgb(42, 63, 95); fill-opacity: 1; white-space: pre;">Valley</text><g class="layers" style="opacity: 1;"><g class="legendfill"/><g class="legendlines"/><g class="legendsymbols"><g class="legendpoints"><path class="scatterpts" transform="translate(20,0)" d="M4.55,0L0,4.55L-4.55,0L0,-4.55Z" style="opacity: 1; stroke-width: 1px; fill: rgb(234, 67, 53); fill-opacity: 1; stroke: rgb(181, 31, 18); stroke-opacity: 1;"/></g></g></g><rect class="legendtoggle" x="0" y="-9.5" width="78.75" height="19" style="fill: rgb(0, 0, 0); fill-opacity: 0;"/></g><g class="traces" transform="translate(233.40625, 14.5)" style="opacity: 1;"><text class="legendtext" text-anchor="start" x="40" y="4.680000000000001" style="font-family: 'Open Sans', verdana, arial, sans-serif; font-size: 12px; fill: rgb(42, 63, 95); fill-opacity: 1; white-space: pre;">Recovery/Peak</text><g class="layers" style="opacity: 1;"><g class="legendfill"/><g class="legendlines"/><g class="legendsymbols"><g class="legendpoints"><path class="scatterpts" transform="translate(20,0)" d="M4.55,0L0,4.55L-4.55,0L0,-4.55Z" style="opacity: 1; stroke-width: 1px; fill: rgb(55, 177, 63); fill-opacity: 1; stroke: rgb(38, 123, 44); stroke-opacity: 1;"/></g></g></g><rect class="legendtoggle" x="0" y="-9.5" width="132.15625" height="19" style="fill: rgb(0, 0, 0); fill-opacity: 0;"/></g><g class="traces" transform="translate(368.0625, 14.5)" style="opacity: 1;"><text class="legendtext" text-anchor="start" x="40" y="4.680000000000001" style="font-family: 'Open Sans', verdana, arial, sans-serif; font-size: 12px; fill: rgb(42, 63, 95); fill-opacity: 1; white-space: pre;">Active</text><g class="layers" style="opacity: 1;"><g class="legendfill"/><g class="legendlines"/><g class="legendsymbols"><g class="legendpoints"><path class="scatterpts" transform="translate(20,0)" d="M4.55,0L0,4.55L-4.55,0L0,-4.55Z" style="opacity: 1; stroke-width: 1px; fill: rgb(255, 170, 0); fill-opacity: 1; stroke: rgb(178, 118, 0); stroke-opacity: 1;"/></g></g></g><rect class="legendtoggle" x="0" y="-9.5" width="79.234375" height="19" style="fill: rgb(0, 0, 0); fill-opacity: 0;"/></g><g class="traces" transform="translate(449.796875, 14.5)" style="opacity: 1;"><text class="legendtext" text-anchor="start" x="40" y="4.680000000000001" style="font-family: 'Open Sans', verdana, arial, sans-serif; font-size: 12px; fill: rgb(42, 63, 95); fill-opacity: 1; white-space: pre;">Drawdown</text><g class="layers"><g class="legendfill"><path class="js-fill" d="M5,-2h30v6h-30z" style="stroke-width: 0; fill: rgb(255, 111, 0); fill-opacity: 0.3;"/></g><g class="legendlines"><path class="js-line" d="M5,-2h30" style="fill: none; stroke: rgb(255, 111, 0); stroke-opacity: 1; stroke-width: 2px;"/></g><g class="legendsymbols"><g class="legendpoints"/></g></g><rect class="legendtoggle" x="0" y="-9.5" width="106.078125" height="19" style="fill: rgb(0, 0, 0); fill-opacity: 0;"/></g></g></g><rect class="scrollbar" rx="20" ry="3" width="0" height="0" style="fill: rgb(128, 139, 164); fill-opacity: 1;" x="0" y="0"/></g><g class="g-gtitle"/><g class="g-xtitle"/><g class="g-x2title"><text class="x2title" x="396" y="588.3" text-anchor="middle" style="font-family: 'Open Sans', verdana, arial, sans-serif; font-size: 14px; fill: rgb(42, 63, 95); opacity: 1; font-weight: normal; white-space: pre;">Date</text></g><g class="g-ytitle" transform="translate(2.171875,0)"><text class="ytitle" transform="rotate(-90,11.840625000000003,177.7)" x="11.840625000000003" y="177.7" text-anchor="middle" style="font-family: 'Open Sans', verdana, arial, sans-serif; font-size: 14px; fill: rgb(42, 63, 95); opacity: 1; font-weight: normal; white-space: pre;">Value</text></g><g class="g-y2title"><text class="y2title" transform="rotate(-90,15.825000000000003,435.3)" x="15.825000000000003" y="435.3" text-anchor="middle" style="font-family: 'Open Sans', verdana, arial, sans-serif; font-size: 14px; fill: rgb(42, 63, 95); opacity: 1; font-weight: normal; white-space: pre;">Drawdown</text></g><g class="annotation" data-index="0" style="opacity: 1;"><g class="annotation-text-g" transform="rotate(0,396,53)"><g class="cursor-pointer" transform="translate(348, 41)"><rect class="bg" x="0.5" y="0.5" width="96" height="23" style="stroke-width: 1px; stroke: rgb(0, 0, 0); stroke-opacity: 0; fill: rgb(0, 0, 0); fill-opacity: 0;"/><text class="annotation-text" text-anchor="middle" x="48.546875" y="18" style="font-family: 'Open Sans', verdana, arial, sans-serif; font-size: 16px; fill: rgb(42, 63, 95); fill-opacity: 1; white-space: pre;">Drawdowns</text></g></g></g><g class="annotation" data-index="1" style="opacity: 1;"><g class="annotation-text-g" transform="rotate(0,396,310.6)"><g class="cursor-pointer" transform="translate(347, 299)"><rect class="bg" x="0.5" y="0.5" width="97" height="23" style="stroke-width: 1px; stroke: rgb(0, 0, 0); stroke-opacity: 0; fill: rgb(0, 0, 0); fill-opacity: 0;"/><text class="annotation-text" text-anchor="middle" x="48.765625" y="18" style="font-family: 'Open Sans', verdana, arial, sans-serif; font-size: 16px; fill: rgb(42, 63, 95); fill-opacity: 1; white-space: pre;">Underwater</text></g></g></g></g></svg>