<svg class="main-svg" xmlns="http://www.w3.org/2000/svg" xmlns:xlink="http://www.w3.org/1999/xlink" width="750" height="900" style="" viewBox="0 0 750 900"><rect x="0" y="0" width="750" height="900" style="fill: rgb(255, 255, 255); fill-opacity: 1;"/><defs id="defs-8ec25b"><g class="clips"><clipPath id="clip8ec25bxyplot" class="plotclip"><rect width="614" height="231.72592592592594"/></clipPath><clipPath id="clip8ec25bx2y2plot" class="plotclip"><rect width="614" height="231.72592592592596"/></clipPath><clipPath id="clip8ec25bx3y3plot" class="plotclip"><rect width="614" height="231.72592592592594"/></clipPath><clipPath class="axesclip" id="clip8ec25bx"><rect x="95" y="0" width="614" height="900"/></clipPath><clipPath class="axesclip" id="clip8ec25by"><rect x="0" y="85" width="750" height="231.72592592592594"/></clipPath><clipPath class="axesclip" id="clip8ec25bxy"><rect x="95" y="85" width="614" height="231.72592592592594"/></clipPath><clipPath class="axesclip" id="clip8ec25by2"><rect x="0" y="350.637037037037" width="750" height="231.72592592592596"/></clipPath><clipPath class="axesclip" id="clip8ec25bxy2"><rect x="95" y="350.637037037037" width="614" height="231.72592592592596"/></clipPath><clipPath class="axesclip" id="clip8ec25by3"><rect x="0" y="616.2740740740741" width="750" height="231.72592592592594"/></clipPath><clipPath class="axesclip" id="clip8ec25bxy3"><rect x="95" y="616.2740740740741" width="614" height="231.72592592592594"/></clipPath><clipPath class="axesclip" id="clip8ec25bx2"><rect x="95" y="0" width="614" height="900"/></clipPath><clipPath class="axesclip" id="clip8ec25bx2y"><rect x="95" y="85" width="614" height="231.72592592592594"/></clipPath><clipPath class="axesclip" id="clip8ec25bx2y2"><rect x="95" y="350.637037037037" width="614" height="231.72592592592596"/></clipPath><clipPath class="axesclip" id="clip8ec25bx2y3"><rect x="95" y="616.2740740740741" width="614" height="231.72592592592594"/></clipPath><clipPath class="axesclip" id="clip8ec25bx3"><rect x="95" y="0" width="614" height="900"/></clipPath><clipPath class="axesclip" id="clip8ec25bx3y"><rect x="95" y="85" width="614" height="231.72592592592594"/></clipPath><clipPath class="axesclip" id="clip8ec25bx3y2"><rect x="95" y="350.637037037037" width="614" height="231.72592592592596"/></clipPath><clipPath class="axesclip" id="clip8ec25bx3y3"><rect x="95" y="616.2740740740741" width="614" height="231.72592592592594"/></clipPath></g><g class="gradients"/></defs><g class="bglayer"><rect class="bg" x="95" y="85" width="614" height="231.72592592592594" style="fill: rgb(229, 236, 246); fill-opacity: 1; stroke-width: 0;"/><rect class="bg" x="95" y="350.637037037037" width="614" height="231.72592592592596" style="fill: rgb(229, 236, 246); fill-opacity: 1; stroke-width: 0;"/><rect class="bg" x="95" y="616.2740740740741" width="614" height="231.72592592592594" style="fill: rgb(229, 236, 246); fill-opacity: 1; stroke-width: 0;"/></g><g class="layer-below"><g class="imagelayer"/><g class="shapelayer"/></g><g class="cartesianlayer"><g class="subplot xy"><g class="layer-subplot"><g class="shapelayer"/><g class="imagelayer"/></g><g class="gridlayer"><g class="x"><path class="xgrid crisp" transform="translate(173.01,0)" d="M0,85v231.72592592592594" style="stroke: rgb(255, 255, 255); stroke-opacity: 1; stroke-width: 1px;"/><path class="xgrid crisp" transform="translate(245.98,0)" d="M0,85v231.72592592592594" style="stroke: rgb(255, 255, 255); stroke-opacity: 1; stroke-width: 1px;"/><path class="xgrid crisp" transform="translate(323.99,0)" d="M0,85v231.72592592592594" style="stroke: rgb(255, 255, 255); stroke-opacity: 1; stroke-width: 1px;"/><path class="xgrid crisp" transform="translate(399.48,0)" d="M0,85v231.72592592592594" style="stroke: rgb(255, 255, 255); stroke-opacity: 1; stroke-width: 1px;"/><path class="xgrid crisp" transform="translate(477.49,0)" d="M0,85v231.72592592592594" style="stroke: rgb(255, 255, 255); stroke-opacity: 1; stroke-width: 1px;"/><path class="xgrid crisp" transform="translate(552.98,0)" d="M0,85v231.72592592592594" style="stroke: rgb(255, 255, 255); stroke-opacity: 1; stroke-width: 1px;"/><path class="xgrid crisp" transform="translate(630.99,0)" d="M0,85v231.72592592592594" style="stroke: rgb(255, 255, 255); stroke-opacity: 1; stroke-width: 1px;"/></g><g class="y"><path class="ygrid crisp" transform="translate(0,271.38)" d="M95,0h614" style="stroke: rgb(255, 255, 255); stroke-opacity: 1; stroke-width: 1px;"/><path class="ygrid crisp" transform="translate(0,215.48)" d="M95,0h614" style="stroke: rgb(255, 255, 255); stroke-opacity: 1; stroke-width: 1px;"/><path class="ygrid crisp" transform="translate(0,159.59)" d="M95,0h614" style="stroke: rgb(255, 255, 255); stroke-opacity: 1; stroke-width: 1px;"/><path class="ygrid crisp" transform="translate(0,103.7)" d="M95,0h614" style="stroke: rgb(255, 255, 255); stroke-opacity: 1; stroke-width: 1px;"/></g></g><g class="zerolinelayer"/><path class="xlines-below"/><path class="ylines-below"/><g class="overlines-below"/><g class="xaxislayer-below"/><g class="yaxislayer-below"/><g class="overaxes-below"/><g class="plot" transform="translate(95, 85)" clip-path="url('#clip8ec25bxyplot')"><g class="scatterlayer mlayer"><g class="trace scatter tracefbe91f13-53cc-4f75-9745-57f1c7d4461c" style="stroke-miterlimit: 2; opacity: 1;"><g class="fills"/><g class="errorbars"/><g class="lines"><path class="js-line" d="M0,152.84L2.52,158.84L5.03,148.79L7.55,146.95L10.07,146.93L15.1,125.91L17.61,128.25L20.13,133.86L22.65,125.83L25.16,129.43L27.68,125.1L30.2,126.45L32.71,107.35L35.23,107.93L37.75,110.26L40.26,104.52L42.78,104.13L45.3,110.75L47.81,112.1L50.33,109.64L52.84,111.45L55.36,119.12L57.88,118.03L60.39,120.2L62.91,113.8L65.43,105.06L67.94,92.51L70.46,93.69L72.98,88.31L75.49,92.74L78.01,91.56L83.04,94.33L85.56,97.48L88.07,85.39L90.59,82.14L95.62,78.36L98.14,71.33L100.66,78.6L103.17,68.77L105.69,65.48L108.2,68.6L110.72,65.87L113.24,77.68L115.75,76.42L118.27,83.25L120.79,70.62L123.3,84.84L125.82,85.53L128.34,83.35L130.85,84L133.37,76.7L138.4,92.99L140.92,107.55L143.43,108.56L145.95,111.69L148.47,113.73L150.98,114.76L153.5,106.18L156.02,108.47L158.53,109.38L161.05,100.34L163.57,99.11L166.08,105.05L168.6,127.46L171.11,132.62L176.15,132.96L178.66,215.14L181.18,198.57L183.7,208.72L186.21,203.36L188.73,213.92L191.25,208.02L193.76,207.66L196.28,181.03L198.8,180.82L201.31,181.2L203.83,191.12L206.34,174.74L208.86,165.84L211.38,167.34L213.89,166.35L221.44,188.56L223.96,174.36L226.48,174.12L228.99,169.42L231.51,164.2L234.02,165.88L236.54,162.13L239.06,164.27L241.57,150.83L244.09,153.5L246.61,149.09L249.12,149.99L251.64,162.19L254.16,162.37L256.67,159.24L259.19,162.76L261.7,162.83L264.22,168.43L266.74,155.17L271.77,151.23L274.29,153.14L276.8,161.73L279.32,161.77L281.84,155.15L284.35,146.42L286.87,143.03L289.39,142.5L291.9,139.43L294.42,136.2L296.93,135.88L299.45,108.1L301.97,112.08L304.48,106.32L307,102.85L309.52,105.4L312.03,104.98L314.55,102.45L317.07,95.03L319.58,75.94L322.1,78.99L324.61,85.94L327.13,109.34L329.65,113.66L332.16,108L337.2,82.03L339.71,93.36L342.23,92L344.75,83.79L347.26,82.23L349.78,82.16L352.3,87.92L354.81,100.25L357.33,97.43L359.84,96.69L362.36,108.39L364.88,105.14L367.39,107.15L369.91,97.48L372.43,87.84L374.94,90.26L377.46,82.96L379.98,89.65L382.49,69.91L385.01,87.73L390.04,80.16L392.56,83.94L395.07,84.27L397.59,81.33L402.62,80.3L405.14,78.22L407.66,93.54L410.17,89.1L412.69,89.25L415.2,91.73L420.24,87.5L422.75,89.11L425.27,91.03L427.79,94.49L430.3,93.25L432.82,94.05L435.34,84.41L437.85,84.94L440.37,93.77L442.89,95.14L447.92,101.27L450.43,98.52L452.95,97.2L455.47,98.68L457.98,96.16L460.5,99.09L463.02,100.1L465.53,98.83L468.05,100.47L470.57,92.04L473.08,95.49L475.6,90.57L478.11,94.77L480.63,94.74L483.15,95.82L485.66,94.81L488.18,95.73L490.7,95.74L495.73,98.84L498.25,98.31L503.28,97.34L505.8,97.95L510.83,87.85L513.34,86.3L515.86,87.53L518.38,83.61L520.89,77.24L523.41,46.9L525.93,49.08L528.44,43.84L530.96,43.53L533.48,37.6L535.99,25.41L538.51,45.14L541.02,39.76L543.54,40.89L546.06,25.77L548.57,24.85L551.09,29.83L553.61,25.57L556.12,27.76L558.64,22.1L561.16,35.17L563.67,30.3L566.19,24.73L568.7,25.16L571.22,22.45L573.74,21.69L576.25,11.59L578.77,18.94L581.29,25.45L583.8,22.1L586.32,30.08L588.84,27.59L591.35,28.06L593.87,25L596.39,36.41L598.9,32.99L601.42,37.6L603.93,31.48L606.45,32.48L608.97,26.76L611.48,27.62L614,19.52" style="vector-effect: non-scaling-stroke; fill: none; stroke: rgb(31, 119, 180); stroke-opacity: 1; stroke-width: 2px; opacity: 1;"/></g><g class="points"/><g class="text"/></g><g class="trace scatter trace5d1b5572-6e1d-44f7-b851-8dbee6bf4fe4" style="stroke-miterlimit: 2; opacity: 1;"><g class="fills"/><g class="errorbars"/><g class="lines"/><g class="points"><path class="point plotly-customdata" transform="translate(50.33,109.64)" d="M-4.62,2H4.62L0,-4Z" style="opacity: 1; stroke-width: 1px; fill: rgb(55, 177, 63); fill-opacity: 1; stroke: rgb(38, 123, 44); stroke-opacity: 1;"/><path class="point plotly-customdata" transform="translate(231.51,164.2)" d="M-4.62,2H4.62L0,-4Z" style="opacity: 1; stroke-width: 1px; fill: rgb(55, 177, 63); fill-opacity: 1; stroke: rgb(38, 123, 44); stroke-opacity: 1;"/><path class="point plotly-customdata" transform="translate(259.19,162.76)" d="M-4.62,2H4.62L0,-4Z" style="opacity: 1; stroke-width: 1px; fill: rgb(55, 177, 63); fill-opacity: 1; stroke: rgb(38, 123, 44); stroke-opacity: 1;"/><path class="point plotly-customdata" transform="translate(294.42,136.2)" d="M-4.62,2H4.62L0,-4Z" style="opacity: 1; stroke-width: 1px; fill: rgb(55, 177, 63); fill-opacity: 1; stroke: rgb(38, 123, 44); stroke-opacity: 1;"/><path class="point plotly-customdata" transform="translate(382.49,69.91)" d="M-4.62,2H4.62L0,-4Z" style="opacity: 1; stroke-width: 1px; fill: rgb(55, 177, 63); fill-opacity: 1; stroke: rgb(38, 123, 44); stroke-opacity: 1;"/><path class="point plotly-customdata" transform="translate(452.95,97.2)" d="M-4.62,2H4.62L0,-4Z" style="opacity: 1; stroke-width: 1px; fill: rgb(55, 177, 63); fill-opacity: 1; stroke: rgb(38, 123, 44); stroke-opacity: 1;"/><path class="point plotly-customdata" transform="translate(530.96,43.53)" d="M-4.62,2H4.62L0,-4Z" style="opacity: 1; stroke-width: 1px; fill: rgb(55, 177, 63); fill-opacity: 1; stroke: rgb(38, 123, 44); stroke-opacity: 1;"/></g><g class="text"/></g><g class="trace scatter traceb2192e47-222f-48c3-85de-9fe22f2ce93c" style="stroke-miterlimit: 2; opacity: 1;"><g class="fills"/><g class="errorbars"/><g class="lines"/><g class="points"><path class="point plotly-customdata" transform="translate(178.66,215.14)" d="M-4.62,-2H4.62L0,4Z" style="opacity: 1; stroke-width: 1px; fill: rgb(234, 67, 53); fill-opacity: 1; stroke: rgb(181, 31, 18); stroke-opacity: 1;"/><path class="point plotly-customdata" transform="translate(249.12,149.99)" d="M-4.62,-2H4.62L0,4Z" style="opacity: 1; stroke-width: 1px; fill: rgb(234, 67, 53); fill-opacity: 1; stroke: rgb(181, 31, 18); stroke-opacity: 1;"/><path class="point plotly-customdata" transform="translate(256.67,159.24)" d="M-4.62,-2H4.62L0,4Z" style="opacity: 1; stroke-width: 1px; fill: rgb(234, 67, 53); fill-opacity: 1; stroke: rgb(181, 31, 18); stroke-opacity: 1;"/><path class="point plotly-customdata" transform="translate(266.74,155.17)" d="M-4.62,-2H4.62L0,4Z" style="opacity: 1; stroke-width: 1px; fill: rgb(234, 67, 53); fill-opacity: 1; stroke: rgb(181, 31, 18); stroke-opacity: 1;"/><path class="point plotly-customdata" transform="translate(307,102.85)" d="M-4.62,-2H4.62L0,4Z" style="opacity: 1; stroke-width: 1px; fill: rgb(234, 67, 53); fill-opacity: 1; stroke: rgb(181, 31, 18); stroke-opacity: 1;"/><path class="point plotly-customdata" transform="translate(329.65,113.66)" d="M-4.62,-2H4.62L0,4Z" style="opacity: 1; stroke-width: 1px; fill: rgb(234, 67, 53); fill-opacity: 1; stroke: rgb(181, 31, 18); stroke-opacity: 1;"/><path class="point plotly-customdata" transform="translate(475.6,90.57)" d="M-4.62,-2H4.62L0,4Z" style="opacity: 1; stroke-width: 1px; fill: rgb(234, 67, 53); fill-opacity: 1; stroke: rgb(181, 31, 18); stroke-opacity: 1;"/><path class="point plotly-customdata" transform="translate(510.83,87.85)" d="M-4.62,-2H4.62L0,4Z" style="opacity: 1; stroke-width: 1px; fill: rgb(234, 67, 53); fill-opacity: 1; stroke: rgb(181, 31, 18); stroke-opacity: 1;"/><path class="point plotly-customdata" transform="translate(541.02,39.76)" d="M-4.62,-2H4.62L0,4Z" style="opacity: 1; stroke-width: 1px; fill: rgb(234, 67, 53); fill-opacity: 1; stroke: rgb(181, 31, 18); stroke-opacity: 1;"/></g><g class="text"/></g></g></g><g class="overplot"/><path class="xlines-above crisp" d="M0,0" style="fill: none;"/><path class="ylines-above crisp" d="M0,0" style="fill: none;"/><g class="overlines-above"/><g class="xaxislayer-above"/><g class="yaxislayer-above"><g class="ytick"><text text-anchor="end" x="94" y="4.199999999999999" transform="translate(0,271.38)" style="font-family: 'Open Sans', verdana, arial, sans-serif; font-size: 12px; fill: rgb(42, 63, 95); fill-opacity: 1; white-space: pre;">6k</text></g><g class="ytick"><text text-anchor="end" x="94" y="4.199999999999999" transform="translate(0,215.48)" style="font-family: 'Open Sans', verdana, arial, sans-serif; font-size: 12px; fill: rgb(42, 63, 95); fill-opacity: 1; white-space: pre;">8k</text></g><g class="ytick"><text text-anchor="end" x="94" y="4.199999999999999" transform="translate(0,159.59)" style="font-family: 'Open Sans', verdana, arial, sans-serif; font-size: 12px; fill: rgb(42, 63, 95); fill-opacity: 1; white-space: pre;">10k</text></g><g class="ytick"><text text-anchor="end" x="94" y="4.199999999999999" transform="translate(0,103.7)" style="font-family: 'Open Sans', verdana, arial, sans-serif; font-size: 12px; fill: rgb(42, 63, 95); fill-opacity: 1; white-space: pre;">12k</text></g></g><g class="overaxes-above"/></g><g class="subplot x2y2"><g class="layer-subplot"><g class="shapelayer"/><g class="imagelayer"/></g><g class="gridlayer"><g class="x2"><path class="x2grid crisp" transform="translate(173.01,0)" d="M0,350.637037037037v231.72592592592596" style="stroke: rgb(255, 255, 255); stroke-opacity: 1; stroke-width: 1px;"/><path class="x2grid crisp" transform="translate(245.98,0)" d="M0,350.637037037037v231.72592592592596" style="stroke: rgb(255, 255, 255); stroke-opacity: 1; stroke-width: 1px;"/><path class="x2grid crisp" transform="translate(323.99,0)" d="M0,350.637037037037v231.72592592592596" style="stroke: rgb(255, 255, 255); stroke-opacity: 1; stroke-width: 1px;"/><path class="x2grid crisp" transform="translate(399.48,0)" d="M0,350.637037037037v231.72592592592596" style="stroke: rgb(255, 255, 255); stroke-opacity: 1; stroke-width: 1px;"/><path class="x2grid crisp" transform="translate(477.49,0)" d="M0,350.637037037037v231.72592592592596" style="stroke: rgb(255, 255, 255); stroke-opacity: 1; stroke-width: 1px;"/><path class="x2grid crisp" transform="translate(552.98,0)" d="M0,350.637037037037v231.72592592592596" style="stroke: rgb(255, 255, 255); stroke-opacity: 1; stroke-width: 1px;"/><path class="x2grid crisp" transform="translate(630.99,0)" d="M0,350.637037037037v231.72592592592596" style="stroke: rgb(255, 255, 255); stroke-opacity: 1; stroke-width: 1px;"/></g><g class="y2"><path class="y2grid crisp" transform="translate(0,551.527037037037)" d="M95,0h614" style="stroke: rgb(255, 255, 255); stroke-opacity: 1; stroke-width: 1px;"/><path class="y2grid crisp" transform="translate(0,485.197037037037)" d="M95,0h614" style="stroke: rgb(255, 255, 255); stroke-opacity: 1; stroke-width: 1px;"/><path class="y2grid crisp" transform="translate(0,352.51703703703697)" d="M95,0h614" style="stroke: rgb(255, 255, 255); stroke-opacity: 1; stroke-width: 1px;"/></g></g><g class="zerolinelayer"><path class="y2zl zl crisp" transform="translate(0,418.857037037037)" d="M95,0h614" style="stroke: rgb(255, 255, 255); stroke-opacity: 1; stroke-width: 2px;"/></g><path class="xlines-below"/><path class="ylines-below"/><g class="overlines-below"/><g class="xaxislayer-below"/><g class="yaxislayer-below"/><g class="overaxes-below"/><g class="plot" transform="translate(95, 350.637037037037)" clip-path="url('#clip8ec25bx2y2plot')"><g class="scatterlayer mlayer"><g class="trace scatter trace5bd68d1f-7df2-4c65-87e8-c2e74998dd96" style="stroke-miterlimit: 2; opacity: 1;"><g class="fills"/><g class="errorbars"/><g class="lines"/><g class="points"><path class="point plotly-customdata" transform="translate(249.12,43.39)" d="M4.05,0A4.05,4.05 0 1,1 0,-4.05A4.05,4.05 0 0,1 4.05,0Z" style="opacity: 0.773597; stroke-width: 1px; fill: rgb(55, 177, 63); fill-opacity: 1; stroke: rgb(38, 123, 44); stroke-opacity: 1;"/><path class="point plotly-customdata" transform="translate(256.67,59.55)" d="M3.65,0A3.65,3.65 0 1,1 0,-3.65A3.65,3.65 0 0,1 3.65,0Z" style="opacity: 0.756337; stroke-width: 1px; fill: rgb(55, 177, 63); fill-opacity: 1; stroke: rgb(38, 123, 44); stroke-opacity: 1;"/><path class="point plotly-customdata" transform="translate(266.74,55.05)" d="M3.76,0A3.76,3.76 0 1,1 0,-3.76A3.76,3.76 0 0,1 3.76,0Z" style="opacity: 0.761148; stroke-width: 1px; fill: rgb(55, 177, 63); fill-opacity: 1; stroke: rgb(38, 123, 44); stroke-opacity: 1;"/><path class="point plotly-customdata" transform="translate(307,17.46)" d="M4.7,0A4.7,4.7 0 1,1 0,-4.7A4.7,4.7 0 0,1 4.7,0Z" style="opacity: 0.801298; stroke-width: 1px; fill: rgb(55, 177, 63); fill-opacity: 1; stroke: rgb(38, 123, 44); stroke-opacity: 1;"/><path class="point plotly-customdata" transform="translate(329.65,33.92)" d="M4.29,0A4.29,4.29 0 1,1 0,-4.29A4.29,4.29 0 0,1 4.29,0Z" style="opacity: 0.78372; stroke-width: 1px; fill: rgb(55, 177, 63); fill-opacity: 1; stroke: rgb(38, 123, 44); stroke-opacity: 1;"/><path class="point plotly-customdata" transform="translate(475.6,65.49)" d="M3.5,0A3.5,3.5 0 1,1 0,-3.5A3.5,3.5 0 0,1 3.5,0Z" style="opacity: 0.75; stroke-width: 1px; fill: rgb(55, 177, 63); fill-opacity: 1; stroke: rgb(38, 123, 44); stroke-opacity: 1;"/><path class="point plotly-customdata" transform="translate(510.83,62.04)" d="M3.59,0A3.59,3.59 0 1,1 0,-3.59A3.59,3.59 0 0,1 3.59,0Z" style="opacity: 0.753676; stroke-width: 1px; fill: rgb(55, 177, 63); fill-opacity: 1; stroke: rgb(38, 123, 44); stroke-opacity: 1;"/><path class="point plotly-customdata" transform="translate(541.02,23.95)" d="M4.54,0A4.54,4.54 0 1,1 0,-4.54A4.54,4.54 0 0,1 4.54,0Z" style="opacity: 0.794358; stroke-width: 1px; fill: rgb(55, 177, 63); fill-opacity: 1; stroke: rgb(38, 123, 44); stroke-opacity: 1;"/></g><g class="text"/></g><g class="trace scatter traceff75fa3f-2e42-4497-a236-57bc2317fb5b" style="stroke-miterlimit: 2; opacity: 1;"><g class="fills"/><g class="errorbars"/><g class="lines"/><g class="points"><path class="point plotly-customdata" transform="translate(178.66,211.39)" d="M7,0A7,7 0 1,1 0,-7A7,7 0 0,1 7,0Z" style="opacity: 0.9; stroke-width: 1px; fill: rgb(234, 67, 53); fill-opacity: 1; stroke: rgb(181, 31, 18); stroke-opacity: 1;"/></g><g class="text"/></g></g></g><g class="overplot"/><path class="xlines-above crisp" d="M0,0" style="fill: none;"/><path class="ylines-above crisp" d="M0,0" style="fill: none;"/><g class="overlines-above"/><g class="xaxislayer-above"/><g class="yaxislayer-above"><g class="y2tick"><text text-anchor="end" x="94" y="4.199999999999999" transform="translate(0,551.527037037037)" style="font-family: 'Open Sans', verdana, arial, sans-serif; font-size: 12px; fill: rgb(42, 63, 95); fill-opacity: 1; white-space: pre;">−40.00%</text></g><g class="y2tick"><text text-anchor="end" x="94" y="4.199999999999999" transform="translate(0,485.197037037037)" style="font-family: 'Open Sans', verdana, arial, sans-serif; font-size: 12px; fill: rgb(42, 63, 95); fill-opacity: 1; white-space: pre;">−20.00%</text></g><g class="y2tick"><text text-anchor="end" x="94" y="4.199999999999999" transform="translate(0,418.857037037037)" style="font-family: 'Open Sans', verdana, arial, sans-serif; font-size: 12px; fill: rgb(42, 63, 95); fill-opacity: 1; white-space: pre;">0.00%</text></g><g class="y2tick"><text text-anchor="end" x="94" y="4.199999999999999" transform="translate(0,352.51703703703697)" style="font-family: 'Open Sans', verdana, arial, sans-serif; font-size: 12px; fill: rgb(42, 63, 95); fill-opacity: 1; white-space: pre;">20.00%</text></g></g><g class="overaxes-above"/></g><g class="subplot x3y3"><g class="layer-subplot"><g class="shapelayer"/><g class="imagelayer"/></g><g class="gridlayer"><g class="x3"><path class="x3grid crisp" transform="translate(173.01,0)" d="M0,616.2740740740741v231.72592592592594" style="stroke: rgb(255, 255, 255); stroke-opacity: 1; stroke-width: 1px;"/><path class="x3grid crisp" transform="translate(245.98,0)" d="M0,616.2740740740741v231.72592592592594" style="stroke: rgb(255, 255, 255); stroke-opacity: 1; stroke-width: 1px;"/><path class="x3grid crisp" transform="translate(323.99,0)" d="M0,616.2740740740741v231.72592592592594" style="stroke: rgb(255, 255, 255); stroke-opacity: 1; stroke-width: 1px;"/><path class="x3grid crisp" transform="translate(399.48,0)" d="M0,616.2740740740741v231.72592592592594" style="stroke: rgb(255, 255, 255); stroke-opacity: 1; stroke-width: 1px;"/><path class="x3grid crisp" transform="translate(477.49,0)" d="M0,616.2740740740741v231.72592592592594" style="stroke: rgb(255, 255, 255); stroke-opacity: 1; stroke-width: 1px;"/><path class="x3grid crisp" transform="translate(552.98,0)" d="M0,616.2740740740741v231.72592592592594" style="stroke: rgb(255, 255, 255); stroke-opacity: 1; stroke-width: 1px;"/><path class="x3grid crisp" transform="translate(630.99,0)" d="M0,616.2740740740741v231.72592592592594" style="stroke: rgb(255, 255, 255); stroke-opacity: 1; stroke-width: 1px;"/></g><g class="y3"><path class="y3grid crisp" transform="translate(0,813.814074074074)" d="M95,0h614" style="stroke: rgb(255, 255, 255); stroke-opacity: 1; stroke-width: 1px;"/><path class="y3grid crisp" transform="translate(0,772.5840740740741)" d="M95,0h614" style="stroke: rgb(255, 255, 255); stroke-opacity: 1; stroke-width: 1px;"/><path class="y3grid crisp" transform="translate(0,731.3440740740741)" d="M95,0h614" style="stroke: rgb(255, 255, 255); stroke-opacity: 1; stroke-width: 1px;"/><path class="y3grid crisp" transform="translate(0,690.1140740740741)" d="M95,0h614" style="stroke: rgb(255, 255, 255); stroke-opacity: 1; stroke-width: 1px;"/><path class="y3grid crisp" transform="translate(0,648.8840740740741)" d="M95,0h614" style="stroke: rgb(255, 255, 255); stroke-opacity: 1; stroke-width: 1px;"/></g></g><g class="zerolinelayer"/><path class="xlines-below"/><path class="ylines-below"/><g class="overlines-below"/><g class="xaxislayer-below"/><g class="yaxislayer-below"/><g class="overaxes-below"/><g class="plot" transform="translate(95, 616.2740740740741)" clip-path="url('#clip8ec25bx3y3plot')"><g class="scatterlayer mlayer"><g class="trace scatter traceb02f7514-bf5f-4d3d-bd83-dbb46f567ab1" style="stroke-miterlimit: 2; opacity: 1;"><g class="fills"/><g class="errorbars"/><g class="lines"><path class="js-line" d="M0,156.31L2.52,162.45L5.03,152.16L7.55,150.28L10.07,150.26L15.1,128.72L17.61,131.12L20.13,136.87L22.65,128.63L25.16,132.33L27.68,127.89L30.2,129.27L32.71,109.7L35.23,110.3L37.75,112.68L40.26,106.8L42.78,106.41L45.3,113.18L47.81,114.57L50.33,112.05L52.84,113.91L55.36,121.76L57.88,120.65L60.39,122.87L62.91,116.31L65.43,107.35L67.94,94.5L70.46,95.7L72.98,90.2L75.49,94.73L78.01,93.52L83.04,96.37L85.56,99.59L88.07,87.21L90.59,83.87L95.62,80L98.14,72.8L100.66,80.24L103.17,70.17L105.69,66.8L108.2,70L110.72,67.2L113.24,79.3L115.75,78.01L118.27,85.01L120.79,72.07L123.3,86.63L125.82,87.35L128.34,85.12L130.85,85.78L133.37,78.3L138.4,94.99L140.92,109.91L143.43,110.94L145.95,114.15L148.47,116.24L150.98,117.3L153.5,108.5L156.02,110.85L158.53,111.78L161.05,102.52L163.57,101.26L166.08,107.35L168.6,130.31L171.11,135.59L176.15,135.94L178.66,220.14L181.18,203.16L183.7,213.57L186.21,208.07L188.73,218.89L191.25,212.84L193.76,212.48L196.28,185.2L198.8,184.98L201.31,185.37L203.83,195.53L206.34,178.75L208.86,169.63L211.38,171.17L213.89,170.16L221.44,192.9L223.96,178.36L226.48,178.11L228.99,173.3L231.51,167.95L234.02,169.67L236.54,165.83L239.06,168.02L241.57,154.25L244.09,156.99L246.61,152.47L249.12,153.39L251.64,165.89L254.16,166.07L256.67,162.86L259.19,166.47L261.7,166.55L264.22,172.28L266.74,158.69L271.77,154.66L274.29,156.61L276.8,165.42L279.32,165.46L281.84,158.68L284.35,149.73L286.87,146.26L289.39,145.72L291.9,142.57L294.42,139.26L296.93,138.93L299.45,110.47L301.97,114.55L304.48,108.64L307,105.1L309.52,107.71L312.03,107.27L314.55,104.68L317.07,97.07L319.58,77.53L322.1,80.64L324.61,87.77L327.13,111.74L329.65,116.17L332.16,110.37L337.2,83.76L339.71,95.37L342.23,93.98L344.75,85.56L347.26,83.97L349.78,83.9L352.3,89.8L354.81,102.43L357.33,99.54L359.84,98.78L362.36,110.77L364.88,107.44L367.39,109.49L369.91,99.59L372.43,89.72L374.94,92.2L377.46,84.72L379.98,91.57L382.49,71.35L385.01,89.6L390.04,81.85L392.56,85.71L395.07,86.05L397.59,83.04L402.62,81.99L405.14,79.86L407.66,95.56L410.17,91L412.69,91.16L415.2,93.7L420.24,89.36L422.75,91.02L425.27,92.98L427.79,96.52L430.3,95.25L432.82,96.08L435.34,86.2L437.85,86.74L440.37,95.79L442.89,97.19L447.92,103.47L450.43,100.66L452.95,99.31L455.47,100.82L457.98,98.23L460.5,101.24L463.02,102.27L465.53,100.98L468.05,102.65L470.57,94.02L473.08,97.55L475.6,92.51L478.11,96.81L480.63,96.79L483.15,97.89L485.66,96.85L488.18,97.79L490.7,97.81L495.73,100.98L498.25,100.44L503.28,99.45L505.8,100.07L510.83,89.73L513.34,88.13L515.86,89.4L518.38,85.38L520.89,78.85L523.41,47.77L525.93,50L528.44,44.63L530.96,44.32L533.48,38.24L535.99,25.75L538.51,45.97L541.02,40.45L543.54,41.61L546.06,26.11L548.57,25.18L551.09,30.28L553.61,25.91L556.12,28.16L558.64,22.36L561.16,35.75L563.67,30.76L566.19,25.05L568.7,25.49L571.22,22.72L573.74,21.94L576.25,11.59L578.77,19.12L581.29,25.79L583.8,22.35L586.32,30.54L588.84,27.98L591.35,28.47L593.87,25.32L596.39,37.02L598.9,33.52L601.42,38.24L603.93,31.97L606.45,32.99L608.97,27.13L611.48,28.01L614,19.72" style="vector-effect: non-scaling-stroke; fill: none; stroke: rgb(127, 127, 127); stroke-opacity: 1; stroke-width: 2px; opacity: 1;"/></g><g class="points"/><g class="text"/></g><g class="trace scatter traceea40d140-ac73-4e7c-bd64-3a25c2fb7c79" style="stroke-miterlimit: 2;"><g class="fills"><g><path class="js-fill" d="M0,156.31L70.46,155.71L72.98,155.51L85.56,155.85L88.07,155.4L110.72,154.67L113.24,155.11L133.37,155.07L135.89,155.36L145.95,156.31L148.47,156.31L239.06,156.31L241.57,153.54L244.09,154.88L246.61,152.66L254.16,153.71L256.67,153.56L296.93,153.26L299.45,141.28L301.97,143L304.48,140.51L307,139.02L309.52,139.32L314.55,138.97L317.07,138.12L319.58,135.91L322.1,136.26L324.61,137.07L327.13,139.77L332.16,140.27L334.68,140.27L382.49,140.27L385.01,142.76L390.04,141.7L392.56,142.23L402.62,141.72L405.14,141.43L407.66,143.57L410.17,142.95L425.27,143.22L427.79,143.7L432.82,143.64L435.34,142.3L437.85,142.37L440.37,143.6L450.43,144.27L452.95,144.08L455.47,145.34L457.98,143.19L460.5,145.69L463.02,146.54L465.53,145.47L468.05,146.86L470.57,139.7L473.08,142.62L475.6,138.44L478.11,140.77L490.7,141.31L493.21,142.09L495.73,143.03L498.25,142.73L505.8,142.53L508.31,139.27L510.83,136.94L513.34,136.39L515.86,136.82L518.38,135.44L520.89,133.2L523.41,122.51L525.93,123.28L528.44,121.43L530.96,121.33L533.48,118.24L535.99,111.88L538.51,122.17L541.02,119.36L543.54,119.36L614,119.36L614,156.31L0,156.31Z" style="fill: rgb(0, 128, 0); fill-opacity: 0.3; stroke-width: 0;"/></g></g><g class="errorbars"/><g class="lines"><path class="js-line" d="M0,156.31L614,156.31" style="vector-effect: non-scaling-stroke; fill: none; stroke: rgb(0, 0, 0); stroke-opacity: 0; stroke-width: 0px; opacity: 1;"/></g><g class="points"/><g class="text"/></g><g class="trace scatter trace04be4e0c-6261-4732-9780-85697025873a" style="stroke-miterlimit: 2;"><g class="fills"/><g class="errorbars"/><g class="lines"><path class="js-line" d="M0,156.31L70.46,155.71L72.98,155.51L85.56,155.85L88.07,155.4L110.72,154.67L113.24,155.11L133.37,155.07L135.89,155.36L145.95,156.31L148.47,156.31L239.06,156.31L241.57,153.54L244.09,154.88L246.61,152.66L254.16,153.71L256.67,153.56L296.93,153.26L299.45,141.28L301.97,143L304.48,140.51L307,139.02L309.52,139.32L314.55,138.97L317.07,138.12L319.58,135.91L322.1,136.26L324.61,137.07L327.13,139.77L332.16,140.27L334.68,140.27L382.49,140.27L385.01,142.76L390.04,141.7L392.56,142.23L402.62,141.72L405.14,141.43L407.66,143.57L410.17,142.95L425.27,143.22L427.79,143.7L432.82,143.64L435.34,142.3L437.85,142.37L440.37,143.6L450.43,144.27L452.95,144.08L455.47,145.34L457.98,143.19L460.5,145.69L463.02,146.54L465.53,145.47L468.05,146.86L470.57,139.7L473.08,142.62L475.6,138.44L478.11,140.77L490.7,141.31L493.21,142.09L495.73,143.03L498.25,142.73L505.8,142.53L508.31,139.27L510.83,136.94L513.34,136.39L515.86,136.82L518.38,135.44L520.89,133.2L523.41,122.51L525.93,123.28L528.44,121.43L530.96,121.33L533.48,118.24L535.99,111.88L538.51,122.17L541.02,119.36L543.54,119.36L614,119.36" style="vector-effect: non-scaling-stroke; fill: none; stroke: rgb(0, 0, 0); stroke-opacity: 0; stroke-width: 0px; opacity: 1;"/></g><g class="points"/><g class="text"/></g><g class="trace scatter tracee1605f30-2833-4023-a4a4-58e88c8bc438" style="stroke-miterlimit: 2;"><g class="fills"><g><path class="js-fill" d="M0,156.31L168.6,156.97L171.11,157.17L176.15,157.18L178.66,160.25L231.51,160.25L234.02,161.1L236.54,159.22L239.06,160.29L241.57,156.31L244.09,156.31L614,156.31L614,156.31L0,156.31Z" style="fill: rgb(255, 0, 0); fill-opacity: 0.3; stroke-width: 0;"/></g></g><g class="errorbars"/><g class="lines"><path class="js-line" d="M0,156.31L614,156.31" style="vector-effect: non-scaling-stroke; fill: none; stroke: rgb(0, 0, 0); stroke-opacity: 0; stroke-width: 0px; opacity: 1;"/></g><g class="points"/><g class="text"/></g><g class="trace scatter tracea08837d7-32fc-443f-854e-38e677d84990" style="stroke-miterlimit: 2;"><g class="fills"/><g class="errorbars"/><g class="lines"><path class="js-line" d="M0,156.31L168.6,156.97L171.11,157.17L176.15,157.18L178.66,160.25L231.51,160.25L234.02,161.1L236.54,159.22L239.06,160.29L241.57,156.31L244.09,156.31L614,156.31" style="vector-effect: non-scaling-stroke; fill: none; stroke: rgb(0, 0, 0); stroke-opacity: 0; stroke-width: 0px; opacity: 1;"/></g><g class="points"/><g class="text"/></g><g class="trace scatter trace1c9db166-2be7-4141-95a6-7a1a83bfb318" style="stroke-miterlimit: 2; opacity: 1;"><g class="fills"/><g class="errorbars"/><g class="lines"><path class="js-line" d="M0,156.31L65.43,156.13L67.94,155.66L88.07,155.4L90.59,155.28L115.75,155.06L118.27,155.32L120.79,154.84L123.3,155.38L138.4,155.68L140.92,156.23L166.08,156.13L168.6,156.97L176.15,157.18L178.66,160.25L231.51,160.25L234.02,161.1L236.54,159.22L239.06,160.29L241.57,153.54L244.09,154.88L246.61,152.66L249.12,153.11L254.16,153.71L256.67,153.56L296.93,153.26L299.45,141.28L301.97,143L304.48,140.51L307,139.02L309.52,139.32L314.55,138.97L317.07,138.12L319.58,135.91L322.1,136.26L324.61,137.07L327.13,139.77L332.16,140.27L334.68,140.27L382.49,140.27L385.01,142.76L390.04,141.7L392.56,142.23L402.62,141.72L405.14,141.43L407.66,143.57L410.17,142.95L425.27,143.22L427.79,143.7L432.82,143.64L435.34,142.3L437.85,142.37L440.37,143.6L450.43,144.27L452.95,144.08L455.47,145.34L457.98,143.19L460.5,145.69L463.02,146.54L465.53,145.47L468.05,146.86L470.57,139.7L473.08,142.62L475.6,138.44L478.11,140.77L490.7,141.31L493.21,142.09L495.73,143.03L498.25,142.73L505.8,142.53L508.31,139.27L510.83,136.94L513.34,136.39L515.86,136.82L518.38,135.44L520.89,133.2L523.41,122.51L525.93,123.28L528.44,121.43L530.96,121.33L533.48,118.24L535.99,111.88L538.51,122.17L541.02,119.36L543.54,119.36L614,119.36" style="vector-effect: non-scaling-stroke; fill: none; stroke: rgb(148, 103, 189); stroke-opacity: 1; stroke-width: 2px; opacity: 1;"/></g><g class="points"/><g class="text"/></g><g class="trace scatter tracee677a075-47ef-44f4-b896-ec98b418889a" style="stroke-miterlimit: 2; opacity: 0;"><g class="fills"/><g class="errorbars"/><g class="lines"><path class="js-line" d="M0,156.31L614,156.31" style="vector-effect: non-scaling-stroke; fill: none; stroke: rgb(0, 0, 0); stroke-opacity: 0; stroke-width: 0px; opacity: 1;"/></g><g class="points"/><g class="text"/></g></g></g><g class="overplot"/><path class="xlines-above crisp" d="M0,0" style="fill: none;"/><path class="ylines-above crisp" d="M0,0" style="fill: none;"/><g class="overlines-above"/><g class="xaxislayer-above"><g class="x3tick"><text text-anchor="middle" x="0" y="861" transform="translate(95,0)" style="font-family: 'Open Sans', verdana, arial, sans-serif; font-size: 12px; fill: rgb(42, 63, 95); fill-opacity: 1; white-space: pre;">Jan 2020</text></g><g class="x3tick"><text text-anchor="middle" x="0" y="861" transform="translate(173.01,0)" style="font-family: 'Open Sans', verdana, arial, sans-serif; font-size: 12px; fill: rgb(42, 63, 95); fill-opacity: 1; white-space: pre;">Feb 2020</text></g><g class="x3tick"><text text-anchor="middle" x="0" y="861" transform="translate(245.98,0)" style="font-family: 'Open Sans', verdana, arial, sans-serif; font-size: 12px; fill: rgb(42, 63, 95); fill-opacity: 1; white-space: pre;">Mar 2020</text></g><g class="x3tick"><text text-anchor="middle" x="0" y="861" transform="translate(323.99,0)" style="font-family: 'Open Sans', verdana, arial, sans-serif; font-size: 12px; fill: rgb(42, 63, 95); fill-opacity: 1; white-space: pre;">Apr 2020</text></g><g class="x3tick"><text text-anchor="middle" x="0" y="861" transform="translate(399.48,0)" style="font-family: 'Open Sans', verdana, arial, sans-serif; font-size: 12px; fill: rgb(42, 63, 95); fill-opacity: 1; white-space: pre;">May 2020</text></g><g class="x3tick"><text text-anchor="middle" x="0" y="861" transform="translate(477.49,0)" style="font-family: 'Open Sans', verdana, arial, sans-serif; font-size: 12px; fill: rgb(42, 63, 95); fill-opacity: 1; white-space: pre;">Jun 2020</text></g><g class="x3tick"><text text-anchor="middle" x="0" y="861" transform="translate(552.98,0)" style="font-family: 'Open Sans', verdana, arial, sans-serif; font-size: 12px; fill: rgb(42, 63, 95); fill-opacity: 1; white-space: pre;">Jul 2020</text></g><g class="x3tick"><text text-anchor="middle" x="0" y="861" transform="translate(630.99,0)" style="font-family: 'Open Sans', verdana, arial, sans-serif; font-size: 12px; fill: rgb(42, 63, 95); fill-opacity: 1; white-space: pre;">Aug 2020</text></g><g class="x3tick"><text text-anchor="middle" x="0" y="861" transform="translate(709,0)" style="font-family: 'Open Sans', verdana, arial, sans-serif; font-size: 12px; fill: rgb(42, 63, 95); fill-opacity: 1; white-space: pre;">Sep 2020</text></g></g><g class="yaxislayer-above"><g class="y3tick"><text text-anchor="end" x="94" y="4.199999999999999" transform="translate(0,813.814074074074)" style="font-family: 'Open Sans', verdana, arial, sans-serif; font-size: 12px; fill: rgb(42, 63, 95); fill-opacity: 1; white-space: pre;">0.8</text></g><g class="y3tick"><text text-anchor="end" x="94" y="4.199999999999999" transform="translate(0,772.5840740740741)" style="font-family: 'Open Sans', verdana, arial, sans-serif; font-size: 12px; fill: rgb(42, 63, 95); fill-opacity: 1; white-space: pre;">1</text></g><g class="y3tick"><text text-anchor="end" x="94" y="4.199999999999999" transform="translate(0,731.3440740740741)" style="font-family: 'Open Sans', verdana, arial, sans-serif; font-size: 12px; fill: rgb(42, 63, 95); fill-opacity: 1; white-space: pre;">1.2</text></g><g class="y3tick"><text text-anchor="end" x="94" y="4.199999999999999" transform="translate(0,690.1140740740741)" style="font-family: 'Open Sans', verdana, arial, sans-serif; font-size: 12px; fill: rgb(42, 63, 95); fill-opacity: 1; white-space: pre;">1.4</text></g><g class="y3tick"><text text-anchor="end" x="94" y="4.199999999999999" transform="translate(0,648.8840740740741)" style="font-family: 'Open Sans', verdana, arial, sans-serif; font-size: 12px; fill: rgb(42, 63, 95); fill-opacity: 1; white-space: pre;">1.6</text></g></g><g class="overaxes-above"/></g></g><g class="polarlayer"/><g class="ternarylayer"/><g class="geolayer"/><g class="funnelarealayer"/><g class="pielayer"/><g class="treemaplayer"/><g class="sunburstlayer"/><g class="glimages"/><defs id="topdefs-8ec25b"><g class="clips"/><clipPath id="legend8ec25b"><rect width="523" height="48" x="0" y="0"/></clipPath></defs><g class="layer-above"><g class="imagelayer"/><g class="shapelayer"><path data-index="0" fill-rule="evenodd" d="M95,418.857037037037L709,418.857037037037" clip-path="url('#clip8ec25by2')" style="opacity: 1; stroke: rgb(128, 128, 128); stroke-opacity: 1; fill: rgb(0, 0, 0); fill-opacity: 0; stroke-dasharray: 9px, 9px; stroke-width: 2px;"/><path data-index="1" fill-rule="evenodd" d="M95,772.5840740740741L709,772.5840740740741" clip-path="url('#clip8ec25by3')" style="opacity: 1; stroke: rgb(128, 128, 128); stroke-opacity: 1; fill: rgb(0, 0, 0); fill-opacity: 0; stroke-dasharray: 9px, 9px; stroke-width: 2px;"/></g></g><g class="infolayer"><g class="legend" pointer-events="all" transform="translate(186, 11.566666666666592)"><rect class="bg" shape-rendering="crispEdges" style="stroke: rgb(68, 68, 68); stroke-opacity: 1; fill: rgb(255, 255, 255); fill-opacity: 1; stroke-width: 0px;" width="523" height="48" x="0" y="0"/><g class="scrollbox" transform="translate(0, 0)" clip-path="url('#legend8ec25b')"><g class="groups"><g class="traces" transform="translate(0, 14.5)" style="opacity: 1;"><text class="legendtext" text-anchor="start" x="40" y="4.680000000000001" style="font-family: 'Open Sans', verdana, arial, sans-serif; font-size: 12px; fill: rgb(42, 63, 95); fill-opacity: 1; white-space: pre;">Close</text><g class="layers" style="opacity: 1;"><g class="legendfill"/><g class="legendlines"><path class="js-line" d="M5,0h30" style="fill: none; stroke: rgb(31, 119, 180); stroke-opacity: 1; stroke-width: 2px;"/></g><g class="legendsymbols"><g class="legendpoints"/></g></g><rect class="legendtoggle" x="0" y="-9.5" width="74.859375" height="19" style="fill: rgb(0, 0, 0); fill-opacity: 0;"/></g><g class="traces" transform="translate(130.609375, 14.5)" style="opacity: 1;"><text class="legendtext" text-anchor="start" x="40" y="4.680000000000001" style="font-family: 'Open Sans', verdana, arial, sans-serif; font-size: 12px; fill: rgb(42, 63, 95); fill-opacity: 1; white-space: pre;">Buy</text><g class="layers" style="opacity: 1;"><g class="legendfill"/><g class="legendlines"/><g class="legendsymbols"><g class="legendpoints"><path class="scatterpts" transform="translate(20,0)" d="M-4.62,2H4.62L0,-4Z" style="opacity: 1; stroke-width: 1px; fill: rgb(55, 177, 63); fill-opacity: 1; stroke: rgb(38, 123, 44); stroke-opacity: 1;"/></g></g></g><rect class="legendtoggle" x="0" y="-9.5" width="65.421875" height="19" style="fill: rgb(0, 0, 0); fill-opacity: 0;"/></g><g class="traces" transform="translate(261.21875, 14.5)" style="opacity: 1;"><text class="legendtext" text-anchor="start" x="40" y="4.680000000000001" style="font-family: 'Open Sans', verdana, arial, sans-serif; font-size: 12px; fill: rgb(42, 63, 95); fill-opacity: 1; white-space: pre;">Sell</text><g class="layers" style="opacity: 1;"><g class="legendfill"/><g class="legendlines"/><g class="legendsymbols"><g class="legendpoints"><path class="scatterpts" transform="translate(20,0)" d="M-4.62,-2H4.62L0,4Z" style="opacity: 1; stroke-width: 1px; fill: rgb(234, 67, 53); fill-opacity: 1; stroke: rgb(181, 31, 18); stroke-opacity: 1;"/></g></g></g><rect class="legendtoggle" x="0" y="-9.5" width="64.4375" height="19" style="fill: rgb(0, 0, 0); fill-opacity: 0;"/></g><g class="traces" transform="translate(391.828125, 14.5)" style="opacity: 1;"><text class="legendtext" text-anchor="start" x="40" y="4.680000000000001" style="font-family: 'Open Sans', verdana, arial, sans-serif; font-size: 12px; fill: rgb(42, 63, 95); fill-opacity: 1; white-space: pre;">Closed - Profit</text><g class="layers" style="opacity: 1;"><g class="legendfill"/><g class="legendlines"/><g class="legendsymbols"><g class="legendpoints"><path class="scatterpts" transform="translate(20,0)" d="M4.01,0A4.01,4.01 0 1,1 0,-4.01A4.01,4.01 0 0,1 4.01,0Z" style="opacity: 0.771767; stroke-width: 1px; fill: rgb(55, 177, 63); fill-opacity: 1; stroke: rgb(38, 123, 44); stroke-opacity: 1;"/></g></g></g><rect class="legendtoggle" x="0" y="-9.5" width="128.109375" height="19" style="fill: rgb(0, 0, 0); fill-opacity: 0;"/></g><g class="traces" transform="translate(0, 33.5)" style="opacity: 1;"><text class="legendtext" text-anchor="start" x="40" y="4.680000000000001" style="font-family: 'Open Sans', verdana, arial, sans-serif; font-size: 12px; fill: rgb(42, 63, 95); fill-opacity: 1; white-space: pre;">Closed - Loss</text><g class="layers" style="opacity: 1;"><g class="legendfill"/><g class="legendlines"/><g class="legendsymbols"><g class="legendpoints"><path class="scatterpts" transform="translate(20,0)" d="M7,0A7,7 0 1,1 0,-7A7,7 0 0,1 7,0Z" style="opacity: 0.9; stroke-width: 1px; fill: rgb(234, 67, 53); fill-opacity: 1; stroke: rgb(181, 31, 18); stroke-opacity: 1;"/></g></g></g><rect class="legendtoggle" x="0" y="-9.5" width="122.6875" height="19" style="fill: rgb(0, 0, 0); fill-opacity: 0;"/></g><g class="traces" transform="translate(130.609375, 33.5)" style="opacity: 1;"><text class="legendtext" text-anchor="start" x="40" y="4.680000000000001" style="font-family: 'Open Sans', verdana, arial, sans-serif; font-size: 12px; fill: rgb(42, 63, 95); fill-opacity: 1; white-space: pre;">Benchmark</text><g class="layers" style="opacity: 1;"><g class="legendfill"/><g class="legendlines"><path class="js-line" d="M5,0h30" style="fill: none; stroke: rgb(127, 127, 127); stroke-opacity: 1; stroke-width: 2px;"/></g><g class="legendsymbols"><g class="legendpoints"/></g></g><rect class="legendtoggle" x="0" y="-9.5" width="110.421875" height="19" style="fill: rgb(0, 0, 0); fill-opacity: 0;"/></g><g class="traces" transform="translate(261.21875, 33.5)" style="opacity: 1;"><text class="legendtext" text-anchor="start" x="40" y="4.680000000000001" style="font-family: 'Open Sans', verdana, arial, sans-serif; font-size: 12px; fill: rgb(42, 63, 95); fill-opacity: 1; white-space: pre;">Value</text><g class="layers" style="opacity: 1;"><g class="legendfill"/><g class="legendlines"><path class="js-line" d="M5,0h30" style="fill: none; stroke: rgb(148, 103, 189); stroke-opacity: 1; stroke-width: 2px;"/></g><g class="legendsymbols"><g class="legendpoints"/></g></g><rect class="legendtoggle" x="0" y="-9.5" width="75.953125" height="19" style="fill: rgb(0, 0, 0); fill-opacity: 0;"/></g></g></g><rect class="scrollbar" rx="20" ry="3" width="0" height="0" style="fill: rgb(128, 139, 164); fill-opacity: 1;" x="0" y="0"/></g><g class="g-gtitle"/><g class="g-xtitle"/><g class="g-x2title"/><g class="g-x3title"><text class="x3title" x="402" y="888.3" text-anchor="middle" style="font-family: 'Open Sans', verdana, arial, sans-serif; font-size: 14px; fill: rgb(42, 63, 95); opacity: 1; font-weight: normal; white-space: pre;">Date</text></g><g class="g-ytitle"><text class="ytitle" transform="rotate(-90,46.840625,200.86296296296297)" x="46.840625" y="200.86296296296297" text-anchor="middle" style="font-family: 'Open Sans', verdana, arial, sans-serif; font-size: 14px; fill: rgb(42, 63, 95); opacity: 1; font-weight: normal; white-space: pre;">Price</text></g><g class="g-y2title" transform="translate(2.4248046875,0)"><text class="y2title" transform="rotate(-90,11.575000000000003,466.49999999999994)" x="11.575000000000003" y="466.49999999999994" text-anchor="middle" style="font-family: 'Open Sans', verdana, arial, sans-serif; font-size: 14px; fill: rgb(42, 63, 95); opacity: 1; font-weight: normal; white-space: pre;">Return</text></g><g class="g-y3title"><text class="y3title" transform="rotate(-90,49.575,732.1370370370371)" x="49.575" y="732.1370370370371" text-anchor="middle" style="font-family: 'Open Sans', verdana, arial, sans-serif; font-size: 14px; fill: rgb(42, 63, 95); opacity: 1; font-weight: normal; white-space: pre;">Cumulative returns</text></g><g class="annotation" data-index="0" style="opacity: 1;"><g class="annotation-text-g" transform="rotate(0,402,73)"><g class="cursor-pointer" transform="translate(373, 61)"><rect class="bg" x="0.5" y="0.5" width="57" height="23" style="stroke-width: 1px; stroke: rgb(0, 0, 0); stroke-opacity: 0; fill: rgb(0, 0, 0); fill-opacity: 0;"/><text class="annotation-text" text-anchor="middle" x="29.046875" y="18" style="font-family: 'Open Sans', verdana, arial, sans-serif; font-size: 16px; fill: rgb(42, 63, 95); fill-opacity: 1; white-space: pre;">Orders</text></g></g></g><g class="annotation" data-index="1" style="opacity: 1;"><g class="annotation-text-g" transform="rotate(0,402,338.637037037037)"><g class="cursor-pointer" transform="translate(343, 327)"><rect class="bg" x="0.5" y="0.5" width="117" height="23" style="stroke-width: 1px; stroke: rgb(0, 0, 0); stroke-opacity: 0; fill: rgb(0, 0, 0); fill-opacity: 0;"/><text class="annotation-text" text-anchor="middle" x="58.90625" y="18" style="font-family: 'Open Sans', verdana, arial, sans-serif; font-size: 16px; fill: rgb(42, 63, 95); fill-opacity: 1; white-space: pre;">Trade Returns</text></g></g></g><g class="annotation" data-index="2" style="opacity: 1;"><g class="annotation-text-g" transform="rotate(0,402,604.2740740740741)"><g class="cursor-pointer" transform="translate(321, 592)"><rect class="bg" x="0.5" y="0.5" width="162" height="23" style="stroke-width: 1px; stroke: rgb(0, 0, 0); stroke-opacity: 0; fill: rgb(0, 0, 0); fill-opacity: 0;"/><text class="annotation-text" text-anchor="middle" x="81.34375" y="18" style="font-family: 'Open Sans', verdana, arial, sans-serif; font-size: 16px; fill: rgb(42, 63, 95); fill-opacity: 1; white-space: pre;">Cumulative Returns</text></g></g></g></g></svg>