<svg class="main-svg" xmlns="http://www.w3.org/2000/svg" xmlns:xlink="http://www.w3.org/1999/xlink" width="750" height="600" style="" viewBox="0 0 750 600"><rect x="0" y="0" width="750" height="600" style="fill: rgb(255, 255, 255); fill-opacity: 1;"/><defs id="defs-56ec62"><g class="clips"><clipPath id="clip56ec62xyplot" class="plotclip"><rect width="653" height="225.4"/></clipPath><clipPath id="clip56ec62x2y2plot" class="plotclip"><rect width="653" height="225.4"/></clipPath><clipPath class="axesclip" id="clip56ec62x"><rect x="67" y="0" width="653" height="600"/></clipPath><clipPath class="axesclip" id="clip56ec62y"><rect x="0" y="65" width="750" height="225.4"/></clipPath><clipPath class="axesclip" id="clip56ec62xy"><rect x="67" y="65" width="653" height="225.4"/></clipPath><clipPath class="axesclip" id="clip56ec62y2"><rect x="0" y="322.6" width="750" height="225.4"/></clipPath><clipPath class="axesclip" id="clip56ec62xy2"><rect x="67" y="322.6" width="653" height="225.4"/></clipPath><clipPath class="axesclip" id="clip56ec62x2"><rect x="67" y="0" width="653" height="600"/></clipPath><clipPath class="axesclip" id="clip56ec62x2y"><rect x="67" y="65" width="653" height="225.4"/></clipPath><clipPath class="axesclip" id="clip56ec62x2y2"><rect x="67" y="322.6" width="653" height="225.4"/></clipPath></g><g class="gradients"/></defs><g class="bglayer"><rect class="bg" x="67" y="65" width="653" height="225.4" style="fill: rgb(229, 236, 246); fill-opacity: 1; stroke-width: 0;"/><rect class="bg" x="67" y="322.6" width="653" height="225.4" style="fill: rgb(229, 236, 246); fill-opacity: 1; stroke-width: 0;"/></g><g class="layer-below"><g class="imagelayer"/><g class="shapelayer"/></g><g class="cartesianlayer"><g class="subplot xy"><g class="layer-subplot"><g class="shapelayer"/><g class="imagelayer"/></g><g class="gridlayer"><g class="x"><path class="xgrid crisp" transform="translate(69.68,0)" d="M0,65v225.4" style="stroke: rgb(255, 255, 255); stroke-opacity: 1; stroke-width: 1px;"/><path class="xgrid crisp" transform="translate(152.64,0)" d="M0,65v225.4" style="stroke: rgb(255, 255, 255); stroke-opacity: 1; stroke-width: 1px;"/><path class="xgrid crisp" transform="translate(230.25,0)" d="M0,65v225.4" style="stroke: rgb(255, 255, 255); stroke-opacity: 1; stroke-width: 1px;"/><path class="xgrid crisp" transform="translate(313.21000000000004,0)" d="M0,65v225.4" style="stroke: rgb(255, 255, 255); stroke-opacity: 1; stroke-width: 1px;"/><path class="xgrid crisp" transform="translate(393.5,0)" d="M0,65v225.4" style="stroke: rgb(255, 255, 255); stroke-opacity: 1; stroke-width: 1px;"/><path class="xgrid crisp" transform="translate(476.46,0)" d="M0,65v225.4" style="stroke: rgb(255, 255, 255); stroke-opacity: 1; stroke-width: 1px;"/><path class="xgrid crisp" transform="translate(556.75,0)" d="M0,65v225.4" style="stroke: rgb(255, 255, 255); stroke-opacity: 1; stroke-width: 1px;"/><path class="xgrid crisp" transform="translate(639.71,0)" d="M0,65v225.4" style="stroke: rgb(255, 255, 255); stroke-opacity: 1; stroke-width: 1px;"/></g><g class="y"><path class="ygrid crisp" transform="translate(0,250.46)" d="M67,0h653" style="stroke: rgb(255, 255, 255); stroke-opacity: 1; stroke-width: 1px;"/><path class="ygrid crisp" transform="translate(0,194.76)" d="M67,0h653" style="stroke: rgb(255, 255, 255); stroke-opacity: 1; stroke-width: 1px;"/><path class="ygrid crisp" transform="translate(0,139.06)" d="M67,0h653" style="stroke: rgb(255, 255, 255); stroke-opacity: 1; stroke-width: 1px;"/><path class="ygrid crisp" transform="translate(0,83.36)" d="M67,0h653" style="stroke: rgb(255, 255, 255); stroke-opacity: 1; stroke-width: 1px;"/></g></g><g class="zerolinelayer"/><path class="xlines-below"/><path class="ylines-below"/><g class="overlines-below"/><g class="xaxislayer-below"/><g class="yaxislayer-below"/><g class="overaxes-below"/><g class="plot" transform="translate(67, 65)" clip-path="url('#clip56ec62xyplot')"><g class="scatterlayer mlayer"><g class="trace scatter trace06c3c275-899d-4200-8f4a-1b2fce014ffd" style="stroke-miterlimit: 2; opacity: 1;"><g class="fills"/><g class="errorbars"/><g class="lines"><path class="js-line" d="M0,152.22L2.68,152.04L5.35,158.02L8.03,148.01L10.7,146.18L13.38,146.16L16.06,136.19L18.73,125.2L21.41,127.54L24.09,133.13L26.76,125.12L29.44,128.72L32.11,124.4L34.79,125.75L37.47,106.71L40.14,107.29L42.82,109.6L45.5,103.89L48.17,103.5L50.85,110.09L53.52,111.45L56.2,108.99L58.88,110.8L61.55,118.44L64.23,117.36L66.91,119.52L69.58,113.14L72.26,104.42L74.93,91.92L77.61,93.09L80.29,87.73L82.96,92.15L85.64,90.97L90.99,93.74L93.67,96.87L96.34,84.83L99.02,81.58L104.37,77.82L107.05,70.81L109.73,78.05L112.4,68.26L115.08,64.98L117.75,68.09L120.43,65.37L123.11,77.14L125.78,75.88L128.46,82.69L131.14,70.1L133.81,84.27L136.49,84.96L139.16,82.79L141.84,83.44L144.52,76.16L149.87,92.39L152.55,106.91L155.22,107.91L157.9,111.03L160.57,113.06L163.25,114.1L165.93,105.54L168.6,107.82L171.28,108.73L173.95,99.72L176.63,98.5L179.31,104.42L181.98,126.75L184.66,131.89L190.01,132.23L192.69,214.13L195.36,197.62L198.04,207.74L200.72,202.39L203.39,212.91L206.07,207.03L208.75,206.68L211.42,180.14L214.1,179.93L216.77,180.31L219.45,190.19L222.13,173.87L224.8,165L227.48,166.5L230.16,165.51L238.18,187.64L240.86,173.49L243.54,173.25L246.21,168.57L248.89,163.36L251.57,165.04L254.24,161.3L256.92,163.43L259.59,150.04L262.27,152.7L264.95,148.31L267.62,149.2L270.3,161.36L272.98,161.54L275.65,158.42L278.33,161.93L281,162L283.68,167.58L286.36,154.36L291.71,150.44L294.39,152.34L297.06,160.9L299.74,160.95L302.41,154.35L305.09,145.64L307.77,142.27L310.44,141.74L313.12,138.68L315.8,135.45L318.47,135.14L321.15,107.45L323.82,111.42L326.5,105.68L329.18,102.23L331.85,104.77L334.53,104.34L337.2,101.82L339.88,94.42L342.56,75.41L345.23,78.44L347.91,85.37L350.59,108.69L353.26,113L355.94,107.36L361.29,81.47L363.97,92.77L366.64,91.41L369.32,83.23L372,81.67L374.67,81.61L377.35,87.34L380.02,99.63L382.7,96.83L385.38,96.08L388.05,107.75L390.73,104.5L393.41,106.5L396.08,96.87L398.76,87.27L401.43,89.68L404.11,82.4L406.79,89.07L409.46,69.4L412.14,87.15L417.49,79.61L420.17,83.37L422.84,83.7L425.52,80.77L430.87,79.75L433.55,77.68L436.23,92.95L438.9,88.52L441.58,88.67L444.25,91.14L449.61,86.93L452.28,88.53L454.96,90.44L457.64,93.89L460.31,92.65L462.99,93.45L465.66,83.84L468.34,84.37L471.02,93.18L473.69,94.53L479.05,100.65L481.72,97.91L484.4,96.59L487.07,98.07L489.75,95.55L492.43,98.47L495.1,99.48L497.78,98.22L500.45,99.85L503.13,91.45L505.81,94.88L508.48,89.98L511.16,94.17L513.84,94.14L516.51,95.22L519.19,94.21L521.86,95.13L524.54,95.14L529.89,98.23L532.57,97.69L537.92,96.73L540.6,97.34L545.95,87.28L548.63,85.73L551.3,86.96L553.98,83.05L556.66,76.7L559.33,46.46L562.01,48.64L564.68,43.41L567.36,43.11L570.04,37.2L572.71,25.05L575.39,44.71L578.07,39.35L580.74,40.47L583.42,25.4L586.09,24.49L588.77,29.46L591.45,25.21L594.12,27.39L596.8,21.75L599.48,34.77L602.15,29.92L604.83,24.37L607.5,24.79L610.18,22.1L612.86,21.34L615.53,11.27L618.21,18.6L620.89,25.09L623.56,21.74L626.24,29.71L628.91,27.22L631.59,27.69L634.27,24.63L636.94,36.01L639.62,32.61L642.3,37.2L644.97,31.1L647.65,32.09L650.32,26.39L653,27.25" style="vector-effect: non-scaling-stroke; fill: none; stroke: rgb(31, 119, 180); stroke-opacity: 1; stroke-width: 2px; opacity: 1;"/></g><g class="points"/><g class="text"/></g><g class="trace scatter traced4adfcde-39a3-481a-b27c-ccf61ff0168b" style="stroke-miterlimit: 2; opacity: 1;"><g class="fills"/><g class="errorbars"/><g class="lines"/><g class="points"><path class="point plotly-customdata" transform="translate(53.52,111.45)" d="M-4.62,2H4.62L0,-4Z" style="opacity: 1; stroke-width: 1px; fill: rgb(55, 177, 63); fill-opacity: 1; stroke: rgb(38, 123, 44); stroke-opacity: 1;"/><path class="point plotly-customdata" transform="translate(246.21,168.57)" d="M-4.62,2H4.62L0,-4Z" style="opacity: 1; stroke-width: 1px; fill: rgb(55, 177, 63); fill-opacity: 1; stroke: rgb(38, 123, 44); stroke-opacity: 1;"/><path class="point plotly-customdata" transform="translate(275.65,158.42)" d="M-4.62,2H4.62L0,-4Z" style="opacity: 1; stroke-width: 1px; fill: rgb(55, 177, 63); fill-opacity: 1; stroke: rgb(38, 123, 44); stroke-opacity: 1;"/><path class="point plotly-customdata" transform="translate(313.12,138.68)" d="M-4.62,2H4.62L0,-4Z" style="opacity: 1; stroke-width: 1px; fill: rgb(55, 177, 63); fill-opacity: 1; stroke: rgb(38, 123, 44); stroke-opacity: 1;"/><path class="point plotly-customdata" transform="translate(406.79,89.07)" d="M-4.62,2H4.62L0,-4Z" style="opacity: 1; stroke-width: 1px; fill: rgb(55, 177, 63); fill-opacity: 1; stroke: rgb(38, 123, 44); stroke-opacity: 1;"/><path class="point plotly-customdata" transform="translate(481.72,97.91)" d="M-4.62,2H4.62L0,-4Z" style="opacity: 1; stroke-width: 1px; fill: rgb(55, 177, 63); fill-opacity: 1; stroke: rgb(38, 123, 44); stroke-opacity: 1;"/><path class="point plotly-customdata" transform="translate(564.68,43.41)" d="M-4.62,2H4.62L0,-4Z" style="opacity: 1; stroke-width: 1px; fill: rgb(55, 177, 63); fill-opacity: 1; stroke: rgb(38, 123, 44); stroke-opacity: 1;"/></g><g class="text"/></g><g class="trace scatter tracede8e959b-dadf-48c9-875b-22da1f043812" style="stroke-miterlimit: 2; opacity: 1;"><g class="fills"/><g class="errorbars"/><g class="lines"/><g class="points"><path class="point plotly-customdata" transform="translate(190.01,132.23)" d="M-4.62,-2H4.62L0,4Z" style="opacity: 1; stroke-width: 1px; fill: rgb(234, 67, 53); fill-opacity: 1; stroke: rgb(181, 31, 18); stroke-opacity: 1;"/><path class="point plotly-customdata" transform="translate(264.95,148.31)" d="M-4.62,-2H4.62L0,4Z" style="opacity: 1; stroke-width: 1px; fill: rgb(234, 67, 53); fill-opacity: 1; stroke: rgb(181, 31, 18); stroke-opacity: 1;"/><path class="point plotly-customdata" transform="translate(272.98,161.54)" d="M-4.62,-2H4.62L0,4Z" style="opacity: 1; stroke-width: 1px; fill: rgb(234, 67, 53); fill-opacity: 1; stroke: rgb(181, 31, 18); stroke-opacity: 1;"/><path class="point plotly-customdata" transform="translate(283.68,167.58)" d="M-4.62,-2H4.62L0,4Z" style="opacity: 1; stroke-width: 1px; fill: rgb(234, 67, 53); fill-opacity: 1; stroke: rgb(181, 31, 18); stroke-opacity: 1;"/><path class="point plotly-customdata" transform="translate(326.5,105.68)" d="M-4.62,-2H4.62L0,4Z" style="opacity: 1; stroke-width: 1px; fill: rgb(234, 67, 53); fill-opacity: 1; stroke: rgb(181, 31, 18); stroke-opacity: 1;"/><path class="point plotly-customdata" transform="translate(350.59,108.69)" d="M-4.62,-2H4.62L0,4Z" style="opacity: 1; stroke-width: 1px; fill: rgb(234, 67, 53); fill-opacity: 1; stroke: rgb(181, 31, 18); stroke-opacity: 1;"/><path class="point plotly-customdata" transform="translate(505.81,94.88)" d="M-4.62,-2H4.62L0,4Z" style="opacity: 1; stroke-width: 1px; fill: rgb(234, 67, 53); fill-opacity: 1; stroke: rgb(181, 31, 18); stroke-opacity: 1;"/><path class="point plotly-customdata" transform="translate(543.27,91.47)" d="M-4.62,-2H4.62L0,4Z" style="opacity: 1; stroke-width: 1px; fill: rgb(234, 67, 53); fill-opacity: 1; stroke: rgb(181, 31, 18); stroke-opacity: 1;"/><path class="point plotly-customdata" transform="translate(575.39,44.71)" d="M-4.62,-2H4.62L0,4Z" style="opacity: 1; stroke-width: 1px; fill: rgb(234, 67, 53); fill-opacity: 1; stroke: rgb(181, 31, 18); stroke-opacity: 1;"/></g><g class="text"/></g></g></g><g class="overplot"/><path class="xlines-above crisp" d="M0,0" style="fill: none;"/><path class="ylines-above crisp" d="M0,0" style="fill: none;"/><g class="overlines-above"/><g class="xaxislayer-above"/><g class="yaxislayer-above"><g class="ytick"><text text-anchor="end" x="66" y="4.199999999999999" transform="translate(0,250.46)" style="font-family: 'Open Sans', verdana, arial, sans-serif; font-size: 12px; fill: rgb(42, 63, 95); fill-opacity: 1; white-space: pre;">6k</text></g><g class="ytick"><text text-anchor="end" x="66" y="4.199999999999999" transform="translate(0,194.76)" style="font-family: 'Open Sans', verdana, arial, sans-serif; font-size: 12px; fill: rgb(42, 63, 95); fill-opacity: 1; white-space: pre;">8k</text></g><g class="ytick"><text text-anchor="end" x="66" y="4.199999999999999" transform="translate(0,139.06)" style="font-family: 'Open Sans', verdana, arial, sans-serif; font-size: 12px; fill: rgb(42, 63, 95); fill-opacity: 1; white-space: pre;">10k</text></g><g class="ytick"><text text-anchor="end" x="66" y="4.199999999999999" transform="translate(0,83.36)" style="font-family: 'Open Sans', verdana, arial, sans-serif; font-size: 12px; fill: rgb(42, 63, 95); fill-opacity: 1; white-space: pre;">12k</text></g></g><g class="overaxes-above"/></g><g class="subplot x2y2"><g class="layer-subplot"><g class="shapelayer"/><g class="imagelayer"/></g><g class="gridlayer"><g class="x2"><path class="x2grid crisp" transform="translate(69.68,0)" d="M0,322.6v225.4" style="stroke: rgb(255, 255, 255); stroke-opacity: 1; stroke-width: 1px;"/><path class="x2grid crisp" transform="translate(152.64,0)" d="M0,322.6v225.4" style="stroke: rgb(255, 255, 255); stroke-opacity: 1; stroke-width: 1px;"/><path class="x2grid crisp" transform="translate(230.25,0)" d="M0,322.6v225.4" style="stroke: rgb(255, 255, 255); stroke-opacity: 1; stroke-width: 1px;"/><path class="x2grid crisp" transform="translate(313.21000000000004,0)" d="M0,322.6v225.4" style="stroke: rgb(255, 255, 255); stroke-opacity: 1; stroke-width: 1px;"/><path class="x2grid crisp" transform="translate(393.5,0)" d="M0,322.6v225.4" style="stroke: rgb(255, 255, 255); stroke-opacity: 1; stroke-width: 1px;"/><path class="x2grid crisp" transform="translate(476.46,0)" d="M0,322.6v225.4" style="stroke: rgb(255, 255, 255); stroke-opacity: 1; stroke-width: 1px;"/><path class="x2grid crisp" transform="translate(556.75,0)" d="M0,322.6v225.4" style="stroke: rgb(255, 255, 255); stroke-opacity: 1; stroke-width: 1px;"/><path class="x2grid crisp" transform="translate(639.71,0)" d="M0,322.6v225.4" style="stroke: rgb(255, 255, 255); stroke-opacity: 1; stroke-width: 1px;"/></g><g class="y2"><path class="y2grid crisp" transform="translate(0,546.9300000000001)" d="M67,0h653" style="stroke: rgb(255, 255, 255); stroke-opacity: 1; stroke-width: 1px;"/><path class="y2grid crisp" transform="translate(0,492.02)" d="M67,0h653" style="stroke: rgb(255, 255, 255); stroke-opacity: 1; stroke-width: 1px;"/><path class="y2grid crisp" transform="translate(0,382.18)" d="M67,0h653" style="stroke: rgb(255, 255, 255); stroke-opacity: 1; stroke-width: 1px;"/><path class="y2grid crisp" transform="translate(0,327.26000000000005)" d="M67,0h653" style="stroke: rgb(255, 255, 255); stroke-opacity: 1; stroke-width: 1px;"/></g></g><g class="zerolinelayer"><path class="y2zl zl crisp" transform="translate(0,437.1)" d="M67,0h653" style="stroke: rgb(255, 255, 255); stroke-opacity: 1; stroke-width: 2px;"/></g><path class="xlines-below"/><path class="ylines-below"/><g class="overlines-below"/><g class="xaxislayer-below"/><g class="yaxislayer-below"/><g class="overaxes-below"/><g class="plot" transform="translate(67, 322.6)" clip-path="url('#clip56ec62x2y2plot')"><g class="scatterlayer mlayer"><g class="trace scatter trace6ed362a7-e49a-4a8a-bf98-f3574b669ce0" style="stroke-miterlimit: 2; opacity: 1;"><g class="fills"/><g class="errorbars"/><g class="lines"><path class="js-line" d="M0,114.5L34.79,114.5L37.47,177.69L40.14,114.5L42.82,114.5L50.85,114.5L53.52,109.06L56.2,114.5L58.88,114.5L187.34,114.5L190.01,184.04L192.69,114.5L195.36,114.5L198.04,160.16L200.72,114.5L230.16,114.5L232.83,124.15L235.51,114.5L238.18,114.5L243.54,114.5L246.21,41.47L248.89,114.5L251.57,114.5L262.27,114.5L264.95,180.47L267.62,114.5L270.3,114.5L272.98,129.45L275.65,111.37L278.33,114.5L281,114.5L283.68,184.39L286.36,114.5L310.44,114.5L313.12,51.85L315.8,114.5L318.47,114.5L323.82,114.5L326.5,160.36L329.18,114.5L331.85,114.5L347.91,114.5L350.59,214.13L353.26,114.5L355.94,114.5L404.11,114.5L406.79,94.2L409.46,114.5L412.14,114.5L479.05,114.5L481.72,11.27L484.4,114.5L487.07,114.5L503.13,114.5L505.81,157.5L508.48,114.5L511.16,114.5L540.6,114.5L543.27,143.85L545.95,114.5L548.63,114.5L562.01,114.5L564.68,89.93L567.36,114.5L570.04,114.5L572.71,114.5L575.39,193.69L578.07,114.5L580.74,114.5L653,114.5" style="vector-effect: non-scaling-stroke; fill: none; stroke: rgb(220, 57, 18); stroke-opacity: 1; stroke-width: 2px; opacity: 1;"/></g><g class="points"/><g class="text"/></g></g></g><g class="overplot"/><path class="xlines-above crisp" d="M0,0" style="fill: none;"/><path class="ylines-above crisp" d="M0,0" style="fill: none;"/><g class="overlines-above"/><g class="xaxislayer-above"><g class="x2tick"><text text-anchor="middle" x="0" y="561" transform="translate(69.68,0)" style="font-family: 'Open Sans', verdana, arial, sans-serif; font-size: 12px; fill: rgb(42, 63, 95); fill-opacity: 1; white-space: pre;">Jan 2020</text></g><g class="x2tick"><text text-anchor="middle" x="0" y="561" transform="translate(152.64,0)" style="font-family: 'Open Sans', verdana, arial, sans-serif; font-size: 12px; fill: rgb(42, 63, 95); fill-opacity: 1; white-space: pre;">Feb 2020</text></g><g class="x2tick"><text text-anchor="middle" x="0" y="561" transform="translate(230.25,0)" style="font-family: 'Open Sans', verdana, arial, sans-serif; font-size: 12px; fill: rgb(42, 63, 95); fill-opacity: 1; white-space: pre;">Mar 2020</text></g><g class="x2tick"><text text-anchor="middle" x="0" y="561" transform="translate(313.21000000000004,0)" style="font-family: 'Open Sans', verdana, arial, sans-serif; font-size: 12px; fill: rgb(42, 63, 95); fill-opacity: 1; white-space: pre;">Apr 2020</text></g><g class="x2tick"><text text-anchor="middle" x="0" y="561" transform="translate(393.5,0)" style="font-family: 'Open Sans', verdana, arial, sans-serif; font-size: 12px; fill: rgb(42, 63, 95); fill-opacity: 1; white-space: pre;">May 2020</text></g><g class="x2tick"><text text-anchor="middle" x="0" y="561" transform="translate(476.46,0)" style="font-family: 'Open Sans', verdana, arial, sans-serif; font-size: 12px; fill: rgb(42, 63, 95); fill-opacity: 1; white-space: pre;">Jun 2020</text></g><g class="x2tick"><text text-anchor="middle" x="0" y="561" transform="translate(556.75,0)" style="font-family: 'Open Sans', verdana, arial, sans-serif; font-size: 12px; fill: rgb(42, 63, 95); fill-opacity: 1; white-space: pre;">Jul 2020</text></g><g class="x2tick"><text text-anchor="middle" x="0" y="561" transform="translate(639.71,0)" style="font-family: 'Open Sans', verdana, arial, sans-serif; font-size: 12px; fill: rgb(42, 63, 95); fill-opacity: 1; white-space: pre;">Aug 2020</text></g></g><g class="yaxislayer-above"><g class="y2tick"><text text-anchor="end" x="66" y="4.199999999999999" transform="translate(0,546.9300000000001)" style="font-family: 'Open Sans', verdana, arial, sans-serif; font-size: 12px; fill: rgb(42, 63, 95); fill-opacity: 1; white-space: pre;">−1</text></g><g class="y2tick"><text text-anchor="end" x="66" y="4.199999999999999" transform="translate(0,492.02)" style="font-family: 'Open Sans', verdana, arial, sans-serif; font-size: 12px; fill: rgb(42, 63, 95); fill-opacity: 1; white-space: pre;">−0.5</text></g><g class="y2tick"><text text-anchor="end" x="66" y="4.199999999999999" transform="translate(0,437.1)" style="font-family: 'Open Sans', verdana, arial, sans-serif; font-size: 12px; fill: rgb(42, 63, 95); fill-opacity: 1; white-space: pre;">0</text></g><g class="y2tick"><text text-anchor="end" x="66" y="4.199999999999999" transform="translate(0,382.18)" style="font-family: 'Open Sans', verdana, arial, sans-serif; font-size: 12px; fill: rgb(42, 63, 95); fill-opacity: 1; white-space: pre;">0.5</text></g><g class="y2tick"><text text-anchor="end" x="66" y="4.199999999999999" transform="translate(0,327.26000000000005)" style="font-family: 'Open Sans', verdana, arial, sans-serif; font-size: 12px; fill: rgb(42, 63, 95); fill-opacity: 1; white-space: pre;">1</text></g></g><g class="overaxes-above"/></g></g><g class="polarlayer"/><g class="ternarylayer"/><g class="geolayer"/><g class="funnelarealayer"/><g class="pielayer"/><g class="treemaplayer"/><g class="sunburstlayer"/><g class="glimages"/><defs id="topdefs-56ec62"><g class="clips"/><clipPath id="legend56ec62"><rect width="321" height="29" x="0" y="0"/></clipPath></defs><g class="layer-above"><g class="imagelayer"/><g class="shapelayer"/></g><g class="infolayer"><g class="legend" pointer-events="all" transform="translate(399, 11.84999999999998)"><rect class="bg" shape-rendering="crispEdges" style="stroke: rgb(68, 68, 68); stroke-opacity: 1; fill: rgb(255, 255, 255); fill-opacity: 1; stroke-width: 0px;" width="321" height="29" x="0" y="0"/><g class="scrollbox" transform="translate(0, 0)" clip-path="url('#legend56ec62')"><g class="groups"><g class="traces" transform="translate(0, 14.5)" style="opacity: 1;"><text class="legendtext" text-anchor="start" x="40" y="4.680000000000001" style="font-family: 'Open Sans', verdana, arial, sans-serif; font-size: 12px; fill: rgb(42, 63, 95); fill-opacity: 1; white-space: pre;">Close</text><g class="layers" style="opacity: 1;"><g class="legendfill"/><g class="legendlines"><path class="js-line" d="M5,0h30" style="fill: none; stroke: rgb(31, 119, 180); stroke-opacity: 1; stroke-width: 2px;"/></g><g class="legendsymbols"><g class="legendpoints"/></g></g><rect class="legendtoggle" x="0" y="-9.5" width="74.859375" height="19" style="fill: rgb(0, 0, 0); fill-opacity: 0;"/></g><g class="traces" transform="translate(77.359375, 14.5)" style="opacity: 1;"><text class="legendtext" text-anchor="start" x="40" y="4.680000000000001" style="font-family: 'Open Sans', verdana, arial, sans-serif; font-size: 12px; fill: rgb(42, 63, 95); fill-opacity: 1; white-space: pre;">Buy</text><g class="layers" style="opacity: 1;"><g class="legendfill"/><g class="legendlines"/><g class="legendsymbols"><g class="legendpoints"><path class="scatterpts" transform="translate(20,0)" d="M-4.62,2H4.62L0,-4Z" style="opacity: 1; stroke-width: 1px; fill: rgb(55, 177, 63); fill-opacity: 1; stroke: rgb(38, 123, 44); stroke-opacity: 1;"/></g></g></g><rect class="legendtoggle" x="0" y="-9.5" width="65.421875" height="19" style="fill: rgb(0, 0, 0); fill-opacity: 0;"/></g><g class="traces" transform="translate(145.28125, 14.5)" style="opacity: 1;"><text class="legendtext" text-anchor="start" x="40" y="4.680000000000001" style="font-family: 'Open Sans', verdana, arial, sans-serif; font-size: 12px; fill: rgb(42, 63, 95); fill-opacity: 1; white-space: pre;">Sell</text><g class="layers" style="opacity: 1;"><g class="legendfill"/><g class="legendlines"/><g class="legendsymbols"><g class="legendpoints"><path class="scatterpts" transform="translate(20,0)" d="M-4.62,-2H4.62L0,4Z" style="opacity: 1; stroke-width: 1px; fill: rgb(234, 67, 53); fill-opacity: 1; stroke: rgb(181, 31, 18); stroke-opacity: 1;"/></g></g></g><rect class="legendtoggle" x="0" y="-9.5" width="64.4375" height="19" style="fill: rgb(0, 0, 0); fill-opacity: 0;"/></g><g class="traces" transform="translate(212.21875, 14.5)" style="opacity: 1;"><text class="legendtext" text-anchor="start" x="40" y="4.680000000000001" style="font-family: 'Open Sans', verdana, arial, sans-serif; font-size: 12px; fill: rgb(42, 63, 95); fill-opacity: 1; white-space: pre;">Order Size</text><g class="layers" style="opacity: 1;"><g class="legendfill"/><g class="legendlines"><path class="js-line" d="M5,0h30" style="fill: none; stroke: rgb(220, 57, 18); stroke-opacity: 1; stroke-width: 2px;"/></g><g class="legendsymbols"><g class="legendpoints"/></g></g><rect class="legendtoggle" x="0" y="-9.5" width="105.984375" height="19" style="fill: rgb(0, 0, 0); fill-opacity: 0;"/></g></g></g><rect class="scrollbar" rx="20" ry="3" width="0" height="0" style="fill: rgb(128, 139, 164); fill-opacity: 1;" x="0" y="0"/></g><g class="g-gtitle"/><g class="g-xtitle"/><g class="g-x2title"><text class="x2title" x="393.5" y="588.3" text-anchor="middle" style="font-family: 'Open Sans', verdana, arial, sans-serif; font-size: 14px; fill: rgb(42, 63, 95); opacity: 1; font-weight: normal; white-space: pre;">Date</text></g><g class="g-ytitle"><text class="ytitle" transform="rotate(-90,18.840625000000003,177.7)" x="18.840625000000003" y="177.7" text-anchor="middle" style="font-family: 'Open Sans', verdana, arial, sans-serif; font-size: 14px; fill: rgb(42, 63, 95); opacity: 1; font-weight: normal; white-space: pre;">Price</text></g><g class="g-y2title" transform="translate(2.255859375,0)"><text class="y2title" transform="rotate(-90,11.746875000000003,435.3)" x="11.746875000000003" y="435.3" text-anchor="middle" style="font-family: 'Open Sans', verdana, arial, sans-serif; font-size: 14px; fill: rgb(42, 63, 95); opacity: 1; font-weight: normal; white-space: pre;">Order Size</text></g><g class="annotation" data-index="0" style="opacity: 1;"><g class="annotation-text-g" transform="rotate(0,393.5,53)"><g class="cursor-pointer" transform="translate(365, 41)"><rect class="bg" x="0.5" y="0.5" width="57" height="23" style="stroke-width: 1px; stroke: rgb(0, 0, 0); stroke-opacity: 0; fill: rgb(0, 0, 0); fill-opacity: 0;"/><text class="annotation-text" text-anchor="middle" x="29.046875" y="18" style="font-family: 'Open Sans', verdana, arial, sans-serif; font-size: 16px; fill: rgb(42, 63, 95); fill-opacity: 1; white-space: pre;">Orders</text></g></g></g><g class="annotation" data-index="1" style="opacity: 1;"><g class="annotation-text-g" transform="rotate(0,393.5,310.6)"><g class="cursor-pointer" transform="translate(349, 299)"><rect class="bg" x="0.5" y="0.5" width="88" height="23" style="stroke-width: 1px; stroke: rgb(0, 0, 0); stroke-opacity: 0; fill: rgb(0, 0, 0); fill-opacity: 0;"/><text class="annotation-text" text-anchor="middle" x="44.328125" y="18" style="font-family: 'Open Sans', verdana, arial, sans-serif; font-size: 16px; fill: rgb(42, 63, 95); fill-opacity: 1; white-space: pre;">Order Size</text></g></g></g></g></svg>