<?xml version="1.0" standalone="no"?>
<!DOCTYPE svg PUBLIC "-//W3C//DTD SVG 20010904//EN"
 "http://www.w3.org/TR/2001/REC-SVG-20010904/DTD/svg10.dtd">
<svg version="1.0" xmlns="http://www.w3.org/2000/svg"
 width="700.000000pt" height="700.000000pt" viewBox="0 0 700.000000 700.000000"
 preserveAspectRatio="xMidYMid meet">
<metadata>
Created by potrace 1.14, written by Peter Selinger 2001-2017
</metadata>
<g transform="translate(0.000000,700.000000) scale(0.100000,-0.100000)"
fill="#000000" stroke="none">
<path d="M303 6413 c-8 -3 -8 -15 -1 -40 5 -19 11 -43 13 -52 7 -34 106 -451
110 -463 2 -7 6 -24 9 -38 5 -26 91 -391 172 -730 14 -58 27 -112 29 -120 11
-53 62 -266 99 -422 25 -101 47 -194 50 -208 2 -14 16 -72 30 -130 22 -86 51
-211 71 -300 2 -8 18 -73 35 -145 17 -71 33 -137 35 -146 2 -9 15 -65 30 -125
30 -125 33 -135 44 -189 5 -22 37 -157 71 -300 35 -143 71 -296 81 -340 103
-437 182 -773 279 -1175 27 -113 51 -216 54 -230 3 -14 30 -131 61 -260 31
-129 58 -244 61 -255 2 -11 12 -51 22 -90 l17 -70 453 -1 c453 0 453 0 447 20
-3 12 -8 29 -10 39 -2 10 -18 75 -35 145 -17 70 -34 138 -36 150 -3 13 -27
114 -53 225 -53 218 -115 479 -116 487 -1 7 -21 90 -65 275 -21 88 -53 221
-70 295 -17 74 -44 189 -60 255 -37 153 -104 440 -136 575 -23 98 -33 141 -40
165 -2 6 -6 24 -9 40 -3 17 -11 48 -17 70 -10 39 -15 60 -23 101 -9 41 -75
319 -85 354 -5 19 -23 94 -39 165 -17 72 -44 189 -61 260 -51 211 -101 424
-115 488 -17 78 -118 499 -125 527 -9 31 -73 299 -105 440 -7 30 -27 116 -45
190 -17 74 -34 144 -36 155 -6 33 -85 358 -93 385 l-8 25 -439 1 c-242 0 -445
-1 -451 -3z"/>
<path d="M1444 6384 c3 -18 19 -88 35 -156 17 -68 71 -296 121 -508 50 -212
99 -421 110 -465 51 -217 74 -312 106 -444 19 -79 36 -153 39 -165 2 -11 29
-127 60 -256 31 -129 58 -242 60 -250 1 -9 22 -94 45 -190 23 -96 50 -211 60
-255 10 -44 30 -129 44 -190 15 -60 29 -121 33 -135 3 -14 7 -30 8 -36 2 -5
17 -68 34 -140 60 -251 206 -867 261 -1104 11 -47 33 -141 50 -210 31 -129
158 -663 191 -805 10 -44 41 -172 67 -285 l48 -205 453 0 453 0 82 160 c46 88
145 282 221 430 76 149 179 351 230 450 51 99 147 288 215 420 68 132 162 317
210 410 48 94 139 271 202 395 64 124 165 322 225 440 61 118 159 310 218 425
59 116 149 291 200 390 51 99 145 284 210 410 65 127 164 320 220 430 56 110
155 304 220 430 132 259 260 509 423 826 l111 216 -450 -1 -450 -1 -100 -195
c-154 -299 -424 -824 -569 -1105 -115 -223 -270 -525 -388 -755 -52 -102 -131
-257 -177 -345 -78 -152 -176 -342 -405 -790 -56 -110 -142 -276 -190 -370
-48 -93 -156 -305 -241 -470 -84 -165 -187 -366 -228 -447 -41 -81 -77 -146
-79 -143 -2 2 -19 68 -37 147 -39 169 -101 434 -151 643 -19 83 -37 157 -39
165 -2 8 -15 67 -30 130 -15 63 -28 122 -30 130 -13 56 -58 245 -70 290 -12
48 -61 259 -70 300 -2 8 -8 33 -13 55 -6 22 -13 51 -16 65 -2 14 -16 72 -30
130 -53 217 -128 534 -151 640 -2 8 -15 63 -29 123 -14 59 -37 155 -51 215
-14 59 -28 118 -32 132 -3 14 -8 32 -9 41 -2 9 -19 82 -39 163 -19 81 -37 157
-39 169 -3 12 -14 60 -26 107 -11 47 -22 92 -24 100 -2 8 -6 26 -9 40 -10 41
-39 162 -43 182 -2 10 -6 26 -8 36 -18 75 -79 330 -81 342 -2 8 -8 35 -14 60
-7 25 -14 54 -16 65 -2 11 -12 49 -20 86 l-16 65 -450 0 -450 1 5 -33z"/>
<path d="M4623 6366 c-27 -54 -146 -285 -298 -581 -51 -99 -141 -274 -200
-390 -59 -115 -145 -282 -190 -370 -45 -88 -140 -272 -210 -410 -71 -137 -150
-292 -177 -344 l-48 -93 40 -170 c22 -93 42 -179 44 -191 2 -12 13 -58 24
-102 12 -44 23 -91 26 -105 14 -63 27 -122 46 -200 11 -47 23 -96 26 -109 3
-13 12 -51 20 -85 8 -34 17 -72 20 -86 5 -27 22 -94 31 -123 3 -14 14 -1 40
50 124 244 317 621 383 748 43 83 122 238 178 345 55 107 138 269 185 360 46
91 133 260 192 375 59 116 145 282 190 370 45 88 133 259 195 380 62 121 139
270 170 330 76 145 213 416 222 436 5 14 -38 15 -439 15 l-445 0 -25 -50z"/>
</g>
</svg>
